0
SECTION
2
HEADER
9
$ACADVER
1
AC1009
9
$INSUNITS
70
4.000000
9
$MEASUREMENT
70
1.000000
0
ENDSEC
0
SECTION
2
TABLES
0
TABLE
2
LAYER
70
7.000000
0
LAYER
2
DRILL_4.5_THRU
70
0.000000
62
5.000000
6
CONTINUOUS
0
LAYER
2
LABEL
70
0.000000
62
8.000000
6
CONTINUOUS
0
LAYER
2
OUTLINE
70
0.000000
62
7.000000
6
CONTINUOUS
0
LAYER
2
POCKET_D4
70
0.000000
62
3.000000
6
CONTINUOUS
0
LAYER
2
POCKET_D6
70
0.000000
62
3.000000
6
CONTINUOUS
0
LAYER
2
SHEET
70
0.000000
62
8.000000
6
CONTINUOUS
0
LAYER
2
THROUGH
70
0.000000
62
1.000000
6
CONTINUOUS
0
ENDTAB
0
ENDSEC
0
SECTION
2
ENTITIES
0
POLYLINE
8
SHEET
66
1.000000
70
1.000000
10
0.000000
20
0.000000
30
0.000000
0
VERTEX
8
SHEET
10
0.000000
20
0.000000
30
0.000000
0
VERTEX
8
SHEET
10
2440.000000
20
0.000000
30
0.000000
0
VERTEX
8
SHEET
10
2440.000000
20
1220.000000
30
0.000000
0
VERTEX
8
SHEET
10
0.000000
20
1220.000000
30
0.000000
0
SEQEND
8
SHEET
0
POLYLINE
8
OUTLINE
66
1.000000
70
1.000000
10
0.000000
20
0.000000
30
0.000000
0
VERTEX
8
OUTLINE
10
27.800000
20
10.000000
30
0.000000
0
VERTEX
8
OUTLINE
10
892.200000
20
10.000000
30
0.000000
0
VERTEX
8
OUTLINE
10
892.200000
20
72.901924
30
0.000000
42
-7.595754
0
VERTEX
8
OUTLINE
10
893.298076
20
74.000000
30
0.000000
0
VERTEX
8
OUTLINE
10
910.000000
20
74.000000
30
0.000000
0
VERTEX
8
OUTLINE
10
910.000000
20
114.000000
30
0.000000
0
VERTEX
8
OUTLINE
10
893.298076
20
114.000000
30
0.000000
42
-7.595754
0
VERTEX
8
OUTLINE
10
892.200000
20
115.098076
30
0.000000
0
VERTEX
8
OUTLINE
10
892.200000
20
180.901924
30
0.000000
42
-7.595754
0
VERTEX
8
OUTLINE
10
893.298076
20
182.000000
30
0.000000
0
VERTEX
8
OUTLINE
10
910.000000
20
182.000000
30
0.000000
0
VERTEX
8
OUTLINE
10
910.000000
20
222.000000
30
0.000000
0
VERTEX
8
OUTLINE
10
893.298076
20
222.000000
30
0.000000
42
-7.595754
0
VERTEX
8
OUTLINE
10
892.200000
20
223.098076
30
0.000000
0
VERTEX
8
OUTLINE
10
892.200000
20
288.901924
30
0.000000
42
-7.595754
0
VERTEX
8
OUTLINE
10
893.298076
20
290.000000
30
0.000000
0
VERTEX
8
OUTLINE
10
910.000000
20
290.000000
30
0.000000
0
VERTEX
8
OUTLINE
10
910.000000
20
330.000000
30
0.000000
0
VERTEX
8
OUTLINE
10
893.298076
20
330.000000
30
0.000000
42
-7.595754
0
VERTEX
8
OUTLINE
10
892.200000
20
331.098076
30
0.000000
0
VERTEX
8
OUTLINE
10
892.200000
20
396.901924
30
0.000000
42
-7.595754
0
VERTEX
8
OUTLINE
10
893.298076
20
398.000000
30
0.000000
0
VERTEX
8
OUTLINE
10
910.000000
20
398.000000
30
0.000000
0
VERTEX
8
OUTLINE
10
910.000000
20
438.000000
30
0.000000
0
VERTEX
8
OUTLINE
10
893.298076
20
438.000000
30
0.000000
42
-7.595754
0
VERTEX
8
OUTLINE
10
892.200000
20
439.098076
30
0.000000
0
VERTEX
8
OUTLINE
10
892.200000
20
504.901924
30
0.000000
42
-7.595754
0
VERTEX
8
OUTLINE
10
893.298076
20
506.000000
30
0.000000
0
VERTEX
8
OUTLINE
10
910.000000
20
506.000000
30
0.000000
0
VERTEX
8
OUTLINE
10
910.000000
20
546.000000
30
0.000000
0
VERTEX
8
OUTLINE
10
893.298076
20
546.000000
30
0.000000
42
-7.595754
0
VERTEX
8
OUTLINE
10
892.200000
20
547.098076
30
0.000000
0
VERTEX
8
OUTLINE
10
892.200000
20
610.000000
30
0.000000
0
VERTEX
8
OUTLINE
10
27.800000
20
610.000000
30
0.000000
0
VERTEX
8
OUTLINE
10
27.800000
20
547.098076
30
0.000000
42
-7.595754
0
VERTEX
8
OUTLINE
10
26.701924
20
546.000000
30
0.000000
0
VERTEX
8
OUTLINE
10
10.000000
20
546.000000
30
0.000000
0
VERTEX
8
OUTLINE
10
10.000000
20
506.000000
30
0.000000
0
VERTEX
8
OUTLINE
10
26.701924
20
506.000000
30
0.000000
42
-7.595754
0
VERTEX
8
OUTLINE
10
27.800000
20
504.901924
30
0.000000
0
VERTEX
8
OUTLINE
10
27.800000
20
439.098076
30
0.000000
42
-7.595754
0
VERTEX
8
OUTLINE
10
26.701924
20
438.000000
30
0.000000
0
VERTEX
8
OUTLINE
10
10.000000
20
438.000000
30
0.000000
0
VERTEX
8
OUTLINE
10
10.000000
20
398.000000
30
0.000000
0
VERTEX
8
OUTLINE
10
26.701924
20
398.000000
30
0.000000
42
-7.595754
0
VERTEX
8
OUTLINE
10
27.800000
20
396.901924
30
0.000000
0
VERTEX
8
OUTLINE
10
27.800000
20
331.098076
30
0.000000
42
-7.595754
0
VERTEX
8
OUTLINE
10
26.701924
20
330.000000
30
0.000000
0
VERTEX
8
OUTLINE
10
10.000000
20
330.000000
30
0.000000
0
VERTEX
8
OUTLINE
10
10.000000
20
290.000000
30
0.000000
0
VERTEX
8
OUTLINE
10
26.701924
20
290.000000
30
0.000000
42
-7.595754
0
VERTEX
8
OUTLINE
10
27.800000
20
288.901924
30
0.000000
0
VERTEX
8
OUTLINE
10
27.800000
20
223.098076
30
0.000000
42
-7.595754
0
VERTEX
8
OUTLINE
10
26.701924
20
222.000000
30
0.000000
0
VERTEX
8
OUTLINE
10
10.000000
20
222.000000
30
0.000000
0
VERTEX
8
OUTLINE
10
10.000000
20
182.000000
30
0.000000
0
VERTEX
8
OUTLINE
10
26.701924
20
182.000000
30
0.000000
42
-7.595754
0
VERTEX
8
OUTLINE
10
27.800000
20
180.901924
30
0.000000
0
VERTEX
8
OUTLINE
10
27.800000
20
115.098076
30
0.000000
42
-7.595754
0
VERTEX
8
OUTLINE
10
26.701924
20
114.000000
30
0.000000
0
VERTEX
8
OUTLINE
10
10.000000
20
114.000000
30
0.000000
0
VERTEX
8
OUTLINE
10
10.000000
20
74.000000
30
0.000000
0
VERTEX
8
OUTLINE
10
26.701924
20
74.000000
30
0.000000
42
-7.595754
0
VERTEX
8
OUTLINE
10
27.800000
20
72.901924
30
0.000000
0
SEQEND
8
OUTLINE
0
POLYLINE
8
THROUGH
66
1.000000
70
1.000000
10
0.000000
20
0.000000
30
0.000000
0
VERTEX
8
THROUGH
10
451.025000
20
85.535576
30
0.000000
42
7.595754
0
VERTEX
8
THROUGH
10
452.123076
20
84.437500
30
0.000000
0
VERTEX
8
THROUGH
10
467.876924
20
84.437500
30
0.000000
42
7.595754
0
VERTEX
8
THROUGH
10
468.975000
20
85.535576
30
0.000000
0
VERTEX
8
THROUGH
10
468.975000
20
123.489424
30
0.000000
42
7.595754
0
VERTEX
8
THROUGH
10
467.876924
20
124.587500
30
0.000000
0
VERTEX
8
THROUGH
10
452.123076
20
124.587500
30
0.000000
42
7.595754
0
VERTEX
8
THROUGH
10
451.025000
20
123.489424
30
0.000000
0
SEQEND
8
THROUGH
0
POLYLINE
8
THROUGH
66
1.000000
70
1.000000
10
0.000000
20
0.000000
30
0.000000
0
VERTEX
8
THROUGH
10
451.025000
20
214.560576
30
0.000000
42
7.595754
0
VERTEX
8
THROUGH
10
452.123076
20
213.462500
30
0.000000
0
VERTEX
8
THROUGH
10
467.876924
20
213.462500
30
0.000000
42
7.595754
0
VERTEX
8
THROUGH
10
468.975000
20
214.560576
30
0.000000
0
VERTEX
8
THROUGH
10
468.975000
20
252.514424
30
0.000000
42
7.595754
0
VERTEX
8
THROUGH
10
467.876924
20
253.612500
30
0.000000
0
VERTEX
8
THROUGH
10
452.123076
20
253.612500
30
0.000000
42
7.595754
0
VERTEX
8
THROUGH
10
451.025000
20
252.514424
30
0.000000
0
SEQEND
8
THROUGH
0
POLYLINE
8
THROUGH
66
1.000000
70
1.000000
10
0.000000
20
0.000000
30
0.000000
0
VERTEX
8
THROUGH
10
451.025000
20
343.585576
30
0.000000
42
7.595754
0
VERTEX
8
THROUGH
10
452.123076
20
342.487500
30
0.000000
0
VERTEX
8
THROUGH
10
467.876924
20
342.487500
30
0.000000
42
7.595754
0
VERTEX
8
THROUGH
10
468.975000
20
343.585576
30
0.000000
0
VERTEX
8
THROUGH
10
468.975000
20
381.539424
30
0.000000
42
7.595754
0
VERTEX
8
THROUGH
10
467.876924
20
382.637500
30
0.000000
0
VERTEX
8
THROUGH
10
452.123076
20
382.637500
30
0.000000
42
7.595754
0
VERTEX
8
THROUGH
10
451.025000
20
381.539424
30
0.000000
0
SEQEND
8
THROUGH
0
POLYLINE
8
THROUGH
66
1.000000
70
1.000000
10
0.000000
20
0.000000
30
0.000000
0
VERTEX
8
THROUGH
10
451.025000
20
472.610576
30
0.000000
42
7.595754
0
VERTEX
8
THROUGH
10
452.123076
20
471.512500
30
0.000000
0
VERTEX
8
THROUGH
10
467.876924
20
471.512500
30
0.000000
42
7.595754
0
VERTEX
8
THROUGH
10
468.975000
20
472.610576
30
0.000000
0
VERTEX
8
THROUGH
10
468.975000
20
510.564424
30
0.000000
42
7.595754
0
VERTEX
8
THROUGH
10
467.876924
20
511.662500
30
0.000000
0
VERTEX
8
THROUGH
10
452.123076
20
511.662500
30
0.000000
42
7.595754
0
VERTEX
8
THROUGH
10
451.025000
20
510.564424
30
0.000000
0
SEQEND
8
THROUGH
0
POLYLINE
8
POCKET_D6
66
1.000000
70
1.000000
10
0.000000
20
0.000000
30
0.000000
0
VERTEX
8
POCKET_D6
10
27.800000
20
586.025000
30
0.000000
0
VERTEX
8
POCKET_D6
10
892.200000
20
586.025000
30
0.000000
0
VERTEX
8
POCKET_D6
10
892.200000
20
598.075000
30
0.000000
0
VERTEX
8
POCKET_D6
10
27.800000
20
598.075000
30
0.000000
0
SEQEND
8
POCKET_D6
0
POLYLINE
8
OUTLINE
66
1.000000
70
1.000000
10
0.000000
20
0.000000
30
0.000000
0
VERTEX
8
OUTLINE
10
980.000000
20
10.000000
30
0.000000
0
VERTEX
8
OUTLINE
10
1880.000000
20
10.000000
30
0.000000
0
VERTEX
8
OUTLINE
10
1880.000000
20
610.000000
30
0.000000
0
VERTEX
8
OUTLINE
10
980.000000
20
610.000000
30
0.000000
0
SEQEND
8
OUTLINE
0
POLYLINE
8
POCKET_D4
66
1.000000
70
1.000000
10
0.000000
20
0.000000
30
0.000000
0
VERTEX
8
POCKET_D4
10
1862.125000
20
20.000000
30
0.000000
0
VERTEX
8
POCKET_D4
10
1880.075000
20
20.000000
30
0.000000
0
VERTEX
8
POCKET_D4
10
1880.075000
20
610.000000
30
0.000000
0
VERTEX
8
POCKET_D4
10
1862.125000
20
610.000000
30
0.000000
0
SEQEND
8
POCKET_D4
0
POLYLINE
8
POCKET_D4
66
1.000000
70
1.000000
10
0.000000
20
0.000000
30
0.000000
0
VERTEX
8
POCKET_D4
10
979.925000
20
20.000000
30
0.000000
0
VERTEX
8
POCKET_D4
10
997.875000
20
20.000000
30
0.000000
0
VERTEX
8
POCKET_D4
10
997.875000
20
610.000000
30
0.000000
0
VERTEX
8
POCKET_D4
10
979.925000
20
610.000000
30
0.000000
0
SEQEND
8
POCKET_D4
0
POLYLINE
8
THROUGH
66
1.000000
70
1.000000
10
0.000000
20
0.000000
30
0.000000
0
VERTEX
8
THROUGH
10
1421.025000
20
85.535576
30
0.000000
42
7.595754
0
VERTEX
8
THROUGH
10
1422.123076
20
84.437500
30
0.000000
0
VERTEX
8
THROUGH
10
1437.876924
20
84.437500
30
0.000000
42
7.595754
0
VERTEX
8
THROUGH
10
1438.975000
20
85.535576
30
0.000000
0
VERTEX
8
THROUGH
10
1438.975000
20
123.489424
30
0.000000
42
7.595754
0
VERTEX
8
THROUGH
10
1437.876924
20
124.587500
30
0.000000
0
VERTEX
8
THROUGH
10
1422.123076
20
124.587500
30
0.000000
42
7.595754
0
VERTEX
8
THROUGH
10
1421.025000
20
123.489424
30
0.000000
0
SEQEND
8
THROUGH
0
POLYLINE
8
THROUGH
66
1.000000
70
1.000000
10
0.000000
20
0.000000
30
0.000000
0
VERTEX
8
THROUGH
10
1421.025000
20
214.560576
30
0.000000
42
7.595754
0
VERTEX
8
THROUGH
10
1422.123076
20
213.462500
30
0.000000
0
VERTEX
8
THROUGH
10
1437.876924
20
213.462500
30
0.000000
42
7.595754
0
VERTEX
8
THROUGH
10
1438.975000
20
214.560576
30
0.000000
0
VERTEX
8
THROUGH
10
1438.975000
20
252.514424
30
0.000000
42
7.595754
0
VERTEX
8
THROUGH
10
1437.876924
20
253.612500
30
0.000000
0
VERTEX
8
THROUGH
10
1422.123076
20
253.612500
30
0.000000
42
7.595754
0
VERTEX
8
THROUGH
10
1421.025000
20
252.514424
30
0.000000
0
SEQEND
8
THROUGH
0
POLYLINE
8
THROUGH
66
1.000000
70
1.000000
10
0.000000
20
0.000000
30
0.000000
0
VERTEX
8
THROUGH
10
1421.025000
20
343.585576
30
0.000000
42
7.595754
0
VERTEX
8
THROUGH
10
1422.123076
20
342.487500
30
0.000000
0
VERTEX
8
THROUGH
10
1437.876924
20
342.487500
30
0.000000
42
7.595754
0
VERTEX
8
THROUGH
10
1438.975000
20
343.585576
30
0.000000
0
VERTEX
8
THROUGH
10
1438.975000
20
381.539424
30
0.000000
42
7.595754
0
VERTEX
8
THROUGH
10
1437.876924
20
382.637500
30
0.000000
0
VERTEX
8
THROUGH
10
1422.123076
20
382.637500
30
0.000000
42
7.595754
0
VERTEX
8
THROUGH
10
1421.025000
20
381.539424
30
0.000000
0
SEQEND
8
THROUGH
0
POLYLINE
8
THROUGH
66
1.000000
70
1.000000
10
0.000000
20
0.000000
30
0.000000
0
VERTEX
8
THROUGH
10
1421.025000
20
472.610576
30
0.000000
42
7.595754
0
VERTEX
8
THROUGH
10
1422.123076
20
471.512500
30
0.000000
0
VERTEX
8
THROUGH
10
1437.876924
20
471.512500
30
0.000000
42
7.595754
0
VERTEX
8
THROUGH
10
1438.975000
20
472.610576
30
0.000000
0
VERTEX
8
THROUGH
10
1438.975000
20
510.564424
30
0.000000
42
7.595754
0
VERTEX
8
THROUGH
10
1437.876924
20
511.662500
30
0.000000
0
VERTEX
8
THROUGH
10
1422.123076
20
511.662500
30
0.000000
42
7.595754
0
VERTEX
8
THROUGH
10
1421.025000
20
510.564424
30
0.000000
0
SEQEND
8
THROUGH
0
POLYLINE
8
POCKET_D6
66
1.000000
70
1.000000
10
0.000000
20
0.000000
30
0.000000
0
VERTEX
8
POCKET_D6
10
991.800000
20
586.025000
30
0.000000
0
VERTEX
8
POCKET_D6
10
1868.200000
20
586.025000
30
0.000000
0
VERTEX
8
POCKET_D6
10
1868.200000
20
598.075000
30
0.000000
0
VERTEX
8
POCKET_D6
10
991.800000
20
598.075000
30
0.000000
0
SEQEND
8
POCKET_D6
0
POLYLINE
8
OUTLINE
66
1.000000
70
1.000000
10
0.000000
20
0.000000
30
0.000000
0
VERTEX
8
OUTLINE
10
792.200000
20
618.000000
30
0.000000
0
VERTEX
8
OUTLINE
10
792.200000
20
691.414424
30
0.000000
42
-7.595754
0
VERTEX
8
OUTLINE
10
793.298076
20
692.512500
30
0.000000
0
VERTEX
8
OUTLINE
10
810.000000
20
692.512500
30
0.000000
0
VERTEX
8
OUTLINE
10
810.000000
20
732.512500
30
0.000000
0
VERTEX
8
OUTLINE
10
793.298076
20
732.512500
30
0.000000
42
-7.595754
0
VERTEX
8
OUTLINE
10
792.200000
20
733.610576
30
0.000000
0
VERTEX
8
OUTLINE
10
792.200000
20
820.439424
30
0.000000
42
-7.595754
0
VERTEX
8
OUTLINE
10
793.298076
20
821.537500
30
0.000000
0
VERTEX
8
OUTLINE
10
810.000000
20
821.537500
30
0.000000
0
VERTEX
8
OUTLINE
10
810.000000
20
861.537500
30
0.000000
0
VERTEX
8
OUTLINE
10
793.298076
20
861.537500
30
0.000000
42
-7.595754
0
VERTEX
8
OUTLINE
10
792.200000
20
862.635576
30
0.000000
0
VERTEX
8
OUTLINE
10
792.200000
20
949.464424
30
0.000000
42
-7.595754
0
VERTEX
8
OUTLINE
10
793.298076
20
950.562500
30
0.000000
0
VERTEX
8
OUTLINE
10
810.000000
20
950.562500
30
0.000000
0
VERTEX
8
OUTLINE
10
810.000000
20
990.562500
30
0.000000
0
VERTEX
8
OUTLINE
10
793.298076
20
990.562500
30
0.000000
42
-7.595754
0
VERTEX
8
OUTLINE
10
792.200000
20
991.660576
30
0.000000
0
VERTEX
8
OUTLINE
10
792.200000
20
1078.489424
30
0.000000
42
-7.595754
0
VERTEX
8
OUTLINE
10
793.298076
20
1079.587500
30
0.000000
0
VERTEX
8
OUTLINE
10
810.000000
20
1079.587500
30
0.000000
0
VERTEX
8
OUTLINE
10
810.000000
20
1119.587500
30
0.000000
0
VERTEX
8
OUTLINE
10
793.298076
20
1119.587500
30
0.000000
42
-7.595754
0
VERTEX
8
OUTLINE
10
792.200000
20
1120.685576
30
0.000000
0
VERTEX
8
OUTLINE
10
792.200000
20
1194.100000
30
0.000000
0
VERTEX
8
OUTLINE
10
27.800000
20
1194.100000
30
0.000000
0
VERTEX
8
OUTLINE
10
27.800000
20
1120.685576
30
0.000000
42
-7.595754
0
VERTEX
8
OUTLINE
10
26.701924
20
1119.587500
30
0.000000
0
VERTEX
8
OUTLINE
10
10.000000
20
1119.587500
30
0.000000
0
VERTEX
8
OUTLINE
10
10.000000
20
1079.587500
30
0.000000
0
VERTEX
8
OUTLINE
10
26.701924
20
1079.587500
30
0.000000
42
-7.595754
0
VERTEX
8
OUTLINE
10
27.800000
20
1078.489424
30
0.000000
0
VERTEX
8
OUTLINE
10
27.800000
20
991.660576
30
0.000000
42
-7.595754
0
VERTEX
8
OUTLINE
10
26.701924
20
990.562500
30
0.000000
0
VERTEX
8
OUTLINE
10
10.000000
20
990.562500
30
0.000000
0
VERTEX
8
OUTLINE
10
10.000000
20
950.562500
30
0.000000
0
VERTEX
8
OUTLINE
10
26.701924
20
950.562500
30
0.000000
42
-7.595754
0
VERTEX
8
OUTLINE
10
27.800000
20
949.464424
30
0.000000
0
VERTEX
8
OUTLINE
10
27.800000
20
862.635576
30
0.000000
42
-7.595754
0
VERTEX
8
OUTLINE
10
26.701924
20
861.537500
30
0.000000
0
VERTEX
8
OUTLINE
10
10.000000
20
861.537500
30
0.000000
0
VERTEX
8
OUTLINE
10
10.000000
20
821.537500
30
0.000000
0
VERTEX
8
OUTLINE
10
26.701924
20
821.537500
30
0.000000
42
-7.595754
0
VERTEX
8
OUTLINE
10
27.800000
20
820.439424
30
0.000000
0
VERTEX
8
OUTLINE
10
27.800000
20
733.610576
30
0.000000
42
-7.595754
0
VERTEX
8
OUTLINE
10
26.701924
20
732.512500
30
0.000000
0
VERTEX
8
OUTLINE
10
10.000000
20
732.512500
30
0.000000
0
VERTEX
8
OUTLINE
10
10.000000
20
692.512500
30
0.000000
0
VERTEX
8
OUTLINE
10
26.701924
20
692.512500
30
0.000000
42
-7.595754
0
VERTEX
8
OUTLINE
10
27.800000
20
691.414424
30
0.000000
0
VERTEX
8
OUTLINE
10
27.800000
20
618.000000
30
0.000000
0
SEQEND
8
OUTLINE
0
POLYLINE
8
THROUGH
66
1.000000
70
1.000000
10
0.000000
20
0.000000
30
0.000000
0
VERTEX
8
THROUGH
10
417.876924
20
692.437500
30
0.000000
42
7.595754
0
VERTEX
8
THROUGH
10
418.975000
20
693.535576
30
0.000000
0
VERTEX
8
THROUGH
10
418.975000
20
731.489424
30
0.000000
42
7.595754
0
VERTEX
8
THROUGH
10
417.876924
20
732.587500
30
0.000000
0
VERTEX
8
THROUGH
10
402.123076
20
732.587500
30
0.000000
42
7.595754
0
VERTEX
8
THROUGH
10
401.025000
20
731.489424
30
0.000000
0
VERTEX
8
THROUGH
10
401.025000
20
693.535576
30
0.000000
42
7.595754
0
VERTEX
8
THROUGH
10
402.123076
20
692.437500
30
0.000000
0
SEQEND
8
THROUGH
0
POLYLINE
8
THROUGH
66
1.000000
70
1.000000
10
0.000000
20
0.000000
30
0.000000
0
VERTEX
8
THROUGH
10
417.876924
20
821.462500
30
0.000000
42
7.595754
0
VERTEX
8
THROUGH
10
418.975000
20
822.560576
30
0.000000
0
VERTEX
8
THROUGH
10
418.975000
20
860.514424
30
0.000000
42
7.595754
0
VERTEX
8
THROUGH
10
417.876924
20
861.612500
30
0.000000
0
VERTEX
8
THROUGH
10
402.123076
20
861.612500
30
0.000000
42
7.595754
0
VERTEX
8
THROUGH
10
401.025000
20
860.514424
30
0.000000
0
VERTEX
8
THROUGH
10
401.025000
20
822.560576
30
0.000000
42
7.595754
0
VERTEX
8
THROUGH
10
402.123076
20
821.462500
30
0.000000
0
SEQEND
8
THROUGH
0
POLYLINE
8
THROUGH
66
1.000000
70
1.000000
10
0.000000
20
0.000000
30
0.000000
0
VERTEX
8
THROUGH
10
417.876924
20
950.487500
30
0.000000
42
7.595754
0
VERTEX
8
THROUGH
10
418.975000
20
951.585576
30
0.000000
0
VERTEX
8
THROUGH
10
418.975000
20
989.539424
30
0.000000
42
7.595754
0
VERTEX
8
THROUGH
10
417.876924
20
990.637500
30
0.000000
0
VERTEX
8
THROUGH
10
402.123076
20
990.637500
30
0.000000
42
7.595754
0
VERTEX
8
THROUGH
10
401.025000
20
989.539424
30
0.000000
0
VERTEX
8
THROUGH
10
401.025000
20
951.585576
30
0.000000
42
7.595754
0
VERTEX
8
THROUGH
10
402.123076
20
950.487500
30
0.000000
0
SEQEND
8
THROUGH
0
POLYLINE
8
THROUGH
66
1.000000
70
1.000000
10
0.000000
20
0.000000
30
0.000000
0
VERTEX
8
THROUGH
10
417.876924
20
1079.512500
30
0.000000
42
7.595754
0
VERTEX
8
THROUGH
10
418.975000
20
1080.610576
30
0.000000
0
VERTEX
8
THROUGH
10
418.975000
20
1118.564424
30
0.000000
42
7.595754
0
VERTEX
8
THROUGH
10
417.876924
20
1119.662500
30
0.000000
0
VERTEX
8
THROUGH
10
402.123076
20
1119.662500
30
0.000000
42
7.595754
0
VERTEX
8
THROUGH
10
401.025000
20
1118.564424
30
0.000000
0
VERTEX
8
THROUGH
10
401.025000
20
1080.610576
30
0.000000
42
7.595754
0
VERTEX
8
THROUGH
10
402.123076
20
1079.512500
30
0.000000
0
SEQEND
8
THROUGH
0
POLYLINE
8
OUTLINE
66
1.000000
70
1.000000
10
0.000000
20
0.000000
30
0.000000
0
VERTEX
8
OUTLINE
10
1918.000000
20
618.000000
30
0.000000
0
VERTEX
8
OUTLINE
10
1918.000000
20
1018.000000
30
0.000000
0
VERTEX
8
OUTLINE
10
818.000000
20
1018.000000
30
0.000000
0
VERTEX
8
OUTLINE
10
818.000000
20
618.000000
30
0.000000
0
SEQEND
8
OUTLINE
0
POLYLINE
8
THROUGH
66
1.000000
70
1.000000
10
0.000000
20
0.000000
30
0.000000
0
VERTEX
8
THROUGH
10
834.776924
20
684.591667
30
0.000000
42
7.595754
0
VERTEX
8
THROUGH
10
835.875000
20
685.689743
30
0.000000
0
VERTEX
8
THROUGH
10
835.875000
20
723.643590
30
0.000000
42
7.595754
0
VERTEX
8
THROUGH
10
834.776924
20
724.741667
30
0.000000
0
VERTEX
8
THROUGH
10
819.023076
20
724.741667
30
0.000000
42
7.595754
0
VERTEX
8
THROUGH
10
817.925000
20
723.643590
30
0.000000
0
VERTEX
8
THROUGH
10
817.925000
20
685.689743
30
0.000000
42
7.595754
0
VERTEX
8
THROUGH
10
819.023076
20
684.591667
30
0.000000
0
SEQEND
8
THROUGH
0
POLYLINE
8
THROUGH
66
1.000000
70
1.000000
10
0.000000
20
0.000000
30
0.000000
0
VERTEX
8
THROUGH
10
834.776924
20
797.925000
30
0.000000
42
7.595754
0
VERTEX
8
THROUGH
10
835.875000
20
799.023076
30
0.000000
0
VERTEX
8
THROUGH
10
835.875000
20
836.976924
30
0.000000
42
7.595754
0
VERTEX
8
THROUGH
10
834.776924
20
838.075000
30
0.000000
0
VERTEX
8
THROUGH
10
819.023076
20
838.075000
30
0.000000
42
7.595754
0
VERTEX
8
THROUGH
10
817.925000
20
836.976924
30
0.000000
0
VERTEX
8
THROUGH
10
817.925000
20
799.023076
30
0.000000
42
7.595754
0
VERTEX
8
THROUGH
10
819.023076
20
797.925000
30
0.000000
0
SEQEND
8
THROUGH
0
POLYLINE
8
THROUGH
66
1.000000
70
1.000000
10
0.000000
20
0.000000
30
0.000000
0
VERTEX
8
THROUGH
10
834.776924
20
911.258333
30
0.000000
42
7.595754
0
VERTEX
8
THROUGH
10
835.875000
20
912.356410
30
0.000000
0
VERTEX
8
THROUGH
10
835.875000
20
950.310257
30
0.000000
42
7.595754
0
VERTEX
8
THROUGH
10
834.776924
20
951.408333
30
0.000000
0
VERTEX
8
THROUGH
10
819.023076
20
951.408333
30
0.000000
42
7.595754
0
VERTEX
8
THROUGH
10
817.925000
20
950.310257
30
0.000000
0
VERTEX
8
THROUGH
10
817.925000
20
912.356410
30
0.000000
42
7.595754
0
VERTEX
8
THROUGH
10
819.023076
20
911.258333
30
0.000000
0
SEQEND
8
THROUGH
0
POLYLINE
8
THROUGH
66
1.000000
70
1.000000
10
0.000000
20
0.000000
30
0.000000
0
VERTEX
8
THROUGH
10
1916.976924
20
684.591667
30
0.000000
42
7.595754
0
VERTEX
8
THROUGH
10
1918.075000
20
685.689743
30
0.000000
0
VERTEX
8
THROUGH
10
1918.075000
20
723.643590
30
0.000000
42
7.595754
0
VERTEX
8
THROUGH
10
1916.976924
20
724.741667
30
0.000000
0
VERTEX
8
THROUGH
10
1901.223076
20
724.741667
30
0.000000
42
7.595754
0
VERTEX
8
THROUGH
10
1900.125000
20
723.643590
30
0.000000
0
VERTEX
8
THROUGH
10
1900.125000
20
685.689743
30
0.000000
42
7.595754
0
VERTEX
8
THROUGH
10
1901.223076
20
684.591667
30
0.000000
0
SEQEND
8
THROUGH
0
POLYLINE
8
THROUGH
66
1.000000
70
1.000000
10
0.000000
20
0.000000
30
0.000000
0
VERTEX
8
THROUGH
10
1916.976924
20
797.925000
30
0.000000
42
7.595754
0
VERTEX
8
THROUGH
10
1918.075000
20
799.023076
30
0.000000
0
VERTEX
8
THROUGH
10
1918.075000
20
836.976924
30
0.000000
42
7.595754
0
VERTEX
8
THROUGH
10
1916.976924
20
838.075000
30
0.000000
0
VERTEX
8
THROUGH
10
1901.223076
20
838.075000
30
0.000000
42
7.595754
0
VERTEX
8
THROUGH
10
1900.125000
20
836.976924
30
0.000000
0
VERTEX
8
THROUGH
10
1900.125000
20
799.023076
30
0.000000
42
7.595754
0
VERTEX
8
THROUGH
10
1901.223076
20
797.925000
30
0.000000
0
SEQEND
8
THROUGH
0
POLYLINE
8
THROUGH
66
1.000000
70
1.000000
10
0.000000
20
0.000000
30
0.000000
0
VERTEX
8
THROUGH
10
1916.976924
20
911.258333
30
0.000000
42
7.595754
0
VERTEX
8
THROUGH
10
1918.075000
20
912.356410
30
0.000000
0
VERTEX
8
THROUGH
10
1918.075000
20
950.310257
30
0.000000
42
7.595754
0
VERTEX
8
THROUGH
10
1916.976924
20
951.408333
30
0.000000
0
VERTEX
8
THROUGH
10
1901.223076
20
951.408333
30
0.000000
42
7.595754
0
VERTEX
8
THROUGH
10
1900.125000
20
950.310257
30
0.000000
0
VERTEX
8
THROUGH
10
1900.125000
20
912.356410
30
0.000000
42
7.595754
0
VERTEX
8
THROUGH
10
1901.223076
20
911.258333
30
0.000000
0
SEQEND
8
THROUGH
0
POLYLINE
8
THROUGH
66
1.000000
70
1.000000
10
0.000000
20
0.000000
30
0.000000
0
VERTEX
8
THROUGH
10
1700.536924
20
680.608333
30
0.000000
42
7.595754
0
VERTEX
8
THROUGH
10
1701.635000
20
681.706410
30
0.000000
0
VERTEX
8
THROUGH
10
1701.635000
20
719.660257
30
0.000000
42
7.595754
0
VERTEX
8
THROUGH
10
1700.536924
20
720.758333
30
0.000000
0
VERTEX
8
THROUGH
10
1684.783076
20
720.758333
30
0.000000
42
7.595754
0
VERTEX
8
THROUGH
10
1683.685000
20
719.660257
30
0.000000
0
VERTEX
8
THROUGH
10
1683.685000
20
681.706410
30
0.000000
42
7.595754
0
VERTEX
8
THROUGH
10
1684.783076
20
680.608333
30
0.000000
0
SEQEND
8
THROUGH
0
POLYLINE
8
THROUGH
66
1.000000
70
1.000000
10
0.000000
20
0.000000
30
0.000000
0
VERTEX
8
THROUGH
10
1700.536924
20
785.975000
30
0.000000
42
7.595754
0
VERTEX
8
THROUGH
10
1701.635000
20
787.073076
30
0.000000
0
VERTEX
8
THROUGH
10
1701.635000
20
825.026924
30
0.000000
42
7.595754
0
VERTEX
8
THROUGH
10
1700.536924
20
826.125000
30
0.000000
0
VERTEX
8
THROUGH
10
1684.783076
20
826.125000
30
0.000000
42
7.595754
0
VERTEX
8
THROUGH
10
1683.685000
20
825.026924
30
0.000000
0
VERTEX
8
THROUGH
10
1683.685000
20
787.073076
30
0.000000
42
7.595754
0
VERTEX
8
THROUGH
10
1684.783076
20
785.975000
30
0.000000
0
SEQEND
8
THROUGH
0
POLYLINE
8
THROUGH
66
1.000000
70
1.000000
10
0.000000
20
0.000000
30
0.000000
0
VERTEX
8
THROUGH
10
1700.536924
20
891.341667
30
0.000000
42
7.595754
0
VERTEX
8
THROUGH
10
1701.635000
20
892.439743
30
0.000000
0
VERTEX
8
THROUGH
10
1701.635000
20
930.393590
30
0.000000
42
7.595754
0
VERTEX
8
THROUGH
10
1700.536924
20
931.491667
30
0.000000
0
VERTEX
8
THROUGH
10
1684.783076
20
931.491667
30
0.000000
42
7.595754
0
VERTEX
8
THROUGH
10
1683.685000
20
930.393590
30
0.000000
0
VERTEX
8
THROUGH
10
1683.685000
20
892.439743
30
0.000000
42
7.595754
0
VERTEX
8
THROUGH
10
1684.783076
20
891.341667
30
0.000000
0
SEQEND
8
THROUGH
0
POLYLINE
8
THROUGH
66
1.000000
70
1.000000
10
0.000000
20
0.000000
30
0.000000
0
VERTEX
8
THROUGH
10
1484.096924
20
680.608333
30
0.000000
42
7.595754
0
VERTEX
8
THROUGH
10
1485.195000
20
681.706410
30
0.000000
0
VERTEX
8
THROUGH
10
1485.195000
20
719.660257
30
0.000000
42
7.595754
0
VERTEX
8
THROUGH
10
1484.096924
20
720.758333
30
0.000000
0
VERTEX
8
THROUGH
10
1468.343076
20
720.758333
30
0.000000
42
7.595754
0
VERTEX
8
THROUGH
10
1467.245000
20
719.660257
30
0.000000
0
VERTEX
8
THROUGH
10
1467.245000
20
681.706410
30
0.000000
42
7.595754
0
VERTEX
8
THROUGH
10
1468.343076
20
680.608333
30
0.000000
0
SEQEND
8
THROUGH
0
POLYLINE
8
THROUGH
66
1.000000
70
1.000000
10
0.000000
20
0.000000
30
0.000000
0
VERTEX
8
THROUGH
10
1484.096924
20
785.975000
30
0.000000
42
7.595754
0
VERTEX
8
THROUGH
10
1485.195000
20
787.073076
30
0.000000
0
VERTEX
8
THROUGH
10
1485.195000
20
825.026924
30
0.000000
42
7.595754
0
VERTEX
8
THROUGH
10
1484.096924
20
826.125000
30
0.000000
0
VERTEX
8
THROUGH
10
1468.343076
20
826.125000
30
0.000000
42
7.595754
0
VERTEX
8
THROUGH
10
1467.245000
20
825.026924
30
0.000000
0
VERTEX
8
THROUGH
10
1467.245000
20
787.073076
30
0.000000
42
7.595754
0
VERTEX
8
THROUGH
10
1468.343076
20
785.975000
30
0.000000
0
SEQEND
8
THROUGH
0
POLYLINE
8
THROUGH
66
1.000000
70
1.000000
10
0.000000
20
0.000000
30
0.000000
0
VERTEX
8
THROUGH
10
1484.096924
20
891.341667
30
0.000000
42
7.595754
0
VERTEX
8
THROUGH
10
1485.195000
20
892.439743
30
0.000000
0
VERTEX
8
THROUGH
10
1485.195000
20
930.393590
30
0.000000
42
7.595754
0
VERTEX
8
THROUGH
10
1484.096924
20
931.491667
30
0.000000
0
VERTEX
8
THROUGH
10
1468.343076
20
931.491667
30
0.000000
42
7.595754
0
VERTEX
8
THROUGH
10
1467.245000
20
930.393590
30
0.000000
0
VERTEX
8
THROUGH
10
1467.245000
20
892.439743
30
0.000000
42
7.595754
0
VERTEX
8
THROUGH
10
1468.343076
20
891.341667
30
0.000000
0
SEQEND
8
THROUGH
0
POLYLINE
8
THROUGH
66
1.000000
70
1.000000
10
0.000000
20
0.000000
30
0.000000
0
VERTEX
8
THROUGH
10
1267.656924
20
680.608333
30
0.000000
42
7.595754
0
VERTEX
8
THROUGH
10
1268.755000
20
681.706410
30
0.000000
0
VERTEX
8
THROUGH
10
1268.755000
20
719.660257
30
0.000000
42
7.595754
0
VERTEX
8
THROUGH
10
1267.656924
20
720.758333
30
0.000000
0
VERTEX
8
THROUGH
10
1251.903076
20
720.758333
30
0.000000
42
7.595754
0
VERTEX
8
THROUGH
10
1250.805000
20
719.660257
30
0.000000
0
VERTEX
8
THROUGH
10
1250.805000
20
681.706410
30
0.000000
42
7.595754
0
VERTEX
8
THROUGH
10
1251.903076
20
680.608333
30
0.000000
0
SEQEND
8
THROUGH
0
POLYLINE
8
THROUGH
66
1.000000
70
1.000000
10
0.000000
20
0.000000
30
0.000000
0
VERTEX
8
THROUGH
10
1267.656924
20
785.975000
30
0.000000
42
7.595754
0
VERTEX
8
THROUGH
10
1268.755000
20
787.073076
30
0.000000
0
VERTEX
8
THROUGH
10
1268.755000
20
825.026924
30
0.000000
42
7.595754
0
VERTEX
8
THROUGH
10
1267.656924
20
826.125000
30
0.000000
0
VERTEX
8
THROUGH
10
1251.903076
20
826.125000
30
0.000000
42
7.595754
0
VERTEX
8
THROUGH
10
1250.805000
20
825.026924
30
0.000000
0
VERTEX
8
THROUGH
10
1250.805000
20
787.073076
30
0.000000
42
7.595754
0
VERTEX
8
THROUGH
10
1251.903076
20
785.975000
30
0.000000
0
SEQEND
8
THROUGH
0
POLYLINE
8
THROUGH
66
1.000000
70
1.000000
10
0.000000
20
0.000000
30
0.000000
0
VERTEX
8
THROUGH
10
1267.656924
20
891.341667
30
0.000000
42
7.595754
0
VERTEX
8
THROUGH
10
1268.755000
20
892.439743
30
0.000000
0
VERTEX
8
THROUGH
10
1268.755000
20
930.393590
30
0.000000
42
7.595754
0
VERTEX
8
THROUGH
10
1267.656924
20
931.491667
30
0.000000
0
VERTEX
8
THROUGH
10
1251.903076
20
931.491667
30
0.000000
42
7.595754
0
VERTEX
8
THROUGH
10
1250.805000
20
930.393590
30
0.000000
0
VERTEX
8
THROUGH
10
1250.805000
20
892.439743
30
0.000000
42
7.595754
0
VERTEX
8
THROUGH
10
1251.903076
20
891.341667
30
0.000000
0
SEQEND
8
THROUGH
0
POLYLINE
8
THROUGH
66
1.000000
70
1.000000
10
0.000000
20
0.000000
30
0.000000
0
VERTEX
8
THROUGH
10
1051.216924
20
680.608333
30
0.000000
42
7.595754
0
VERTEX
8
THROUGH
10
1052.315000
20
681.706410
30
0.000000
0
VERTEX
8
THROUGH
10
1052.315000
20
719.660257
30
0.000000
42
7.595754
0
VERTEX
8
THROUGH
10
1051.216924
20
720.758333
30
0.000000
0
VERTEX
8
THROUGH
10
1035.463076
20
720.758333
30
0.000000
42
7.595754
0
VERTEX
8
THROUGH
10
1034.365000
20
719.660257
30
0.000000
0
VERTEX
8
THROUGH
10
1034.365000
20
681.706410
30
0.000000
42
7.595754
0
VERTEX
8
THROUGH
10
1035.463076
20
680.608333
30
0.000000
0
SEQEND
8
THROUGH
0
POLYLINE
8
THROUGH
66
1.000000
70
1.000000
10
0.000000
20
0.000000
30
0.000000
0
VERTEX
8
THROUGH
10
1051.216924
20
785.975000
30
0.000000
42
7.595754
0
VERTEX
8
THROUGH
10
1052.315000
20
787.073076
30
0.000000
0
VERTEX
8
THROUGH
10
1052.315000
20
825.026924
30
0.000000
42
7.595754
0
VERTEX
8
THROUGH
10
1051.216924
20
826.125000
30
0.000000
0
VERTEX
8
THROUGH
10
1035.463076
20
826.125000
30
0.000000
42
7.595754
0
VERTEX
8
THROUGH
10
1034.365000
20
825.026924
30
0.000000
0
VERTEX
8
THROUGH
10
1034.365000
20
787.073076
30
0.000000
42
7.595754
0
VERTEX
8
THROUGH
10
1035.463076
20
785.975000
30
0.000000
0
SEQEND
8
THROUGH
0
POLYLINE
8
THROUGH
66
1.000000
70
1.000000
10
0.000000
20
0.000000
30
0.000000
0
VERTEX
8
THROUGH
10
1051.216924
20
891.341667
30
0.000000
42
7.595754
0
VERTEX
8
THROUGH
10
1052.315000
20
892.439743
30
0.000000
0
VERTEX
8
THROUGH
10
1052.315000
20
930.393590
30
0.000000
42
7.595754
0
VERTEX
8
THROUGH
10
1051.216924
20
931.491667
30
0.000000
0
VERTEX
8
THROUGH
10
1035.463076
20
931.491667
30
0.000000
42
7.595754
0
VERTEX
8
THROUGH
10
1034.365000
20
930.393590
30
0.000000
0
VERTEX
8
THROUGH
10
1034.365000
20
892.439743
30
0.000000
42
7.595754
0
VERTEX
8
THROUGH
10
1035.463076
20
891.341667
30
0.000000
0
SEQEND
8
THROUGH
0
POLYLINE
8
POCKET_D6
66
1.000000
70
1.000000
10
0.000000
20
0.000000
30
0.000000
0
VERTEX
8
POCKET_D6
10
1900.200000
20
994.025000
30
0.000000
0
VERTEX
8
POCKET_D6
10
1900.200000
20
1006.075000
30
0.000000
0
VERTEX
8
POCKET_D6
10
835.800000
20
1006.075000
30
0.000000
0
VERTEX
8
POCKET_D6
10
835.800000
20
994.025000
30
0.000000
0
SEQEND
8
POCKET_D6
0
POLYLINE
8
OUTLINE
66
1.000000
70
1.000000
10
0.000000
20
0.000000
30
0.000000
0
VERTEX
8
OUTLINE
10
1977.800000
20
10.000000
30
0.000000
0
VERTEX
8
OUTLINE
10
2401.100000
20
10.000000
30
0.000000
0
VERTEX
8
OUTLINE
10
2401.100000
20
83.414424
30
0.000000
42
-7.595754
0
VERTEX
8
OUTLINE
10
2402.198076
20
84.512500
30
0.000000
0
VERTEX
8
OUTLINE
10
2418.900000
20
84.512500
30
0.000000
0
VERTEX
8
OUTLINE
10
2418.900000
20
124.512500
30
0.000000
0
VERTEX
8
OUTLINE
10
2402.198076
20
124.512500
30
0.000000
42
-7.595754
0
VERTEX
8
OUTLINE
10
2401.100000
20
125.610576
30
0.000000
0
VERTEX
8
OUTLINE
10
2401.100000
20
212.439424
30
0.000000
42
-7.595754
0
VERTEX
8
OUTLINE
10
2402.198076
20
213.537500
30
0.000000
0
VERTEX
8
OUTLINE
10
2418.900000
20
213.537500
30
0.000000
0
VERTEX
8
OUTLINE
10
2418.900000
20
253.537500
30
0.000000
0
VERTEX
8
OUTLINE
10
2402.198076
20
253.537500
30
0.000000
42
-7.595754
0
VERTEX
8
OUTLINE
10
2401.100000
20
254.635576
30
0.000000
0
VERTEX
8
OUTLINE
10
2401.100000
20
341.464424
30
0.000000
42
-7.595754
0
VERTEX
8
OUTLINE
10
2402.198076
20
342.562500
30
0.000000
0
VERTEX
8
OUTLINE
10
2418.900000
20
342.562500
30
0.000000
0
VERTEX
8
OUTLINE
10
2418.900000
20
382.562500
30
0.000000
0
VERTEX
8
OUTLINE
10
2402.198076
20
382.562500
30
0.000000
42
-7.595754
0
VERTEX
8
OUTLINE
10
2401.100000
20
383.660576
30
0.000000
0
VERTEX
8
OUTLINE
10
2401.100000
20
470.489424
30
0.000000
42
-7.595754
0
VERTEX
8
OUTLINE
10
2402.198076
20
471.587500
30
0.000000
0
VERTEX
8
OUTLINE
10
2418.900000
20
471.587500
30
0.000000
0
VERTEX
8
OUTLINE
10
2418.900000
20
511.587500
30
0.000000
0
VERTEX
8
OUTLINE
10
2402.198076
20
511.587500
30
0.000000
42
-7.595754
0
VERTEX
8
OUTLINE
10
2401.100000
20
512.685576
30
0.000000
0
VERTEX
8
OUTLINE
10
2401.100000
20
586.100000
30
0.000000
0
VERTEX
8
OUTLINE
10
1977.800000
20
586.100000
30
0.000000
0
VERTEX
8
OUTLINE
10
1977.800000
20
512.685576
30
0.000000
42
-7.595754
0
VERTEX
8
OUTLINE
10
1976.701924
20
511.587500
30
0.000000
0
VERTEX
8
OUTLINE
10
1960.000000
20
511.587500
30
0.000000
0
VERTEX
8
OUTLINE
10
1960.000000
20
471.587500
30
0.000000
0
VERTEX
8
OUTLINE
10
1976.701924
20
471.587500
30
0.000000
42
-7.595754
0
VERTEX
8
OUTLINE
10
1977.800000
20
470.489424
30
0.000000
0
VERTEX
8
OUTLINE
10
1977.800000
20
383.660576
30
0.000000
42
-7.595754
0
VERTEX
8
OUTLINE
10
1976.701924
20
382.562500
30
0.000000
0
VERTEX
8
OUTLINE
10
1960.000000
20
382.562500
30
0.000000
0
VERTEX
8
OUTLINE
10
1960.000000
20
342.562500
30
0.000000
0
VERTEX
8
OUTLINE
10
1976.701924
20
342.562500
30
0.000000
42
-7.595754
0
VERTEX
8
OUTLINE
10
1977.800000
20
341.464424
30
0.000000
0
VERTEX
8
OUTLINE
10
1977.800000
20
254.635576
30
0.000000
42
-7.595754
0
VERTEX
8
OUTLINE
10
1976.701924
20
253.537500
30
0.000000
0
VERTEX
8
OUTLINE
10
1960.000000
20
253.537500
30
0.000000
0
VERTEX
8
OUTLINE
10
1960.000000
20
213.537500
30
0.000000
0
VERTEX
8
OUTLINE
10
1976.701924
20
213.537500
30
0.000000
42
-7.595754
0
VERTEX
8
OUTLINE
10
1977.800000
20
212.439424
30
0.000000
0
VERTEX
8
OUTLINE
10
1977.800000
20
125.610576
30
0.000000
42
-7.595754
0
VERTEX
8
OUTLINE
10
1976.701924
20
124.512500
30
0.000000
0
VERTEX
8
OUTLINE
10
1960.000000
20
124.512500
30
0.000000
0
VERTEX
8
OUTLINE
10
1960.000000
20
84.512500
30
0.000000
0
VERTEX
8
OUTLINE
10
1976.701924
20
84.512500
30
0.000000
42
-7.595754
0
VERTEX
8
OUTLINE
10
1977.800000
20
83.414424
30
0.000000
0
SEQEND
8
OUTLINE
0
POLYLINE
8
OUTLINE
66
1.000000
70
1.000000
10
0.000000
20
0.000000
30
0.000000
0
VERTEX
8
OUTLINE
10
1977.800000
20
594.100000
30
0.000000
0
VERTEX
8
OUTLINE
10
2401.100000
20
594.100000
30
0.000000
0
VERTEX
8
OUTLINE
10
2401.100000
20
655.685257
30
0.000000
42
-7.595754
0
VERTEX
8
OUTLINE
10
2402.198076
20
656.783333
30
0.000000
0
VERTEX
8
OUTLINE
10
2418.900000
20
656.783333
30
0.000000
0
VERTEX
8
OUTLINE
10
2418.900000
20
696.783333
30
0.000000
0
VERTEX
8
OUTLINE
10
2402.198076
20
696.783333
30
0.000000
42
-7.595754
0
VERTEX
8
OUTLINE
10
2401.100000
20
697.881410
30
0.000000
0
VERTEX
8
OUTLINE
10
2401.100000
20
761.051924
30
0.000000
42
-7.595754
0
VERTEX
8
OUTLINE
10
2402.198076
20
762.150000
30
0.000000
0
VERTEX
8
OUTLINE
10
2418.900000
20
762.150000
30
0.000000
0
VERTEX
8
OUTLINE
10
2418.900000
20
802.150000
30
0.000000
0
VERTEX
8
OUTLINE
10
2402.198076
20
802.150000
30
0.000000
42
-7.595754
0
VERTEX
8
OUTLINE
10
2401.100000
20
803.248076
30
0.000000
0
VERTEX
8
OUTLINE
10
2401.100000
20
866.418590
30
0.000000
42
-7.595754
0
VERTEX
8
OUTLINE
10
2402.198076
20
867.516667
30
0.000000
0
VERTEX
8
OUTLINE
10
2418.900000
20
867.516667
30
0.000000
0
VERTEX
8
OUTLINE
10
2418.900000
20
907.516667
30
0.000000
0
VERTEX
8
OUTLINE
10
2402.198076
20
907.516667
30
0.000000
42
-7.595754
0
VERTEX
8
OUTLINE
10
2401.100000
20
908.614743
30
0.000000
0
VERTEX
8
OUTLINE
10
2401.100000
20
970.200000
30
0.000000
0
VERTEX
8
OUTLINE
10
1977.800000
20
970.200000
30
0.000000
0
VERTEX
8
OUTLINE
10
1977.800000
20
908.614743
30
0.000000
42
-7.595754
0
VERTEX
8
OUTLINE
10
1976.701924
20
907.516667
30
0.000000
0
VERTEX
8
OUTLINE
10
1960.000000
20
907.516667
30
0.000000
0
VERTEX
8
OUTLINE
10
1960.000000
20
867.516667
30
0.000000
0
VERTEX
8
OUTLINE
10
1976.701924
20
867.516667
30
0.000000
42
-7.595754
0
VERTEX
8
OUTLINE
10
1977.800000
20
866.418590
30
0.000000
0
VERTEX
8
OUTLINE
10
1977.800000
20
803.248076
30
0.000000
42
-7.595754
0
VERTEX
8
OUTLINE
10
1976.701924
20
802.150000
30
0.000000
0
VERTEX
8
OUTLINE
10
1960.000000
20
802.150000
30
0.000000
0
VERTEX
8
OUTLINE
10
1960.000000
20
762.150000
30
0.000000
0
VERTEX
8
OUTLINE
10
1976.701924
20
762.150000
30
0.000000
42
-7.595754
0
VERTEX
8
OUTLINE
10
1977.800000
20
761.051924
30
0.000000
0
VERTEX
8
OUTLINE
10
1977.800000
20
697.881410
30
0.000000
42
-7.595754
0
VERTEX
8
OUTLINE
10
1976.701924
20
696.783333
30
0.000000
0
VERTEX
8
OUTLINE
10
1960.000000
20
696.783333
30
0.000000
0
VERTEX
8
OUTLINE
10
1960.000000
20
656.783333
30
0.000000
0
VERTEX
8
OUTLINE
10
1976.701924
20
656.783333
30
0.000000
42
-7.595754
0
VERTEX
8
OUTLINE
10
1977.800000
20
655.685257
30
0.000000
0
SEQEND
8
OUTLINE
0
POLYLINE
8
OUTLINE
66
1.000000
70
1.000000
10
0.000000
20
0.000000
30
0.000000
0
VERTEX
8
OUTLINE
10
980.000000
20
1026.000000
30
0.000000
0
VERTEX
8
OUTLINE
10
1856.400000
20
1026.000000
30
0.000000
0
VERTEX
8
OUTLINE
10
1856.400000
20
1126.000000
30
0.000000
0
VERTEX
8
OUTLINE
10
980.000000
20
1126.000000
30
0.000000
0
SEQEND
8
OUTLINE
0
CIRCLE
8
DRILL_4.5_THRU
10
1871.100000
20
60.000000
30
0.000000
40
2.250000
0
CIRCLE
8
DRILL_4.5_THRU
10
1871.100000
20
187.500000
30
0.000000
40
2.250000
0
CIRCLE
8
DRILL_4.5_THRU
10
1871.100000
20
315.000000
30
0.000000
40
2.250000
0
CIRCLE
8
DRILL_4.5_THRU
10
1871.100000
20
442.500000
30
0.000000
40
2.250000
0
CIRCLE
8
DRILL_4.5_THRU
10
1871.100000
20
570.000000
30
0.000000
40
2.250000
0
CIRCLE
8
DRILL_4.5_THRU
10
988.900000
20
60.000000
30
0.000000
40
2.250000
0
CIRCLE
8
DRILL_4.5_THRU
10
988.900000
20
187.500000
30
0.000000
40
2.250000
0
CIRCLE
8
DRILL_4.5_THRU
10
988.900000
20
315.000000
30
0.000000
40
2.250000
0
CIRCLE
8
DRILL_4.5_THRU
10
988.900000
20
442.500000
30
0.000000
40
2.250000
0
CIRCLE
8
DRILL_4.5_THRU
10
988.900000
20
570.000000
30
0.000000
40
2.250000
0
TEXT
8
LABEL
10
22.000000
20
22.000000
30
0.000000
40
8.000000
1
C1-B-BOTTOM
0
TEXT
8
LABEL
10
992.000000
20
22.000000
30
0.000000
40
8.000000
1
C1-B-TOP
0
TEXT
8
LABEL
10
798.000000
20
630.000000
30
0.000000
40
8.000000
1
C1-B-DIV-1
0
TEXT
8
LABEL
10
1906.000000
20
630.000000
30
0.000000
40
8.000000
1
C1-T-SIDE-L
0
TEXT
8
LABEL
10
1972.000000
20
22.000000
30
0.000000
40
8.000000
1
C1-B-SHELF-2-1
0
TEXT
8
LABEL
10
1972.000000
20
606.100000
30
0.000000
40
8.000000
1
C1-T-SHELF-1-1
0
TEXT
8
LABEL
10
992.000000
20
1038.000000
30
0.000000
40
8.000000
1
C1-B-TOERAIL
0
ENDSEC
0
EOF
