0
SECTION
2
HEADER
9
$ACADVER
1
AC1009
9
$INSUNITS
70
4.000000
9
$MEASUREMENT
70
1.000000
0
ENDSEC
0
SECTION
2
TABLES
0
TABLE
2
LAYER
70
5.000000
0
LAYER
2
DRILL_5_D12
70
0.000000
62
5.000000
6
CONTINUOUS
0
LAYER
2
LABEL
70
0.000000
62
8.000000
6
CONTINUOUS
0
LAYER
2
OUTLINE
70
0.000000
62
7.000000
6
CONTINUOUS
0
LAYER
2
THROUGH
70
0.000000
62
1.000000
6
CONTINUOUS
0
LAYER
2
TILE_REG
70
0.000000
62
6.000000
6
CONTINUOUS
0
ENDTAB
0
ENDSEC
0
SECTION
2
ENTITIES
0
POLYLINE
8
OUTLINE
66
1.000000
70
1.000000
10
0.000000
20
0.000000
30
0.000000
0
VERTEX
8
OUTLINE
10
0.000000
20
618.000000
30
0.000000
0
VERTEX
8
OUTLINE
10
240.200000
20
618.000000
30
0.000000
0
VERTEX
8
OUTLINE
10
240.200000
20
679.585257
30
0.000000
0
VERTEX
8
OUTLINE
10
239.567095
20
679.311375
30
0.000000
0
VERTEX
8
OUTLINE
10
238.888372
20
679.189253
30
0.000000
0
VERTEX
8
OUTLINE
10
238.199694
20
679.225345
30
0.000000
0
VERTEX
8
OUTLINE
10
237.537453
20
679.417744
30
0.000000
0
VERTEX
8
OUTLINE
10
236.936644
20
679.756282
30
0.000000
0
VERTEX
8
OUTLINE
10
236.429015
20
680.223072
30
0.000000
0
VERTEX
8
OUTLINE
10
236.041389
20
680.793445
30
0.000000
0
VERTEX
8
OUTLINE
10
235.794251
20
681.437264
30
0.000000
0
VERTEX
8
OUTLINE
10
235.700658
20
682.120506
30
0.000000
0
VERTEX
8
OUTLINE
10
235.765557
20
682.807068
30
0.000000
0
VERTEX
8
OUTLINE
10
235.985519
20
683.460671
30
0.000000
0
VERTEX
8
OUTLINE
10
236.348920
20
684.046777
30
0.000000
0
VERTEX
8
OUTLINE
10
236.836557
20
684.534414
30
0.000000
0
VERTEX
8
OUTLINE
10
237.422662
20
684.897814
30
0.000000
0
VERTEX
8
OUTLINE
10
238.076265
20
685.117776
30
0.000000
0
VERTEX
8
OUTLINE
10
238.762827
20
685.182675
30
0.000000
0
VERTEX
8
OUTLINE
10
239.446070
20
685.089083
30
0.000000
0
VERTEX
8
OUTLINE
10
240.089888
20
684.841944
30
0.000000
0
VERTEX
8
OUTLINE
10
240.660262
20
684.454319
30
0.000000
0
VERTEX
8
OUTLINE
10
241.127051
20
683.946689
30
0.000000
0
VERTEX
8
OUTLINE
10
241.465589
20
683.345880
30
0.000000
0
VERTEX
8
OUTLINE
10
241.657988
20
682.683640
30
0.000000
0
VERTEX
8
OUTLINE
10
241.694080
20
681.994962
30
0.000000
0
VERTEX
8
OUTLINE
10
241.571958
20
681.316238
30
0.000000
0
VERTEX
8
OUTLINE
10
241.298076
20
680.683333
30
0.000000
0
VERTEX
8
OUTLINE
10
258.000000
20
680.683333
30
0.000000
0
VERTEX
8
OUTLINE
10
258.000000
20
720.683333
30
0.000000
0
VERTEX
8
OUTLINE
10
241.298076
20
720.683333
30
0.000000
0
VERTEX
8
OUTLINE
10
241.571958
20
720.050429
30
0.000000
0
VERTEX
8
OUTLINE
10
241.694080
20
719.371705
30
0.000000
0
VERTEX
8
OUTLINE
10
241.657988
20
718.683027
30
0.000000
0
VERTEX
8
OUTLINE
10
241.465589
20
718.020787
30
0.000000
0
VERTEX
8
OUTLINE
10
241.127051
20
717.419978
30
0.000000
0
VERTEX
8
OUTLINE
10
240.660262
20
716.912348
30
0.000000
0
VERTEX
8
OUTLINE
10
240.089888
20
716.524723
30
0.000000
0
VERTEX
8
OUTLINE
10
239.446070
20
716.277584
30
0.000000
0
VERTEX
8
OUTLINE
10
238.762827
20
716.183991
30
0.000000
0
VERTEX
8
OUTLINE
10
238.076265
20
716.248891
30
0.000000
0
VERTEX
8
OUTLINE
10
237.422662
20
716.468852
30
0.000000
0
VERTEX
8
OUTLINE
10
236.836557
20
716.832253
30
0.000000
0
VERTEX
8
OUTLINE
10
236.348920
20
717.319890
30
0.000000
0
VERTEX
8
OUTLINE
10
235.985519
20
717.905995
30
0.000000
0
VERTEX
8
OUTLINE
10
235.765557
20
718.559598
30
0.000000
0
VERTEX
8
OUTLINE
10
235.700658
20
719.246161
30
0.000000
0
VERTEX
8
OUTLINE
10
235.794251
20
719.929403
30
0.000000
0
VERTEX
8
OUTLINE
10
236.041389
20
720.573221
30
0.000000
0
VERTEX
8
OUTLINE
10
236.429015
20
721.143595
30
0.000000
0
VERTEX
8
OUTLINE
10
236.936644
20
721.610384
30
0.000000
0
VERTEX
8
OUTLINE
10
237.537453
20
721.948923
30
0.000000
0
VERTEX
8
OUTLINE
10
238.199694
20
722.141321
30
0.000000
0
VERTEX
8
OUTLINE
10
238.888372
20
722.177414
30
0.000000
0
VERTEX
8
OUTLINE
10
239.567095
20
722.055292
30
0.000000
0
VERTEX
8
OUTLINE
10
240.200000
20
721.781410
30
0.000000
0
VERTEX
8
OUTLINE
10
240.200000
20
784.951924
30
0.000000
0
VERTEX
8
OUTLINE
10
239.567095
20
784.678042
30
0.000000
0
VERTEX
8
OUTLINE
10
238.888372
20
784.555920
30
0.000000
0
VERTEX
8
OUTLINE
10
238.199694
20
784.592012
30
0.000000
0
VERTEX
8
OUTLINE
10
237.537453
20
784.784411
30
0.000000
0
VERTEX
8
OUTLINE
10
236.936644
20
785.122949
30
0.000000
0
VERTEX
8
OUTLINE
10
236.429015
20
785.589738
30
0.000000
0
VERTEX
8
OUTLINE
10
236.041389
20
786.160112
30
0.000000
0
VERTEX
8
OUTLINE
10
235.794251
20
786.803930
30
0.000000
0
VERTEX
8
OUTLINE
10
235.700658
20
787.487173
30
0.000000
0
VERTEX
8
OUTLINE
10
235.765557
20
788.173735
30
0.000000
0
VERTEX
8
OUTLINE
10
235.985519
20
788.827338
30
0.000000
0
VERTEX
8
OUTLINE
10
236.348920
20
789.413443
30
0.000000
0
VERTEX
8
OUTLINE
10
236.836557
20
789.901080
30
0.000000
0
VERTEX
8
OUTLINE
10
237.422662
20
790.264481
30
0.000000
0
VERTEX
8
OUTLINE
10
238.076265
20
790.484443
30
0.000000
0
VERTEX
8
OUTLINE
10
238.762827
20
790.549342
30
0.000000
0
VERTEX
8
OUTLINE
10
239.446070
20
790.455749
30
0.000000
0
VERTEX
8
OUTLINE
10
240.089888
20
790.208611
30
0.000000
0
VERTEX
8
OUTLINE
10
240.660262
20
789.820985
30
0.000000
0
VERTEX
8
OUTLINE
10
241.127051
20
789.313356
30
0.000000
0
VERTEX
8
OUTLINE
10
241.465589
20
788.712547
30
0.000000
0
VERTEX
8
OUTLINE
10
241.657988
20
788.050306
30
0.000000
0
VERTEX
8
OUTLINE
10
241.694080
20
787.361628
30
0.000000
0
VERTEX
8
OUTLINE
10
241.571958
20
786.682905
30
0.000000
0
VERTEX
8
OUTLINE
10
241.298076
20
786.050000
30
0.000000
0
VERTEX
8
OUTLINE
10
258.000000
20
786.050000
30
0.000000
0
VERTEX
8
OUTLINE
10
258.000000
20
826.050000
30
0.000000
0
VERTEX
8
OUTLINE
10
241.298076
20
826.050000
30
0.000000
0
VERTEX
8
OUTLINE
10
241.571958
20
825.417095
30
0.000000
0
VERTEX
8
OUTLINE
10
241.694080
20
824.738372
30
0.000000
0
VERTEX
8
OUTLINE
10
241.657988
20
824.049694
30
0.000000
0
VERTEX
8
OUTLINE
10
241.465589
20
823.387453
30
0.000000
0
VERTEX
8
OUTLINE
10
241.127051
20
822.786644
30
0.000000
0
VERTEX
8
OUTLINE
10
240.660262
20
822.279015
30
0.000000
0
VERTEX
8
OUTLINE
10
240.089888
20
821.891389
30
0.000000
0
VERTEX
8
OUTLINE
10
239.446070
20
821.644251
30
0.000000
0
VERTEX
8
OUTLINE
10
238.762827
20
821.550658
30
0.000000
0
VERTEX
8
OUTLINE
10
238.076265
20
821.615557
30
0.000000
0
VERTEX
8
OUTLINE
10
237.422662
20
821.835519
30
0.000000
0
VERTEX
8
OUTLINE
10
236.836557
20
822.198920
30
0.000000
0
VERTEX
8
OUTLINE
10
236.348920
20
822.686557
30
0.000000
0
VERTEX
8
OUTLINE
10
235.985519
20
823.272662
30
0.000000
0
VERTEX
8
OUTLINE
10
235.765557
20
823.926265
30
0.000000
0
VERTEX
8
OUTLINE
10
235.700658
20
824.612827
30
0.000000
0
VERTEX
8
OUTLINE
10
235.794251
20
825.296070
30
0.000000
0
VERTEX
8
OUTLINE
10
236.041389
20
825.939888
30
0.000000
0
VERTEX
8
OUTLINE
10
236.429015
20
826.510262
30
0.000000
0
VERTEX
8
OUTLINE
10
236.936644
20
826.977051
30
0.000000
0
VERTEX
8
OUTLINE
10
237.537453
20
827.315589
30
0.000000
0
VERTEX
8
OUTLINE
10
238.199694
20
827.507988
30
0.000000
0
VERTEX
8
OUTLINE
10
238.888372
20
827.544080
30
0.000000
0
VERTEX
8
OUTLINE
10
239.567095
20
827.421958
30
0.000000
0
VERTEX
8
OUTLINE
10
240.200000
20
827.148076
30
0.000000
0
VERTEX
8
OUTLINE
10
240.200000
20
890.318590
30
0.000000
0
VERTEX
8
OUTLINE
10
239.567095
20
890.044708
30
0.000000
0
VERTEX
8
OUTLINE
10
238.888372
20
889.922586
30
0.000000
0
VERTEX
8
OUTLINE
10
238.199694
20
889.958679
30
0.000000
0
VERTEX
8
OUTLINE
10
237.537453
20
890.151077
30
0.000000
0
VERTEX
8
OUTLINE
10
236.936644
20
890.489616
30
0.000000
0
VERTEX
8
OUTLINE
10
236.429015
20
890.956405
30
0.000000
0
VERTEX
8
OUTLINE
10
236.041389
20
891.526779
30
0.000000
0
VERTEX
8
OUTLINE
10
235.794251
20
892.170597
30
0.000000
0
VERTEX
8
OUTLINE
10
235.700658
20
892.853839
30
0.000000
0
VERTEX
8
OUTLINE
10
235.765557
20
893.540402
30
0.000000
0
VERTEX
8
OUTLINE
10
235.985519
20
894.194005
30
0.000000
0
VERTEX
8
OUTLINE
10
236.348920
20
894.780110
30
0.000000
0
VERTEX
8
OUTLINE
10
236.836557
20
895.267747
30
0.000000
0
VERTEX
8
OUTLINE
10
237.422662
20
895.631148
30
0.000000
0
VERTEX
8
OUTLINE
10
238.076265
20
895.851109
30
0.000000
0
VERTEX
8
OUTLINE
10
238.762827
20
895.916009
30
0.000000
0
VERTEX
8
OUTLINE
10
239.446070
20
895.822416
30
0.000000
0
VERTEX
8
OUTLINE
10
240.089888
20
895.575277
30
0.000000
0
VERTEX
8
OUTLINE
10
240.660262
20
895.187652
30
0.000000
0
VERTEX
8
OUTLINE
10
241.127051
20
894.680022
30
0.000000
0
VERTEX
8
OUTLINE
10
241.465589
20
894.079213
30
0.000000
0
VERTEX
8
OUTLINE
10
241.657988
20
893.416973
30
0.000000
0
VERTEX
8
OUTLINE
10
241.694080
20
892.728295
30
0.000000
0
VERTEX
8
OUTLINE
10
241.571958
20
892.049571
30
0.000000
0
VERTEX
8
OUTLINE
10
241.298076
20
891.416667
30
0.000000
0
VERTEX
8
OUTLINE
10
258.000000
20
891.416667
30
0.000000
0
VERTEX
8
OUTLINE
10
258.000000
20
931.416667
30
0.000000
0
VERTEX
8
OUTLINE
10
241.298076
20
931.416667
30
0.000000
0
VERTEX
8
OUTLINE
10
241.571958
20
930.783762
30
0.000000
0
VERTEX
8
OUTLINE
10
241.694080
20
930.105038
30
0.000000
0
VERTEX
8
OUTLINE
10
241.657988
20
929.416360
30
0.000000
0
VERTEX
8
OUTLINE
10
241.465589
20
928.754120
30
0.000000
0
VERTEX
8
OUTLINE
10
241.127051
20
928.153311
30
0.000000
0
VERTEX
8
OUTLINE
10
240.660262
20
927.645681
30
0.000000
0
VERTEX
8
OUTLINE
10
240.089888
20
927.258056
30
0.000000
0
VERTEX
8
OUTLINE
10
239.446070
20
927.010917
30
0.000000
0
VERTEX
8
OUTLINE
10
238.762827
20
926.917325
30
0.000000
0
VERTEX
8
OUTLINE
10
238.076265
20
926.982224
30
0.000000
0
VERTEX
8
OUTLINE
10
237.422662
20
927.202186
30
0.000000
0
VERTEX
8
OUTLINE
10
236.836557
20
927.565586
30
0.000000
0
VERTEX
8
OUTLINE
10
236.348920
20
928.053223
30
0.000000
0
VERTEX
8
OUTLINE
10
235.985519
20
928.639329
30
0.000000
0
VERTEX
8
OUTLINE
10
235.765557
20
929.292932
30
0.000000
0
VERTEX
8
OUTLINE
10
235.700658
20
929.979494
30
0.000000
0
VERTEX
8
OUTLINE
10
235.794251
20
930.662736
30
0.000000
0
VERTEX
8
OUTLINE
10
236.041389
20
931.306555
30
0.000000
0
VERTEX
8
OUTLINE
10
236.429015
20
931.876928
30
0.000000
0
VERTEX
8
OUTLINE
10
236.936644
20
932.343718
30
0.000000
0
VERTEX
8
OUTLINE
10
237.537453
20
932.682256
30
0.000000
0
VERTEX
8
OUTLINE
10
238.199694
20
932.874655
30
0.000000
0
VERTEX
8
OUTLINE
10
238.888372
20
932.910747
30
0.000000
0
VERTEX
8
OUTLINE
10
239.567095
20
932.788625
30
0.000000
0
VERTEX
8
OUTLINE
10
240.200000
20
932.514743
30
0.000000
0
VERTEX
8
OUTLINE
10
240.200000
20
994.100000
30
0.000000
0
VERTEX
8
OUTLINE
10
0.000000
20
994.100000
30
0.000000
0
SEQEND
8
OUTLINE
0
POLYLINE
8
THROUGH
66
1.000000
70
1.000000
10
0.000000
20
0.000000
30
0.000000
0
VERTEX
8
THROUGH
10
40.536924
20
680.608333
30
0.000000
42
7.595754
0
VERTEX
8
THROUGH
10
41.635000
20
681.706410
30
0.000000
0
VERTEX
8
THROUGH
10
41.635000
20
719.660257
30
0.000000
42
7.595754
0
VERTEX
8
THROUGH
10
40.536924
20
720.758333
30
0.000000
0
VERTEX
8
THROUGH
10
24.783076
20
720.758333
30
0.000000
42
7.595754
0
VERTEX
8
THROUGH
10
23.685000
20
719.660257
30
0.000000
0
VERTEX
8
THROUGH
10
23.685000
20
681.706410
30
0.000000
42
7.595754
0
VERTEX
8
THROUGH
10
24.783076
20
680.608333
30
0.000000
0
SEQEND
8
THROUGH
0
POLYLINE
8
THROUGH
66
1.000000
70
1.000000
10
0.000000
20
0.000000
30
0.000000
0
VERTEX
8
THROUGH
10
40.536924
20
785.975000
30
0.000000
42
7.595754
0
VERTEX
8
THROUGH
10
41.635000
20
787.073076
30
0.000000
0
VERTEX
8
THROUGH
10
41.635000
20
825.026924
30
0.000000
42
7.595754
0
VERTEX
8
THROUGH
10
40.536924
20
826.125000
30
0.000000
0
VERTEX
8
THROUGH
10
24.783076
20
826.125000
30
0.000000
42
7.595754
0
VERTEX
8
THROUGH
10
23.685000
20
825.026924
30
0.000000
0
VERTEX
8
THROUGH
10
23.685000
20
787.073076
30
0.000000
42
7.595754
0
VERTEX
8
THROUGH
10
24.783076
20
785.975000
30
0.000000
0
SEQEND
8
THROUGH
0
POLYLINE
8
THROUGH
66
1.000000
70
1.000000
10
0.000000
20
0.000000
30
0.000000
0
VERTEX
8
THROUGH
10
40.536924
20
891.341667
30
0.000000
42
7.595754
0
VERTEX
8
THROUGH
10
41.635000
20
892.439743
30
0.000000
0
VERTEX
8
THROUGH
10
41.635000
20
930.393590
30
0.000000
42
7.595754
0
VERTEX
8
THROUGH
10
40.536924
20
931.491667
30
0.000000
0
VERTEX
8
THROUGH
10
24.783076
20
931.491667
30
0.000000
42
7.595754
0
VERTEX
8
THROUGH
10
23.685000
20
930.393590
30
0.000000
0
VERTEX
8
THROUGH
10
23.685000
20
892.439743
30
0.000000
42
7.595754
0
VERTEX
8
THROUGH
10
24.783076
20
891.341667
30
0.000000
0
SEQEND
8
THROUGH
0
POLYLINE
8
OUTLINE
66
1.000000
70
1.000000
10
0.000000
20
0.000000
30
0.000000
0
VERTEX
8
OUTLINE
10
17.800000
20
10.000000
30
0.000000
0
VERTEX
8
OUTLINE
10
441.100000
20
10.000000
30
0.000000
0
VERTEX
8
OUTLINE
10
441.100000
20
71.585257
30
0.000000
42
-7.595754
0
VERTEX
8
OUTLINE
10
442.198076
20
72.683333
30
0.000000
0
VERTEX
8
OUTLINE
10
458.900000
20
72.683333
30
0.000000
0
VERTEX
8
OUTLINE
10
458.900000
20
112.683333
30
0.000000
0
VERTEX
8
OUTLINE
10
442.198076
20
112.683333
30
0.000000
42
-7.595754
0
VERTEX
8
OUTLINE
10
441.100000
20
113.781410
30
0.000000
0
VERTEX
8
OUTLINE
10
441.100000
20
176.951924
30
0.000000
42
-7.595754
0
VERTEX
8
OUTLINE
10
442.198076
20
178.050000
30
0.000000
0
VERTEX
8
OUTLINE
10
458.900000
20
178.050000
30
0.000000
0
VERTEX
8
OUTLINE
10
458.900000
20
218.050000
30
0.000000
0
VERTEX
8
OUTLINE
10
442.198076
20
218.050000
30
0.000000
42
-7.595754
0
VERTEX
8
OUTLINE
10
441.100000
20
219.148076
30
0.000000
0
VERTEX
8
OUTLINE
10
441.100000
20
282.318590
30
0.000000
42
-7.595754
0
VERTEX
8
OUTLINE
10
442.198076
20
283.416667
30
0.000000
0
VERTEX
8
OUTLINE
10
458.900000
20
283.416667
30
0.000000
0
VERTEX
8
OUTLINE
10
458.900000
20
323.416667
30
0.000000
0
VERTEX
8
OUTLINE
10
442.198076
20
323.416667
30
0.000000
42
-7.595754
0
VERTEX
8
OUTLINE
10
441.100000
20
324.514743
30
0.000000
0
VERTEX
8
OUTLINE
10
441.100000
20
386.100000
30
0.000000
0
VERTEX
8
OUTLINE
10
17.800000
20
386.100000
30
0.000000
0
VERTEX
8
OUTLINE
10
17.800000
20
324.514743
30
0.000000
42
-7.595754
0
VERTEX
8
OUTLINE
10
16.701924
20
323.416667
30
0.000000
0
VERTEX
8
OUTLINE
10
0.000000
20
323.416667
30
0.000000
0
VERTEX
8
OUTLINE
10
0.000000
20
283.416667
30
0.000000
0
VERTEX
8
OUTLINE
10
16.701924
20
283.416667
30
0.000000
42
-7.595754
0
VERTEX
8
OUTLINE
10
17.800000
20
282.318590
30
0.000000
0
VERTEX
8
OUTLINE
10
17.800000
20
219.148076
30
0.000000
42
-7.595754
0
VERTEX
8
OUTLINE
10
16.701924
20
218.050000
30
0.000000
0
VERTEX
8
OUTLINE
10
0.000000
20
218.050000
30
0.000000
0
VERTEX
8
OUTLINE
10
0.000000
20
178.050000
30
0.000000
0
VERTEX
8
OUTLINE
10
16.701924
20
178.050000
30
0.000000
42
-7.595754
0
VERTEX
8
OUTLINE
10
17.800000
20
176.951924
30
0.000000
0
VERTEX
8
OUTLINE
10
17.800000
20
113.781410
30
0.000000
42
-7.595754
0
VERTEX
8
OUTLINE
10
16.701924
20
112.683333
30
0.000000
0
VERTEX
8
OUTLINE
10
0.000000
20
112.683333
30
0.000000
0
VERTEX
8
OUTLINE
10
0.000000
20
72.683333
30
0.000000
0
VERTEX
8
OUTLINE
10
16.701924
20
72.683333
30
0.000000
42
-7.595754
0
VERTEX
8
OUTLINE
10
17.800000
20
71.585257
30
0.000000
0
SEQEND
8
OUTLINE
0
CIRCLE
8
DRILL_5_D12
10
112.200000
20
655.000000
30
0.000000
40
2.500000
0
CIRCLE
8
DRILL_5_D12
10
112.200000
20
957.100000
30
0.000000
40
2.500000
0
CIRCLE
8
DRILL_5_D12
10
80.200000
20
655.000000
30
0.000000
40
2.500000
0
CIRCLE
8
DRILL_5_D12
10
80.200000
20
957.100000
30
0.000000
40
2.500000
0
CIRCLE
8
DRILL_5_D12
10
48.200000
20
655.000000
30
0.000000
40
2.500000
0
CIRCLE
8
DRILL_5_D12
10
48.200000
20
957.100000
30
0.000000
40
2.500000
0
CIRCLE
8
DRILL_5_D12
10
16.200000
20
655.000000
30
0.000000
40
2.500000
0
CIRCLE
8
DRILL_5_D12
10
16.200000
20
957.100000
30
0.000000
40
2.500000
0
CIRCLE
8
TILE_REG
10
0.000000
20
6.000000
30
0.000000
40
3.000000
0
CIRCLE
8
TILE_REG
10
0.000000
20
1214.000000
30
0.000000
40
3.000000
0
TEXT
8
LABEL
10
246.000000
20
630.000000
30
0.000000
40
8.000000
1
C1-T-DIV-1
0
TEXT
8
LABEL
10
12.000000
20
22.000000
30
0.000000
40
8.000000
1
C1-T-SHELF-1-2
0
ENDSEC
0
EOF
