0
SECTION
2
HEADER
9
$ACADVER
1
AC1009
9
$INSUNITS
70
4.000000
9
$MEASUREMENT
70
1.000000
0
ENDSEC
0
SECTION
2
TABLES
0
TABLE
2
LAYER
70
3.000000
0
LAYER
2
LABEL
70
0.000000
62
8.000000
6
CONTINUOUS
0
LAYER
2
OUTLINE
70
0.000000
62
7.000000
6
CONTINUOUS
0
LAYER
2
TILE_REG
70
0.000000
62
6.000000
6
CONTINUOUS
0
ENDTAB
0
ENDSEC
0
SECTION
2
ENTITIES
0
POLYLINE
8
OUTLINE
66
1.000000
70
1.000000
10
0.000000
20
0.000000
30
0.000000
0
VERTEX
8
OUTLINE
10
17.800000
20
10.000000
30
0.000000
0
VERTEX
8
OUTLINE
10
441.100000
20
10.000000
30
0.000000
0
VERTEX
8
OUTLINE
10
441.100000
20
83.414424
30
0.000000
42
-7.595754
0
VERTEX
8
OUTLINE
10
442.198076
20
84.512500
30
0.000000
0
VERTEX
8
OUTLINE
10
458.900000
20
84.512500
30
0.000000
0
VERTEX
8
OUTLINE
10
458.900000
20
124.512500
30
0.000000
0
VERTEX
8
OUTLINE
10
442.198076
20
124.512500
30
0.000000
42
-7.595754
0
VERTEX
8
OUTLINE
10
441.100000
20
125.610576
30
0.000000
0
VERTEX
8
OUTLINE
10
441.100000
20
212.439424
30
0.000000
42
-7.595754
0
VERTEX
8
OUTLINE
10
442.198076
20
213.537500
30
0.000000
0
VERTEX
8
OUTLINE
10
458.900000
20
213.537500
30
0.000000
0
VERTEX
8
OUTLINE
10
458.900000
20
253.537500
30
0.000000
0
VERTEX
8
OUTLINE
10
442.198076
20
253.537500
30
0.000000
42
-7.595754
0
VERTEX
8
OUTLINE
10
441.100000
20
254.635576
30
0.000000
0
VERTEX
8
OUTLINE
10
441.100000
20
341.464424
30
0.000000
42
-7.595754
0
VERTEX
8
OUTLINE
10
442.198076
20
342.562500
30
0.000000
0
VERTEX
8
OUTLINE
10
458.900000
20
342.562500
30
0.000000
0
VERTEX
8
OUTLINE
10
458.900000
20
382.562500
30
0.000000
0
VERTEX
8
OUTLINE
10
442.198076
20
382.562500
30
0.000000
42
-7.595754
0
VERTEX
8
OUTLINE
10
441.100000
20
383.660576
30
0.000000
0
VERTEX
8
OUTLINE
10
441.100000
20
470.489424
30
0.000000
42
-7.595754
0
VERTEX
8
OUTLINE
10
442.198076
20
471.587500
30
0.000000
0
VERTEX
8
OUTLINE
10
458.900000
20
471.587500
30
0.000000
0
VERTEX
8
OUTLINE
10
458.900000
20
511.587500
30
0.000000
0
VERTEX
8
OUTLINE
10
442.198076
20
511.587500
30
0.000000
42
-7.595754
0
VERTEX
8
OUTLINE
10
441.100000
20
512.685576
30
0.000000
0
VERTEX
8
OUTLINE
10
441.100000
20
586.100000
30
0.000000
0
VERTEX
8
OUTLINE
10
17.800000
20
586.100000
30
0.000000
0
VERTEX
8
OUTLINE
10
17.800000
20
512.685576
30
0.000000
42
-7.595754
0
VERTEX
8
OUTLINE
10
16.701924
20
511.587500
30
0.000000
0
VERTEX
8
OUTLINE
10
0.000000
20
511.587500
30
0.000000
0
VERTEX
8
OUTLINE
10
0.000000
20
471.587500
30
0.000000
0
VERTEX
8
OUTLINE
10
16.701924
20
471.587500
30
0.000000
42
-7.595754
0
VERTEX
8
OUTLINE
10
17.800000
20
470.489424
30
0.000000
0
VERTEX
8
OUTLINE
10
17.800000
20
383.660576
30
0.000000
42
-7.595754
0
VERTEX
8
OUTLINE
10
16.701924
20
382.562500
30
0.000000
0
VERTEX
8
OUTLINE
10
0.000000
20
382.562500
30
0.000000
0
VERTEX
8
OUTLINE
10
0.000000
20
342.562500
30
0.000000
0
VERTEX
8
OUTLINE
10
16.701924
20
342.562500
30
0.000000
42
-7.595754
0
VERTEX
8
OUTLINE
10
17.800000
20
341.464424
30
0.000000
0
VERTEX
8
OUTLINE
10
17.800000
20
254.635576
30
0.000000
42
-7.595754
0
VERTEX
8
OUTLINE
10
16.701924
20
253.537500
30
0.000000
0
VERTEX
8
OUTLINE
10
0.000000
20
253.537500
30
0.000000
0
VERTEX
8
OUTLINE
10
0.000000
20
213.537500
30
0.000000
0
VERTEX
8
OUTLINE
10
16.701924
20
213.537500
30
0.000000
42
-7.595754
0
VERTEX
8
OUTLINE
10
17.800000
20
212.439424
30
0.000000
0
VERTEX
8
OUTLINE
10
17.800000
20
125.610576
30
0.000000
42
-7.595754
0
VERTEX
8
OUTLINE
10
16.701924
20
124.512500
30
0.000000
0
VERTEX
8
OUTLINE
10
0.000000
20
124.512500
30
0.000000
0
VERTEX
8
OUTLINE
10
0.000000
20
84.512500
30
0.000000
0
VERTEX
8
OUTLINE
10
16.701924
20
84.512500
30
0.000000
42
-7.595754
0
VERTEX
8
OUTLINE
10
17.800000
20
83.414424
30
0.000000
0
SEQEND
8
OUTLINE
0
POLYLINE
8
OUTLINE
66
1.000000
70
1.000000
10
0.000000
20
0.000000
30
0.000000
0
VERTEX
8
OUTLINE
10
17.800000
20
594.100000
30
0.000000
0
VERTEX
8
OUTLINE
10
441.100000
20
594.100000
30
0.000000
0
VERTEX
8
OUTLINE
10
441.100000
20
655.685257
30
0.000000
42
-7.595754
0
VERTEX
8
OUTLINE
10
442.198076
20
656.783333
30
0.000000
0
VERTEX
8
OUTLINE
10
458.900000
20
656.783333
30
0.000000
0
VERTEX
8
OUTLINE
10
458.900000
20
696.783333
30
0.000000
0
VERTEX
8
OUTLINE
10
442.198076
20
696.783333
30
0.000000
42
-7.595754
0
VERTEX
8
OUTLINE
10
441.100000
20
697.881410
30
0.000000
0
VERTEX
8
OUTLINE
10
441.100000
20
761.051924
30
0.000000
42
-7.595754
0
VERTEX
8
OUTLINE
10
442.198076
20
762.150000
30
0.000000
0
VERTEX
8
OUTLINE
10
458.900000
20
762.150000
30
0.000000
0
VERTEX
8
OUTLINE
10
458.900000
20
802.150000
30
0.000000
0
VERTEX
8
OUTLINE
10
442.198076
20
802.150000
30
0.000000
42
-7.595754
0
VERTEX
8
OUTLINE
10
441.100000
20
803.248076
30
0.000000
0
VERTEX
8
OUTLINE
10
441.100000
20
866.418590
30
0.000000
42
-7.595754
0
VERTEX
8
OUTLINE
10
442.198076
20
867.516667
30
0.000000
0
VERTEX
8
OUTLINE
10
458.900000
20
867.516667
30
0.000000
0
VERTEX
8
OUTLINE
10
458.900000
20
907.516667
30
0.000000
0
VERTEX
8
OUTLINE
10
442.198076
20
907.516667
30
0.000000
42
-7.595754
0
VERTEX
8
OUTLINE
10
441.100000
20
908.614743
30
0.000000
0
VERTEX
8
OUTLINE
10
441.100000
20
970.200000
30
0.000000
0
VERTEX
8
OUTLINE
10
17.800000
20
970.200000
30
0.000000
0
VERTEX
8
OUTLINE
10
17.800000
20
908.614743
30
0.000000
42
-7.595754
0
VERTEX
8
OUTLINE
10
16.701924
20
907.516667
30
0.000000
0
VERTEX
8
OUTLINE
10
0.000000
20
907.516667
30
0.000000
0
VERTEX
8
OUTLINE
10
0.000000
20
867.516667
30
0.000000
0
VERTEX
8
OUTLINE
10
16.701924
20
867.516667
30
0.000000
42
-7.595754
0
VERTEX
8
OUTLINE
10
17.800000
20
866.418590
30
0.000000
0
VERTEX
8
OUTLINE
10
17.800000
20
803.248076
30
0.000000
42
-7.595754
0
VERTEX
8
OUTLINE
10
16.701924
20
802.150000
30
0.000000
0
VERTEX
8
OUTLINE
10
0.000000
20
802.150000
30
0.000000
0
VERTEX
8
OUTLINE
10
0.000000
20
762.150000
30
0.000000
0
VERTEX
8
OUTLINE
10
16.701924
20
762.150000
30
0.000000
42
-7.595754
0
VERTEX
8
OUTLINE
10
17.800000
20
761.051924
30
0.000000
0
VERTEX
8
OUTLINE
10
17.800000
20
697.881410
30
0.000000
42
-7.595754
0
VERTEX
8
OUTLINE
10
16.701924
20
696.783333
30
0.000000
0
VERTEX
8
OUTLINE
10
0.000000
20
696.783333
30
0.000000
0
VERTEX
8
OUTLINE
10
0.000000
20
656.783333
30
0.000000
0
VERTEX
8
OUTLINE
10
16.701924
20
656.783333
30
0.000000
42
-7.595754
0
VERTEX
8
OUTLINE
10
17.800000
20
655.685257
30
0.000000
0
SEQEND
8
OUTLINE
0
CIRCLE
8
TILE_REG
10
0.000000
20
6.000000
30
0.000000
40
3.000000
0
CIRCLE
8
TILE_REG
10
0.000000
20
1214.000000
30
0.000000
40
3.000000
0
TEXT
8
LABEL
10
12.000000
20
22.000000
30
0.000000
40
8.000000
1
C1-B-SHELF-2-1
0
TEXT
8
LABEL
10
12.000000
20
606.100000
30
0.000000
40
8.000000
1
C1-T-SHELF-1-1
0
ENDSEC
0
EOF
