0
SECTION
2
HEADER
9
$ACADVER
1
AC1009
9
$INSUNITS
70
4.000000
9
$MEASUREMENT
70
1.000000
0
ENDSEC
0
SECTION
2
TABLES
0
TABLE
2
LAYER
70
7.000000
0
LAYER
2
DRILL_4.5_THRU
70
0.000000
62
5.000000
6
CONTINUOUS
0
LAYER
2
DRILL_5_D12
70
0.000000
62
5.000000
6
CONTINUOUS
0
LAYER
2
LABEL
70
0.000000
62
8.000000
6
CONTINUOUS
0
LAYER
2
OUTLINE
70
0.000000
62
7.000000
6
CONTINUOUS
0
LAYER
2
POCKET_D6
70
0.000000
62
3.000000
6
CONTINUOUS
0
LAYER
2
SHEET
70
0.000000
62
8.000000
6
CONTINUOUS
0
LAYER
2
THROUGH
70
0.000000
62
1.000000
6
CONTINUOUS
0
ENDTAB
0
ENDSEC
0
SECTION
2
ENTITIES
0
POLYLINE
8
SHEET
66
1.000000
70
1.000000
10
0.000000
20
0.000000
30
0.000000
0
VERTEX
8
SHEET
10
0.000000
20
0.000000
30
0.000000
0
VERTEX
8
SHEET
10
2440.000000
20
0.000000
30
0.000000
0
VERTEX
8
SHEET
10
2440.000000
20
1220.000000
30
0.000000
0
VERTEX
8
SHEET
10
0.000000
20
1220.000000
30
0.000000
0
SEQEND
8
SHEET
0
POLYLINE
8
OUTLINE
66
1.000000
70
1.000000
10
0.000000
20
0.000000
30
0.000000
0
VERTEX
8
OUTLINE
10
796.200000
20
10.000000
30
0.000000
0
VERTEX
8
OUTLINE
10
796.200000
20
60.000000
30
0.000000
0
VERTEX
8
OUTLINE
10
896.200000
20
60.000000
30
0.000000
0
VERTEX
8
OUTLINE
10
896.200000
20
610.000000
30
0.000000
0
VERTEX
8
OUTLINE
10
10.000000
20
610.000000
30
0.000000
0
VERTEX
8
OUTLINE
10
10.000000
20
23.150000
30
0.000000
0
VERTEX
8
OUTLINE
10
14.000000
20
23.150000
30
0.000000
0
VERTEX
8
OUTLINE
10
14.000000
20
10.000000
30
0.000000
0
SEQEND
8
OUTLINE
0
POLYLINE
8
THROUGH
66
1.000000
70
1.000000
10
0.000000
20
0.000000
30
0.000000
0
VERTEX
8
THROUGH
10
795.176924
20
73.925000
30
0.000000
42
7.595754
0
VERTEX
8
THROUGH
10
796.275000
20
75.023076
30
0.000000
0
VERTEX
8
THROUGH
10
796.275000
20
112.976924
30
0.000000
42
7.595754
0
VERTEX
8
THROUGH
10
795.176924
20
114.075000
30
0.000000
0
VERTEX
8
THROUGH
10
779.423076
20
114.075000
30
0.000000
42
7.595754
0
VERTEX
8
THROUGH
10
778.325000
20
112.976924
30
0.000000
0
VERTEX
8
THROUGH
10
778.325000
20
75.023076
30
0.000000
42
7.595754
0
VERTEX
8
THROUGH
10
779.423076
20
73.925000
30
0.000000
0
SEQEND
8
THROUGH
0
POLYLINE
8
THROUGH
66
1.000000
70
1.000000
10
0.000000
20
0.000000
30
0.000000
0
VERTEX
8
THROUGH
10
795.176924
20
181.925000
30
0.000000
42
7.595754
0
VERTEX
8
THROUGH
10
796.275000
20
183.023076
30
0.000000
0
VERTEX
8
THROUGH
10
796.275000
20
220.976924
30
0.000000
42
7.595754
0
VERTEX
8
THROUGH
10
795.176924
20
222.075000
30
0.000000
0
VERTEX
8
THROUGH
10
779.423076
20
222.075000
30
0.000000
42
7.595754
0
VERTEX
8
THROUGH
10
778.325000
20
220.976924
30
0.000000
0
VERTEX
8
THROUGH
10
778.325000
20
183.023076
30
0.000000
42
7.595754
0
VERTEX
8
THROUGH
10
779.423076
20
181.925000
30
0.000000
0
SEQEND
8
THROUGH
0
POLYLINE
8
THROUGH
66
1.000000
70
1.000000
10
0.000000
20
0.000000
30
0.000000
0
VERTEX
8
THROUGH
10
795.176924
20
289.925000
30
0.000000
42
7.595754
0
VERTEX
8
THROUGH
10
796.275000
20
291.023076
30
0.000000
0
VERTEX
8
THROUGH
10
796.275000
20
328.976924
30
0.000000
42
7.595754
0
VERTEX
8
THROUGH
10
795.176924
20
330.075000
30
0.000000
0
VERTEX
8
THROUGH
10
779.423076
20
330.075000
30
0.000000
42
7.595754
0
VERTEX
8
THROUGH
10
778.325000
20
328.976924
30
0.000000
0
VERTEX
8
THROUGH
10
778.325000
20
291.023076
30
0.000000
42
7.595754
0
VERTEX
8
THROUGH
10
779.423076
20
289.925000
30
0.000000
0
SEQEND
8
THROUGH
0
POLYLINE
8
THROUGH
66
1.000000
70
1.000000
10
0.000000
20
0.000000
30
0.000000
0
VERTEX
8
THROUGH
10
795.176924
20
397.925000
30
0.000000
42
7.595754
0
VERTEX
8
THROUGH
10
796.275000
20
399.023076
30
0.000000
0
VERTEX
8
THROUGH
10
796.275000
20
436.976924
30
0.000000
42
7.595754
0
VERTEX
8
THROUGH
10
795.176924
20
438.075000
30
0.000000
0
VERTEX
8
THROUGH
10
779.423076
20
438.075000
30
0.000000
42
7.595754
0
VERTEX
8
THROUGH
10
778.325000
20
436.976924
30
0.000000
0
VERTEX
8
THROUGH
10
778.325000
20
399.023076
30
0.000000
42
7.595754
0
VERTEX
8
THROUGH
10
779.423076
20
397.925000
30
0.000000
0
SEQEND
8
THROUGH
0
POLYLINE
8
THROUGH
66
1.000000
70
1.000000
10
0.000000
20
0.000000
30
0.000000
0
VERTEX
8
THROUGH
10
795.176924
20
505.925000
30
0.000000
42
7.595754
0
VERTEX
8
THROUGH
10
796.275000
20
507.023076
30
0.000000
0
VERTEX
8
THROUGH
10
796.275000
20
544.976924
30
0.000000
42
7.595754
0
VERTEX
8
THROUGH
10
795.176924
20
546.075000
30
0.000000
0
VERTEX
8
THROUGH
10
779.423076
20
546.075000
30
0.000000
42
7.595754
0
VERTEX
8
THROUGH
10
778.325000
20
544.976924
30
0.000000
0
VERTEX
8
THROUGH
10
778.325000
20
507.023076
30
0.000000
42
7.595754
0
VERTEX
8
THROUGH
10
779.423076
20
505.925000
30
0.000000
0
SEQEND
8
THROUGH
0
POLYLINE
8
POCKET_D6
66
1.000000
70
1.000000
10
0.000000
20
0.000000
30
0.000000
0
VERTEX
8
POCKET_D6
10
896.200000
20
59.925000
30
0.000000
0
VERTEX
8
POCKET_D6
10
896.200000
20
77.875000
30
0.000000
0
VERTEX
8
POCKET_D6
10
796.200000
20
77.875000
30
0.000000
0
VERTEX
8
POCKET_D6
10
796.200000
20
59.925000
30
0.000000
0
SEQEND
8
POCKET_D6
0
POLYLINE
8
POCKET_D6
66
1.000000
70
1.000000
10
0.000000
20
0.000000
30
0.000000
0
VERTEX
8
POCKET_D6
10
778.400000
20
586.025000
30
0.000000
0
VERTEX
8
POCKET_D6
10
778.400000
20
598.075000
30
0.000000
0
VERTEX
8
POCKET_D6
10
14.000000
20
598.075000
30
0.000000
0
VERTEX
8
POCKET_D6
10
14.000000
20
586.025000
30
0.000000
0
SEQEND
8
POCKET_D6
0
POLYLINE
8
OUTLINE
66
1.000000
70
1.000000
10
0.000000
20
0.000000
30
0.000000
0
VERTEX
8
OUTLINE
10
1866.200000
20
10.000000
30
0.000000
0
VERTEX
8
OUTLINE
10
1866.200000
20
560.000000
30
0.000000
0
VERTEX
8
OUTLINE
10
1766.200000
20
560.000000
30
0.000000
0
VERTEX
8
OUTLINE
10
1766.200000
20
610.000000
30
0.000000
0
VERTEX
8
OUTLINE
10
984.000000
20
610.000000
30
0.000000
0
VERTEX
8
OUTLINE
10
984.000000
20
596.850000
30
0.000000
0
VERTEX
8
OUTLINE
10
980.000000
20
596.850000
30
0.000000
0
VERTEX
8
OUTLINE
10
980.000000
20
10.000000
30
0.000000
0
SEQEND
8
OUTLINE
0
POLYLINE
8
THROUGH
66
1.000000
70
1.000000
10
0.000000
20
0.000000
30
0.000000
0
VERTEX
8
THROUGH
10
1765.176924
20
505.925000
30
0.000000
42
7.595754
0
VERTEX
8
THROUGH
10
1766.275000
20
507.023076
30
0.000000
0
VERTEX
8
THROUGH
10
1766.275000
20
544.976924
30
0.000000
42
7.595754
0
VERTEX
8
THROUGH
10
1765.176924
20
546.075000
30
0.000000
0
VERTEX
8
THROUGH
10
1749.423076
20
546.075000
30
0.000000
42
7.595754
0
VERTEX
8
THROUGH
10
1748.325000
20
544.976924
30
0.000000
0
VERTEX
8
THROUGH
10
1748.325000
20
507.023076
30
0.000000
42
7.595754
0
VERTEX
8
THROUGH
10
1749.423076
20
505.925000
30
0.000000
0
SEQEND
8
THROUGH
0
POLYLINE
8
THROUGH
66
1.000000
70
1.000000
10
0.000000
20
0.000000
30
0.000000
0
VERTEX
8
THROUGH
10
1765.176924
20
397.925000
30
0.000000
42
7.595754
0
VERTEX
8
THROUGH
10
1766.275000
20
399.023076
30
0.000000
0
VERTEX
8
THROUGH
10
1766.275000
20
436.976924
30
0.000000
42
7.595754
0
VERTEX
8
THROUGH
10
1765.176924
20
438.075000
30
0.000000
0
VERTEX
8
THROUGH
10
1749.423076
20
438.075000
30
0.000000
42
7.595754
0
VERTEX
8
THROUGH
10
1748.325000
20
436.976924
30
0.000000
0
VERTEX
8
THROUGH
10
1748.325000
20
399.023076
30
0.000000
42
7.595754
0
VERTEX
8
THROUGH
10
1749.423076
20
397.925000
30
0.000000
0
SEQEND
8
THROUGH
0
POLYLINE
8
THROUGH
66
1.000000
70
1.000000
10
0.000000
20
0.000000
30
0.000000
0
VERTEX
8
THROUGH
10
1765.176924
20
289.925000
30
0.000000
42
7.595754
0
VERTEX
8
THROUGH
10
1766.275000
20
291.023076
30
0.000000
0
VERTEX
8
THROUGH
10
1766.275000
20
328.976924
30
0.000000
42
7.595754
0
VERTEX
8
THROUGH
10
1765.176924
20
330.075000
30
0.000000
0
VERTEX
8
THROUGH
10
1749.423076
20
330.075000
30
0.000000
42
7.595754
0
VERTEX
8
THROUGH
10
1748.325000
20
328.976924
30
0.000000
0
VERTEX
8
THROUGH
10
1748.325000
20
291.023076
30
0.000000
42
7.595754
0
VERTEX
8
THROUGH
10
1749.423076
20
289.925000
30
0.000000
0
SEQEND
8
THROUGH
0
POLYLINE
8
THROUGH
66
1.000000
70
1.000000
10
0.000000
20
0.000000
30
0.000000
0
VERTEX
8
THROUGH
10
1765.176924
20
181.925000
30
0.000000
42
7.595754
0
VERTEX
8
THROUGH
10
1766.275000
20
183.023076
30
0.000000
0
VERTEX
8
THROUGH
10
1766.275000
20
220.976924
30
0.000000
42
7.595754
0
VERTEX
8
THROUGH
10
1765.176924
20
222.075000
30
0.000000
0
VERTEX
8
THROUGH
10
1749.423076
20
222.075000
30
0.000000
42
7.595754
0
VERTEX
8
THROUGH
10
1748.325000
20
220.976924
30
0.000000
0
VERTEX
8
THROUGH
10
1748.325000
20
183.023076
30
0.000000
42
7.595754
0
VERTEX
8
THROUGH
10
1749.423076
20
181.925000
30
0.000000
0
SEQEND
8
THROUGH
0
POLYLINE
8
THROUGH
66
1.000000
70
1.000000
10
0.000000
20
0.000000
30
0.000000
0
VERTEX
8
THROUGH
10
1765.176924
20
73.925000
30
0.000000
42
7.595754
0
VERTEX
8
THROUGH
10
1766.275000
20
75.023076
30
0.000000
0
VERTEX
8
THROUGH
10
1766.275000
20
112.976924
30
0.000000
42
7.595754
0
VERTEX
8
THROUGH
10
1765.176924
20
114.075000
30
0.000000
0
VERTEX
8
THROUGH
10
1749.423076
20
114.075000
30
0.000000
42
7.595754
0
VERTEX
8
THROUGH
10
1748.325000
20
112.976924
30
0.000000
0
VERTEX
8
THROUGH
10
1748.325000
20
75.023076
30
0.000000
42
7.595754
0
VERTEX
8
THROUGH
10
1749.423076
20
73.925000
30
0.000000
0
SEQEND
8
THROUGH
0
POLYLINE
8
POCKET_D6
66
1.000000
70
1.000000
10
0.000000
20
0.000000
30
0.000000
0
VERTEX
8
POCKET_D6
10
1866.200000
20
542.125000
30
0.000000
0
VERTEX
8
POCKET_D6
10
1866.200000
20
560.075000
30
0.000000
0
VERTEX
8
POCKET_D6
10
1766.200000
20
560.075000
30
0.000000
0
VERTEX
8
POCKET_D6
10
1766.200000
20
542.125000
30
0.000000
0
SEQEND
8
POCKET_D6
0
POLYLINE
8
THROUGH
66
1.000000
70
1.000000
10
0.000000
20
0.000000
30
0.000000
0
VERTEX
8
THROUGH
10
1374.076924
20
495.412500
30
0.000000
42
7.595754
0
VERTEX
8
THROUGH
10
1375.175000
20
496.510576
30
0.000000
0
VERTEX
8
THROUGH
10
1375.175000
20
534.464424
30
0.000000
42
7.595754
0
VERTEX
8
THROUGH
10
1374.076924
20
535.562500
30
0.000000
0
VERTEX
8
THROUGH
10
1358.323076
20
535.562500
30
0.000000
42
7.595754
0
VERTEX
8
THROUGH
10
1357.225000
20
534.464424
30
0.000000
0
VERTEX
8
THROUGH
10
1357.225000
20
496.510576
30
0.000000
42
7.595754
0
VERTEX
8
THROUGH
10
1358.323076
20
495.412500
30
0.000000
0
SEQEND
8
THROUGH
0
POLYLINE
8
THROUGH
66
1.000000
70
1.000000
10
0.000000
20
0.000000
30
0.000000
0
VERTEX
8
THROUGH
10
1374.076924
20
366.387500
30
0.000000
42
7.595754
0
VERTEX
8
THROUGH
10
1375.175000
20
367.485576
30
0.000000
0
VERTEX
8
THROUGH
10
1375.175000
20
405.439424
30
0.000000
42
7.595754
0
VERTEX
8
THROUGH
10
1374.076924
20
406.537500
30
0.000000
0
VERTEX
8
THROUGH
10
1358.323076
20
406.537500
30
0.000000
42
7.595754
0
VERTEX
8
THROUGH
10
1357.225000
20
405.439424
30
0.000000
0
VERTEX
8
THROUGH
10
1357.225000
20
367.485576
30
0.000000
42
7.595754
0
VERTEX
8
THROUGH
10
1358.323076
20
366.387500
30
0.000000
0
SEQEND
8
THROUGH
0
POLYLINE
8
THROUGH
66
1.000000
70
1.000000
10
0.000000
20
0.000000
30
0.000000
0
VERTEX
8
THROUGH
10
1374.076924
20
237.362500
30
0.000000
42
7.595754
0
VERTEX
8
THROUGH
10
1375.175000
20
238.460576
30
0.000000
0
VERTEX
8
THROUGH
10
1375.175000
20
276.414424
30
0.000000
42
7.595754
0
VERTEX
8
THROUGH
10
1374.076924
20
277.512500
30
0.000000
0
VERTEX
8
THROUGH
10
1358.323076
20
277.512500
30
0.000000
42
7.595754
0
VERTEX
8
THROUGH
10
1357.225000
20
276.414424
30
0.000000
0
VERTEX
8
THROUGH
10
1357.225000
20
238.460576
30
0.000000
42
7.595754
0
VERTEX
8
THROUGH
10
1358.323076
20
237.362500
30
0.000000
0
SEQEND
8
THROUGH
0
POLYLINE
8
THROUGH
66
1.000000
70
1.000000
10
0.000000
20
0.000000
30
0.000000
0
VERTEX
8
THROUGH
10
1374.076924
20
108.337500
30
0.000000
42
7.595754
0
VERTEX
8
THROUGH
10
1375.175000
20
109.435576
30
0.000000
0
VERTEX
8
THROUGH
10
1375.175000
20
147.389424
30
0.000000
42
7.595754
0
VERTEX
8
THROUGH
10
1374.076924
20
148.487500
30
0.000000
0
VERTEX
8
THROUGH
10
1358.323076
20
148.487500
30
0.000000
42
7.595754
0
VERTEX
8
THROUGH
10
1357.225000
20
147.389424
30
0.000000
0
VERTEX
8
THROUGH
10
1357.225000
20
109.435576
30
0.000000
42
7.595754
0
VERTEX
8
THROUGH
10
1358.323076
20
108.337500
30
0.000000
0
SEQEND
8
THROUGH
0
POLYLINE
8
POCKET_D6
66
1.000000
70
1.000000
10
0.000000
20
0.000000
30
0.000000
0
VERTEX
8
POCKET_D6
10
1748.400000
20
21.925000
30
0.000000
0
VERTEX
8
POCKET_D6
10
1748.400000
20
33.975000
30
0.000000
0
VERTEX
8
POCKET_D6
10
984.000000
20
33.975000
30
0.000000
0
VERTEX
8
POCKET_D6
10
984.000000
20
21.925000
30
0.000000
0
SEQEND
8
POCKET_D6
0
POLYLINE
8
OUTLINE
66
1.000000
70
1.000000
10
0.000000
20
0.000000
30
0.000000
0
VERTEX
8
OUTLINE
10
1110.000000
20
618.000000
30
0.000000
0
VERTEX
8
OUTLINE
10
1110.000000
20
1018.000000
30
0.000000
0
VERTEX
8
OUTLINE
10
10.000000
20
1018.000000
30
0.000000
0
VERTEX
8
OUTLINE
10
10.000000
20
618.000000
30
0.000000
0
SEQEND
8
OUTLINE
0
POLYLINE
8
THROUGH
66
1.000000
70
1.000000
10
0.000000
20
0.000000
30
0.000000
0
VERTEX
8
THROUGH
10
26.776924
20
911.258333
30
0.000000
42
7.595754
0
VERTEX
8
THROUGH
10
27.875000
20
912.356410
30
0.000000
0
VERTEX
8
THROUGH
10
27.875000
20
950.310257
30
0.000000
42
7.595754
0
VERTEX
8
THROUGH
10
26.776924
20
951.408333
30
0.000000
0
VERTEX
8
THROUGH
10
11.023076
20
951.408333
30
0.000000
42
7.595754
0
VERTEX
8
THROUGH
10
9.925000
20
950.310257
30
0.000000
0
VERTEX
8
THROUGH
10
9.925000
20
912.356410
30
0.000000
42
7.595754
0
VERTEX
8
THROUGH
10
11.023076
20
911.258333
30
0.000000
0
SEQEND
8
THROUGH
0
POLYLINE
8
THROUGH
66
1.000000
70
1.000000
10
0.000000
20
0.000000
30
0.000000
0
VERTEX
8
THROUGH
10
26.776924
20
797.925000
30
0.000000
42
7.595754
0
VERTEX
8
THROUGH
10
27.875000
20
799.023076
30
0.000000
0
VERTEX
8
THROUGH
10
27.875000
20
836.976924
30
0.000000
42
7.595754
0
VERTEX
8
THROUGH
10
26.776924
20
838.075000
30
0.000000
0
VERTEX
8
THROUGH
10
11.023076
20
838.075000
30
0.000000
42
7.595754
0
VERTEX
8
THROUGH
10
9.925000
20
836.976924
30
0.000000
0
VERTEX
8
THROUGH
10
9.925000
20
799.023076
30
0.000000
42
7.595754
0
VERTEX
8
THROUGH
10
11.023076
20
797.925000
30
0.000000
0
SEQEND
8
THROUGH
0
POLYLINE
8
THROUGH
66
1.000000
70
1.000000
10
0.000000
20
0.000000
30
0.000000
0
VERTEX
8
THROUGH
10
26.776924
20
684.591667
30
0.000000
42
7.595754
0
VERTEX
8
THROUGH
10
27.875000
20
685.689743
30
0.000000
0
VERTEX
8
THROUGH
10
27.875000
20
723.643590
30
0.000000
42
7.595754
0
VERTEX
8
THROUGH
10
26.776924
20
724.741667
30
0.000000
0
VERTEX
8
THROUGH
10
11.023076
20
724.741667
30
0.000000
42
7.595754
0
VERTEX
8
THROUGH
10
9.925000
20
723.643590
30
0.000000
0
VERTEX
8
THROUGH
10
9.925000
20
685.689743
30
0.000000
42
7.595754
0
VERTEX
8
THROUGH
10
11.023076
20
684.591667
30
0.000000
0
SEQEND
8
THROUGH
0
POLYLINE
8
THROUGH
66
1.000000
70
1.000000
10
0.000000
20
0.000000
30
0.000000
0
VERTEX
8
THROUGH
10
1108.976924
20
911.258333
30
0.000000
42
7.595754
0
VERTEX
8
THROUGH
10
1110.075000
20
912.356410
30
0.000000
0
VERTEX
8
THROUGH
10
1110.075000
20
950.310257
30
0.000000
42
7.595754
0
VERTEX
8
THROUGH
10
1108.976924
20
951.408333
30
0.000000
0
VERTEX
8
THROUGH
10
1093.223076
20
951.408333
30
0.000000
42
7.595754
0
VERTEX
8
THROUGH
10
1092.125000
20
950.310257
30
0.000000
0
VERTEX
8
THROUGH
10
1092.125000
20
912.356410
30
0.000000
42
7.595754
0
VERTEX
8
THROUGH
10
1093.223076
20
911.258333
30
0.000000
0
SEQEND
8
THROUGH
0
POLYLINE
8
THROUGH
66
1.000000
70
1.000000
10
0.000000
20
0.000000
30
0.000000
0
VERTEX
8
THROUGH
10
1108.976924
20
797.925000
30
0.000000
42
7.595754
0
VERTEX
8
THROUGH
10
1110.075000
20
799.023076
30
0.000000
0
VERTEX
8
THROUGH
10
1110.075000
20
836.976924
30
0.000000
42
7.595754
0
VERTEX
8
THROUGH
10
1108.976924
20
838.075000
30
0.000000
0
VERTEX
8
THROUGH
10
1093.223076
20
838.075000
30
0.000000
42
7.595754
0
VERTEX
8
THROUGH
10
1092.125000
20
836.976924
30
0.000000
0
VERTEX
8
THROUGH
10
1092.125000
20
799.023076
30
0.000000
42
7.595754
0
VERTEX
8
THROUGH
10
1093.223076
20
797.925000
30
0.000000
0
SEQEND
8
THROUGH
0
POLYLINE
8
THROUGH
66
1.000000
70
1.000000
10
0.000000
20
0.000000
30
0.000000
0
VERTEX
8
THROUGH
10
1108.976924
20
684.591667
30
0.000000
42
7.595754
0
VERTEX
8
THROUGH
10
1110.075000
20
685.689743
30
0.000000
0
VERTEX
8
THROUGH
10
1110.075000
20
723.643590
30
0.000000
42
7.595754
0
VERTEX
8
THROUGH
10
1108.976924
20
724.741667
30
0.000000
0
VERTEX
8
THROUGH
10
1093.223076
20
724.741667
30
0.000000
42
7.595754
0
VERTEX
8
THROUGH
10
1092.125000
20
723.643590
30
0.000000
0
VERTEX
8
THROUGH
10
1092.125000
20
685.689743
30
0.000000
42
7.595754
0
VERTEX
8
THROUGH
10
1093.223076
20
684.591667
30
0.000000
0
SEQEND
8
THROUGH
0
POLYLINE
8
POCKET_D6
66
1.000000
70
1.000000
10
0.000000
20
0.000000
30
0.000000
0
VERTEX
8
POCKET_D6
10
1092.200000
20
629.925000
30
0.000000
0
VERTEX
8
POCKET_D6
10
1092.200000
20
641.975000
30
0.000000
0
VERTEX
8
POCKET_D6
10
27.800000
20
641.975000
30
0.000000
0
VERTEX
8
POCKET_D6
10
27.800000
20
629.925000
30
0.000000
0
SEQEND
8
POCKET_D6
0
POLYLINE
8
OUTLINE
66
1.000000
70
1.000000
10
0.000000
20
0.000000
30
0.000000
0
VERTEX
8
OUTLINE
10
2200.200000
20
618.000000
30
0.000000
0
VERTEX
8
OUTLINE
10
2200.200000
20
679.585257
30
0.000000
42
-7.595754
0
VERTEX
8
OUTLINE
10
2201.298076
20
680.683333
30
0.000000
0
VERTEX
8
OUTLINE
10
2218.000000
20
680.683333
30
0.000000
0
VERTEX
8
OUTLINE
10
2218.000000
20
720.683333
30
0.000000
0
VERTEX
8
OUTLINE
10
2201.298076
20
720.683333
30
0.000000
42
-7.595754
0
VERTEX
8
OUTLINE
10
2200.200000
20
721.781410
30
0.000000
0
VERTEX
8
OUTLINE
10
2200.200000
20
784.951924
30
0.000000
42
-7.595754
0
VERTEX
8
OUTLINE
10
2201.298076
20
786.050000
30
0.000000
0
VERTEX
8
OUTLINE
10
2218.000000
20
786.050000
30
0.000000
0
VERTEX
8
OUTLINE
10
2218.000000
20
826.050000
30
0.000000
0
VERTEX
8
OUTLINE
10
2201.298076
20
826.050000
30
0.000000
42
-7.595754
0
VERTEX
8
OUTLINE
10
2200.200000
20
827.148076
30
0.000000
0
VERTEX
8
OUTLINE
10
2200.200000
20
890.318590
30
0.000000
42
-7.595754
0
VERTEX
8
OUTLINE
10
2201.298076
20
891.416667
30
0.000000
0
VERTEX
8
OUTLINE
10
2218.000000
20
891.416667
30
0.000000
0
VERTEX
8
OUTLINE
10
2218.000000
20
931.416667
30
0.000000
0
VERTEX
8
OUTLINE
10
2201.298076
20
931.416667
30
0.000000
42
-7.595754
0
VERTEX
8
OUTLINE
10
2200.200000
20
932.514743
30
0.000000
0
VERTEX
8
OUTLINE
10
2200.200000
20
994.100000
30
0.000000
0
VERTEX
8
OUTLINE
10
1135.800000
20
994.100000
30
0.000000
0
VERTEX
8
OUTLINE
10
1135.800000
20
932.514743
30
0.000000
42
-7.595754
0
VERTEX
8
OUTLINE
10
1134.701924
20
931.416667
30
0.000000
0
VERTEX
8
OUTLINE
10
1118.000000
20
931.416667
30
0.000000
0
VERTEX
8
OUTLINE
10
1118.000000
20
891.416667
30
0.000000
0
VERTEX
8
OUTLINE
10
1134.701924
20
891.416667
30
0.000000
42
-7.595754
0
VERTEX
8
OUTLINE
10
1135.800000
20
890.318590
30
0.000000
0
VERTEX
8
OUTLINE
10
1135.800000
20
827.148076
30
0.000000
42
-7.595754
0
VERTEX
8
OUTLINE
10
1134.701924
20
826.050000
30
0.000000
0
VERTEX
8
OUTLINE
10
1118.000000
20
826.050000
30
0.000000
0
VERTEX
8
OUTLINE
10
1118.000000
20
786.050000
30
0.000000
0
VERTEX
8
OUTLINE
10
1134.701924
20
786.050000
30
0.000000
42
-7.595754
0
VERTEX
8
OUTLINE
10
1135.800000
20
784.951924
30
0.000000
0
VERTEX
8
OUTLINE
10
1135.800000
20
721.781410
30
0.000000
42
-7.595754
0
VERTEX
8
OUTLINE
10
1134.701924
20
720.683333
30
0.000000
0
VERTEX
8
OUTLINE
10
1118.000000
20
720.683333
30
0.000000
0
VERTEX
8
OUTLINE
10
1118.000000
20
680.683333
30
0.000000
0
VERTEX
8
OUTLINE
10
1134.701924
20
680.683333
30
0.000000
42
-7.595754
0
VERTEX
8
OUTLINE
10
1135.800000
20
679.585257
30
0.000000
0
VERTEX
8
OUTLINE
10
1135.800000
20
618.000000
30
0.000000
0
SEQEND
8
OUTLINE
0
POLYLINE
8
THROUGH
66
1.000000
70
1.000000
10
0.000000
20
0.000000
30
0.000000
0
VERTEX
8
THROUGH
10
2000.536924
20
680.608333
30
0.000000
42
7.595754
0
VERTEX
8
THROUGH
10
2001.635000
20
681.706410
30
0.000000
0
VERTEX
8
THROUGH
10
2001.635000
20
719.660257
30
0.000000
42
7.595754
0
VERTEX
8
THROUGH
10
2000.536924
20
720.758333
30
0.000000
0
VERTEX
8
THROUGH
10
1984.783076
20
720.758333
30
0.000000
42
7.595754
0
VERTEX
8
THROUGH
10
1983.685000
20
719.660257
30
0.000000
0
VERTEX
8
THROUGH
10
1983.685000
20
681.706410
30
0.000000
42
7.595754
0
VERTEX
8
THROUGH
10
1984.783076
20
680.608333
30
0.000000
0
SEQEND
8
THROUGH
0
POLYLINE
8
THROUGH
66
1.000000
70
1.000000
10
0.000000
20
0.000000
30
0.000000
0
VERTEX
8
THROUGH
10
2000.536924
20
785.975000
30
0.000000
42
7.595754
0
VERTEX
8
THROUGH
10
2001.635000
20
787.073076
30
0.000000
0
VERTEX
8
THROUGH
10
2001.635000
20
825.026924
30
0.000000
42
7.595754
0
VERTEX
8
THROUGH
10
2000.536924
20
826.125000
30
0.000000
0
VERTEX
8
THROUGH
10
1984.783076
20
826.125000
30
0.000000
42
7.595754
0
VERTEX
8
THROUGH
10
1983.685000
20
825.026924
30
0.000000
0
VERTEX
8
THROUGH
10
1983.685000
20
787.073076
30
0.000000
42
7.595754
0
VERTEX
8
THROUGH
10
1984.783076
20
785.975000
30
0.000000
0
SEQEND
8
THROUGH
0
POLYLINE
8
THROUGH
66
1.000000
70
1.000000
10
0.000000
20
0.000000
30
0.000000
0
VERTEX
8
THROUGH
10
2000.536924
20
891.341667
30
0.000000
42
7.595754
0
VERTEX
8
THROUGH
10
2001.635000
20
892.439743
30
0.000000
0
VERTEX
8
THROUGH
10
2001.635000
20
930.393590
30
0.000000
42
7.595754
0
VERTEX
8
THROUGH
10
2000.536924
20
931.491667
30
0.000000
0
VERTEX
8
THROUGH
10
1984.783076
20
931.491667
30
0.000000
42
7.595754
0
VERTEX
8
THROUGH
10
1983.685000
20
930.393590
30
0.000000
0
VERTEX
8
THROUGH
10
1983.685000
20
892.439743
30
0.000000
42
7.595754
0
VERTEX
8
THROUGH
10
1984.783076
20
891.341667
30
0.000000
0
SEQEND
8
THROUGH
0
POLYLINE
8
THROUGH
66
1.000000
70
1.000000
10
0.000000
20
0.000000
30
0.000000
0
VERTEX
8
THROUGH
10
1784.096924
20
680.608333
30
0.000000
42
7.595754
0
VERTEX
8
THROUGH
10
1785.195000
20
681.706410
30
0.000000
0
VERTEX
8
THROUGH
10
1785.195000
20
719.660257
30
0.000000
42
7.595754
0
VERTEX
8
THROUGH
10
1784.096924
20
720.758333
30
0.000000
0
VERTEX
8
THROUGH
10
1768.343076
20
720.758333
30
0.000000
42
7.595754
0
VERTEX
8
THROUGH
10
1767.245000
20
719.660257
30
0.000000
0
VERTEX
8
THROUGH
10
1767.245000
20
681.706410
30
0.000000
42
7.595754
0
VERTEX
8
THROUGH
10
1768.343076
20
680.608333
30
0.000000
0
SEQEND
8
THROUGH
0
POLYLINE
8
THROUGH
66
1.000000
70
1.000000
10
0.000000
20
0.000000
30
0.000000
0
VERTEX
8
THROUGH
10
1784.096924
20
785.975000
30
0.000000
42
7.595754
0
VERTEX
8
THROUGH
10
1785.195000
20
787.073076
30
0.000000
0
VERTEX
8
THROUGH
10
1785.195000
20
825.026924
30
0.000000
42
7.595754
0
VERTEX
8
THROUGH
10
1784.096924
20
826.125000
30
0.000000
0
VERTEX
8
THROUGH
10
1768.343076
20
826.125000
30
0.000000
42
7.595754
0
VERTEX
8
THROUGH
10
1767.245000
20
825.026924
30
0.000000
0
VERTEX
8
THROUGH
10
1767.245000
20
787.073076
30
0.000000
42
7.595754
0
VERTEX
8
THROUGH
10
1768.343076
20
785.975000
30
0.000000
0
SEQEND
8
THROUGH
0
POLYLINE
8
THROUGH
66
1.000000
70
1.000000
10
0.000000
20
0.000000
30
0.000000
0
VERTEX
8
THROUGH
10
1784.096924
20
891.341667
30
0.000000
42
7.595754
0
VERTEX
8
THROUGH
10
1785.195000
20
892.439743
30
0.000000
0
VERTEX
8
THROUGH
10
1785.195000
20
930.393590
30
0.000000
42
7.595754
0
VERTEX
8
THROUGH
10
1784.096924
20
931.491667
30
0.000000
0
VERTEX
8
THROUGH
10
1768.343076
20
931.491667
30
0.000000
42
7.595754
0
VERTEX
8
THROUGH
10
1767.245000
20
930.393590
30
0.000000
0
VERTEX
8
THROUGH
10
1767.245000
20
892.439743
30
0.000000
42
7.595754
0
VERTEX
8
THROUGH
10
1768.343076
20
891.341667
30
0.000000
0
SEQEND
8
THROUGH
0
POLYLINE
8
THROUGH
66
1.000000
70
1.000000
10
0.000000
20
0.000000
30
0.000000
0
VERTEX
8
THROUGH
10
1567.656924
20
680.608333
30
0.000000
42
7.595754
0
VERTEX
8
THROUGH
10
1568.755000
20
681.706410
30
0.000000
0
VERTEX
8
THROUGH
10
1568.755000
20
719.660257
30
0.000000
42
7.595754
0
VERTEX
8
THROUGH
10
1567.656924
20
720.758333
30
0.000000
0
VERTEX
8
THROUGH
10
1551.903076
20
720.758333
30
0.000000
42
7.595754
0
VERTEX
8
THROUGH
10
1550.805000
20
719.660257
30
0.000000
0
VERTEX
8
THROUGH
10
1550.805000
20
681.706410
30
0.000000
42
7.595754
0
VERTEX
8
THROUGH
10
1551.903076
20
680.608333
30
0.000000
0
SEQEND
8
THROUGH
0
POLYLINE
8
THROUGH
66
1.000000
70
1.000000
10
0.000000
20
0.000000
30
0.000000
0
VERTEX
8
THROUGH
10
1567.656924
20
785.975000
30
0.000000
42
7.595754
0
VERTEX
8
THROUGH
10
1568.755000
20
787.073076
30
0.000000
0
VERTEX
8
THROUGH
10
1568.755000
20
825.026924
30
0.000000
42
7.595754
0
VERTEX
8
THROUGH
10
1567.656924
20
826.125000
30
0.000000
0
VERTEX
8
THROUGH
10
1551.903076
20
826.125000
30
0.000000
42
7.595754
0
VERTEX
8
THROUGH
10
1550.805000
20
825.026924
30
0.000000
0
VERTEX
8
THROUGH
10
1550.805000
20
787.073076
30
0.000000
42
7.595754
0
VERTEX
8
THROUGH
10
1551.903076
20
785.975000
30
0.000000
0
SEQEND
8
THROUGH
0
POLYLINE
8
THROUGH
66
1.000000
70
1.000000
10
0.000000
20
0.000000
30
0.000000
0
VERTEX
8
THROUGH
10
1567.656924
20
891.341667
30
0.000000
42
7.595754
0
VERTEX
8
THROUGH
10
1568.755000
20
892.439743
30
0.000000
0
VERTEX
8
THROUGH
10
1568.755000
20
930.393590
30
0.000000
42
7.595754
0
VERTEX
8
THROUGH
10
1567.656924
20
931.491667
30
0.000000
0
VERTEX
8
THROUGH
10
1551.903076
20
931.491667
30
0.000000
42
7.595754
0
VERTEX
8
THROUGH
10
1550.805000
20
930.393590
30
0.000000
0
VERTEX
8
THROUGH
10
1550.805000
20
892.439743
30
0.000000
42
7.595754
0
VERTEX
8
THROUGH
10
1551.903076
20
891.341667
30
0.000000
0
SEQEND
8
THROUGH
0
POLYLINE
8
THROUGH
66
1.000000
70
1.000000
10
0.000000
20
0.000000
30
0.000000
0
VERTEX
8
THROUGH
10
1351.216924
20
680.608333
30
0.000000
42
7.595754
0
VERTEX
8
THROUGH
10
1352.315000
20
681.706410
30
0.000000
0
VERTEX
8
THROUGH
10
1352.315000
20
719.660257
30
0.000000
42
7.595754
0
VERTEX
8
THROUGH
10
1351.216924
20
720.758333
30
0.000000
0
VERTEX
8
THROUGH
10
1335.463076
20
720.758333
30
0.000000
42
7.595754
0
VERTEX
8
THROUGH
10
1334.365000
20
719.660257
30
0.000000
0
VERTEX
8
THROUGH
10
1334.365000
20
681.706410
30
0.000000
42
7.595754
0
VERTEX
8
THROUGH
10
1335.463076
20
680.608333
30
0.000000
0
SEQEND
8
THROUGH
0
POLYLINE
8
THROUGH
66
1.000000
70
1.000000
10
0.000000
20
0.000000
30
0.000000
0
VERTEX
8
THROUGH
10
1351.216924
20
785.975000
30
0.000000
42
7.595754
0
VERTEX
8
THROUGH
10
1352.315000
20
787.073076
30
0.000000
0
VERTEX
8
THROUGH
10
1352.315000
20
825.026924
30
0.000000
42
7.595754
0
VERTEX
8
THROUGH
10
1351.216924
20
826.125000
30
0.000000
0
VERTEX
8
THROUGH
10
1335.463076
20
826.125000
30
0.000000
42
7.595754
0
VERTEX
8
THROUGH
10
1334.365000
20
825.026924
30
0.000000
0
VERTEX
8
THROUGH
10
1334.365000
20
787.073076
30
0.000000
42
7.595754
0
VERTEX
8
THROUGH
10
1335.463076
20
785.975000
30
0.000000
0
SEQEND
8
THROUGH
0
POLYLINE
8
THROUGH
66
1.000000
70
1.000000
10
0.000000
20
0.000000
30
0.000000
0
VERTEX
8
THROUGH
10
1351.216924
20
891.341667
30
0.000000
42
7.595754
0
VERTEX
8
THROUGH
10
1352.315000
20
892.439743
30
0.000000
0
VERTEX
8
THROUGH
10
1352.315000
20
930.393590
30
0.000000
42
7.595754
0
VERTEX
8
THROUGH
10
1351.216924
20
931.491667
30
0.000000
0
VERTEX
8
THROUGH
10
1335.463076
20
931.491667
30
0.000000
42
7.595754
0
VERTEX
8
THROUGH
10
1334.365000
20
930.393590
30
0.000000
0
VERTEX
8
THROUGH
10
1334.365000
20
892.439743
30
0.000000
42
7.595754
0
VERTEX
8
THROUGH
10
1335.463076
20
891.341667
30
0.000000
0
SEQEND
8
THROUGH
0
POLYLINE
8
OUTLINE
66
1.000000
70
1.000000
10
0.000000
20
0.000000
30
0.000000
0
VERTEX
8
OUTLINE
10
1977.800000
20
10.000000
30
0.000000
0
VERTEX
8
OUTLINE
10
2401.100000
20
10.000000
30
0.000000
0
VERTEX
8
OUTLINE
10
2401.100000
20
71.585257
30
0.000000
42
-7.595754
0
VERTEX
8
OUTLINE
10
2402.198076
20
72.683333
30
0.000000
0
VERTEX
8
OUTLINE
10
2418.900000
20
72.683333
30
0.000000
0
VERTEX
8
OUTLINE
10
2418.900000
20
112.683333
30
0.000000
0
VERTEX
8
OUTLINE
10
2402.198076
20
112.683333
30
0.000000
42
-7.595754
0
VERTEX
8
OUTLINE
10
2401.100000
20
113.781410
30
0.000000
0
VERTEX
8
OUTLINE
10
2401.100000
20
176.951924
30
0.000000
42
-7.595754
0
VERTEX
8
OUTLINE
10
2402.198076
20
178.050000
30
0.000000
0
VERTEX
8
OUTLINE
10
2418.900000
20
178.050000
30
0.000000
0
VERTEX
8
OUTLINE
10
2418.900000
20
218.050000
30
0.000000
0
VERTEX
8
OUTLINE
10
2402.198076
20
218.050000
30
0.000000
42
-7.595754
0
VERTEX
8
OUTLINE
10
2401.100000
20
219.148076
30
0.000000
0
VERTEX
8
OUTLINE
10
2401.100000
20
282.318590
30
0.000000
42
-7.595754
0
VERTEX
8
OUTLINE
10
2402.198076
20
283.416667
30
0.000000
0
VERTEX
8
OUTLINE
10
2418.900000
20
283.416667
30
0.000000
0
VERTEX
8
OUTLINE
10
2418.900000
20
323.416667
30
0.000000
0
VERTEX
8
OUTLINE
10
2402.198076
20
323.416667
30
0.000000
42
-7.595754
0
VERTEX
8
OUTLINE
10
2401.100000
20
324.514743
30
0.000000
0
VERTEX
8
OUTLINE
10
2401.100000
20
386.100000
30
0.000000
0
VERTEX
8
OUTLINE
10
1977.800000
20
386.100000
30
0.000000
0
VERTEX
8
OUTLINE
10
1977.800000
20
324.514743
30
0.000000
42
-7.595754
0
VERTEX
8
OUTLINE
10
1976.701924
20
323.416667
30
0.000000
0
VERTEX
8
OUTLINE
10
1960.000000
20
323.416667
30
0.000000
0
VERTEX
8
OUTLINE
10
1960.000000
20
283.416667
30
0.000000
0
VERTEX
8
OUTLINE
10
1976.701924
20
283.416667
30
0.000000
42
-7.595754
0
VERTEX
8
OUTLINE
10
1977.800000
20
282.318590
30
0.000000
0
VERTEX
8
OUTLINE
10
1977.800000
20
219.148076
30
0.000000
42
-7.595754
0
VERTEX
8
OUTLINE
10
1976.701924
20
218.050000
30
0.000000
0
VERTEX
8
OUTLINE
10
1960.000000
20
218.050000
30
0.000000
0
VERTEX
8
OUTLINE
10
1960.000000
20
178.050000
30
0.000000
0
VERTEX
8
OUTLINE
10
1976.701924
20
178.050000
30
0.000000
42
-7.595754
0
VERTEX
8
OUTLINE
10
1977.800000
20
176.951924
30
0.000000
0
VERTEX
8
OUTLINE
10
1977.800000
20
113.781410
30
0.000000
42
-7.595754
0
VERTEX
8
OUTLINE
10
1976.701924
20
112.683333
30
0.000000
0
VERTEX
8
OUTLINE
10
1960.000000
20
112.683333
30
0.000000
0
VERTEX
8
OUTLINE
10
1960.000000
20
72.683333
30
0.000000
0
VERTEX
8
OUTLINE
10
1976.701924
20
72.683333
30
0.000000
42
-7.595754
0
VERTEX
8
OUTLINE
10
1977.800000
20
71.585257
30
0.000000
0
SEQEND
8
OUTLINE
0
CIRCLE
8
DRILL_4.5_THRU
10
871.200000
20
68.900000
30
0.000000
40
2.250000
0
CIRCLE
8
DRILL_4.5_THRU
10
821.200000
20
68.900000
30
0.000000
40
2.250000
0
CIRCLE
8
DRILL_5_D12
10
734.500000
20
47.000000
30
0.000000
40
2.500000
0
CIRCLE
8
DRILL_5_D12
10
702.500000
20
47.000000
30
0.000000
40
2.500000
0
CIRCLE
8
DRILL_5_D12
10
107.700000
20
47.000000
30
0.000000
40
2.500000
0
CIRCLE
8
DRILL_5_D12
10
75.700000
20
47.000000
30
0.000000
40
2.500000
0
CIRCLE
8
DRILL_4.5_THRU
10
1841.200000
20
551.100000
30
0.000000
40
2.250000
0
CIRCLE
8
DRILL_4.5_THRU
10
1791.200000
20
551.100000
30
0.000000
40
2.250000
0
CIRCLE
8
DRILL_5_D12
10
1704.500000
20
573.000000
30
0.000000
40
2.500000
0
CIRCLE
8
DRILL_5_D12
10
1672.500000
20
573.000000
30
0.000000
40
2.500000
0
CIRCLE
8
DRILL_5_D12
10
1077.700000
20
573.000000
30
0.000000
40
2.500000
0
CIRCLE
8
DRILL_5_D12
10
1045.700000
20
573.000000
30
0.000000
40
2.500000
0
CIRCLE
8
DRILL_5_D12
10
964.200000
20
981.000000
30
0.000000
40
2.500000
0
CIRCLE
8
DRILL_5_D12
10
964.200000
20
678.900000
30
0.000000
40
2.500000
0
CIRCLE
8
DRILL_5_D12
10
932.200000
20
981.000000
30
0.000000
40
2.500000
0
CIRCLE
8
DRILL_5_D12
10
932.200000
20
678.900000
30
0.000000
40
2.500000
0
CIRCLE
8
DRILL_5_D12
10
900.200000
20
981.000000
30
0.000000
40
2.500000
0
CIRCLE
8
DRILL_5_D12
10
900.200000
20
678.900000
30
0.000000
40
2.500000
0
CIRCLE
8
DRILL_5_D12
10
868.200000
20
981.000000
30
0.000000
40
2.500000
0
CIRCLE
8
DRILL_5_D12
10
868.200000
20
678.900000
30
0.000000
40
2.500000
0
CIRCLE
8
DRILL_5_D12
10
836.200000
20
981.000000
30
0.000000
40
2.500000
0
CIRCLE
8
DRILL_5_D12
10
836.200000
20
678.900000
30
0.000000
40
2.500000
0
CIRCLE
8
DRILL_5_D12
10
804.200000
20
981.000000
30
0.000000
40
2.500000
0
CIRCLE
8
DRILL_5_D12
10
804.200000
20
678.900000
30
0.000000
40
2.500000
0
CIRCLE
8
DRILL_5_D12
10
772.200000
20
981.000000
30
0.000000
40
2.500000
0
CIRCLE
8
DRILL_5_D12
10
772.200000
20
678.900000
30
0.000000
40
2.500000
0
CIRCLE
8
DRILL_5_D12
10
740.200000
20
981.000000
30
0.000000
40
2.500000
0
CIRCLE
8
DRILL_5_D12
10
740.200000
20
678.900000
30
0.000000
40
2.500000
0
CIRCLE
8
DRILL_5_D12
10
708.200000
20
981.000000
30
0.000000
40
2.500000
0
CIRCLE
8
DRILL_5_D12
10
708.200000
20
678.900000
30
0.000000
40
2.500000
0
CIRCLE
8
DRILL_5_D12
10
676.200000
20
981.000000
30
0.000000
40
2.500000
0
CIRCLE
8
DRILL_5_D12
10
676.200000
20
678.900000
30
0.000000
40
2.500000
0
CIRCLE
8
DRILL_5_D12
10
644.200000
20
981.000000
30
0.000000
40
2.500000
0
CIRCLE
8
DRILL_5_D12
10
644.200000
20
678.900000
30
0.000000
40
2.500000
0
CIRCLE
8
DRILL_5_D12
10
612.200000
20
981.000000
30
0.000000
40
2.500000
0
CIRCLE
8
DRILL_5_D12
10
612.200000
20
678.900000
30
0.000000
40
2.500000
0
CIRCLE
8
DRILL_5_D12
10
580.200000
20
981.000000
30
0.000000
40
2.500000
0
CIRCLE
8
DRILL_5_D12
10
580.200000
20
678.900000
30
0.000000
40
2.500000
0
CIRCLE
8
DRILL_5_D12
10
548.200000
20
981.000000
30
0.000000
40
2.500000
0
CIRCLE
8
DRILL_5_D12
10
548.200000
20
678.900000
30
0.000000
40
2.500000
0
CIRCLE
8
DRILL_5_D12
10
516.200000
20
981.000000
30
0.000000
40
2.500000
0
CIRCLE
8
DRILL_5_D12
10
516.200000
20
678.900000
30
0.000000
40
2.500000
0
CIRCLE
8
DRILL_5_D12
10
484.200000
20
981.000000
30
0.000000
40
2.500000
0
CIRCLE
8
DRILL_5_D12
10
484.200000
20
678.900000
30
0.000000
40
2.500000
0
CIRCLE
8
DRILL_5_D12
10
452.200000
20
981.000000
30
0.000000
40
2.500000
0
CIRCLE
8
DRILL_5_D12
10
452.200000
20
678.900000
30
0.000000
40
2.500000
0
CIRCLE
8
DRILL_5_D12
10
420.200000
20
981.000000
30
0.000000
40
2.500000
0
CIRCLE
8
DRILL_5_D12
10
420.200000
20
678.900000
30
0.000000
40
2.500000
0
CIRCLE
8
DRILL_5_D12
10
388.200000
20
981.000000
30
0.000000
40
2.500000
0
CIRCLE
8
DRILL_5_D12
10
388.200000
20
678.900000
30
0.000000
40
2.500000
0
CIRCLE
8
DRILL_5_D12
10
356.200000
20
981.000000
30
0.000000
40
2.500000
0
CIRCLE
8
DRILL_5_D12
10
356.200000
20
678.900000
30
0.000000
40
2.500000
0
CIRCLE
8
DRILL_5_D12
10
324.200000
20
981.000000
30
0.000000
40
2.500000
0
CIRCLE
8
DRILL_5_D12
10
324.200000
20
678.900000
30
0.000000
40
2.500000
0
CIRCLE
8
DRILL_5_D12
10
292.200000
20
981.000000
30
0.000000
40
2.500000
0
CIRCLE
8
DRILL_5_D12
10
292.200000
20
678.900000
30
0.000000
40
2.500000
0
CIRCLE
8
DRILL_5_D12
10
260.200000
20
981.000000
30
0.000000
40
2.500000
0
CIRCLE
8
DRILL_5_D12
10
260.200000
20
678.900000
30
0.000000
40
2.500000
0
CIRCLE
8
DRILL_5_D12
10
228.200000
20
981.000000
30
0.000000
40
2.500000
0
CIRCLE
8
DRILL_5_D12
10
228.200000
20
678.900000
30
0.000000
40
2.500000
0
CIRCLE
8
DRILL_5_D12
10
196.200000
20
981.000000
30
0.000000
40
2.500000
0
CIRCLE
8
DRILL_5_D12
10
196.200000
20
678.900000
30
0.000000
40
2.500000
0
CIRCLE
8
DRILL_5_D12
10
164.200000
20
981.000000
30
0.000000
40
2.500000
0
CIRCLE
8
DRILL_5_D12
10
164.200000
20
678.900000
30
0.000000
40
2.500000
0
CIRCLE
8
DRILL_5_D12
10
132.200000
20
981.000000
30
0.000000
40
2.500000
0
CIRCLE
8
DRILL_5_D12
10
132.200000
20
678.900000
30
0.000000
40
2.500000
0
CIRCLE
8
DRILL_5_D12
10
2072.200000
20
655.000000
30
0.000000
40
2.500000
0
CIRCLE
8
DRILL_5_D12
10
2072.200000
20
957.100000
30
0.000000
40
2.500000
0
CIRCLE
8
DRILL_5_D12
10
2040.200000
20
655.000000
30
0.000000
40
2.500000
0
CIRCLE
8
DRILL_5_D12
10
2040.200000
20
957.100000
30
0.000000
40
2.500000
0
CIRCLE
8
DRILL_5_D12
10
2008.200000
20
655.000000
30
0.000000
40
2.500000
0
CIRCLE
8
DRILL_5_D12
10
2008.200000
20
957.100000
30
0.000000
40
2.500000
0
CIRCLE
8
DRILL_5_D12
10
1976.200000
20
655.000000
30
0.000000
40
2.500000
0
CIRCLE
8
DRILL_5_D12
10
1976.200000
20
957.100000
30
0.000000
40
2.500000
0
CIRCLE
8
DRILL_5_D12
10
1944.200000
20
655.000000
30
0.000000
40
2.500000
0
CIRCLE
8
DRILL_5_D12
10
1944.200000
20
957.100000
30
0.000000
40
2.500000
0
CIRCLE
8
DRILL_5_D12
10
1912.200000
20
655.000000
30
0.000000
40
2.500000
0
CIRCLE
8
DRILL_5_D12
10
1912.200000
20
957.100000
30
0.000000
40
2.500000
0
CIRCLE
8
DRILL_5_D12
10
1880.200000
20
655.000000
30
0.000000
40
2.500000
0
CIRCLE
8
DRILL_5_D12
10
1880.200000
20
957.100000
30
0.000000
40
2.500000
0
CIRCLE
8
DRILL_5_D12
10
1848.200000
20
655.000000
30
0.000000
40
2.500000
0
CIRCLE
8
DRILL_5_D12
10
1848.200000
20
957.100000
30
0.000000
40
2.500000
0
CIRCLE
8
DRILL_5_D12
10
1816.200000
20
655.000000
30
0.000000
40
2.500000
0
CIRCLE
8
DRILL_5_D12
10
1816.200000
20
957.100000
30
0.000000
40
2.500000
0
CIRCLE
8
DRILL_5_D12
10
1784.200000
20
655.000000
30
0.000000
40
2.500000
0
CIRCLE
8
DRILL_5_D12
10
1784.200000
20
957.100000
30
0.000000
40
2.500000
0
CIRCLE
8
DRILL_5_D12
10
1752.200000
20
655.000000
30
0.000000
40
2.500000
0
CIRCLE
8
DRILL_5_D12
10
1752.200000
20
957.100000
30
0.000000
40
2.500000
0
CIRCLE
8
DRILL_5_D12
10
1720.200000
20
655.000000
30
0.000000
40
2.500000
0
CIRCLE
8
DRILL_5_D12
10
1720.200000
20
957.100000
30
0.000000
40
2.500000
0
CIRCLE
8
DRILL_5_D12
10
1688.200000
20
655.000000
30
0.000000
40
2.500000
0
CIRCLE
8
DRILL_5_D12
10
1688.200000
20
957.100000
30
0.000000
40
2.500000
0
CIRCLE
8
DRILL_5_D12
10
1656.200000
20
655.000000
30
0.000000
40
2.500000
0
CIRCLE
8
DRILL_5_D12
10
1656.200000
20
957.100000
30
0.000000
40
2.500000
0
CIRCLE
8
DRILL_5_D12
10
1624.200000
20
655.000000
30
0.000000
40
2.500000
0
CIRCLE
8
DRILL_5_D12
10
1624.200000
20
957.100000
30
0.000000
40
2.500000
0
CIRCLE
8
DRILL_5_D12
10
1592.200000
20
655.000000
30
0.000000
40
2.500000
0
CIRCLE
8
DRILL_5_D12
10
1592.200000
20
957.100000
30
0.000000
40
2.500000
0
CIRCLE
8
DRILL_5_D12
10
1560.200000
20
655.000000
30
0.000000
40
2.500000
0
CIRCLE
8
DRILL_5_D12
10
1560.200000
20
957.100000
30
0.000000
40
2.500000
0
CIRCLE
8
DRILL_5_D12
10
1528.200000
20
655.000000
30
0.000000
40
2.500000
0
CIRCLE
8
DRILL_5_D12
10
1528.200000
20
957.100000
30
0.000000
40
2.500000
0
CIRCLE
8
DRILL_5_D12
10
1496.200000
20
655.000000
30
0.000000
40
2.500000
0
CIRCLE
8
DRILL_5_D12
10
1496.200000
20
957.100000
30
0.000000
40
2.500000
0
CIRCLE
8
DRILL_5_D12
10
1464.200000
20
655.000000
30
0.000000
40
2.500000
0
CIRCLE
8
DRILL_5_D12
10
1464.200000
20
957.100000
30
0.000000
40
2.500000
0
CIRCLE
8
DRILL_5_D12
10
1432.200000
20
655.000000
30
0.000000
40
2.500000
0
CIRCLE
8
DRILL_5_D12
10
1432.200000
20
957.100000
30
0.000000
40
2.500000
0
CIRCLE
8
DRILL_5_D12
10
1400.200000
20
655.000000
30
0.000000
40
2.500000
0
CIRCLE
8
DRILL_5_D12
10
1400.200000
20
957.100000
30
0.000000
40
2.500000
0
CIRCLE
8
DRILL_5_D12
10
1368.200000
20
655.000000
30
0.000000
40
2.500000
0
CIRCLE
8
DRILL_5_D12
10
1368.200000
20
957.100000
30
0.000000
40
2.500000
0
CIRCLE
8
DRILL_5_D12
10
1336.200000
20
655.000000
30
0.000000
40
2.500000
0
CIRCLE
8
DRILL_5_D12
10
1336.200000
20
957.100000
30
0.000000
40
2.500000
0
CIRCLE
8
DRILL_5_D12
10
1304.200000
20
655.000000
30
0.000000
40
2.500000
0
CIRCLE
8
DRILL_5_D12
10
1304.200000
20
957.100000
30
0.000000
40
2.500000
0
CIRCLE
8
DRILL_5_D12
10
1272.200000
20
655.000000
30
0.000000
40
2.500000
0
CIRCLE
8
DRILL_5_D12
10
1272.200000
20
957.100000
30
0.000000
40
2.500000
0
CIRCLE
8
DRILL_5_D12
10
1240.200000
20
655.000000
30
0.000000
40
2.500000
0
CIRCLE
8
DRILL_5_D12
10
1240.200000
20
957.100000
30
0.000000
40
2.500000
0
TEXT
8
LABEL
10
884.200000
20
22.000000
30
0.000000
40
8.000000
1
C1-B-SIDE-L
0
TEXT
8
LABEL
10
1854.200000
20
22.000000
30
0.000000
40
8.000000
1
C1-B-SIDE-R
0
TEXT
8
LABEL
10
1098.000000
20
630.000000
30
0.000000
40
8.000000
1
C1-T-SIDE-R
0
TEXT
8
LABEL
10
2206.000000
20
630.000000
30
0.000000
40
8.000000
1
C1-T-DIV-1
0
TEXT
8
LABEL
10
1972.000000
20
22.000000
30
0.000000
40
8.000000
1
C1-T-SHELF-1-2
0
ENDSEC
0
EOF
