0
SECTION
2
HEADER
9
$ACADVER
1
AC1009
9
$INSUNITS
70
4.000000
9
$MEASUREMENT
70
1.000000
0
ENDSEC
0
SECTION
2
TABLES
0
TABLE
2
LAYER
70
7.000000
0
LAYER
2
DRILL_8_D12
70
0.000000
62
5.000000
6
CONTINUOUS
0
LAYER
2
LABEL
70
0.000000
62
8.000000
6
CONTINUOUS
0
LAYER
2
OUTLINE
70
0.000000
62
7.000000
6
CONTINUOUS
0
LAYER
2
POCKET_D13
70
0.000000
62
3.000000
6
CONTINUOUS
0
LAYER
2
POCKET_D6
70
0.000000
62
3.000000
6
CONTINUOUS
0
LAYER
2
SHEET
70
0.000000
62
8.000000
6
CONTINUOUS
0
LAYER
2
THROUGH
70
0.000000
62
1.000000
6
CONTINUOUS
0
ENDTAB
0
ENDSEC
0
SECTION
2
ENTITIES
0
POLYLINE
8
SHEET
66
1.000000
70
1.000000
10
0.000000
20
0.000000
30
0.000000
0
VERTEX
8
SHEET
10
0.000000
20
0.000000
30
0.000000
0
VERTEX
8
SHEET
10
2440.000000
20
0.000000
30
0.000000
0
VERTEX
8
SHEET
10
2440.000000
20
1220.000000
30
0.000000
0
VERTEX
8
SHEET
10
0.000000
20
1220.000000
30
0.000000
0
SEQEND
8
SHEET
0
POLYLINE
8
OUTLINE
66
1.000000
70
1.000000
10
0.000000
20
0.000000
30
0.000000
0
VERTEX
8
OUTLINE
10
27.800000
20
10.000000
30
0.000000
0
VERTEX
8
OUTLINE
10
892.200000
20
10.000000
30
0.000000
0
VERTEX
8
OUTLINE
10
892.200000
20
75.568590
30
0.000000
42
-7.595754
0
VERTEX
8
OUTLINE
10
893.298076
20
76.666667
30
0.000000
0
VERTEX
8
OUTLINE
10
910.000000
20
76.666667
30
0.000000
0
VERTEX
8
OUTLINE
10
910.000000
20
116.666667
30
0.000000
0
VERTEX
8
OUTLINE
10
893.298076
20
116.666667
30
0.000000
42
-7.595754
0
VERTEX
8
OUTLINE
10
892.200000
20
117.764743
30
0.000000
0
VERTEX
8
OUTLINE
10
892.200000
20
188.901924
30
0.000000
42
-7.595754
0
VERTEX
8
OUTLINE
10
893.298076
20
190.000000
30
0.000000
0
VERTEX
8
OUTLINE
10
910.000000
20
190.000000
30
0.000000
0
VERTEX
8
OUTLINE
10
910.000000
20
230.000000
30
0.000000
0
VERTEX
8
OUTLINE
10
893.298076
20
230.000000
30
0.000000
42
-7.595754
0
VERTEX
8
OUTLINE
10
892.200000
20
231.098076
30
0.000000
0
VERTEX
8
OUTLINE
10
892.200000
20
302.235257
30
0.000000
42
-7.595754
0
VERTEX
8
OUTLINE
10
893.298076
20
303.333333
30
0.000000
0
VERTEX
8
OUTLINE
10
910.000000
20
303.333333
30
0.000000
0
VERTEX
8
OUTLINE
10
910.000000
20
343.333333
30
0.000000
0
VERTEX
8
OUTLINE
10
893.298076
20
343.333333
30
0.000000
42
-7.595754
0
VERTEX
8
OUTLINE
10
892.200000
20
344.431410
30
0.000000
0
VERTEX
8
OUTLINE
10
892.200000
20
410.000000
30
0.000000
0
VERTEX
8
OUTLINE
10
27.800000
20
410.000000
30
0.000000
0
VERTEX
8
OUTLINE
10
27.800000
20
344.431410
30
0.000000
42
-7.595754
0
VERTEX
8
OUTLINE
10
26.701924
20
343.333333
30
0.000000
0
VERTEX
8
OUTLINE
10
10.000000
20
343.333333
30
0.000000
0
VERTEX
8
OUTLINE
10
10.000000
20
303.333333
30
0.000000
0
VERTEX
8
OUTLINE
10
26.701924
20
303.333333
30
0.000000
42
-7.595754
0
VERTEX
8
OUTLINE
10
27.800000
20
302.235257
30
0.000000
0
VERTEX
8
OUTLINE
10
27.800000
20
231.098076
30
0.000000
42
-7.595754
0
VERTEX
8
OUTLINE
10
26.701924
20
230.000000
30
0.000000
0
VERTEX
8
OUTLINE
10
10.000000
20
230.000000
30
0.000000
0
VERTEX
8
OUTLINE
10
10.000000
20
190.000000
30
0.000000
0
VERTEX
8
OUTLINE
10
26.701924
20
190.000000
30
0.000000
42
-7.595754
0
VERTEX
8
OUTLINE
10
27.800000
20
188.901924
30
0.000000
0
VERTEX
8
OUTLINE
10
27.800000
20
117.764743
30
0.000000
42
-7.595754
0
VERTEX
8
OUTLINE
10
26.701924
20
116.666667
30
0.000000
0
VERTEX
8
OUTLINE
10
10.000000
20
116.666667
30
0.000000
0
VERTEX
8
OUTLINE
10
10.000000
20
76.666667
30
0.000000
0
VERTEX
8
OUTLINE
10
26.701924
20
76.666667
30
0.000000
42
-7.595754
0
VERTEX
8
OUTLINE
10
27.800000
20
75.568590
30
0.000000
0
SEQEND
8
OUTLINE
0
POLYLINE
8
THROUGH
66
1.000000
70
1.000000
10
0.000000
20
0.000000
30
0.000000
0
VERTEX
8
THROUGH
10
451.025000
20
73.706410
30
0.000000
42
7.595754
0
VERTEX
8
THROUGH
10
452.123076
20
72.608333
30
0.000000
0
VERTEX
8
THROUGH
10
467.876924
20
72.608333
30
0.000000
42
7.595754
0
VERTEX
8
THROUGH
10
468.975000
20
73.706410
30
0.000000
0
VERTEX
8
THROUGH
10
468.975000
20
111.660257
30
0.000000
42
7.595754
0
VERTEX
8
THROUGH
10
467.876924
20
112.758333
30
0.000000
0
VERTEX
8
THROUGH
10
452.123076
20
112.758333
30
0.000000
42
7.595754
0
VERTEX
8
THROUGH
10
451.025000
20
111.660257
30
0.000000
0
SEQEND
8
THROUGH
0
POLYLINE
8
THROUGH
66
1.000000
70
1.000000
10
0.000000
20
0.000000
30
0.000000
0
VERTEX
8
THROUGH
10
451.025000
20
179.073076
30
0.000000
42
7.595754
0
VERTEX
8
THROUGH
10
452.123076
20
177.975000
30
0.000000
0
VERTEX
8
THROUGH
10
467.876924
20
177.975000
30
0.000000
42
7.595754
0
VERTEX
8
THROUGH
10
468.975000
20
179.073076
30
0.000000
0
VERTEX
8
THROUGH
10
468.975000
20
217.026924
30
0.000000
42
7.595754
0
VERTEX
8
THROUGH
10
467.876924
20
218.125000
30
0.000000
0
VERTEX
8
THROUGH
10
452.123076
20
218.125000
30
0.000000
42
7.595754
0
VERTEX
8
THROUGH
10
451.025000
20
217.026924
30
0.000000
0
SEQEND
8
THROUGH
0
POLYLINE
8
THROUGH
66
1.000000
70
1.000000
10
0.000000
20
0.000000
30
0.000000
0
VERTEX
8
THROUGH
10
451.025000
20
284.439743
30
0.000000
42
7.595754
0
VERTEX
8
THROUGH
10
452.123076
20
283.341667
30
0.000000
0
VERTEX
8
THROUGH
10
467.876924
20
283.341667
30
0.000000
42
7.595754
0
VERTEX
8
THROUGH
10
468.975000
20
284.439743
30
0.000000
0
VERTEX
8
THROUGH
10
468.975000
20
322.393590
30
0.000000
42
7.595754
0
VERTEX
8
THROUGH
10
467.876924
20
323.491667
30
0.000000
0
VERTEX
8
THROUGH
10
452.123076
20
323.491667
30
0.000000
42
7.595754
0
VERTEX
8
THROUGH
10
451.025000
20
322.393590
30
0.000000
0
SEQEND
8
THROUGH
0
POLYLINE
8
POCKET_D6
66
1.000000
70
1.000000
10
0.000000
20
0.000000
30
0.000000
0
VERTEX
8
POCKET_D6
10
27.800000
20
386.025000
30
0.000000
0
VERTEX
8
POCKET_D6
10
892.200000
20
386.025000
30
0.000000
0
VERTEX
8
POCKET_D6
10
892.200000
20
398.075000
30
0.000000
0
VERTEX
8
POCKET_D6
10
27.800000
20
398.075000
30
0.000000
0
SEQEND
8
POCKET_D6
0
POLYLINE
8
OUTLINE
66
1.000000
70
1.000000
10
0.000000
20
0.000000
30
0.000000
0
VERTEX
8
OUTLINE
10
27.800000
20
418.000000
30
0.000000
0
VERTEX
8
OUTLINE
10
892.200000
20
418.000000
30
0.000000
0
VERTEX
8
OUTLINE
10
892.200000
20
483.568590
30
0.000000
42
-7.595754
0
VERTEX
8
OUTLINE
10
893.298076
20
484.666667
30
0.000000
0
VERTEX
8
OUTLINE
10
910.000000
20
484.666667
30
0.000000
0
VERTEX
8
OUTLINE
10
910.000000
20
524.666667
30
0.000000
0
VERTEX
8
OUTLINE
10
893.298076
20
524.666667
30
0.000000
42
-7.595754
0
VERTEX
8
OUTLINE
10
892.200000
20
525.764743
30
0.000000
0
VERTEX
8
OUTLINE
10
892.200000
20
596.901924
30
0.000000
42
-7.595754
0
VERTEX
8
OUTLINE
10
893.298076
20
598.000000
30
0.000000
0
VERTEX
8
OUTLINE
10
910.000000
20
598.000000
30
0.000000
0
VERTEX
8
OUTLINE
10
910.000000
20
638.000000
30
0.000000
0
VERTEX
8
OUTLINE
10
893.298076
20
638.000000
30
0.000000
42
-7.595754
0
VERTEX
8
OUTLINE
10
892.200000
20
639.098076
30
0.000000
0
VERTEX
8
OUTLINE
10
892.200000
20
710.235257
30
0.000000
42
-7.595754
0
VERTEX
8
OUTLINE
10
893.298076
20
711.333333
30
0.000000
0
VERTEX
8
OUTLINE
10
910.000000
20
711.333333
30
0.000000
0
VERTEX
8
OUTLINE
10
910.000000
20
751.333333
30
0.000000
0
VERTEX
8
OUTLINE
10
893.298076
20
751.333333
30
0.000000
42
-7.595754
0
VERTEX
8
OUTLINE
10
892.200000
20
752.431410
30
0.000000
0
VERTEX
8
OUTLINE
10
892.200000
20
818.000000
30
0.000000
0
VERTEX
8
OUTLINE
10
27.800000
20
818.000000
30
0.000000
0
VERTEX
8
OUTLINE
10
27.800000
20
752.431410
30
0.000000
42
-7.595754
0
VERTEX
8
OUTLINE
10
26.701924
20
751.333333
30
0.000000
0
VERTEX
8
OUTLINE
10
10.000000
20
751.333333
30
0.000000
0
VERTEX
8
OUTLINE
10
10.000000
20
711.333333
30
0.000000
0
VERTEX
8
OUTLINE
10
26.701924
20
711.333333
30
0.000000
42
-7.595754
0
VERTEX
8
OUTLINE
10
27.800000
20
710.235257
30
0.000000
0
VERTEX
8
OUTLINE
10
27.800000
20
639.098076
30
0.000000
42
-7.595754
0
VERTEX
8
OUTLINE
10
26.701924
20
638.000000
30
0.000000
0
VERTEX
8
OUTLINE
10
10.000000
20
638.000000
30
0.000000
0
VERTEX
8
OUTLINE
10
10.000000
20
598.000000
30
0.000000
0
VERTEX
8
OUTLINE
10
26.701924
20
598.000000
30
0.000000
42
-7.595754
0
VERTEX
8
OUTLINE
10
27.800000
20
596.901924
30
0.000000
0
VERTEX
8
OUTLINE
10
27.800000
20
525.764743
30
0.000000
42
-7.595754
0
VERTEX
8
OUTLINE
10
26.701924
20
524.666667
30
0.000000
0
VERTEX
8
OUTLINE
10
10.000000
20
524.666667
30
0.000000
0
VERTEX
8
OUTLINE
10
10.000000
20
484.666667
30
0.000000
0
VERTEX
8
OUTLINE
10
26.701924
20
484.666667
30
0.000000
42
-7.595754
0
VERTEX
8
OUTLINE
10
27.800000
20
483.568590
30
0.000000
0
SEQEND
8
OUTLINE
0
POLYLINE
8
THROUGH
66
1.000000
70
1.000000
10
0.000000
20
0.000000
30
0.000000
0
VERTEX
8
THROUGH
10
451.025000
20
481.706410
30
0.000000
42
7.595754
0
VERTEX
8
THROUGH
10
452.123076
20
480.608333
30
0.000000
0
VERTEX
8
THROUGH
10
467.876924
20
480.608333
30
0.000000
42
7.595754
0
VERTEX
8
THROUGH
10
468.975000
20
481.706410
30
0.000000
0
VERTEX
8
THROUGH
10
468.975000
20
519.660257
30
0.000000
42
7.595754
0
VERTEX
8
THROUGH
10
467.876924
20
520.758333
30
0.000000
0
VERTEX
8
THROUGH
10
452.123076
20
520.758333
30
0.000000
42
7.595754
0
VERTEX
8
THROUGH
10
451.025000
20
519.660257
30
0.000000
0
SEQEND
8
THROUGH
0
POLYLINE
8
THROUGH
66
1.000000
70
1.000000
10
0.000000
20
0.000000
30
0.000000
0
VERTEX
8
THROUGH
10
451.025000
20
587.073076
30
0.000000
42
7.595754
0
VERTEX
8
THROUGH
10
452.123076
20
585.975000
30
0.000000
0
VERTEX
8
THROUGH
10
467.876924
20
585.975000
30
0.000000
42
7.595754
0
VERTEX
8
THROUGH
10
468.975000
20
587.073076
30
0.000000
0
VERTEX
8
THROUGH
10
468.975000
20
625.026924
30
0.000000
42
7.595754
0
VERTEX
8
THROUGH
10
467.876924
20
626.125000
30
0.000000
0
VERTEX
8
THROUGH
10
452.123076
20
626.125000
30
0.000000
42
7.595754
0
VERTEX
8
THROUGH
10
451.025000
20
625.026924
30
0.000000
0
SEQEND
8
THROUGH
0
POLYLINE
8
THROUGH
66
1.000000
70
1.000000
10
0.000000
20
0.000000
30
0.000000
0
VERTEX
8
THROUGH
10
451.025000
20
692.439743
30
0.000000
42
7.595754
0
VERTEX
8
THROUGH
10
452.123076
20
691.341667
30
0.000000
0
VERTEX
8
THROUGH
10
467.876924
20
691.341667
30
0.000000
42
7.595754
0
VERTEX
8
THROUGH
10
468.975000
20
692.439743
30
0.000000
0
VERTEX
8
THROUGH
10
468.975000
20
730.393590
30
0.000000
42
7.595754
0
VERTEX
8
THROUGH
10
467.876924
20
731.491667
30
0.000000
0
VERTEX
8
THROUGH
10
452.123076
20
731.491667
30
0.000000
42
7.595754
0
VERTEX
8
THROUGH
10
451.025000
20
730.393590
30
0.000000
0
SEQEND
8
THROUGH
0
POLYLINE
8
POCKET_D6
66
1.000000
70
1.000000
10
0.000000
20
0.000000
30
0.000000
0
VERTEX
8
POCKET_D6
10
27.800000
20
794.025000
30
0.000000
0
VERTEX
8
POCKET_D6
10
892.200000
20
794.025000
30
0.000000
0
VERTEX
8
POCKET_D6
10
892.200000
20
806.075000
30
0.000000
0
VERTEX
8
POCKET_D6
10
27.800000
20
806.075000
30
0.000000
0
SEQEND
8
POCKET_D6
0
POLYLINE
8
OUTLINE
66
1.000000
70
1.000000
10
0.000000
20
0.000000
30
0.000000
0
VERTEX
8
OUTLINE
10
1759.200000
20
10.000000
30
0.000000
0
VERTEX
8
OUTLINE
10
1759.200000
20
457.000000
30
0.000000
0
VERTEX
8
OUTLINE
10
980.000000
20
457.000000
30
0.000000
0
VERTEX
8
OUTLINE
10
980.000000
20
10.000000
30
0.000000
0
SEQEND
8
OUTLINE
0
POLYLINE
8
POCKET_D13
66
1.000000
70
1.000000
10
0.000000
20
0.000000
30
0.000000
0
VERTEX
8
POCKET_D13
10
1683.000000
20
417.000000
30
0.000000
42
1.000000
0
VERTEX
8
POCKET_D13
10
1683.000000
20
452.000000
30
0.000000
42
1.000000
0
SEQEND
8
POCKET_D13
0
POLYLINE
8
POCKET_D13
66
1.000000
70
1.000000
10
0.000000
20
0.000000
30
0.000000
0
VERTEX
8
POCKET_D13
10
1056.200000
20
417.000000
30
0.000000
42
1.000000
0
VERTEX
8
POCKET_D13
10
1056.200000
20
452.000000
30
0.000000
42
1.000000
0
SEQEND
8
POCKET_D13
0
POLYLINE
8
OUTLINE
66
1.000000
70
1.000000
10
0.000000
20
0.000000
30
0.000000
0
VERTEX
8
OUTLINE
10
1759.200000
20
465.000000
30
0.000000
0
VERTEX
8
OUTLINE
10
1759.200000
20
912.000000
30
0.000000
0
VERTEX
8
OUTLINE
10
980.000000
20
912.000000
30
0.000000
0
VERTEX
8
OUTLINE
10
980.000000
20
465.000000
30
0.000000
0
SEQEND
8
OUTLINE
0
POLYLINE
8
POCKET_D13
66
1.000000
70
1.000000
10
0.000000
20
0.000000
30
0.000000
0
VERTEX
8
POCKET_D13
10
1683.000000
20
470.000000
30
0.000000
42
1.000000
0
VERTEX
8
POCKET_D13
10
1683.000000
20
505.000000
30
0.000000
42
1.000000
0
SEQEND
8
POCKET_D13
0
POLYLINE
8
POCKET_D13
66
1.000000
70
1.000000
10
0.000000
20
0.000000
30
0.000000
0
VERTEX
8
POCKET_D13
10
1056.200000
20
470.000000
30
0.000000
42
1.000000
0
VERTEX
8
POCKET_D13
10
1056.200000
20
505.000000
30
0.000000
42
1.000000
0
SEQEND
8
POCKET_D13
0
POLYLINE
8
OUTLINE
66
1.000000
70
1.000000
10
0.000000
20
0.000000
30
0.000000
0
VERTEX
8
OUTLINE
10
1977.800000
20
10.000000
30
0.000000
0
VERTEX
8
OUTLINE
10
2401.100000
20
10.000000
30
0.000000
0
VERTEX
8
OUTLINE
10
2401.100000
20
71.585257
30
0.000000
42
-7.595754
0
VERTEX
8
OUTLINE
10
2402.198076
20
72.683333
30
0.000000
0
VERTEX
8
OUTLINE
10
2418.900000
20
72.683333
30
0.000000
0
VERTEX
8
OUTLINE
10
2418.900000
20
112.683333
30
0.000000
0
VERTEX
8
OUTLINE
10
2402.198076
20
112.683333
30
0.000000
42
-7.595754
0
VERTEX
8
OUTLINE
10
2401.100000
20
113.781410
30
0.000000
0
VERTEX
8
OUTLINE
10
2401.100000
20
176.951924
30
0.000000
42
-7.595754
0
VERTEX
8
OUTLINE
10
2402.198076
20
178.050000
30
0.000000
0
VERTEX
8
OUTLINE
10
2418.900000
20
178.050000
30
0.000000
0
VERTEX
8
OUTLINE
10
2418.900000
20
218.050000
30
0.000000
0
VERTEX
8
OUTLINE
10
2402.198076
20
218.050000
30
0.000000
42
-7.595754
0
VERTEX
8
OUTLINE
10
2401.100000
20
219.148076
30
0.000000
0
VERTEX
8
OUTLINE
10
2401.100000
20
282.318590
30
0.000000
42
-7.595754
0
VERTEX
8
OUTLINE
10
2402.198076
20
283.416667
30
0.000000
0
VERTEX
8
OUTLINE
10
2418.900000
20
283.416667
30
0.000000
0
VERTEX
8
OUTLINE
10
2418.900000
20
323.416667
30
0.000000
0
VERTEX
8
OUTLINE
10
2402.198076
20
323.416667
30
0.000000
42
-7.595754
0
VERTEX
8
OUTLINE
10
2401.100000
20
324.514743
30
0.000000
0
VERTEX
8
OUTLINE
10
2401.100000
20
386.100000
30
0.000000
0
VERTEX
8
OUTLINE
10
1977.800000
20
386.100000
30
0.000000
0
VERTEX
8
OUTLINE
10
1977.800000
20
324.514743
30
0.000000
42
-7.595754
0
VERTEX
8
OUTLINE
10
1976.701924
20
323.416667
30
0.000000
0
VERTEX
8
OUTLINE
10
1960.000000
20
323.416667
30
0.000000
0
VERTEX
8
OUTLINE
10
1960.000000
20
283.416667
30
0.000000
0
VERTEX
8
OUTLINE
10
1976.701924
20
283.416667
30
0.000000
42
-7.595754
0
VERTEX
8
OUTLINE
10
1977.800000
20
282.318590
30
0.000000
0
VERTEX
8
OUTLINE
10
1977.800000
20
219.148076
30
0.000000
42
-7.595754
0
VERTEX
8
OUTLINE
10
1976.701924
20
218.050000
30
0.000000
0
VERTEX
8
OUTLINE
10
1960.000000
20
218.050000
30
0.000000
0
VERTEX
8
OUTLINE
10
1960.000000
20
178.050000
30
0.000000
0
VERTEX
8
OUTLINE
10
1976.701924
20
178.050000
30
0.000000
42
-7.595754
0
VERTEX
8
OUTLINE
10
1977.800000
20
176.951924
30
0.000000
0
VERTEX
8
OUTLINE
10
1977.800000
20
113.781410
30
0.000000
42
-7.595754
0
VERTEX
8
OUTLINE
10
1976.701924
20
112.683333
30
0.000000
0
VERTEX
8
OUTLINE
10
1960.000000
20
112.683333
30
0.000000
0
VERTEX
8
OUTLINE
10
1960.000000
20
72.683333
30
0.000000
0
VERTEX
8
OUTLINE
10
1976.701924
20
72.683333
30
0.000000
42
-7.595754
0
VERTEX
8
OUTLINE
10
1977.800000
20
71.585257
30
0.000000
0
SEQEND
8
OUTLINE
0
POLYLINE
8
OUTLINE
66
1.000000
70
1.000000
10
0.000000
20
0.000000
30
0.000000
0
VERTEX
8
OUTLINE
10
1977.800000
20
394.100000
30
0.000000
0
VERTEX
8
OUTLINE
10
2401.100000
20
394.100000
30
0.000000
0
VERTEX
8
OUTLINE
10
2401.100000
20
455.685257
30
0.000000
42
-7.595754
0
VERTEX
8
OUTLINE
10
2402.198076
20
456.783333
30
0.000000
0
VERTEX
8
OUTLINE
10
2418.900000
20
456.783333
30
0.000000
0
VERTEX
8
OUTLINE
10
2418.900000
20
496.783333
30
0.000000
0
VERTEX
8
OUTLINE
10
2402.198076
20
496.783333
30
0.000000
42
-7.595754
0
VERTEX
8
OUTLINE
10
2401.100000
20
497.881410
30
0.000000
0
VERTEX
8
OUTLINE
10
2401.100000
20
561.051924
30
0.000000
42
-7.595754
0
VERTEX
8
OUTLINE
10
2402.198076
20
562.150000
30
0.000000
0
VERTEX
8
OUTLINE
10
2418.900000
20
562.150000
30
0.000000
0
VERTEX
8
OUTLINE
10
2418.900000
20
602.150000
30
0.000000
0
VERTEX
8
OUTLINE
10
2402.198076
20
602.150000
30
0.000000
42
-7.595754
0
VERTEX
8
OUTLINE
10
2401.100000
20
603.248076
30
0.000000
0
VERTEX
8
OUTLINE
10
2401.100000
20
666.418590
30
0.000000
42
-7.595754
0
VERTEX
8
OUTLINE
10
2402.198076
20
667.516667
30
0.000000
0
VERTEX
8
OUTLINE
10
2418.900000
20
667.516667
30
0.000000
0
VERTEX
8
OUTLINE
10
2418.900000
20
707.516667
30
0.000000
0
VERTEX
8
OUTLINE
10
2402.198076
20
707.516667
30
0.000000
42
-7.595754
0
VERTEX
8
OUTLINE
10
2401.100000
20
708.614743
30
0.000000
0
VERTEX
8
OUTLINE
10
2401.100000
20
770.200000
30
0.000000
0
VERTEX
8
OUTLINE
10
1977.800000
20
770.200000
30
0.000000
0
VERTEX
8
OUTLINE
10
1977.800000
20
708.614743
30
0.000000
42
-7.595754
0
VERTEX
8
OUTLINE
10
1976.701924
20
707.516667
30
0.000000
0
VERTEX
8
OUTLINE
10
1960.000000
20
707.516667
30
0.000000
0
VERTEX
8
OUTLINE
10
1960.000000
20
667.516667
30
0.000000
0
VERTEX
8
OUTLINE
10
1976.701924
20
667.516667
30
0.000000
42
-7.595754
0
VERTEX
8
OUTLINE
10
1977.800000
20
666.418590
30
0.000000
0
VERTEX
8
OUTLINE
10
1977.800000
20
603.248076
30
0.000000
42
-7.595754
0
VERTEX
8
OUTLINE
10
1976.701924
20
602.150000
30
0.000000
0
VERTEX
8
OUTLINE
10
1960.000000
20
602.150000
30
0.000000
0
VERTEX
8
OUTLINE
10
1960.000000
20
562.150000
30
0.000000
0
VERTEX
8
OUTLINE
10
1976.701924
20
562.150000
30
0.000000
42
-7.595754
0
VERTEX
8
OUTLINE
10
1977.800000
20
561.051924
30
0.000000
0
VERTEX
8
OUTLINE
10
1977.800000
20
497.881410
30
0.000000
42
-7.595754
0
VERTEX
8
OUTLINE
10
1976.701924
20
496.783333
30
0.000000
0
VERTEX
8
OUTLINE
10
1960.000000
20
496.783333
30
0.000000
0
VERTEX
8
OUTLINE
10
1960.000000
20
456.783333
30
0.000000
0
VERTEX
8
OUTLINE
10
1976.701924
20
456.783333
30
0.000000
42
-7.595754
0
VERTEX
8
OUTLINE
10
1977.800000
20
455.685257
30
0.000000
0
SEQEND
8
OUTLINE
0
POLYLINE
8
OUTLINE
66
1.000000
70
1.000000
10
0.000000
20
0.000000
30
0.000000
0
VERTEX
8
OUTLINE
10
10.000000
20
826.000000
30
0.000000
0
VERTEX
8
OUTLINE
10
431.300000
20
826.000000
30
0.000000
0
VERTEX
8
OUTLINE
10
431.300000
20
1200.100000
30
0.000000
0
VERTEX
8
OUTLINE
10
10.000000
20
1200.100000
30
0.000000
0
SEQEND
8
OUTLINE
0
CIRCLE
8
DRILL_8_D12
10
1705.500000
20
425.000000
30
0.000000
40
4.000000
0
CIRCLE
8
DRILL_8_D12
10
1660.500000
20
425.000000
30
0.000000
40
4.000000
0
CIRCLE
8
DRILL_8_D12
10
1078.700000
20
425.000000
30
0.000000
40
4.000000
0
CIRCLE
8
DRILL_8_D12
10
1033.700000
20
425.000000
30
0.000000
40
4.000000
0
CIRCLE
8
DRILL_8_D12
10
1705.500000
20
497.000000
30
0.000000
40
4.000000
0
CIRCLE
8
DRILL_8_D12
10
1660.500000
20
497.000000
30
0.000000
40
4.000000
0
CIRCLE
8
DRILL_8_D12
10
1078.700000
20
497.000000
30
0.000000
40
4.000000
0
CIRCLE
8
DRILL_8_D12
10
1033.700000
20
497.000000
30
0.000000
40
4.000000
0
TEXT
8
LABEL
10
22.000000
20
22.000000
30
0.000000
40
8.000000
1
C1-T-BOTTOM
0
TEXT
8
LABEL
10
22.000000
20
430.000000
30
0.000000
40
8.000000
1
C1-T-TOP
0
TEXT
8
LABEL
10
1747.200000
20
22.000000
30
0.000000
40
8.000000
1
C1-B-DOOR-1
0
TEXT
8
LABEL
10
1747.200000
20
477.000000
30
0.000000
40
8.000000
1
C1-B-DOOR-2
0
TEXT
8
LABEL
10
1972.000000
20
22.000000
30
0.000000
40
8.000000
1
C1-T-SHELF-1-3
0
TEXT
8
LABEL
10
1972.000000
20
406.100000
30
0.000000
40
8.000000
1
C1-T-SHELF-1-4
0
TEXT
8
LABEL
10
22.000000
20
838.000000
30
0.000000
40
8.000000
1
C1-T-SHELF-ADJ-2
0
ENDSEC
0
EOF
