0
SECTION
2
HEADER
9
$ACADVER
1
AC1009
9
$INSUNITS
70
4.000000
9
$MEASUREMENT
70
1.000000
0
ENDSEC
0
SECTION
2
TABLES
0
TABLE
2
LAYER
70
7.000000
0
LAYER
2
DRILL_4.5_THRU
70
0.000000
62
5.000000
6
CONTINUOUS
0
LAYER
2
DRILL_5_D12
70
0.000000
62
5.000000
6
CONTINUOUS
0
LAYER
2
LABEL
70
0.000000
62
8.000000
6
CONTINUOUS
0
LAYER
2
OUTLINE
70
0.000000
62
7.000000
6
CONTINUOUS
0
LAYER
2
POCKET_D6
70
0.000000
62
3.000000
6
CONTINUOUS
0
LAYER
2
THROUGH
70
0.000000
62
1.000000
6
CONTINUOUS
0
LAYER
2
TILE_REG
70
0.000000
62
6.000000
6
CONTINUOUS
0
ENDTAB
0
ENDSEC
0
SECTION
2
ENTITIES
0
POLYLINE
8
OUTLINE
66
1.000000
70
1.000000
10
0.000000
20
0.000000
30
0.000000
0
VERTEX
8
OUTLINE
10
796.200000
20
10.000000
30
0.000000
0
VERTEX
8
OUTLINE
10
796.200000
20
60.000000
30
0.000000
0
VERTEX
8
OUTLINE
10
896.200000
20
60.000000
30
0.000000
0
VERTEX
8
OUTLINE
10
896.200000
20
610.000000
30
0.000000
0
VERTEX
8
OUTLINE
10
10.000000
20
610.000000
30
0.000000
0
VERTEX
8
OUTLINE
10
10.000000
20
23.150000
30
0.000000
0
VERTEX
8
OUTLINE
10
14.000000
20
23.150000
30
0.000000
0
VERTEX
8
OUTLINE
10
14.000000
20
10.000000
30
0.000000
0
SEQEND
8
OUTLINE
0
POLYLINE
8
THROUGH
66
1.000000
70
1.000000
10
0.000000
20
0.000000
30
0.000000
0
VERTEX
8
THROUGH
10
795.176924
20
73.925000
30
0.000000
42
7.595754
0
VERTEX
8
THROUGH
10
796.275000
20
75.023076
30
0.000000
0
VERTEX
8
THROUGH
10
796.275000
20
112.976924
30
0.000000
42
7.595754
0
VERTEX
8
THROUGH
10
795.176924
20
114.075000
30
0.000000
0
VERTEX
8
THROUGH
10
779.423076
20
114.075000
30
0.000000
42
7.595754
0
VERTEX
8
THROUGH
10
778.325000
20
112.976924
30
0.000000
0
VERTEX
8
THROUGH
10
778.325000
20
75.023076
30
0.000000
42
7.595754
0
VERTEX
8
THROUGH
10
779.423076
20
73.925000
30
0.000000
0
SEQEND
8
THROUGH
0
POLYLINE
8
THROUGH
66
1.000000
70
1.000000
10
0.000000
20
0.000000
30
0.000000
0
VERTEX
8
THROUGH
10
795.176924
20
181.925000
30
0.000000
42
7.595754
0
VERTEX
8
THROUGH
10
796.275000
20
183.023076
30
0.000000
0
VERTEX
8
THROUGH
10
796.275000
20
220.976924
30
0.000000
42
7.595754
0
VERTEX
8
THROUGH
10
795.176924
20
222.075000
30
0.000000
0
VERTEX
8
THROUGH
10
779.423076
20
222.075000
30
0.000000
42
7.595754
0
VERTEX
8
THROUGH
10
778.325000
20
220.976924
30
0.000000
0
VERTEX
8
THROUGH
10
778.325000
20
183.023076
30
0.000000
42
7.595754
0
VERTEX
8
THROUGH
10
779.423076
20
181.925000
30
0.000000
0
SEQEND
8
THROUGH
0
POLYLINE
8
THROUGH
66
1.000000
70
1.000000
10
0.000000
20
0.000000
30
0.000000
0
VERTEX
8
THROUGH
10
795.176924
20
289.925000
30
0.000000
42
7.595754
0
VERTEX
8
THROUGH
10
796.275000
20
291.023076
30
0.000000
0
VERTEX
8
THROUGH
10
796.275000
20
328.976924
30
0.000000
42
7.595754
0
VERTEX
8
THROUGH
10
795.176924
20
330.075000
30
0.000000
0
VERTEX
8
THROUGH
10
779.423076
20
330.075000
30
0.000000
42
7.595754
0
VERTEX
8
THROUGH
10
778.325000
20
328.976924
30
0.000000
0
VERTEX
8
THROUGH
10
778.325000
20
291.023076
30
0.000000
42
7.595754
0
VERTEX
8
THROUGH
10
779.423076
20
289.925000
30
0.000000
0
SEQEND
8
THROUGH
0
POLYLINE
8
THROUGH
66
1.000000
70
1.000000
10
0.000000
20
0.000000
30
0.000000
0
VERTEX
8
THROUGH
10
795.176924
20
397.925000
30
0.000000
42
7.595754
0
VERTEX
8
THROUGH
10
796.275000
20
399.023076
30
0.000000
0
VERTEX
8
THROUGH
10
796.275000
20
436.976924
30
0.000000
42
7.595754
0
VERTEX
8
THROUGH
10
795.176924
20
438.075000
30
0.000000
0
VERTEX
8
THROUGH
10
779.423076
20
438.075000
30
0.000000
42
7.595754
0
VERTEX
8
THROUGH
10
778.325000
20
436.976924
30
0.000000
0
VERTEX
8
THROUGH
10
778.325000
20
399.023076
30
0.000000
42
7.595754
0
VERTEX
8
THROUGH
10
779.423076
20
397.925000
30
0.000000
0
SEQEND
8
THROUGH
0
POLYLINE
8
THROUGH
66
1.000000
70
1.000000
10
0.000000
20
0.000000
30
0.000000
0
VERTEX
8
THROUGH
10
795.176924
20
505.925000
30
0.000000
42
7.595754
0
VERTEX
8
THROUGH
10
796.275000
20
507.023076
30
0.000000
0
VERTEX
8
THROUGH
10
796.275000
20
544.976924
30
0.000000
42
7.595754
0
VERTEX
8
THROUGH
10
795.176924
20
546.075000
30
0.000000
0
VERTEX
8
THROUGH
10
779.423076
20
546.075000
30
0.000000
42
7.595754
0
VERTEX
8
THROUGH
10
778.325000
20
544.976924
30
0.000000
0
VERTEX
8
THROUGH
10
778.325000
20
507.023076
30
0.000000
42
7.595754
0
VERTEX
8
THROUGH
10
779.423076
20
505.925000
30
0.000000
0
SEQEND
8
THROUGH
0
POLYLINE
8
POCKET_D6
66
1.000000
70
1.000000
10
0.000000
20
0.000000
30
0.000000
0
VERTEX
8
POCKET_D6
10
896.200000
20
59.925000
30
0.000000
0
VERTEX
8
POCKET_D6
10
896.200000
20
77.875000
30
0.000000
0
VERTEX
8
POCKET_D6
10
796.200000
20
77.875000
30
0.000000
0
VERTEX
8
POCKET_D6
10
796.200000
20
59.925000
30
0.000000
0
SEQEND
8
POCKET_D6
0
POLYLINE
8
POCKET_D6
66
1.000000
70
1.000000
10
0.000000
20
0.000000
30
0.000000
0
VERTEX
8
POCKET_D6
10
778.400000
20
586.025000
30
0.000000
0
VERTEX
8
POCKET_D6
10
778.400000
20
598.075000
30
0.000000
0
VERTEX
8
POCKET_D6
10
14.000000
20
598.075000
30
0.000000
0
VERTEX
8
POCKET_D6
10
14.000000
20
586.025000
30
0.000000
0
SEQEND
8
POCKET_D6
0
POLYLINE
8
OUTLINE
66
1.000000
70
1.000000
10
0.000000
20
0.000000
30
0.000000
0
VERTEX
8
OUTLINE
10
980.000000
20
618.000000
30
0.000000
0
VERTEX
8
OUTLINE
10
980.000000
20
1018.000000
30
0.000000
0
VERTEX
8
OUTLINE
10
10.000000
20
1018.000000
30
0.000000
0
VERTEX
8
OUTLINE
10
10.000000
20
618.000000
30
0.000000
0
SEQEND
8
OUTLINE
0
POLYLINE
8
THROUGH
66
1.000000
70
1.000000
10
0.000000
20
0.000000
30
0.000000
0
VERTEX
8
THROUGH
10
26.776924
20
911.258333
30
0.000000
42
7.595754
0
VERTEX
8
THROUGH
10
27.875000
20
912.356410
30
0.000000
0
VERTEX
8
THROUGH
10
27.875000
20
950.310257
30
0.000000
42
7.595754
0
VERTEX
8
THROUGH
10
26.776924
20
951.408333
30
0.000000
0
VERTEX
8
THROUGH
10
11.023076
20
951.408333
30
0.000000
42
7.595754
0
VERTEX
8
THROUGH
10
9.925000
20
950.310257
30
0.000000
0
VERTEX
8
THROUGH
10
9.925000
20
912.356410
30
0.000000
42
7.595754
0
VERTEX
8
THROUGH
10
11.023076
20
911.258333
30
0.000000
0
SEQEND
8
THROUGH
0
POLYLINE
8
THROUGH
66
1.000000
70
1.000000
10
0.000000
20
0.000000
30
0.000000
0
VERTEX
8
THROUGH
10
26.776924
20
797.925000
30
0.000000
42
7.595754
0
VERTEX
8
THROUGH
10
27.875000
20
799.023076
30
0.000000
0
VERTEX
8
THROUGH
10
27.875000
20
836.976924
30
0.000000
42
7.595754
0
VERTEX
8
THROUGH
10
26.776924
20
838.075000
30
0.000000
0
VERTEX
8
THROUGH
10
11.023076
20
838.075000
30
0.000000
42
7.595754
0
VERTEX
8
THROUGH
10
9.925000
20
836.976924
30
0.000000
0
VERTEX
8
THROUGH
10
9.925000
20
799.023076
30
0.000000
42
7.595754
0
VERTEX
8
THROUGH
10
11.023076
20
797.925000
30
0.000000
0
SEQEND
8
THROUGH
0
POLYLINE
8
THROUGH
66
1.000000
70
1.000000
10
0.000000
20
0.000000
30
0.000000
0
VERTEX
8
THROUGH
10
26.776924
20
684.591667
30
0.000000
42
7.595754
0
VERTEX
8
THROUGH
10
27.875000
20
685.689743
30
0.000000
0
VERTEX
8
THROUGH
10
27.875000
20
723.643590
30
0.000000
42
7.595754
0
VERTEX
8
THROUGH
10
26.776924
20
724.741667
30
0.000000
0
VERTEX
8
THROUGH
10
11.023076
20
724.741667
30
0.000000
42
7.595754
0
VERTEX
8
THROUGH
10
9.925000
20
723.643590
30
0.000000
0
VERTEX
8
THROUGH
10
9.925000
20
685.689743
30
0.000000
42
7.595754
0
VERTEX
8
THROUGH
10
11.023076
20
684.591667
30
0.000000
0
SEQEND
8
THROUGH
0
POLYLINE
8
POCKET_D6
66
1.000000
70
1.000000
10
0.000000
20
0.000000
30
0.000000
0
VERTEX
8
POCKET_D6
10
980.000000
20
629.925000
30
0.000000
0
VERTEX
8
POCKET_D6
10
980.000000
20
641.975000
30
0.000000
0
VERTEX
8
POCKET_D6
10
27.800000
20
641.975000
30
0.000000
0
VERTEX
8
POCKET_D6
10
27.800000
20
629.925000
30
0.000000
0
SEQEND
8
POCKET_D6
0
CIRCLE
8
DRILL_4.5_THRU
10
871.200000
20
68.900000
30
0.000000
40
2.250000
0
CIRCLE
8
DRILL_4.5_THRU
10
821.200000
20
68.900000
30
0.000000
40
2.250000
0
CIRCLE
8
DRILL_5_D12
10
734.500000
20
47.000000
30
0.000000
40
2.500000
0
CIRCLE
8
DRILL_5_D12
10
702.500000
20
47.000000
30
0.000000
40
2.500000
0
CIRCLE
8
DRILL_5_D12
10
107.700000
20
47.000000
30
0.000000
40
2.500000
0
CIRCLE
8
DRILL_5_D12
10
75.700000
20
47.000000
30
0.000000
40
2.500000
0
CIRCLE
8
DRILL_5_D12
10
964.200000
20
981.000000
30
0.000000
40
2.500000
0
CIRCLE
8
DRILL_5_D12
10
964.200000
20
678.900000
30
0.000000
40
2.500000
0
CIRCLE
8
DRILL_5_D12
10
932.200000
20
981.000000
30
0.000000
40
2.500000
0
CIRCLE
8
DRILL_5_D12
10
932.200000
20
678.900000
30
0.000000
40
2.500000
0
CIRCLE
8
DRILL_5_D12
10
900.200000
20
981.000000
30
0.000000
40
2.500000
0
CIRCLE
8
DRILL_5_D12
10
900.200000
20
678.900000
30
0.000000
40
2.500000
0
CIRCLE
8
DRILL_5_D12
10
868.200000
20
981.000000
30
0.000000
40
2.500000
0
CIRCLE
8
DRILL_5_D12
10
868.200000
20
678.900000
30
0.000000
40
2.500000
0
CIRCLE
8
DRILL_5_D12
10
836.200000
20
981.000000
30
0.000000
40
2.500000
0
CIRCLE
8
DRILL_5_D12
10
836.200000
20
678.900000
30
0.000000
40
2.500000
0
CIRCLE
8
DRILL_5_D12
10
804.200000
20
981.000000
30
0.000000
40
2.500000
0
CIRCLE
8
DRILL_5_D12
10
804.200000
20
678.900000
30
0.000000
40
2.500000
0
CIRCLE
8
DRILL_5_D12
10
772.200000
20
981.000000
30
0.000000
40
2.500000
0
CIRCLE
8
DRILL_5_D12
10
772.200000
20
678.900000
30
0.000000
40
2.500000
0
CIRCLE
8
DRILL_5_D12
10
740.200000
20
981.000000
30
0.000000
40
2.500000
0
CIRCLE
8
DRILL_5_D12
10
740.200000
20
678.900000
30
0.000000
40
2.500000
0
CIRCLE
8
DRILL_5_D12
10
708.200000
20
981.000000
30
0.000000
40
2.500000
0
CIRCLE
8
DRILL_5_D12
10
708.200000
20
678.900000
30
0.000000
40
2.500000
0
CIRCLE
8
DRILL_5_D12
10
676.200000
20
981.000000
30
0.000000
40
2.500000
0
CIRCLE
8
DRILL_5_D12
10
676.200000
20
678.900000
30
0.000000
40
2.500000
0
CIRCLE
8
DRILL_5_D12
10
644.200000
20
981.000000
30
0.000000
40
2.500000
0
CIRCLE
8
DRILL_5_D12
10
644.200000
20
678.900000
30
0.000000
40
2.500000
0
CIRCLE
8
DRILL_5_D12
10
612.200000
20
981.000000
30
0.000000
40
2.500000
0
CIRCLE
8
DRILL_5_D12
10
612.200000
20
678.900000
30
0.000000
40
2.500000
0
CIRCLE
8
DRILL_5_D12
10
580.200000
20
981.000000
30
0.000000
40
2.500000
0
CIRCLE
8
DRILL_5_D12
10
580.200000
20
678.900000
30
0.000000
40
2.500000
0
CIRCLE
8
DRILL_5_D12
10
548.200000
20
981.000000
30
0.000000
40
2.500000
0
CIRCLE
8
DRILL_5_D12
10
548.200000
20
678.900000
30
0.000000
40
2.500000
0
CIRCLE
8
DRILL_5_D12
10
516.200000
20
981.000000
30
0.000000
40
2.500000
0
CIRCLE
8
DRILL_5_D12
10
516.200000
20
678.900000
30
0.000000
40
2.500000
0
CIRCLE
8
DRILL_5_D12
10
484.200000
20
981.000000
30
0.000000
40
2.500000
0
CIRCLE
8
DRILL_5_D12
10
484.200000
20
678.900000
30
0.000000
40
2.500000
0
CIRCLE
8
DRILL_5_D12
10
452.200000
20
981.000000
30
0.000000
40
2.500000
0
CIRCLE
8
DRILL_5_D12
10
452.200000
20
678.900000
30
0.000000
40
2.500000
0
CIRCLE
8
DRILL_5_D12
10
420.200000
20
981.000000
30
0.000000
40
2.500000
0
CIRCLE
8
DRILL_5_D12
10
420.200000
20
678.900000
30
0.000000
40
2.500000
0
CIRCLE
8
DRILL_5_D12
10
388.200000
20
981.000000
30
0.000000
40
2.500000
0
CIRCLE
8
DRILL_5_D12
10
388.200000
20
678.900000
30
0.000000
40
2.500000
0
CIRCLE
8
DRILL_5_D12
10
356.200000
20
981.000000
30
0.000000
40
2.500000
0
CIRCLE
8
DRILL_5_D12
10
356.200000
20
678.900000
30
0.000000
40
2.500000
0
CIRCLE
8
DRILL_5_D12
10
324.200000
20
981.000000
30
0.000000
40
2.500000
0
CIRCLE
8
DRILL_5_D12
10
324.200000
20
678.900000
30
0.000000
40
2.500000
0
CIRCLE
8
DRILL_5_D12
10
292.200000
20
981.000000
30
0.000000
40
2.500000
0
CIRCLE
8
DRILL_5_D12
10
292.200000
20
678.900000
30
0.000000
40
2.500000
0
CIRCLE
8
DRILL_5_D12
10
260.200000
20
981.000000
30
0.000000
40
2.500000
0
CIRCLE
8
DRILL_5_D12
10
260.200000
20
678.900000
30
0.000000
40
2.500000
0
CIRCLE
8
DRILL_5_D12
10
228.200000
20
981.000000
30
0.000000
40
2.500000
0
CIRCLE
8
DRILL_5_D12
10
228.200000
20
678.900000
30
0.000000
40
2.500000
0
CIRCLE
8
DRILL_5_D12
10
196.200000
20
981.000000
30
0.000000
40
2.500000
0
CIRCLE
8
DRILL_5_D12
10
196.200000
20
678.900000
30
0.000000
40
2.500000
0
CIRCLE
8
DRILL_5_D12
10
164.200000
20
981.000000
30
0.000000
40
2.500000
0
CIRCLE
8
DRILL_5_D12
10
164.200000
20
678.900000
30
0.000000
40
2.500000
0
CIRCLE
8
DRILL_5_D12
10
132.200000
20
981.000000
30
0.000000
40
2.500000
0
CIRCLE
8
DRILL_5_D12
10
132.200000
20
678.900000
30
0.000000
40
2.500000
0
CIRCLE
8
TILE_REG
10
980.000000
20
6.000000
30
0.000000
40
3.000000
0
CIRCLE
8
TILE_REG
10
980.000000
20
1214.000000
30
0.000000
40
3.000000
0
TEXT
8
LABEL
10
884.200000
20
22.000000
30
0.000000
40
8.000000
1
C1-B-SIDE-L
0
ENDSEC
0
EOF
