0
SECTION
2
HEADER
9
$ACADVER
1
AC1009
9
$INSUNITS
70
4.000000
9
$MEASUREMENT
70
1.000000
0
ENDSEC
0
SECTION
2
TABLES
0
TABLE
2
LAYER
70
6.000000
0
LAYER
2
LABEL
70
0.000000
62
8.000000
6
CONTINUOUS
0
LAYER
2
OUTLINE
70
0.000000
62
7.000000
6
CONTINUOUS
0
LAYER
2
POCKET_D4
70
0.000000
62
3.000000
6
CONTINUOUS
0
LAYER
2
POCKET_D6
70
0.000000
62
3.000000
6
CONTINUOUS
0
LAYER
2
THROUGH
70
0.000000
62
1.000000
6
CONTINUOUS
0
LAYER
2
TILE_REG
70
0.000000
62
6.000000
6
CONTINUOUS
0
ENDTAB
0
ENDSEC
0
SECTION
2
ENTITIES
0
POLYLINE
8
OUTLINE
66
1.000000
70
1.000000
10
0.000000
20
0.000000
30
0.000000
0
VERTEX
8
OUTLINE
10
27.800000
20
10.000000
30
0.000000
0
VERTEX
8
OUTLINE
10
892.200000
20
10.000000
30
0.000000
0
VERTEX
8
OUTLINE
10
892.200000
20
72.901924
30
0.000000
42
-7.595754
0
VERTEX
8
OUTLINE
10
893.298076
20
74.000000
30
0.000000
0
VERTEX
8
OUTLINE
10
910.000000
20
74.000000
30
0.000000
0
VERTEX
8
OUTLINE
10
910.000000
20
114.000000
30
0.000000
0
VERTEX
8
OUTLINE
10
893.298076
20
114.000000
30
0.000000
42
-7.595754
0
VERTEX
8
OUTLINE
10
892.200000
20
115.098076
30
0.000000
0
VERTEX
8
OUTLINE
10
892.200000
20
180.901924
30
0.000000
42
-7.595754
0
VERTEX
8
OUTLINE
10
893.298076
20
182.000000
30
0.000000
0
VERTEX
8
OUTLINE
10
910.000000
20
182.000000
30
0.000000
0
VERTEX
8
OUTLINE
10
910.000000
20
222.000000
30
0.000000
0
VERTEX
8
OUTLINE
10
893.298076
20
222.000000
30
0.000000
42
-7.595754
0
VERTEX
8
OUTLINE
10
892.200000
20
223.098076
30
0.000000
0
VERTEX
8
OUTLINE
10
892.200000
20
288.901924
30
0.000000
42
-7.595754
0
VERTEX
8
OUTLINE
10
893.298076
20
290.000000
30
0.000000
0
VERTEX
8
OUTLINE
10
910.000000
20
290.000000
30
0.000000
0
VERTEX
8
OUTLINE
10
910.000000
20
330.000000
30
0.000000
0
VERTEX
8
OUTLINE
10
893.298076
20
330.000000
30
0.000000
42
-7.595754
0
VERTEX
8
OUTLINE
10
892.200000
20
331.098076
30
0.000000
0
VERTEX
8
OUTLINE
10
892.200000
20
396.901924
30
0.000000
42
-7.595754
0
VERTEX
8
OUTLINE
10
893.298076
20
398.000000
30
0.000000
0
VERTEX
8
OUTLINE
10
910.000000
20
398.000000
30
0.000000
0
VERTEX
8
OUTLINE
10
910.000000
20
438.000000
30
0.000000
0
VERTEX
8
OUTLINE
10
893.298076
20
438.000000
30
0.000000
42
-7.595754
0
VERTEX
8
OUTLINE
10
892.200000
20
439.098076
30
0.000000
0
VERTEX
8
OUTLINE
10
892.200000
20
504.901924
30
0.000000
42
-7.595754
0
VERTEX
8
OUTLINE
10
893.298076
20
506.000000
30
0.000000
0
VERTEX
8
OUTLINE
10
910.000000
20
506.000000
30
0.000000
0
VERTEX
8
OUTLINE
10
910.000000
20
546.000000
30
0.000000
0
VERTEX
8
OUTLINE
10
893.298076
20
546.000000
30
0.000000
42
-7.595754
0
VERTEX
8
OUTLINE
10
892.200000
20
547.098076
30
0.000000
0
VERTEX
8
OUTLINE
10
892.200000
20
610.000000
30
0.000000
0
VERTEX
8
OUTLINE
10
27.800000
20
610.000000
30
0.000000
0
VERTEX
8
OUTLINE
10
27.800000
20
547.098076
30
0.000000
42
-7.595754
0
VERTEX
8
OUTLINE
10
26.701924
20
546.000000
30
0.000000
0
VERTEX
8
OUTLINE
10
10.000000
20
546.000000
30
0.000000
0
VERTEX
8
OUTLINE
10
10.000000
20
506.000000
30
0.000000
0
VERTEX
8
OUTLINE
10
26.701924
20
506.000000
30
0.000000
42
-7.595754
0
VERTEX
8
OUTLINE
10
27.800000
20
504.901924
30
0.000000
0
VERTEX
8
OUTLINE
10
27.800000
20
439.098076
30
0.000000
42
-7.595754
0
VERTEX
8
OUTLINE
10
26.701924
20
438.000000
30
0.000000
0
VERTEX
8
OUTLINE
10
10.000000
20
438.000000
30
0.000000
0
VERTEX
8
OUTLINE
10
10.000000
20
398.000000
30
0.000000
0
VERTEX
8
OUTLINE
10
26.701924
20
398.000000
30
0.000000
42
-7.595754
0
VERTEX
8
OUTLINE
10
27.800000
20
396.901924
30
0.000000
0
VERTEX
8
OUTLINE
10
27.800000
20
331.098076
30
0.000000
42
-7.595754
0
VERTEX
8
OUTLINE
10
26.701924
20
330.000000
30
0.000000
0
VERTEX
8
OUTLINE
10
10.000000
20
330.000000
30
0.000000
0
VERTEX
8
OUTLINE
10
10.000000
20
290.000000
30
0.000000
0
VERTEX
8
OUTLINE
10
26.701924
20
290.000000
30
0.000000
42
-7.595754
0
VERTEX
8
OUTLINE
10
27.800000
20
288.901924
30
0.000000
0
VERTEX
8
OUTLINE
10
27.800000
20
223.098076
30
0.000000
42
-7.595754
0
VERTEX
8
OUTLINE
10
26.701924
20
222.000000
30
0.000000
0
VERTEX
8
OUTLINE
10
10.000000
20
222.000000
30
0.000000
0
VERTEX
8
OUTLINE
10
10.000000
20
182.000000
30
0.000000
0
VERTEX
8
OUTLINE
10
26.701924
20
182.000000
30
0.000000
42
-7.595754
0
VERTEX
8
OUTLINE
10
27.800000
20
180.901924
30
0.000000
0
VERTEX
8
OUTLINE
10
27.800000
20
115.098076
30
0.000000
42
-7.595754
0
VERTEX
8
OUTLINE
10
26.701924
20
114.000000
30
0.000000
0
VERTEX
8
OUTLINE
10
10.000000
20
114.000000
30
0.000000
0
VERTEX
8
OUTLINE
10
10.000000
20
74.000000
30
0.000000
0
VERTEX
8
OUTLINE
10
26.701924
20
74.000000
30
0.000000
42
-7.595754
0
VERTEX
8
OUTLINE
10
27.800000
20
72.901924
30
0.000000
0
SEQEND
8
OUTLINE
0
POLYLINE
8
THROUGH
66
1.000000
70
1.000000
10
0.000000
20
0.000000
30
0.000000
0
VERTEX
8
THROUGH
10
451.025000
20
85.535576
30
0.000000
42
7.595754
0
VERTEX
8
THROUGH
10
452.123076
20
84.437500
30
0.000000
0
VERTEX
8
THROUGH
10
467.876924
20
84.437500
30
0.000000
42
7.595754
0
VERTEX
8
THROUGH
10
468.975000
20
85.535576
30
0.000000
0
VERTEX
8
THROUGH
10
468.975000
20
123.489424
30
0.000000
42
7.595754
0
VERTEX
8
THROUGH
10
467.876924
20
124.587500
30
0.000000
0
VERTEX
8
THROUGH
10
452.123076
20
124.587500
30
0.000000
42
7.595754
0
VERTEX
8
THROUGH
10
451.025000
20
123.489424
30
0.000000
0
SEQEND
8
THROUGH
0
POLYLINE
8
THROUGH
66
1.000000
70
1.000000
10
0.000000
20
0.000000
30
0.000000
0
VERTEX
8
THROUGH
10
451.025000
20
214.560576
30
0.000000
42
7.595754
0
VERTEX
8
THROUGH
10
452.123076
20
213.462500
30
0.000000
0
VERTEX
8
THROUGH
10
467.876924
20
213.462500
30
0.000000
42
7.595754
0
VERTEX
8
THROUGH
10
468.975000
20
214.560576
30
0.000000
0
VERTEX
8
THROUGH
10
468.975000
20
252.514424
30
0.000000
42
7.595754
0
VERTEX
8
THROUGH
10
467.876924
20
253.612500
30
0.000000
0
VERTEX
8
THROUGH
10
452.123076
20
253.612500
30
0.000000
42
7.595754
0
VERTEX
8
THROUGH
10
451.025000
20
252.514424
30
0.000000
0
SEQEND
8
THROUGH
0
POLYLINE
8
THROUGH
66
1.000000
70
1.000000
10
0.000000
20
0.000000
30
0.000000
0
VERTEX
8
THROUGH
10
451.025000
20
343.585576
30
0.000000
42
7.595754
0
VERTEX
8
THROUGH
10
452.123076
20
342.487500
30
0.000000
0
VERTEX
8
THROUGH
10
467.876924
20
342.487500
30
0.000000
42
7.595754
0
VERTEX
8
THROUGH
10
468.975000
20
343.585576
30
0.000000
0
VERTEX
8
THROUGH
10
468.975000
20
381.539424
30
0.000000
42
7.595754
0
VERTEX
8
THROUGH
10
467.876924
20
382.637500
30
0.000000
0
VERTEX
8
THROUGH
10
452.123076
20
382.637500
30
0.000000
42
7.595754
0
VERTEX
8
THROUGH
10
451.025000
20
381.539424
30
0.000000
0
SEQEND
8
THROUGH
0
POLYLINE
8
THROUGH
66
1.000000
70
1.000000
10
0.000000
20
0.000000
30
0.000000
0
VERTEX
8
THROUGH
10
451.025000
20
472.610576
30
0.000000
42
7.595754
0
VERTEX
8
THROUGH
10
452.123076
20
471.512500
30
0.000000
0
VERTEX
8
THROUGH
10
467.876924
20
471.512500
30
0.000000
42
7.595754
0
VERTEX
8
THROUGH
10
468.975000
20
472.610576
30
0.000000
0
VERTEX
8
THROUGH
10
468.975000
20
510.564424
30
0.000000
42
7.595754
0
VERTEX
8
THROUGH
10
467.876924
20
511.662500
30
0.000000
0
VERTEX
8
THROUGH
10
452.123076
20
511.662500
30
0.000000
42
7.595754
0
VERTEX
8
THROUGH
10
451.025000
20
510.564424
30
0.000000
0
SEQEND
8
THROUGH
0
POLYLINE
8
POCKET_D6
66
1.000000
70
1.000000
10
0.000000
20
0.000000
30
0.000000
0
VERTEX
8
POCKET_D6
10
27.800000
20
586.025000
30
0.000000
0
VERTEX
8
POCKET_D6
10
892.200000
20
586.025000
30
0.000000
0
VERTEX
8
POCKET_D6
10
892.200000
20
598.075000
30
0.000000
0
VERTEX
8
POCKET_D6
10
27.800000
20
598.075000
30
0.000000
0
SEQEND
8
POCKET_D6
0
POLYLINE
8
POCKET_D4
66
1.000000
70
1.000000
10
0.000000
20
0.000000
30
0.000000
0
VERTEX
8
POCKET_D4
10
979.925000
20
20.000000
30
0.000000
0
VERTEX
8
POCKET_D4
10
980.000000
20
20.000000
30
0.000000
0
VERTEX
8
POCKET_D4
10
980.000000
20
610.000000
30
0.000000
0
VERTEX
8
POCKET_D4
10
979.925000
20
610.000000
30
0.000000
0
SEQEND
8
POCKET_D4
0
POLYLINE
8
OUTLINE
66
1.000000
70
1.000000
10
0.000000
20
0.000000
30
0.000000
0
VERTEX
8
OUTLINE
10
792.200000
20
618.000000
30
0.000000
0
VERTEX
8
OUTLINE
10
792.200000
20
691.414424
30
0.000000
42
-7.595754
0
VERTEX
8
OUTLINE
10
793.298076
20
692.512500
30
0.000000
0
VERTEX
8
OUTLINE
10
810.000000
20
692.512500
30
0.000000
0
VERTEX
8
OUTLINE
10
810.000000
20
732.512500
30
0.000000
0
VERTEX
8
OUTLINE
10
793.298076
20
732.512500
30
0.000000
42
-7.595754
0
VERTEX
8
OUTLINE
10
792.200000
20
733.610576
30
0.000000
0
VERTEX
8
OUTLINE
10
792.200000
20
820.439424
30
0.000000
42
-7.595754
0
VERTEX
8
OUTLINE
10
793.298076
20
821.537500
30
0.000000
0
VERTEX
8
OUTLINE
10
810.000000
20
821.537500
30
0.000000
0
VERTEX
8
OUTLINE
10
810.000000
20
861.537500
30
0.000000
0
VERTEX
8
OUTLINE
10
793.298076
20
861.537500
30
0.000000
42
-7.595754
0
VERTEX
8
OUTLINE
10
792.200000
20
862.635576
30
0.000000
0
VERTEX
8
OUTLINE
10
792.200000
20
949.464424
30
0.000000
42
-7.595754
0
VERTEX
8
OUTLINE
10
793.298076
20
950.562500
30
0.000000
0
VERTEX
8
OUTLINE
10
810.000000
20
950.562500
30
0.000000
0
VERTEX
8
OUTLINE
10
810.000000
20
990.562500
30
0.000000
0
VERTEX
8
OUTLINE
10
793.298076
20
990.562500
30
0.000000
42
-7.595754
0
VERTEX
8
OUTLINE
10
792.200000
20
991.660576
30
0.000000
0
VERTEX
8
OUTLINE
10
792.200000
20
1078.489424
30
0.000000
42
-7.595754
0
VERTEX
8
OUTLINE
10
793.298076
20
1079.587500
30
0.000000
0
VERTEX
8
OUTLINE
10
810.000000
20
1079.587500
30
0.000000
0
VERTEX
8
OUTLINE
10
810.000000
20
1119.587500
30
0.000000
0
VERTEX
8
OUTLINE
10
793.298076
20
1119.587500
30
0.000000
42
-7.595754
0
VERTEX
8
OUTLINE
10
792.200000
20
1120.685576
30
0.000000
0
VERTEX
8
OUTLINE
10
792.200000
20
1194.100000
30
0.000000
0
VERTEX
8
OUTLINE
10
27.800000
20
1194.100000
30
0.000000
0
VERTEX
8
OUTLINE
10
27.800000
20
1120.685576
30
0.000000
42
-7.595754
0
VERTEX
8
OUTLINE
10
26.701924
20
1119.587500
30
0.000000
0
VERTEX
8
OUTLINE
10
10.000000
20
1119.587500
30
0.000000
0
VERTEX
8
OUTLINE
10
10.000000
20
1079.587500
30
0.000000
0
VERTEX
8
OUTLINE
10
26.701924
20
1079.587500
30
0.000000
42
-7.595754
0
VERTEX
8
OUTLINE
10
27.800000
20
1078.489424
30
0.000000
0
VERTEX
8
OUTLINE
10
27.800000
20
991.660576
30
0.000000
42
-7.595754
0
VERTEX
8
OUTLINE
10
26.701924
20
990.562500
30
0.000000
0
VERTEX
8
OUTLINE
10
10.000000
20
990.562500
30
0.000000
0
VERTEX
8
OUTLINE
10
10.000000
20
950.562500
30
0.000000
0
VERTEX
8
OUTLINE
10
26.701924
20
950.562500
30
0.000000
42
-7.595754
0
VERTEX
8
OUTLINE
10
27.800000
20
949.464424
30
0.000000
0
VERTEX
8
OUTLINE
10
27.800000
20
862.635576
30
0.000000
42
-7.595754
0
VERTEX
8
OUTLINE
10
26.701924
20
861.537500
30
0.000000
0
VERTEX
8
OUTLINE
10
10.000000
20
861.537500
30
0.000000
0
VERTEX
8
OUTLINE
10
10.000000
20
821.537500
30
0.000000
0
VERTEX
8
OUTLINE
10
26.701924
20
821.537500
30
0.000000
42
-7.595754
0
VERTEX
8
OUTLINE
10
27.800000
20
820.439424
30
0.000000
0
VERTEX
8
OUTLINE
10
27.800000
20
733.610576
30
0.000000
42
-7.595754
0
VERTEX
8
OUTLINE
10
26.701924
20
732.512500
30
0.000000
0
VERTEX
8
OUTLINE
10
10.000000
20
732.512500
30
0.000000
0
VERTEX
8
OUTLINE
10
10.000000
20
692.512500
30
0.000000
0
VERTEX
8
OUTLINE
10
26.701924
20
692.512500
30
0.000000
42
-7.595754
0
VERTEX
8
OUTLINE
10
27.800000
20
691.414424
30
0.000000
0
VERTEX
8
OUTLINE
10
27.800000
20
618.000000
30
0.000000
0
SEQEND
8
OUTLINE
0
POLYLINE
8
THROUGH
66
1.000000
70
1.000000
10
0.000000
20
0.000000
30
0.000000
0
VERTEX
8
THROUGH
10
417.876924
20
692.437500
30
0.000000
42
7.595754
0
VERTEX
8
THROUGH
10
418.975000
20
693.535576
30
0.000000
0
VERTEX
8
THROUGH
10
418.975000
20
731.489424
30
0.000000
42
7.595754
0
VERTEX
8
THROUGH
10
417.876924
20
732.587500
30
0.000000
0
VERTEX
8
THROUGH
10
402.123076
20
732.587500
30
0.000000
42
7.595754
0
VERTEX
8
THROUGH
10
401.025000
20
731.489424
30
0.000000
0
VERTEX
8
THROUGH
10
401.025000
20
693.535576
30
0.000000
42
7.595754
0
VERTEX
8
THROUGH
10
402.123076
20
692.437500
30
0.000000
0
SEQEND
8
THROUGH
0
POLYLINE
8
THROUGH
66
1.000000
70
1.000000
10
0.000000
20
0.000000
30
0.000000
0
VERTEX
8
THROUGH
10
417.876924
20
821.462500
30
0.000000
42
7.595754
0
VERTEX
8
THROUGH
10
418.975000
20
822.560576
30
0.000000
0
VERTEX
8
THROUGH
10
418.975000
20
860.514424
30
0.000000
42
7.595754
0
VERTEX
8
THROUGH
10
417.876924
20
861.612500
30
0.000000
0
VERTEX
8
THROUGH
10
402.123076
20
861.612500
30
0.000000
42
7.595754
0
VERTEX
8
THROUGH
10
401.025000
20
860.514424
30
0.000000
0
VERTEX
8
THROUGH
10
401.025000
20
822.560576
30
0.000000
42
7.595754
0
VERTEX
8
THROUGH
10
402.123076
20
821.462500
30
0.000000
0
SEQEND
8
THROUGH
0
POLYLINE
8
THROUGH
66
1.000000
70
1.000000
10
0.000000
20
0.000000
30
0.000000
0
VERTEX
8
THROUGH
10
417.876924
20
950.487500
30
0.000000
42
7.595754
0
VERTEX
8
THROUGH
10
418.975000
20
951.585576
30
0.000000
0
VERTEX
8
THROUGH
10
418.975000
20
989.539424
30
0.000000
42
7.595754
0
VERTEX
8
THROUGH
10
417.876924
20
990.637500
30
0.000000
0
VERTEX
8
THROUGH
10
402.123076
20
990.637500
30
0.000000
42
7.595754
0
VERTEX
8
THROUGH
10
401.025000
20
989.539424
30
0.000000
0
VERTEX
8
THROUGH
10
401.025000
20
951.585576
30
0.000000
42
7.595754
0
VERTEX
8
THROUGH
10
402.123076
20
950.487500
30
0.000000
0
SEQEND
8
THROUGH
0
POLYLINE
8
THROUGH
66
1.000000
70
1.000000
10
0.000000
20
0.000000
30
0.000000
0
VERTEX
8
THROUGH
10
417.876924
20
1079.512500
30
0.000000
42
7.595754
0
VERTEX
8
THROUGH
10
418.975000
20
1080.610576
30
0.000000
0
VERTEX
8
THROUGH
10
418.975000
20
1118.564424
30
0.000000
42
7.595754
0
VERTEX
8
THROUGH
10
417.876924
20
1119.662500
30
0.000000
0
VERTEX
8
THROUGH
10
402.123076
20
1119.662500
30
0.000000
42
7.595754
0
VERTEX
8
THROUGH
10
401.025000
20
1118.564424
30
0.000000
0
VERTEX
8
THROUGH
10
401.025000
20
1080.610576
30
0.000000
42
7.595754
0
VERTEX
8
THROUGH
10
402.123076
20
1079.512500
30
0.000000
0
SEQEND
8
THROUGH
0
POLYLINE
8
OUTLINE
66
1.000000
70
1.000000
10
0.000000
20
0.000000
30
0.000000
0
VERTEX
8
OUTLINE
10
980.000000
20
618.000000
30
0.000000
0
VERTEX
8
OUTLINE
10
980.000000
20
1018.000000
30
0.000000
0
VERTEX
8
OUTLINE
10
818.000000
20
1018.000000
30
0.000000
0
VERTEX
8
OUTLINE
10
818.000000
20
618.000000
30
0.000000
0
SEQEND
8
OUTLINE
0
POLYLINE
8
THROUGH
66
1.000000
70
1.000000
10
0.000000
20
0.000000
30
0.000000
0
VERTEX
8
THROUGH
10
834.776924
20
684.591667
30
0.000000
42
7.595754
0
VERTEX
8
THROUGH
10
835.875000
20
685.689743
30
0.000000
0
VERTEX
8
THROUGH
10
835.875000
20
723.643590
30
0.000000
42
7.595754
0
VERTEX
8
THROUGH
10
834.776924
20
724.741667
30
0.000000
0
VERTEX
8
THROUGH
10
819.023076
20
724.741667
30
0.000000
42
7.595754
0
VERTEX
8
THROUGH
10
817.925000
20
723.643590
30
0.000000
0
VERTEX
8
THROUGH
10
817.925000
20
685.689743
30
0.000000
42
7.595754
0
VERTEX
8
THROUGH
10
819.023076
20
684.591667
30
0.000000
0
SEQEND
8
THROUGH
0
POLYLINE
8
THROUGH
66
1.000000
70
1.000000
10
0.000000
20
0.000000
30
0.000000
0
VERTEX
8
THROUGH
10
834.776924
20
797.925000
30
0.000000
42
7.595754
0
VERTEX
8
THROUGH
10
835.875000
20
799.023076
30
0.000000
0
VERTEX
8
THROUGH
10
835.875000
20
836.976924
30
0.000000
42
7.595754
0
VERTEX
8
THROUGH
10
834.776924
20
838.075000
30
0.000000
0
VERTEX
8
THROUGH
10
819.023076
20
838.075000
30
0.000000
42
7.595754
0
VERTEX
8
THROUGH
10
817.925000
20
836.976924
30
0.000000
0
VERTEX
8
THROUGH
10
817.925000
20
799.023076
30
0.000000
42
7.595754
0
VERTEX
8
THROUGH
10
819.023076
20
797.925000
30
0.000000
0
SEQEND
8
THROUGH
0
POLYLINE
8
THROUGH
66
1.000000
70
1.000000
10
0.000000
20
0.000000
30
0.000000
0
VERTEX
8
THROUGH
10
834.776924
20
911.258333
30
0.000000
42
7.595754
0
VERTEX
8
THROUGH
10
835.875000
20
912.356410
30
0.000000
0
VERTEX
8
THROUGH
10
835.875000
20
950.310257
30
0.000000
42
7.595754
0
VERTEX
8
THROUGH
10
834.776924
20
951.408333
30
0.000000
0
VERTEX
8
THROUGH
10
819.023076
20
951.408333
30
0.000000
42
7.595754
0
VERTEX
8
THROUGH
10
817.925000
20
950.310257
30
0.000000
0
VERTEX
8
THROUGH
10
817.925000
20
912.356410
30
0.000000
42
7.595754
0
VERTEX
8
THROUGH
10
819.023076
20
911.258333
30
0.000000
0
SEQEND
8
THROUGH
0
POLYLINE
8
POCKET_D6
66
1.000000
70
1.000000
10
0.000000
20
0.000000
30
0.000000
0
VERTEX
8
POCKET_D6
10
980.000000
20
994.025000
30
0.000000
0
VERTEX
8
POCKET_D6
10
980.000000
20
1006.075000
30
0.000000
0
VERTEX
8
POCKET_D6
10
835.800000
20
1006.075000
30
0.000000
0
VERTEX
8
POCKET_D6
10
835.800000
20
994.025000
30
0.000000
0
SEQEND
8
POCKET_D6
0
CIRCLE
8
TILE_REG
10
980.000000
20
6.000000
30
0.000000
40
3.000000
0
CIRCLE
8
TILE_REG
10
980.000000
20
1214.000000
30
0.000000
40
3.000000
0
TEXT
8
LABEL
10
22.000000
20
22.000000
30
0.000000
40
8.000000
1
C1-B-BOTTOM
0
TEXT
8
LABEL
10
798.000000
20
630.000000
30
0.000000
40
8.000000
1
C1-B-DIV-1
0
ENDSEC
0
EOF
