0
SECTION
2
HEADER
9
$ACADVER
1
AC1009
9
$INSUNITS
70
4.000000
9
$MEASUREMENT
70
1.000000
0
ENDSEC
0
SECTION
2
TABLES
0
TABLE
2
LAYER
70
7.000000
0
LAYER
2
DRILL_4.5_THRU
70
0.000000
62
5.000000
6
CONTINUOUS
0
LAYER
2
DRILL_5_D12
70
0.000000
62
5.000000
6
CONTINUOUS
0
LAYER
2
LABEL
70
0.000000
62
8.000000
6
CONTINUOUS
0
LAYER
2
OUTLINE
70
0.000000
62
7.000000
6
CONTINUOUS
0
LAYER
2
POCKET_D6
70
0.000000
62
3.000000
6
CONTINUOUS
0
LAYER
2
THROUGH
70
0.000000
62
1.000000
6
CONTINUOUS
0
LAYER
2
TILE_REG
70
0.000000
62
6.000000
6
CONTINUOUS
0
ENDTAB
0
ENDSEC
0
SECTION
2
ENTITIES
0
POLYLINE
8
OUTLINE
66
1.000000
70
1.000000
10
0.000000
20
0.000000
30
0.000000
0
VERTEX
8
OUTLINE
10
886.200000
20
10.000000
30
0.000000
0
VERTEX
8
OUTLINE
10
886.200000
20
560.000000
30
0.000000
0
VERTEX
8
OUTLINE
10
786.200000
20
560.000000
30
0.000000
0
VERTEX
8
OUTLINE
10
786.200000
20
610.000000
30
0.000000
0
VERTEX
8
OUTLINE
10
4.000000
20
610.000000
30
0.000000
0
VERTEX
8
OUTLINE
10
4.000000
20
596.850000
30
0.000000
0
VERTEX
8
OUTLINE
10
0.000000
20
596.850000
30
0.000000
0
VERTEX
8
OUTLINE
10
0.000000
20
10.000000
30
0.000000
0
SEQEND
8
OUTLINE
0
POLYLINE
8
THROUGH
66
1.000000
70
1.000000
10
0.000000
20
0.000000
30
0.000000
0
VERTEX
8
THROUGH
10
785.176924
20
505.925000
30
0.000000
42
7.595754
0
VERTEX
8
THROUGH
10
786.275000
20
507.023076
30
0.000000
0
VERTEX
8
THROUGH
10
786.275000
20
544.976924
30
0.000000
42
7.595754
0
VERTEX
8
THROUGH
10
785.176924
20
546.075000
30
0.000000
0
VERTEX
8
THROUGH
10
769.423076
20
546.075000
30
0.000000
42
7.595754
0
VERTEX
8
THROUGH
10
768.325000
20
544.976924
30
0.000000
0
VERTEX
8
THROUGH
10
768.325000
20
507.023076
30
0.000000
42
7.595754
0
VERTEX
8
THROUGH
10
769.423076
20
505.925000
30
0.000000
0
SEQEND
8
THROUGH
0
POLYLINE
8
THROUGH
66
1.000000
70
1.000000
10
0.000000
20
0.000000
30
0.000000
0
VERTEX
8
THROUGH
10
785.176924
20
397.925000
30
0.000000
42
7.595754
0
VERTEX
8
THROUGH
10
786.275000
20
399.023076
30
0.000000
0
VERTEX
8
THROUGH
10
786.275000
20
436.976924
30
0.000000
42
7.595754
0
VERTEX
8
THROUGH
10
785.176924
20
438.075000
30
0.000000
0
VERTEX
8
THROUGH
10
769.423076
20
438.075000
30
0.000000
42
7.595754
0
VERTEX
8
THROUGH
10
768.325000
20
436.976924
30
0.000000
0
VERTEX
8
THROUGH
10
768.325000
20
399.023076
30
0.000000
42
7.595754
0
VERTEX
8
THROUGH
10
769.423076
20
397.925000
30
0.000000
0
SEQEND
8
THROUGH
0
POLYLINE
8
THROUGH
66
1.000000
70
1.000000
10
0.000000
20
0.000000
30
0.000000
0
VERTEX
8
THROUGH
10
785.176924
20
289.925000
30
0.000000
42
7.595754
0
VERTEX
8
THROUGH
10
786.275000
20
291.023076
30
0.000000
0
VERTEX
8
THROUGH
10
786.275000
20
328.976924
30
0.000000
42
7.595754
0
VERTEX
8
THROUGH
10
785.176924
20
330.075000
30
0.000000
0
VERTEX
8
THROUGH
10
769.423076
20
330.075000
30
0.000000
42
7.595754
0
VERTEX
8
THROUGH
10
768.325000
20
328.976924
30
0.000000
0
VERTEX
8
THROUGH
10
768.325000
20
291.023076
30
0.000000
42
7.595754
0
VERTEX
8
THROUGH
10
769.423076
20
289.925000
30
0.000000
0
SEQEND
8
THROUGH
0
POLYLINE
8
THROUGH
66
1.000000
70
1.000000
10
0.000000
20
0.000000
30
0.000000
0
VERTEX
8
THROUGH
10
785.176924
20
181.925000
30
0.000000
42
7.595754
0
VERTEX
8
THROUGH
10
786.275000
20
183.023076
30
0.000000
0
VERTEX
8
THROUGH
10
786.275000
20
220.976924
30
0.000000
42
7.595754
0
VERTEX
8
THROUGH
10
785.176924
20
222.075000
30
0.000000
0
VERTEX
8
THROUGH
10
769.423076
20
222.075000
30
0.000000
42
7.595754
0
VERTEX
8
THROUGH
10
768.325000
20
220.976924
30
0.000000
0
VERTEX
8
THROUGH
10
768.325000
20
183.023076
30
0.000000
42
7.595754
0
VERTEX
8
THROUGH
10
769.423076
20
181.925000
30
0.000000
0
SEQEND
8
THROUGH
0
POLYLINE
8
THROUGH
66
1.000000
70
1.000000
10
0.000000
20
0.000000
30
0.000000
0
VERTEX
8
THROUGH
10
785.176924
20
73.925000
30
0.000000
42
7.595754
0
VERTEX
8
THROUGH
10
786.275000
20
75.023076
30
0.000000
0
VERTEX
8
THROUGH
10
786.275000
20
112.976924
30
0.000000
42
7.595754
0
VERTEX
8
THROUGH
10
785.176924
20
114.075000
30
0.000000
0
VERTEX
8
THROUGH
10
769.423076
20
114.075000
30
0.000000
42
7.595754
0
VERTEX
8
THROUGH
10
768.325000
20
112.976924
30
0.000000
0
VERTEX
8
THROUGH
10
768.325000
20
75.023076
30
0.000000
42
7.595754
0
VERTEX
8
THROUGH
10
769.423076
20
73.925000
30
0.000000
0
SEQEND
8
THROUGH
0
POLYLINE
8
POCKET_D6
66
1.000000
70
1.000000
10
0.000000
20
0.000000
30
0.000000
0
VERTEX
8
POCKET_D6
10
886.200000
20
542.125000
30
0.000000
0
VERTEX
8
POCKET_D6
10
886.200000
20
560.075000
30
0.000000
0
VERTEX
8
POCKET_D6
10
786.200000
20
560.075000
30
0.000000
0
VERTEX
8
POCKET_D6
10
786.200000
20
542.125000
30
0.000000
0
SEQEND
8
POCKET_D6
0
POLYLINE
8
THROUGH
66
1.000000
70
1.000000
10
0.000000
20
0.000000
30
0.000000
0
VERTEX
8
THROUGH
10
394.076924
20
495.412500
30
0.000000
42
7.595754
0
VERTEX
8
THROUGH
10
395.175000
20
496.510576
30
0.000000
0
VERTEX
8
THROUGH
10
395.175000
20
534.464424
30
0.000000
42
7.595754
0
VERTEX
8
THROUGH
10
394.076924
20
535.562500
30
0.000000
0
VERTEX
8
THROUGH
10
378.323076
20
535.562500
30
0.000000
42
7.595754
0
VERTEX
8
THROUGH
10
377.225000
20
534.464424
30
0.000000
0
VERTEX
8
THROUGH
10
377.225000
20
496.510576
30
0.000000
42
7.595754
0
VERTEX
8
THROUGH
10
378.323076
20
495.412500
30
0.000000
0
SEQEND
8
THROUGH
0
POLYLINE
8
THROUGH
66
1.000000
70
1.000000
10
0.000000
20
0.000000
30
0.000000
0
VERTEX
8
THROUGH
10
394.076924
20
366.387500
30
0.000000
42
7.595754
0
VERTEX
8
THROUGH
10
395.175000
20
367.485576
30
0.000000
0
VERTEX
8
THROUGH
10
395.175000
20
405.439424
30
0.000000
42
7.595754
0
VERTEX
8
THROUGH
10
394.076924
20
406.537500
30
0.000000
0
VERTEX
8
THROUGH
10
378.323076
20
406.537500
30
0.000000
42
7.595754
0
VERTEX
8
THROUGH
10
377.225000
20
405.439424
30
0.000000
0
VERTEX
8
THROUGH
10
377.225000
20
367.485576
30
0.000000
42
7.595754
0
VERTEX
8
THROUGH
10
378.323076
20
366.387500
30
0.000000
0
SEQEND
8
THROUGH
0
POLYLINE
8
THROUGH
66
1.000000
70
1.000000
10
0.000000
20
0.000000
30
0.000000
0
VERTEX
8
THROUGH
10
394.076924
20
237.362500
30
0.000000
42
7.595754
0
VERTEX
8
THROUGH
10
395.175000
20
238.460576
30
0.000000
0
VERTEX
8
THROUGH
10
395.175000
20
276.414424
30
0.000000
42
7.595754
0
VERTEX
8
THROUGH
10
394.076924
20
277.512500
30
0.000000
0
VERTEX
8
THROUGH
10
378.323076
20
277.512500
30
0.000000
42
7.595754
0
VERTEX
8
THROUGH
10
377.225000
20
276.414424
30
0.000000
0
VERTEX
8
THROUGH
10
377.225000
20
238.460576
30
0.000000
42
7.595754
0
VERTEX
8
THROUGH
10
378.323076
20
237.362500
30
0.000000
0
SEQEND
8
THROUGH
0
POLYLINE
8
THROUGH
66
1.000000
70
1.000000
10
0.000000
20
0.000000
30
0.000000
0
VERTEX
8
THROUGH
10
394.076924
20
108.337500
30
0.000000
42
7.595754
0
VERTEX
8
THROUGH
10
395.175000
20
109.435576
30
0.000000
0
VERTEX
8
THROUGH
10
395.175000
20
147.389424
30
0.000000
42
7.595754
0
VERTEX
8
THROUGH
10
394.076924
20
148.487500
30
0.000000
0
VERTEX
8
THROUGH
10
378.323076
20
148.487500
30
0.000000
42
7.595754
0
VERTEX
8
THROUGH
10
377.225000
20
147.389424
30
0.000000
0
VERTEX
8
THROUGH
10
377.225000
20
109.435576
30
0.000000
42
7.595754
0
VERTEX
8
THROUGH
10
378.323076
20
108.337500
30
0.000000
0
SEQEND
8
THROUGH
0
POLYLINE
8
POCKET_D6
66
1.000000
70
1.000000
10
0.000000
20
0.000000
30
0.000000
0
VERTEX
8
POCKET_D6
10
768.400000
20
21.925000
30
0.000000
0
VERTEX
8
POCKET_D6
10
768.400000
20
33.975000
30
0.000000
0
VERTEX
8
POCKET_D6
10
4.000000
20
33.975000
30
0.000000
0
VERTEX
8
POCKET_D6
10
4.000000
20
21.925000
30
0.000000
0
SEQEND
8
POCKET_D6
0
POLYLINE
8
OUTLINE
66
1.000000
70
1.000000
10
0.000000
20
0.000000
30
0.000000
0
VERTEX
8
OUTLINE
10
0.000000
20
618.000000
30
0.000000
0
VERTEX
8
OUTLINE
10
130.000000
20
618.000000
30
0.000000
0
VERTEX
8
OUTLINE
10
130.000000
20
1018.000000
30
0.000000
0
VERTEX
8
OUTLINE
10
0.000000
20
1018.000000
30
0.000000
0
SEQEND
8
OUTLINE
0
POLYLINE
8
THROUGH
66
1.000000
70
1.000000
10
0.000000
20
0.000000
30
0.000000
0
VERTEX
8
THROUGH
10
128.976924
20
911.258333
30
0.000000
42
7.595754
0
VERTEX
8
THROUGH
10
130.075000
20
912.356410
30
0.000000
0
VERTEX
8
THROUGH
10
130.075000
20
950.310257
30
0.000000
42
7.595754
0
VERTEX
8
THROUGH
10
128.976924
20
951.408333
30
0.000000
0
VERTEX
8
THROUGH
10
113.223076
20
951.408333
30
0.000000
42
7.595754
0
VERTEX
8
THROUGH
10
112.125000
20
950.310257
30
0.000000
0
VERTEX
8
THROUGH
10
112.125000
20
912.356410
30
0.000000
42
7.595754
0
VERTEX
8
THROUGH
10
113.223076
20
911.258333
30
0.000000
0
SEQEND
8
THROUGH
0
POLYLINE
8
THROUGH
66
1.000000
70
1.000000
10
0.000000
20
0.000000
30
0.000000
0
VERTEX
8
THROUGH
10
128.976924
20
797.925000
30
0.000000
42
7.595754
0
VERTEX
8
THROUGH
10
130.075000
20
799.023076
30
0.000000
0
VERTEX
8
THROUGH
10
130.075000
20
836.976924
30
0.000000
42
7.595754
0
VERTEX
8
THROUGH
10
128.976924
20
838.075000
30
0.000000
0
VERTEX
8
THROUGH
10
113.223076
20
838.075000
30
0.000000
42
7.595754
0
VERTEX
8
THROUGH
10
112.125000
20
836.976924
30
0.000000
0
VERTEX
8
THROUGH
10
112.125000
20
799.023076
30
0.000000
42
7.595754
0
VERTEX
8
THROUGH
10
113.223076
20
797.925000
30
0.000000
0
SEQEND
8
THROUGH
0
POLYLINE
8
THROUGH
66
1.000000
70
1.000000
10
0.000000
20
0.000000
30
0.000000
0
VERTEX
8
THROUGH
10
128.976924
20
684.591667
30
0.000000
42
7.595754
0
VERTEX
8
THROUGH
10
130.075000
20
685.689743
30
0.000000
0
VERTEX
8
THROUGH
10
130.075000
20
723.643590
30
0.000000
42
7.595754
0
VERTEX
8
THROUGH
10
128.976924
20
724.741667
30
0.000000
0
VERTEX
8
THROUGH
10
113.223076
20
724.741667
30
0.000000
42
7.595754
0
VERTEX
8
THROUGH
10
112.125000
20
723.643590
30
0.000000
0
VERTEX
8
THROUGH
10
112.125000
20
685.689743
30
0.000000
42
7.595754
0
VERTEX
8
THROUGH
10
113.223076
20
684.591667
30
0.000000
0
SEQEND
8
THROUGH
0
POLYLINE
8
POCKET_D6
66
1.000000
70
1.000000
10
0.000000
20
0.000000
30
0.000000
0
VERTEX
8
POCKET_D6
10
0.000000
20
629.925000
30
0.000000
0
VERTEX
8
POCKET_D6
10
112.200000
20
629.925000
30
0.000000
0
VERTEX
8
POCKET_D6
10
112.200000
20
641.975000
30
0.000000
0
VERTEX
8
POCKET_D6
10
0.000000
20
641.975000
30
0.000000
0
SEQEND
8
POCKET_D6
0
POLYLINE
8
OUTLINE
66
1.000000
70
1.000000
10
0.000000
20
0.000000
30
0.000000
0
VERTEX
8
OUTLINE
10
980.000000
20
618.000000
30
0.000000
0
VERTEX
8
OUTLINE
10
980.000000
20
994.100000
30
0.000000
0
VERTEX
8
OUTLINE
10
155.800000
20
994.100000
30
0.000000
0
VERTEX
8
OUTLINE
10
155.800000
20
932.514743
30
0.000000
0
VERTEX
8
OUTLINE
10
156.432905
20
932.788625
30
0.000000
0
VERTEX
8
OUTLINE
10
157.111628
20
932.910747
30
0.000000
0
VERTEX
8
OUTLINE
10
157.800306
20
932.874655
30
0.000000
0
VERTEX
8
OUTLINE
10
158.462547
20
932.682256
30
0.000000
0
VERTEX
8
OUTLINE
10
159.063356
20
932.343718
30
0.000000
0
VERTEX
8
OUTLINE
10
159.570985
20
931.876928
30
0.000000
0
VERTEX
8
OUTLINE
10
159.958611
20
931.306555
30
0.000000
0
VERTEX
8
OUTLINE
10
160.205749
20
930.662736
30
0.000000
0
VERTEX
8
OUTLINE
10
160.299342
20
929.979494
30
0.000000
0
VERTEX
8
OUTLINE
10
160.234443
20
929.292932
30
0.000000
0
VERTEX
8
OUTLINE
10
160.014481
20
928.639329
30
0.000000
0
VERTEX
8
OUTLINE
10
159.651080
20
928.053223
30
0.000000
0
VERTEX
8
OUTLINE
10
159.163443
20
927.565586
30
0.000000
0
VERTEX
8
OUTLINE
10
158.577338
20
927.202186
30
0.000000
0
VERTEX
8
OUTLINE
10
157.923735
20
926.982224
30
0.000000
0
VERTEX
8
OUTLINE
10
157.237173
20
926.917325
30
0.000000
0
VERTEX
8
OUTLINE
10
156.553930
20
927.010917
30
0.000000
0
VERTEX
8
OUTLINE
10
155.910112
20
927.258056
30
0.000000
0
VERTEX
8
OUTLINE
10
155.339738
20
927.645681
30
0.000000
0
VERTEX
8
OUTLINE
10
154.872949
20
928.153311
30
0.000000
0
VERTEX
8
OUTLINE
10
154.534411
20
928.754120
30
0.000000
0
VERTEX
8
OUTLINE
10
154.342012
20
929.416360
30
0.000000
0
VERTEX
8
OUTLINE
10
154.305920
20
930.105038
30
0.000000
0
VERTEX
8
OUTLINE
10
154.428042
20
930.783762
30
0.000000
0
VERTEX
8
OUTLINE
10
154.701924
20
931.416667
30
0.000000
0
VERTEX
8
OUTLINE
10
138.000000
20
931.416667
30
0.000000
0
VERTEX
8
OUTLINE
10
138.000000
20
891.416667
30
0.000000
0
VERTEX
8
OUTLINE
10
154.701924
20
891.416667
30
0.000000
0
VERTEX
8
OUTLINE
10
154.428042
20
892.049571
30
0.000000
0
VERTEX
8
OUTLINE
10
154.305920
20
892.728295
30
0.000000
0
VERTEX
8
OUTLINE
10
154.342012
20
893.416973
30
0.000000
0
VERTEX
8
OUTLINE
10
154.534411
20
894.079213
30
0.000000
0
VERTEX
8
OUTLINE
10
154.872949
20
894.680022
30
0.000000
0
VERTEX
8
OUTLINE
10
155.339738
20
895.187652
30
0.000000
0
VERTEX
8
OUTLINE
10
155.910112
20
895.575277
30
0.000000
0
VERTEX
8
OUTLINE
10
156.553930
20
895.822416
30
0.000000
0
VERTEX
8
OUTLINE
10
157.237173
20
895.916009
30
0.000000
0
VERTEX
8
OUTLINE
10
157.923735
20
895.851109
30
0.000000
0
VERTEX
8
OUTLINE
10
158.577338
20
895.631148
30
0.000000
0
VERTEX
8
OUTLINE
10
159.163443
20
895.267747
30
0.000000
0
VERTEX
8
OUTLINE
10
159.651080
20
894.780110
30
0.000000
0
VERTEX
8
OUTLINE
10
160.014481
20
894.194005
30
0.000000
0
VERTEX
8
OUTLINE
10
160.234443
20
893.540402
30
0.000000
0
VERTEX
8
OUTLINE
10
160.299342
20
892.853839
30
0.000000
0
VERTEX
8
OUTLINE
10
160.205749
20
892.170597
30
0.000000
0
VERTEX
8
OUTLINE
10
159.958611
20
891.526779
30
0.000000
0
VERTEX
8
OUTLINE
10
159.570985
20
890.956405
30
0.000000
0
VERTEX
8
OUTLINE
10
159.063356
20
890.489616
30
0.000000
0
VERTEX
8
OUTLINE
10
158.462547
20
890.151077
30
0.000000
0
VERTEX
8
OUTLINE
10
157.800306
20
889.958679
30
0.000000
0
VERTEX
8
OUTLINE
10
157.111628
20
889.922586
30
0.000000
0
VERTEX
8
OUTLINE
10
156.432905
20
890.044708
30
0.000000
0
VERTEX
8
OUTLINE
10
155.800000
20
890.318590
30
0.000000
0
VERTEX
8
OUTLINE
10
155.800000
20
827.148076
30
0.000000
0
VERTEX
8
OUTLINE
10
156.432905
20
827.421958
30
0.000000
0
VERTEX
8
OUTLINE
10
157.111628
20
827.544080
30
0.000000
0
VERTEX
8
OUTLINE
10
157.800306
20
827.507988
30
0.000000
0
VERTEX
8
OUTLINE
10
158.462547
20
827.315589
30
0.000000
0
VERTEX
8
OUTLINE
10
159.063356
20
826.977051
30
0.000000
0
VERTEX
8
OUTLINE
10
159.570985
20
826.510262
30
0.000000
0
VERTEX
8
OUTLINE
10
159.958611
20
825.939888
30
0.000000
0
VERTEX
8
OUTLINE
10
160.205749
20
825.296070
30
0.000000
0
VERTEX
8
OUTLINE
10
160.299342
20
824.612827
30
0.000000
0
VERTEX
8
OUTLINE
10
160.234443
20
823.926265
30
0.000000
0
VERTEX
8
OUTLINE
10
160.014481
20
823.272662
30
0.000000
0
VERTEX
8
OUTLINE
10
159.651080
20
822.686557
30
0.000000
0
VERTEX
8
OUTLINE
10
159.163443
20
822.198920
30
0.000000
0
VERTEX
8
OUTLINE
10
158.577338
20
821.835519
30
0.000000
0
VERTEX
8
OUTLINE
10
157.923735
20
821.615557
30
0.000000
0
VERTEX
8
OUTLINE
10
157.237173
20
821.550658
30
0.000000
0
VERTEX
8
OUTLINE
10
156.553930
20
821.644251
30
0.000000
0
VERTEX
8
OUTLINE
10
155.910112
20
821.891389
30
0.000000
0
VERTEX
8
OUTLINE
10
155.339738
20
822.279015
30
0.000000
0
VERTEX
8
OUTLINE
10
154.872949
20
822.786644
30
0.000000
0
VERTEX
8
OUTLINE
10
154.534411
20
823.387453
30
0.000000
0
VERTEX
8
OUTLINE
10
154.342012
20
824.049694
30
0.000000
0
VERTEX
8
OUTLINE
10
154.305920
20
824.738372
30
0.000000
0
VERTEX
8
OUTLINE
10
154.428042
20
825.417095
30
0.000000
0
VERTEX
8
OUTLINE
10
154.701924
20
826.050000
30
0.000000
0
VERTEX
8
OUTLINE
10
138.000000
20
826.050000
30
0.000000
0
VERTEX
8
OUTLINE
10
138.000000
20
786.050000
30
0.000000
0
VERTEX
8
OUTLINE
10
154.701924
20
786.050000
30
0.000000
0
VERTEX
8
OUTLINE
10
154.428042
20
786.682905
30
0.000000
0
VERTEX
8
OUTLINE
10
154.305920
20
787.361628
30
0.000000
0
VERTEX
8
OUTLINE
10
154.342012
20
788.050306
30
0.000000
0
VERTEX
8
OUTLINE
10
154.534411
20
788.712547
30
0.000000
0
VERTEX
8
OUTLINE
10
154.872949
20
789.313356
30
0.000000
0
VERTEX
8
OUTLINE
10
155.339738
20
789.820985
30
0.000000
0
VERTEX
8
OUTLINE
10
155.910112
20
790.208611
30
0.000000
0
VERTEX
8
OUTLINE
10
156.553930
20
790.455749
30
0.000000
0
VERTEX
8
OUTLINE
10
157.237173
20
790.549342
30
0.000000
0
VERTEX
8
OUTLINE
10
157.923735
20
790.484443
30
0.000000
0
VERTEX
8
OUTLINE
10
158.577338
20
790.264481
30
0.000000
0
VERTEX
8
OUTLINE
10
159.163443
20
789.901080
30
0.000000
0
VERTEX
8
OUTLINE
10
159.651080
20
789.413443
30
0.000000
0
VERTEX
8
OUTLINE
10
160.014481
20
788.827338
30
0.000000
0
VERTEX
8
OUTLINE
10
160.234443
20
788.173735
30
0.000000
0
VERTEX
8
OUTLINE
10
160.299342
20
787.487173
30
0.000000
0
VERTEX
8
OUTLINE
10
160.205749
20
786.803930
30
0.000000
0
VERTEX
8
OUTLINE
10
159.958611
20
786.160112
30
0.000000
0
VERTEX
8
OUTLINE
10
159.570985
20
785.589738
30
0.000000
0
VERTEX
8
OUTLINE
10
159.063356
20
785.122949
30
0.000000
0
VERTEX
8
OUTLINE
10
158.462547
20
784.784411
30
0.000000
0
VERTEX
8
OUTLINE
10
157.800306
20
784.592012
30
0.000000
0
VERTEX
8
OUTLINE
10
157.111628
20
784.555920
30
0.000000
0
VERTEX
8
OUTLINE
10
156.432905
20
784.678042
30
0.000000
0
VERTEX
8
OUTLINE
10
155.800000
20
784.951924
30
0.000000
0
VERTEX
8
OUTLINE
10
155.800000
20
721.781410
30
0.000000
0
VERTEX
8
OUTLINE
10
156.432905
20
722.055292
30
0.000000
0
VERTEX
8
OUTLINE
10
157.111628
20
722.177414
30
0.000000
0
VERTEX
8
OUTLINE
10
157.800306
20
722.141321
30
0.000000
0
VERTEX
8
OUTLINE
10
158.462547
20
721.948923
30
0.000000
0
VERTEX
8
OUTLINE
10
159.063356
20
721.610384
30
0.000000
0
VERTEX
8
OUTLINE
10
159.570985
20
721.143595
30
0.000000
0
VERTEX
8
OUTLINE
10
159.958611
20
720.573221
30
0.000000
0
VERTEX
8
OUTLINE
10
160.205749
20
719.929403
30
0.000000
0
VERTEX
8
OUTLINE
10
160.299342
20
719.246161
30
0.000000
0
VERTEX
8
OUTLINE
10
160.234443
20
718.559598
30
0.000000
0
VERTEX
8
OUTLINE
10
160.014481
20
717.905995
30
0.000000
0
VERTEX
8
OUTLINE
10
159.651080
20
717.319890
30
0.000000
0
VERTEX
8
OUTLINE
10
159.163443
20
716.832253
30
0.000000
0
VERTEX
8
OUTLINE
10
158.577338
20
716.468852
30
0.000000
0
VERTEX
8
OUTLINE
10
157.923735
20
716.248891
30
0.000000
0
VERTEX
8
OUTLINE
10
157.237173
20
716.183991
30
0.000000
0
VERTEX
8
OUTLINE
10
156.553930
20
716.277584
30
0.000000
0
VERTEX
8
OUTLINE
10
155.910112
20
716.524723
30
0.000000
0
VERTEX
8
OUTLINE
10
155.339738
20
716.912348
30
0.000000
0
VERTEX
8
OUTLINE
10
154.872949
20
717.419978
30
0.000000
0
VERTEX
8
OUTLINE
10
154.534411
20
718.020787
30
0.000000
0
VERTEX
8
OUTLINE
10
154.342012
20
718.683027
30
0.000000
0
VERTEX
8
OUTLINE
10
154.305920
20
719.371705
30
0.000000
0
VERTEX
8
OUTLINE
10
154.428042
20
720.050429
30
0.000000
0
VERTEX
8
OUTLINE
10
154.701924
20
720.683333
30
0.000000
0
VERTEX
8
OUTLINE
10
138.000000
20
720.683333
30
0.000000
0
VERTEX
8
OUTLINE
10
138.000000
20
680.683333
30
0.000000
0
VERTEX
8
OUTLINE
10
154.701924
20
680.683333
30
0.000000
0
VERTEX
8
OUTLINE
10
154.428042
20
681.316238
30
0.000000
0
VERTEX
8
OUTLINE
10
154.305920
20
681.994962
30
0.000000
0
VERTEX
8
OUTLINE
10
154.342012
20
682.683640
30
0.000000
0
VERTEX
8
OUTLINE
10
154.534411
20
683.345880
30
0.000000
0
VERTEX
8
OUTLINE
10
154.872949
20
683.946689
30
0.000000
0
VERTEX
8
OUTLINE
10
155.339738
20
684.454319
30
0.000000
0
VERTEX
8
OUTLINE
10
155.910112
20
684.841944
30
0.000000
0
VERTEX
8
OUTLINE
10
156.553930
20
685.089083
30
0.000000
0
VERTEX
8
OUTLINE
10
157.237173
20
685.182675
30
0.000000
0
VERTEX
8
OUTLINE
10
157.923735
20
685.117776
30
0.000000
0
VERTEX
8
OUTLINE
10
158.577338
20
684.897814
30
0.000000
0
VERTEX
8
OUTLINE
10
159.163443
20
684.534414
30
0.000000
0
VERTEX
8
OUTLINE
10
159.651080
20
684.046777
30
0.000000
0
VERTEX
8
OUTLINE
10
160.014481
20
683.460671
30
0.000000
0
VERTEX
8
OUTLINE
10
160.234443
20
682.807068
30
0.000000
0
VERTEX
8
OUTLINE
10
160.299342
20
682.120506
30
0.000000
0
VERTEX
8
OUTLINE
10
160.205749
20
681.437264
30
0.000000
0
VERTEX
8
OUTLINE
10
159.958611
20
680.793445
30
0.000000
0
VERTEX
8
OUTLINE
10
159.570985
20
680.223072
30
0.000000
0
VERTEX
8
OUTLINE
10
159.063356
20
679.756282
30
0.000000
0
VERTEX
8
OUTLINE
10
158.462547
20
679.417744
30
0.000000
0
VERTEX
8
OUTLINE
10
157.800306
20
679.225345
30
0.000000
0
VERTEX
8
OUTLINE
10
157.111628
20
679.189253
30
0.000000
0
VERTEX
8
OUTLINE
10
156.432905
20
679.311375
30
0.000000
0
VERTEX
8
OUTLINE
10
155.800000
20
679.585257
30
0.000000
0
VERTEX
8
OUTLINE
10
155.800000
20
618.000000
30
0.000000
0
SEQEND
8
OUTLINE
0
POLYLINE
8
THROUGH
66
1.000000
70
1.000000
10
0.000000
20
0.000000
30
0.000000
0
VERTEX
8
THROUGH
10
804.096924
20
680.608333
30
0.000000
42
7.595754
0
VERTEX
8
THROUGH
10
805.195000
20
681.706410
30
0.000000
0
VERTEX
8
THROUGH
10
805.195000
20
719.660257
30
0.000000
42
7.595754
0
VERTEX
8
THROUGH
10
804.096924
20
720.758333
30
0.000000
0
VERTEX
8
THROUGH
10
788.343076
20
720.758333
30
0.000000
42
7.595754
0
VERTEX
8
THROUGH
10
787.245000
20
719.660257
30
0.000000
0
VERTEX
8
THROUGH
10
787.245000
20
681.706410
30
0.000000
42
7.595754
0
VERTEX
8
THROUGH
10
788.343076
20
680.608333
30
0.000000
0
SEQEND
8
THROUGH
0
POLYLINE
8
THROUGH
66
1.000000
70
1.000000
10
0.000000
20
0.000000
30
0.000000
0
VERTEX
8
THROUGH
10
804.096924
20
785.975000
30
0.000000
42
7.595754
0
VERTEX
8
THROUGH
10
805.195000
20
787.073076
30
0.000000
0
VERTEX
8
THROUGH
10
805.195000
20
825.026924
30
0.000000
42
7.595754
0
VERTEX
8
THROUGH
10
804.096924
20
826.125000
30
0.000000
0
VERTEX
8
THROUGH
10
788.343076
20
826.125000
30
0.000000
42
7.595754
0
VERTEX
8
THROUGH
10
787.245000
20
825.026924
30
0.000000
0
VERTEX
8
THROUGH
10
787.245000
20
787.073076
30
0.000000
42
7.595754
0
VERTEX
8
THROUGH
10
788.343076
20
785.975000
30
0.000000
0
SEQEND
8
THROUGH
0
POLYLINE
8
THROUGH
66
1.000000
70
1.000000
10
0.000000
20
0.000000
30
0.000000
0
VERTEX
8
THROUGH
10
804.096924
20
891.341667
30
0.000000
42
7.595754
0
VERTEX
8
THROUGH
10
805.195000
20
892.439743
30
0.000000
0
VERTEX
8
THROUGH
10
805.195000
20
930.393590
30
0.000000
42
7.595754
0
VERTEX
8
THROUGH
10
804.096924
20
931.491667
30
0.000000
0
VERTEX
8
THROUGH
10
788.343076
20
931.491667
30
0.000000
42
7.595754
0
VERTEX
8
THROUGH
10
787.245000
20
930.393590
30
0.000000
0
VERTEX
8
THROUGH
10
787.245000
20
892.439743
30
0.000000
42
7.595754
0
VERTEX
8
THROUGH
10
788.343076
20
891.341667
30
0.000000
0
SEQEND
8
THROUGH
0
POLYLINE
8
THROUGH
66
1.000000
70
1.000000
10
0.000000
20
0.000000
30
0.000000
0
VERTEX
8
THROUGH
10
587.656924
20
680.608333
30
0.000000
42
7.595754
0
VERTEX
8
THROUGH
10
588.755000
20
681.706410
30
0.000000
0
VERTEX
8
THROUGH
10
588.755000
20
719.660257
30
0.000000
42
7.595754
0
VERTEX
8
THROUGH
10
587.656924
20
720.758333
30
0.000000
0
VERTEX
8
THROUGH
10
571.903076
20
720.758333
30
0.000000
42
7.595754
0
VERTEX
8
THROUGH
10
570.805000
20
719.660257
30
0.000000
0
VERTEX
8
THROUGH
10
570.805000
20
681.706410
30
0.000000
42
7.595754
0
VERTEX
8
THROUGH
10
571.903076
20
680.608333
30
0.000000
0
SEQEND
8
THROUGH
0
POLYLINE
8
THROUGH
66
1.000000
70
1.000000
10
0.000000
20
0.000000
30
0.000000
0
VERTEX
8
THROUGH
10
587.656924
20
785.975000
30
0.000000
42
7.595754
0
VERTEX
8
THROUGH
10
588.755000
20
787.073076
30
0.000000
0
VERTEX
8
THROUGH
10
588.755000
20
825.026924
30
0.000000
42
7.595754
0
VERTEX
8
THROUGH
10
587.656924
20
826.125000
30
0.000000
0
VERTEX
8
THROUGH
10
571.903076
20
826.125000
30
0.000000
42
7.595754
0
VERTEX
8
THROUGH
10
570.805000
20
825.026924
30
0.000000
0
VERTEX
8
THROUGH
10
570.805000
20
787.073076
30
0.000000
42
7.595754
0
VERTEX
8
THROUGH
10
571.903076
20
785.975000
30
0.000000
0
SEQEND
8
THROUGH
0
POLYLINE
8
THROUGH
66
1.000000
70
1.000000
10
0.000000
20
0.000000
30
0.000000
0
VERTEX
8
THROUGH
10
587.656924
20
891.341667
30
0.000000
42
7.595754
0
VERTEX
8
THROUGH
10
588.755000
20
892.439743
30
0.000000
0
VERTEX
8
THROUGH
10
588.755000
20
930.393590
30
0.000000
42
7.595754
0
VERTEX
8
THROUGH
10
587.656924
20
931.491667
30
0.000000
0
VERTEX
8
THROUGH
10
571.903076
20
931.491667
30
0.000000
42
7.595754
0
VERTEX
8
THROUGH
10
570.805000
20
930.393590
30
0.000000
0
VERTEX
8
THROUGH
10
570.805000
20
892.439743
30
0.000000
42
7.595754
0
VERTEX
8
THROUGH
10
571.903076
20
891.341667
30
0.000000
0
SEQEND
8
THROUGH
0
POLYLINE
8
THROUGH
66
1.000000
70
1.000000
10
0.000000
20
0.000000
30
0.000000
0
VERTEX
8
THROUGH
10
371.216924
20
680.608333
30
0.000000
42
7.595754
0
VERTEX
8
THROUGH
10
372.315000
20
681.706410
30
0.000000
0
VERTEX
8
THROUGH
10
372.315000
20
719.660257
30
0.000000
42
7.595754
0
VERTEX
8
THROUGH
10
371.216924
20
720.758333
30
0.000000
0
VERTEX
8
THROUGH
10
355.463076
20
720.758333
30
0.000000
42
7.595754
0
VERTEX
8
THROUGH
10
354.365000
20
719.660257
30
0.000000
0
VERTEX
8
THROUGH
10
354.365000
20
681.706410
30
0.000000
42
7.595754
0
VERTEX
8
THROUGH
10
355.463076
20
680.608333
30
0.000000
0
SEQEND
8
THROUGH
0
POLYLINE
8
THROUGH
66
1.000000
70
1.000000
10
0.000000
20
0.000000
30
0.000000
0
VERTEX
8
THROUGH
10
371.216924
20
785.975000
30
0.000000
42
7.595754
0
VERTEX
8
THROUGH
10
372.315000
20
787.073076
30
0.000000
0
VERTEX
8
THROUGH
10
372.315000
20
825.026924
30
0.000000
42
7.595754
0
VERTEX
8
THROUGH
10
371.216924
20
826.125000
30
0.000000
0
VERTEX
8
THROUGH
10
355.463076
20
826.125000
30
0.000000
42
7.595754
0
VERTEX
8
THROUGH
10
354.365000
20
825.026924
30
0.000000
0
VERTEX
8
THROUGH
10
354.365000
20
787.073076
30
0.000000
42
7.595754
0
VERTEX
8
THROUGH
10
355.463076
20
785.975000
30
0.000000
0
SEQEND
8
THROUGH
0
POLYLINE
8
THROUGH
66
1.000000
70
1.000000
10
0.000000
20
0.000000
30
0.000000
0
VERTEX
8
THROUGH
10
371.216924
20
891.341667
30
0.000000
42
7.595754
0
VERTEX
8
THROUGH
10
372.315000
20
892.439743
30
0.000000
0
VERTEX
8
THROUGH
10
372.315000
20
930.393590
30
0.000000
42
7.595754
0
VERTEX
8
THROUGH
10
371.216924
20
931.491667
30
0.000000
0
VERTEX
8
THROUGH
10
355.463076
20
931.491667
30
0.000000
42
7.595754
0
VERTEX
8
THROUGH
10
354.365000
20
930.393590
30
0.000000
0
VERTEX
8
THROUGH
10
354.365000
20
892.439743
30
0.000000
42
7.595754
0
VERTEX
8
THROUGH
10
355.463076
20
891.341667
30
0.000000
0
SEQEND
8
THROUGH
0
CIRCLE
8
DRILL_4.5_THRU
10
861.200000
20
551.100000
30
0.000000
40
2.250000
0
CIRCLE
8
DRILL_4.5_THRU
10
811.200000
20
551.100000
30
0.000000
40
2.250000
0
CIRCLE
8
DRILL_5_D12
10
724.500000
20
573.000000
30
0.000000
40
2.500000
0
CIRCLE
8
DRILL_5_D12
10
692.500000
20
573.000000
30
0.000000
40
2.500000
0
CIRCLE
8
DRILL_5_D12
10
97.700000
20
573.000000
30
0.000000
40
2.500000
0
CIRCLE
8
DRILL_5_D12
10
65.700000
20
573.000000
30
0.000000
40
2.500000
0
CIRCLE
8
DRILL_5_D12
10
964.200000
20
655.000000
30
0.000000
40
2.500000
0
CIRCLE
8
DRILL_5_D12
10
964.200000
20
957.100000
30
0.000000
40
2.500000
0
CIRCLE
8
DRILL_5_D12
10
932.200000
20
655.000000
30
0.000000
40
2.500000
0
CIRCLE
8
DRILL_5_D12
10
932.200000
20
957.100000
30
0.000000
40
2.500000
0
CIRCLE
8
DRILL_5_D12
10
900.200000
20
655.000000
30
0.000000
40
2.500000
0
CIRCLE
8
DRILL_5_D12
10
900.200000
20
957.100000
30
0.000000
40
2.500000
0
CIRCLE
8
DRILL_5_D12
10
868.200000
20
655.000000
30
0.000000
40
2.500000
0
CIRCLE
8
DRILL_5_D12
10
868.200000
20
957.100000
30
0.000000
40
2.500000
0
CIRCLE
8
DRILL_5_D12
10
836.200000
20
655.000000
30
0.000000
40
2.500000
0
CIRCLE
8
DRILL_5_D12
10
836.200000
20
957.100000
30
0.000000
40
2.500000
0
CIRCLE
8
DRILL_5_D12
10
804.200000
20
655.000000
30
0.000000
40
2.500000
0
CIRCLE
8
DRILL_5_D12
10
804.200000
20
957.100000
30
0.000000
40
2.500000
0
CIRCLE
8
DRILL_5_D12
10
772.200000
20
655.000000
30
0.000000
40
2.500000
0
CIRCLE
8
DRILL_5_D12
10
772.200000
20
957.100000
30
0.000000
40
2.500000
0
CIRCLE
8
DRILL_5_D12
10
740.200000
20
655.000000
30
0.000000
40
2.500000
0
CIRCLE
8
DRILL_5_D12
10
740.200000
20
957.100000
30
0.000000
40
2.500000
0
CIRCLE
8
DRILL_5_D12
10
708.200000
20
655.000000
30
0.000000
40
2.500000
0
CIRCLE
8
DRILL_5_D12
10
708.200000
20
957.100000
30
0.000000
40
2.500000
0
CIRCLE
8
DRILL_5_D12
10
676.200000
20
655.000000
30
0.000000
40
2.500000
0
CIRCLE
8
DRILL_5_D12
10
676.200000
20
957.100000
30
0.000000
40
2.500000
0
CIRCLE
8
DRILL_5_D12
10
644.200000
20
655.000000
30
0.000000
40
2.500000
0
CIRCLE
8
DRILL_5_D12
10
644.200000
20
957.100000
30
0.000000
40
2.500000
0
CIRCLE
8
DRILL_5_D12
10
612.200000
20
655.000000
30
0.000000
40
2.500000
0
CIRCLE
8
DRILL_5_D12
10
612.200000
20
957.100000
30
0.000000
40
2.500000
0
CIRCLE
8
DRILL_5_D12
10
580.200000
20
655.000000
30
0.000000
40
2.500000
0
CIRCLE
8
DRILL_5_D12
10
580.200000
20
957.100000
30
0.000000
40
2.500000
0
CIRCLE
8
DRILL_5_D12
10
548.200000
20
655.000000
30
0.000000
40
2.500000
0
CIRCLE
8
DRILL_5_D12
10
548.200000
20
957.100000
30
0.000000
40
2.500000
0
CIRCLE
8
DRILL_5_D12
10
516.200000
20
655.000000
30
0.000000
40
2.500000
0
CIRCLE
8
DRILL_5_D12
10
516.200000
20
957.100000
30
0.000000
40
2.500000
0
CIRCLE
8
DRILL_5_D12
10
484.200000
20
655.000000
30
0.000000
40
2.500000
0
CIRCLE
8
DRILL_5_D12
10
484.200000
20
957.100000
30
0.000000
40
2.500000
0
CIRCLE
8
DRILL_5_D12
10
452.200000
20
655.000000
30
0.000000
40
2.500000
0
CIRCLE
8
DRILL_5_D12
10
452.200000
20
957.100000
30
0.000000
40
2.500000
0
CIRCLE
8
DRILL_5_D12
10
420.200000
20
655.000000
30
0.000000
40
2.500000
0
CIRCLE
8
DRILL_5_D12
10
420.200000
20
957.100000
30
0.000000
40
2.500000
0
CIRCLE
8
DRILL_5_D12
10
388.200000
20
655.000000
30
0.000000
40
2.500000
0
CIRCLE
8
DRILL_5_D12
10
388.200000
20
957.100000
30
0.000000
40
2.500000
0
CIRCLE
8
DRILL_5_D12
10
356.200000
20
655.000000
30
0.000000
40
2.500000
0
CIRCLE
8
DRILL_5_D12
10
356.200000
20
957.100000
30
0.000000
40
2.500000
0
CIRCLE
8
DRILL_5_D12
10
324.200000
20
655.000000
30
0.000000
40
2.500000
0
CIRCLE
8
DRILL_5_D12
10
324.200000
20
957.100000
30
0.000000
40
2.500000
0
CIRCLE
8
DRILL_5_D12
10
292.200000
20
655.000000
30
0.000000
40
2.500000
0
CIRCLE
8
DRILL_5_D12
10
292.200000
20
957.100000
30
0.000000
40
2.500000
0
CIRCLE
8
DRILL_5_D12
10
260.200000
20
655.000000
30
0.000000
40
2.500000
0
CIRCLE
8
DRILL_5_D12
10
260.200000
20
957.100000
30
0.000000
40
2.500000
0
CIRCLE
8
TILE_REG
10
0.000000
20
6.000000
30
0.000000
40
3.000000
0
CIRCLE
8
TILE_REG
10
0.000000
20
1214.000000
30
0.000000
40
3.000000
0
CIRCLE
8
TILE_REG
10
980.000000
20
6.000000
30
0.000000
40
3.000000
0
CIRCLE
8
TILE_REG
10
980.000000
20
1214.000000
30
0.000000
40
3.000000
0
TEXT
8
LABEL
10
874.200000
20
22.000000
30
0.000000
40
8.000000
1
C1-B-SIDE-R
0
TEXT
8
LABEL
10
118.000000
20
630.000000
30
0.000000
40
8.000000
1
C1-T-SIDE-R
0
ENDSEC
0
EOF
