0
SECTION
2
HEADER
9
$ACADVER
1
AC1009
9
$INSUNITS
70
4.000000
9
$MEASUREMENT
70
1.000000
0
ENDSEC
0
SECTION
2
TABLES
0
TABLE
2
LAYER
70
7.000000
0
LAYER
2
DRILL_4.5_THRU
70
0.000000
62
5.000000
6
CONTINUOUS
0
LAYER
2
LABEL
70
0.000000
62
8.000000
6
CONTINUOUS
0
LAYER
2
OUTLINE
70
0.000000
62
7.000000
6
CONTINUOUS
0
LAYER
2
POCKET_D4
70
0.000000
62
3.000000
6
CONTINUOUS
0
LAYER
2
POCKET_D6
70
0.000000
62
3.000000
6
CONTINUOUS
0
LAYER
2
THROUGH
70
0.000000
62
1.000000
6
CONTINUOUS
0
LAYER
2
TILE_REG
70
0.000000
62
6.000000
6
CONTINUOUS
0
ENDTAB
0
ENDSEC
0
SECTION
2
ENTITIES
0
POLYLINE
8
OUTLINE
66
1.000000
70
1.000000
10
0.000000
20
0.000000
30
0.000000
0
VERTEX
8
OUTLINE
10
0.000000
20
10.000000
30
0.000000
0
VERTEX
8
OUTLINE
10
900.000000
20
10.000000
30
0.000000
0
VERTEX
8
OUTLINE
10
900.000000
20
610.000000
30
0.000000
0
VERTEX
8
OUTLINE
10
0.000000
20
610.000000
30
0.000000
0
SEQEND
8
OUTLINE
0
POLYLINE
8
POCKET_D4
66
1.000000
70
1.000000
10
0.000000
20
0.000000
30
0.000000
0
VERTEX
8
POCKET_D4
10
882.125000
20
20.000000
30
0.000000
0
VERTEX
8
POCKET_D4
10
900.075000
20
20.000000
30
0.000000
0
VERTEX
8
POCKET_D4
10
900.075000
20
610.000000
30
0.000000
0
VERTEX
8
POCKET_D4
10
882.125000
20
610.000000
30
0.000000
0
SEQEND
8
POCKET_D4
0
POLYLINE
8
POCKET_D4
66
1.000000
70
1.000000
10
0.000000
20
0.000000
30
0.000000
0
VERTEX
8
POCKET_D4
10
0.000000
20
20.000000
30
0.000000
0
VERTEX
8
POCKET_D4
10
17.875000
20
20.000000
30
0.000000
0
VERTEX
8
POCKET_D4
10
17.875000
20
610.000000
30
0.000000
0
VERTEX
8
POCKET_D4
10
0.000000
20
610.000000
30
0.000000
0
SEQEND
8
POCKET_D4
0
POLYLINE
8
THROUGH
66
1.000000
70
1.000000
10
0.000000
20
0.000000
30
0.000000
0
VERTEX
8
THROUGH
10
441.025000
20
85.535576
30
0.000000
42
7.595754
0
VERTEX
8
THROUGH
10
442.123076
20
84.437500
30
0.000000
0
VERTEX
8
THROUGH
10
457.876924
20
84.437500
30
0.000000
42
7.595754
0
VERTEX
8
THROUGH
10
458.975000
20
85.535576
30
0.000000
0
VERTEX
8
THROUGH
10
458.975000
20
123.489424
30
0.000000
42
7.595754
0
VERTEX
8
THROUGH
10
457.876924
20
124.587500
30
0.000000
0
VERTEX
8
THROUGH
10
442.123076
20
124.587500
30
0.000000
42
7.595754
0
VERTEX
8
THROUGH
10
441.025000
20
123.489424
30
0.000000
0
SEQEND
8
THROUGH
0
POLYLINE
8
THROUGH
66
1.000000
70
1.000000
10
0.000000
20
0.000000
30
0.000000
0
VERTEX
8
THROUGH
10
441.025000
20
214.560576
30
0.000000
42
7.595754
0
VERTEX
8
THROUGH
10
442.123076
20
213.462500
30
0.000000
0
VERTEX
8
THROUGH
10
457.876924
20
213.462500
30
0.000000
42
7.595754
0
VERTEX
8
THROUGH
10
458.975000
20
214.560576
30
0.000000
0
VERTEX
8
THROUGH
10
458.975000
20
252.514424
30
0.000000
42
7.595754
0
VERTEX
8
THROUGH
10
457.876924
20
253.612500
30
0.000000
0
VERTEX
8
THROUGH
10
442.123076
20
253.612500
30
0.000000
42
7.595754
0
VERTEX
8
THROUGH
10
441.025000
20
252.514424
30
0.000000
0
SEQEND
8
THROUGH
0
POLYLINE
8
THROUGH
66
1.000000
70
1.000000
10
0.000000
20
0.000000
30
0.000000
0
VERTEX
8
THROUGH
10
441.025000
20
343.585576
30
0.000000
42
7.595754
0
VERTEX
8
THROUGH
10
442.123076
20
342.487500
30
0.000000
0
VERTEX
8
THROUGH
10
457.876924
20
342.487500
30
0.000000
42
7.595754
0
VERTEX
8
THROUGH
10
458.975000
20
343.585576
30
0.000000
0
VERTEX
8
THROUGH
10
458.975000
20
381.539424
30
0.000000
42
7.595754
0
VERTEX
8
THROUGH
10
457.876924
20
382.637500
30
0.000000
0
VERTEX
8
THROUGH
10
442.123076
20
382.637500
30
0.000000
42
7.595754
0
VERTEX
8
THROUGH
10
441.025000
20
381.539424
30
0.000000
0
SEQEND
8
THROUGH
0
POLYLINE
8
THROUGH
66
1.000000
70
1.000000
10
0.000000
20
0.000000
30
0.000000
0
VERTEX
8
THROUGH
10
441.025000
20
472.610576
30
0.000000
42
7.595754
0
VERTEX
8
THROUGH
10
442.123076
20
471.512500
30
0.000000
0
VERTEX
8
THROUGH
10
457.876924
20
471.512500
30
0.000000
42
7.595754
0
VERTEX
8
THROUGH
10
458.975000
20
472.610576
30
0.000000
0
VERTEX
8
THROUGH
10
458.975000
20
510.564424
30
0.000000
42
7.595754
0
VERTEX
8
THROUGH
10
457.876924
20
511.662500
30
0.000000
0
VERTEX
8
THROUGH
10
442.123076
20
511.662500
30
0.000000
42
7.595754
0
VERTEX
8
THROUGH
10
441.025000
20
510.564424
30
0.000000
0
SEQEND
8
THROUGH
0
POLYLINE
8
POCKET_D6
66
1.000000
70
1.000000
10
0.000000
20
0.000000
30
0.000000
0
VERTEX
8
POCKET_D6
10
11.800000
20
586.025000
30
0.000000
0
VERTEX
8
POCKET_D6
10
888.200000
20
586.025000
30
0.000000
0
VERTEX
8
POCKET_D6
10
888.200000
20
598.075000
30
0.000000
0
VERTEX
8
POCKET_D6
10
11.800000
20
598.075000
30
0.000000
0
SEQEND
8
POCKET_D6
0
POLYLINE
8
OUTLINE
66
1.000000
70
1.000000
10
0.000000
20
0.000000
30
0.000000
0
VERTEX
8
OUTLINE
10
0.000000
20
618.000000
30
0.000000
0
VERTEX
8
OUTLINE
10
938.000000
20
618.000000
30
0.000000
0
VERTEX
8
OUTLINE
10
938.000000
20
1018.000000
30
0.000000
0
VERTEX
8
OUTLINE
10
0.000000
20
1018.000000
30
0.000000
0
SEQEND
8
OUTLINE
0
POLYLINE
8
THROUGH
66
1.000000
70
1.000000
10
0.000000
20
0.000000
30
0.000000
0
VERTEX
8
THROUGH
10
936.976924
20
684.591667
30
0.000000
42
7.595754
0
VERTEX
8
THROUGH
10
938.075000
20
685.689743
30
0.000000
0
VERTEX
8
THROUGH
10
938.075000
20
723.643590
30
0.000000
42
7.595754
0
VERTEX
8
THROUGH
10
936.976924
20
724.741667
30
0.000000
0
VERTEX
8
THROUGH
10
921.223076
20
724.741667
30
0.000000
42
7.595754
0
VERTEX
8
THROUGH
10
920.125000
20
723.643590
30
0.000000
0
VERTEX
8
THROUGH
10
920.125000
20
685.689743
30
0.000000
42
7.595754
0
VERTEX
8
THROUGH
10
921.223076
20
684.591667
30
0.000000
0
SEQEND
8
THROUGH
0
POLYLINE
8
THROUGH
66
1.000000
70
1.000000
10
0.000000
20
0.000000
30
0.000000
0
VERTEX
8
THROUGH
10
936.976924
20
797.925000
30
0.000000
42
7.595754
0
VERTEX
8
THROUGH
10
938.075000
20
799.023076
30
0.000000
0
VERTEX
8
THROUGH
10
938.075000
20
836.976924
30
0.000000
42
7.595754
0
VERTEX
8
THROUGH
10
936.976924
20
838.075000
30
0.000000
0
VERTEX
8
THROUGH
10
921.223076
20
838.075000
30
0.000000
42
7.595754
0
VERTEX
8
THROUGH
10
920.125000
20
836.976924
30
0.000000
0
VERTEX
8
THROUGH
10
920.125000
20
799.023076
30
0.000000
42
7.595754
0
VERTEX
8
THROUGH
10
921.223076
20
797.925000
30
0.000000
0
SEQEND
8
THROUGH
0
POLYLINE
8
THROUGH
66
1.000000
70
1.000000
10
0.000000
20
0.000000
30
0.000000
0
VERTEX
8
THROUGH
10
936.976924
20
911.258333
30
0.000000
42
7.595754
0
VERTEX
8
THROUGH
10
938.075000
20
912.356410
30
0.000000
0
VERTEX
8
THROUGH
10
938.075000
20
950.310257
30
0.000000
42
7.595754
0
VERTEX
8
THROUGH
10
936.976924
20
951.408333
30
0.000000
0
VERTEX
8
THROUGH
10
921.223076
20
951.408333
30
0.000000
42
7.595754
0
VERTEX
8
THROUGH
10
920.125000
20
950.310257
30
0.000000
0
VERTEX
8
THROUGH
10
920.125000
20
912.356410
30
0.000000
42
7.595754
0
VERTEX
8
THROUGH
10
921.223076
20
911.258333
30
0.000000
0
SEQEND
8
THROUGH
0
POLYLINE
8
THROUGH
66
1.000000
70
1.000000
10
0.000000
20
0.000000
30
0.000000
0
VERTEX
8
THROUGH
10
720.536924
20
680.608333
30
0.000000
42
7.595754
0
VERTEX
8
THROUGH
10
721.635000
20
681.706410
30
0.000000
0
VERTEX
8
THROUGH
10
721.635000
20
719.660257
30
0.000000
42
7.595754
0
VERTEX
8
THROUGH
10
720.536924
20
720.758333
30
0.000000
0
VERTEX
8
THROUGH
10
704.783076
20
720.758333
30
0.000000
42
7.595754
0
VERTEX
8
THROUGH
10
703.685000
20
719.660257
30
0.000000
0
VERTEX
8
THROUGH
10
703.685000
20
681.706410
30
0.000000
42
7.595754
0
VERTEX
8
THROUGH
10
704.783076
20
680.608333
30
0.000000
0
SEQEND
8
THROUGH
0
POLYLINE
8
THROUGH
66
1.000000
70
1.000000
10
0.000000
20
0.000000
30
0.000000
0
VERTEX
8
THROUGH
10
720.536924
20
785.975000
30
0.000000
42
7.595754
0
VERTEX
8
THROUGH
10
721.635000
20
787.073076
30
0.000000
0
VERTEX
8
THROUGH
10
721.635000
20
825.026924
30
0.000000
42
7.595754
0
VERTEX
8
THROUGH
10
720.536924
20
826.125000
30
0.000000
0
VERTEX
8
THROUGH
10
704.783076
20
826.125000
30
0.000000
42
7.595754
0
VERTEX
8
THROUGH
10
703.685000
20
825.026924
30
0.000000
0
VERTEX
8
THROUGH
10
703.685000
20
787.073076
30
0.000000
42
7.595754
0
VERTEX
8
THROUGH
10
704.783076
20
785.975000
30
0.000000
0
SEQEND
8
THROUGH
0
POLYLINE
8
THROUGH
66
1.000000
70
1.000000
10
0.000000
20
0.000000
30
0.000000
0
VERTEX
8
THROUGH
10
720.536924
20
891.341667
30
0.000000
42
7.595754
0
VERTEX
8
THROUGH
10
721.635000
20
892.439743
30
0.000000
0
VERTEX
8
THROUGH
10
721.635000
20
930.393590
30
0.000000
42
7.595754
0
VERTEX
8
THROUGH
10
720.536924
20
931.491667
30
0.000000
0
VERTEX
8
THROUGH
10
704.783076
20
931.491667
30
0.000000
42
7.595754
0
VERTEX
8
THROUGH
10
703.685000
20
930.393590
30
0.000000
0
VERTEX
8
THROUGH
10
703.685000
20
892.439743
30
0.000000
42
7.595754
0
VERTEX
8
THROUGH
10
704.783076
20
891.341667
30
0.000000
0
SEQEND
8
THROUGH
0
POLYLINE
8
THROUGH
66
1.000000
70
1.000000
10
0.000000
20
0.000000
30
0.000000
0
VERTEX
8
THROUGH
10
504.096924
20
680.608333
30
0.000000
42
7.595754
0
VERTEX
8
THROUGH
10
505.195000
20
681.706410
30
0.000000
0
VERTEX
8
THROUGH
10
505.195000
20
719.660257
30
0.000000
42
7.595754
0
VERTEX
8
THROUGH
10
504.096924
20
720.758333
30
0.000000
0
VERTEX
8
THROUGH
10
488.343076
20
720.758333
30
0.000000
42
7.595754
0
VERTEX
8
THROUGH
10
487.245000
20
719.660257
30
0.000000
0
VERTEX
8
THROUGH
10
487.245000
20
681.706410
30
0.000000
42
7.595754
0
VERTEX
8
THROUGH
10
488.343076
20
680.608333
30
0.000000
0
SEQEND
8
THROUGH
0
POLYLINE
8
THROUGH
66
1.000000
70
1.000000
10
0.000000
20
0.000000
30
0.000000
0
VERTEX
8
THROUGH
10
504.096924
20
785.975000
30
0.000000
42
7.595754
0
VERTEX
8
THROUGH
10
505.195000
20
787.073076
30
0.000000
0
VERTEX
8
THROUGH
10
505.195000
20
825.026924
30
0.000000
42
7.595754
0
VERTEX
8
THROUGH
10
504.096924
20
826.125000
30
0.000000
0
VERTEX
8
THROUGH
10
488.343076
20
826.125000
30
0.000000
42
7.595754
0
VERTEX
8
THROUGH
10
487.245000
20
825.026924
30
0.000000
0
VERTEX
8
THROUGH
10
487.245000
20
787.073076
30
0.000000
42
7.595754
0
VERTEX
8
THROUGH
10
488.343076
20
785.975000
30
0.000000
0
SEQEND
8
THROUGH
0
POLYLINE
8
THROUGH
66
1.000000
70
1.000000
10
0.000000
20
0.000000
30
0.000000
0
VERTEX
8
THROUGH
10
504.096924
20
891.341667
30
0.000000
42
7.595754
0
VERTEX
8
THROUGH
10
505.195000
20
892.439743
30
0.000000
0
VERTEX
8
THROUGH
10
505.195000
20
930.393590
30
0.000000
42
7.595754
0
VERTEX
8
THROUGH
10
504.096924
20
931.491667
30
0.000000
0
VERTEX
8
THROUGH
10
488.343076
20
931.491667
30
0.000000
42
7.595754
0
VERTEX
8
THROUGH
10
487.245000
20
930.393590
30
0.000000
0
VERTEX
8
THROUGH
10
487.245000
20
892.439743
30
0.000000
42
7.595754
0
VERTEX
8
THROUGH
10
488.343076
20
891.341667
30
0.000000
0
SEQEND
8
THROUGH
0
POLYLINE
8
THROUGH
66
1.000000
70
1.000000
10
0.000000
20
0.000000
30
0.000000
0
VERTEX
8
THROUGH
10
287.656924
20
680.608333
30
0.000000
42
7.595754
0
VERTEX
8
THROUGH
10
288.755000
20
681.706410
30
0.000000
0
VERTEX
8
THROUGH
10
288.755000
20
719.660257
30
0.000000
42
7.595754
0
VERTEX
8
THROUGH
10
287.656924
20
720.758333
30
0.000000
0
VERTEX
8
THROUGH
10
271.903076
20
720.758333
30
0.000000
42
7.595754
0
VERTEX
8
THROUGH
10
270.805000
20
719.660257
30
0.000000
0
VERTEX
8
THROUGH
10
270.805000
20
681.706410
30
0.000000
42
7.595754
0
VERTEX
8
THROUGH
10
271.903076
20
680.608333
30
0.000000
0
SEQEND
8
THROUGH
0
POLYLINE
8
THROUGH
66
1.000000
70
1.000000
10
0.000000
20
0.000000
30
0.000000
0
VERTEX
8
THROUGH
10
287.656924
20
785.975000
30
0.000000
42
7.595754
0
VERTEX
8
THROUGH
10
288.755000
20
787.073076
30
0.000000
0
VERTEX
8
THROUGH
10
288.755000
20
825.026924
30
0.000000
42
7.595754
0
VERTEX
8
THROUGH
10
287.656924
20
826.125000
30
0.000000
0
VERTEX
8
THROUGH
10
271.903076
20
826.125000
30
0.000000
42
7.595754
0
VERTEX
8
THROUGH
10
270.805000
20
825.026924
30
0.000000
0
VERTEX
8
THROUGH
10
270.805000
20
787.073076
30
0.000000
42
7.595754
0
VERTEX
8
THROUGH
10
271.903076
20
785.975000
30
0.000000
0
SEQEND
8
THROUGH
0
POLYLINE
8
THROUGH
66
1.000000
70
1.000000
10
0.000000
20
0.000000
30
0.000000
0
VERTEX
8
THROUGH
10
287.656924
20
891.341667
30
0.000000
42
7.595754
0
VERTEX
8
THROUGH
10
288.755000
20
892.439743
30
0.000000
0
VERTEX
8
THROUGH
10
288.755000
20
930.393590
30
0.000000
42
7.595754
0
VERTEX
8
THROUGH
10
287.656924
20
931.491667
30
0.000000
0
VERTEX
8
THROUGH
10
271.903076
20
931.491667
30
0.000000
42
7.595754
0
VERTEX
8
THROUGH
10
270.805000
20
930.393590
30
0.000000
0
VERTEX
8
THROUGH
10
270.805000
20
892.439743
30
0.000000
42
7.595754
0
VERTEX
8
THROUGH
10
271.903076
20
891.341667
30
0.000000
0
SEQEND
8
THROUGH
0
POLYLINE
8
THROUGH
66
1.000000
70
1.000000
10
0.000000
20
0.000000
30
0.000000
0
VERTEX
8
THROUGH
10
71.216924
20
680.608333
30
0.000000
42
7.595754
0
VERTEX
8
THROUGH
10
72.315000
20
681.706410
30
0.000000
0
VERTEX
8
THROUGH
10
72.315000
20
719.660257
30
0.000000
42
7.595754
0
VERTEX
8
THROUGH
10
71.216924
20
720.758333
30
0.000000
0
VERTEX
8
THROUGH
10
55.463076
20
720.758333
30
0.000000
42
7.595754
0
VERTEX
8
THROUGH
10
54.365000
20
719.660257
30
0.000000
0
VERTEX
8
THROUGH
10
54.365000
20
681.706410
30
0.000000
42
7.595754
0
VERTEX
8
THROUGH
10
55.463076
20
680.608333
30
0.000000
0
SEQEND
8
THROUGH
0
POLYLINE
8
THROUGH
66
1.000000
70
1.000000
10
0.000000
20
0.000000
30
0.000000
0
VERTEX
8
THROUGH
10
71.216924
20
785.975000
30
0.000000
42
7.595754
0
VERTEX
8
THROUGH
10
72.315000
20
787.073076
30
0.000000
0
VERTEX
8
THROUGH
10
72.315000
20
825.026924
30
0.000000
42
7.595754
0
VERTEX
8
THROUGH
10
71.216924
20
826.125000
30
0.000000
0
VERTEX
8
THROUGH
10
55.463076
20
826.125000
30
0.000000
42
7.595754
0
VERTEX
8
THROUGH
10
54.365000
20
825.026924
30
0.000000
0
VERTEX
8
THROUGH
10
54.365000
20
787.073076
30
0.000000
42
7.595754
0
VERTEX
8
THROUGH
10
55.463076
20
785.975000
30
0.000000
0
SEQEND
8
THROUGH
0
POLYLINE
8
THROUGH
66
1.000000
70
1.000000
10
0.000000
20
0.000000
30
0.000000
0
VERTEX
8
THROUGH
10
71.216924
20
891.341667
30
0.000000
42
7.595754
0
VERTEX
8
THROUGH
10
72.315000
20
892.439743
30
0.000000
0
VERTEX
8
THROUGH
10
72.315000
20
930.393590
30
0.000000
42
7.595754
0
VERTEX
8
THROUGH
10
71.216924
20
931.491667
30
0.000000
0
VERTEX
8
THROUGH
10
55.463076
20
931.491667
30
0.000000
42
7.595754
0
VERTEX
8
THROUGH
10
54.365000
20
930.393590
30
0.000000
0
VERTEX
8
THROUGH
10
54.365000
20
892.439743
30
0.000000
42
7.595754
0
VERTEX
8
THROUGH
10
55.463076
20
891.341667
30
0.000000
0
SEQEND
8
THROUGH
0
POLYLINE
8
POCKET_D6
66
1.000000
70
1.000000
10
0.000000
20
0.000000
30
0.000000
0
VERTEX
8
POCKET_D6
10
0.000000
20
994.025000
30
0.000000
0
VERTEX
8
POCKET_D6
10
920.200000
20
994.025000
30
0.000000
0
VERTEX
8
POCKET_D6
10
920.200000
20
1006.075000
30
0.000000
0
VERTEX
8
POCKET_D6
10
0.000000
20
1006.075000
30
0.000000
0
SEQEND
8
POCKET_D6
0
POLYLINE
8
OUTLINE
66
1.000000
70
1.000000
10
0.000000
20
0.000000
30
0.000000
0
VERTEX
8
OUTLINE
10
0.000000
20
1026.000000
30
0.000000
0
VERTEX
8
OUTLINE
10
876.400000
20
1026.000000
30
0.000000
0
VERTEX
8
OUTLINE
10
876.400000
20
1126.000000
30
0.000000
0
VERTEX
8
OUTLINE
10
0.000000
20
1126.000000
30
0.000000
0
SEQEND
8
OUTLINE
0
CIRCLE
8
DRILL_4.5_THRU
10
891.100000
20
60.000000
30
0.000000
40
2.250000
0
CIRCLE
8
DRILL_4.5_THRU
10
891.100000
20
187.500000
30
0.000000
40
2.250000
0
CIRCLE
8
DRILL_4.5_THRU
10
891.100000
20
315.000000
30
0.000000
40
2.250000
0
CIRCLE
8
DRILL_4.5_THRU
10
891.100000
20
442.500000
30
0.000000
40
2.250000
0
CIRCLE
8
DRILL_4.5_THRU
10
891.100000
20
570.000000
30
0.000000
40
2.250000
0
CIRCLE
8
DRILL_4.5_THRU
10
8.900000
20
60.000000
30
0.000000
40
2.250000
0
CIRCLE
8
DRILL_4.5_THRU
10
8.900000
20
187.500000
30
0.000000
40
2.250000
0
CIRCLE
8
DRILL_4.5_THRU
10
8.900000
20
315.000000
30
0.000000
40
2.250000
0
CIRCLE
8
DRILL_4.5_THRU
10
8.900000
20
442.500000
30
0.000000
40
2.250000
0
CIRCLE
8
DRILL_4.5_THRU
10
8.900000
20
570.000000
30
0.000000
40
2.250000
0
CIRCLE
8
TILE_REG
10
0.000000
20
6.000000
30
0.000000
40
3.000000
0
CIRCLE
8
TILE_REG
10
0.000000
20
1214.000000
30
0.000000
40
3.000000
0
CIRCLE
8
TILE_REG
10
980.000000
20
6.000000
30
0.000000
40
3.000000
0
CIRCLE
8
TILE_REG
10
980.000000
20
1214.000000
30
0.000000
40
3.000000
0
TEXT
8
LABEL
10
12.000000
20
22.000000
30
0.000000
40
8.000000
1
C1-B-TOP
0
TEXT
8
LABEL
10
926.000000
20
630.000000
30
0.000000
40
8.000000
1
C1-T-SIDE-L
0
TEXT
8
LABEL
10
12.000000
20
1038.000000
30
0.000000
40
8.000000
1
C1-B-TOERAIL
0
ENDSEC
0
EOF
