0
SECTION
2
HEADER
9
$ACADVER
1
AC1009
9
$INSUNITS
70
4.000000
9
$MEASUREMENT
70
1.000000
0
ENDSEC
0
SECTION
2
TABLES
0
TABLE
2
LAYER
70
3.000000
0
LAYER
2
LABEL
70
0.000000
62
8.000000
6
CONTINUOUS
0
LAYER
2
OUTLINE
70
0.000000
62
7.000000
6
CONTINUOUS
0
LAYER
2
TILE_REG
70
0.000000
62
6.000000
6
CONTINUOUS
0
ENDTAB
0
ENDSEC
0
SECTION
2
ENTITIES
0
POLYLINE
8
OUTLINE
66
1.000000
70
1.000000
10
0.000000
20
0.000000
30
0.000000
0
VERTEX
8
OUTLINE
10
17.800000
20
10.000000
30
0.000000
0
VERTEX
8
OUTLINE
10
441.100000
20
10.000000
30
0.000000
0
VERTEX
8
OUTLINE
10
441.100000
20
71.585257
30
0.000000
42
-7.595754
0
VERTEX
8
OUTLINE
10
442.198076
20
72.683333
30
0.000000
0
VERTEX
8
OUTLINE
10
458.900000
20
72.683333
30
0.000000
0
VERTEX
8
OUTLINE
10
458.900000
20
112.683333
30
0.000000
0
VERTEX
8
OUTLINE
10
442.198076
20
112.683333
30
0.000000
42
-7.595754
0
VERTEX
8
OUTLINE
10
441.100000
20
113.781410
30
0.000000
0
VERTEX
8
OUTLINE
10
441.100000
20
176.951924
30
0.000000
42
-7.595754
0
VERTEX
8
OUTLINE
10
442.198076
20
178.050000
30
0.000000
0
VERTEX
8
OUTLINE
10
458.900000
20
178.050000
30
0.000000
0
VERTEX
8
OUTLINE
10
458.900000
20
218.050000
30
0.000000
0
VERTEX
8
OUTLINE
10
442.198076
20
218.050000
30
0.000000
42
-7.595754
0
VERTEX
8
OUTLINE
10
441.100000
20
219.148076
30
0.000000
0
VERTEX
8
OUTLINE
10
441.100000
20
282.318590
30
0.000000
42
-7.595754
0
VERTEX
8
OUTLINE
10
442.198076
20
283.416667
30
0.000000
0
VERTEX
8
OUTLINE
10
458.900000
20
283.416667
30
0.000000
0
VERTEX
8
OUTLINE
10
458.900000
20
323.416667
30
0.000000
0
VERTEX
8
OUTLINE
10
442.198076
20
323.416667
30
0.000000
42
-7.595754
0
VERTEX
8
OUTLINE
10
441.100000
20
324.514743
30
0.000000
0
VERTEX
8
OUTLINE
10
441.100000
20
386.100000
30
0.000000
0
VERTEX
8
OUTLINE
10
17.800000
20
386.100000
30
0.000000
0
VERTEX
8
OUTLINE
10
17.800000
20
324.514743
30
0.000000
42
-7.595754
0
VERTEX
8
OUTLINE
10
16.701924
20
323.416667
30
0.000000
0
VERTEX
8
OUTLINE
10
0.000000
20
323.416667
30
0.000000
0
VERTEX
8
OUTLINE
10
0.000000
20
283.416667
30
0.000000
0
VERTEX
8
OUTLINE
10
16.701924
20
283.416667
30
0.000000
42
-7.595754
0
VERTEX
8
OUTLINE
10
17.800000
20
282.318590
30
0.000000
0
VERTEX
8
OUTLINE
10
17.800000
20
219.148076
30
0.000000
42
-7.595754
0
VERTEX
8
OUTLINE
10
16.701924
20
218.050000
30
0.000000
0
VERTEX
8
OUTLINE
10
0.000000
20
218.050000
30
0.000000
0
VERTEX
8
OUTLINE
10
0.000000
20
178.050000
30
0.000000
0
VERTEX
8
OUTLINE
10
16.701924
20
178.050000
30
0.000000
42
-7.595754
0
VERTEX
8
OUTLINE
10
17.800000
20
176.951924
30
0.000000
0
VERTEX
8
OUTLINE
10
17.800000
20
113.781410
30
0.000000
42
-7.595754
0
VERTEX
8
OUTLINE
10
16.701924
20
112.683333
30
0.000000
0
VERTEX
8
OUTLINE
10
0.000000
20
112.683333
30
0.000000
0
VERTEX
8
OUTLINE
10
0.000000
20
72.683333
30
0.000000
0
VERTEX
8
OUTLINE
10
16.701924
20
72.683333
30
0.000000
42
-7.595754
0
VERTEX
8
OUTLINE
10
17.800000
20
71.585257
30
0.000000
0
SEQEND
8
OUTLINE
0
POLYLINE
8
OUTLINE
66
1.000000
70
1.000000
10
0.000000
20
0.000000
30
0.000000
0
VERTEX
8
OUTLINE
10
17.800000
20
394.100000
30
0.000000
0
VERTEX
8
OUTLINE
10
441.100000
20
394.100000
30
0.000000
0
VERTEX
8
OUTLINE
10
441.100000
20
455.685257
30
0.000000
42
-7.595754
0
VERTEX
8
OUTLINE
10
442.198076
20
456.783333
30
0.000000
0
VERTEX
8
OUTLINE
10
458.900000
20
456.783333
30
0.000000
0
VERTEX
8
OUTLINE
10
458.900000
20
496.783333
30
0.000000
0
VERTEX
8
OUTLINE
10
442.198076
20
496.783333
30
0.000000
42
-7.595754
0
VERTEX
8
OUTLINE
10
441.100000
20
497.881410
30
0.000000
0
VERTEX
8
OUTLINE
10
441.100000
20
561.051924
30
0.000000
42
-7.595754
0
VERTEX
8
OUTLINE
10
442.198076
20
562.150000
30
0.000000
0
VERTEX
8
OUTLINE
10
458.900000
20
562.150000
30
0.000000
0
VERTEX
8
OUTLINE
10
458.900000
20
602.150000
30
0.000000
0
VERTEX
8
OUTLINE
10
442.198076
20
602.150000
30
0.000000
42
-7.595754
0
VERTEX
8
OUTLINE
10
441.100000
20
603.248076
30
0.000000
0
VERTEX
8
OUTLINE
10
441.100000
20
666.418590
30
0.000000
42
-7.595754
0
VERTEX
8
OUTLINE
10
442.198076
20
667.516667
30
0.000000
0
VERTEX
8
OUTLINE
10
458.900000
20
667.516667
30
0.000000
0
VERTEX
8
OUTLINE
10
458.900000
20
707.516667
30
0.000000
0
VERTEX
8
OUTLINE
10
442.198076
20
707.516667
30
0.000000
42
-7.595754
0
VERTEX
8
OUTLINE
10
441.100000
20
708.614743
30
0.000000
0
VERTEX
8
OUTLINE
10
441.100000
20
770.200000
30
0.000000
0
VERTEX
8
OUTLINE
10
17.800000
20
770.200000
30
0.000000
0
VERTEX
8
OUTLINE
10
17.800000
20
708.614743
30
0.000000
42
-7.595754
0
VERTEX
8
OUTLINE
10
16.701924
20
707.516667
30
0.000000
0
VERTEX
8
OUTLINE
10
0.000000
20
707.516667
30
0.000000
0
VERTEX
8
OUTLINE
10
0.000000
20
667.516667
30
0.000000
0
VERTEX
8
OUTLINE
10
16.701924
20
667.516667
30
0.000000
42
-7.595754
0
VERTEX
8
OUTLINE
10
17.800000
20
666.418590
30
0.000000
0
VERTEX
8
OUTLINE
10
17.800000
20
603.248076
30
0.000000
42
-7.595754
0
VERTEX
8
OUTLINE
10
16.701924
20
602.150000
30
0.000000
0
VERTEX
8
OUTLINE
10
0.000000
20
602.150000
30
0.000000
0
VERTEX
8
OUTLINE
10
0.000000
20
562.150000
30
0.000000
0
VERTEX
8
OUTLINE
10
16.701924
20
562.150000
30
0.000000
42
-7.595754
0
VERTEX
8
OUTLINE
10
17.800000
20
561.051924
30
0.000000
0
VERTEX
8
OUTLINE
10
17.800000
20
497.881410
30
0.000000
42
-7.595754
0
VERTEX
8
OUTLINE
10
16.701924
20
496.783333
30
0.000000
0
VERTEX
8
OUTLINE
10
0.000000
20
496.783333
30
0.000000
0
VERTEX
8
OUTLINE
10
0.000000
20
456.783333
30
0.000000
0
VERTEX
8
OUTLINE
10
16.701924
20
456.783333
30
0.000000
42
-7.595754
0
VERTEX
8
OUTLINE
10
17.800000
20
455.685257
30
0.000000
0
SEQEND
8
OUTLINE
0
CIRCLE
8
TILE_REG
10
0.000000
20
6.000000
30
0.000000
40
3.000000
0
CIRCLE
8
TILE_REG
10
0.000000
20
1214.000000
30
0.000000
40
3.000000
0
TEXT
8
LABEL
10
12.000000
20
22.000000
30
0.000000
40
8.000000
1
C1-T-SHELF-1-3
0
TEXT
8
LABEL
10
12.000000
20
406.100000
30
0.000000
40
8.000000
1
C1-T-SHELF-1-4
0
ENDSEC
0
EOF
