0
SECTION
2
HEADER
9
$ACADVER
1
AC1009
9
$INSUNITS
70
4.000000
9
$MEASUREMENT
70
1.000000
0
ENDSEC
0
SECTION
2
TABLES
0
TABLE
2
LAYER
70
8.000000
0
LAYER
2
DRILL_4.5_THRU
70
0.000000
62
5.000000
6
CONTINUOUS
0
LAYER
2
DRILL_8_D12
70
0.000000
62
5.000000
6
CONTINUOUS
0
LAYER
2
LABEL
70
0.000000
62
8.000000
6
CONTINUOUS
0
LAYER
2
OUTLINE
70
0.000000
62
7.000000
6
CONTINUOUS
0
LAYER
2
POCKET_D13
70
0.000000
62
3.000000
6
CONTINUOUS
0
LAYER
2
POCKET_D4
70
0.000000
62
3.000000
6
CONTINUOUS
0
LAYER
2
POCKET_D6
70
0.000000
62
3.000000
6
CONTINUOUS
0
LAYER
2
TILE_REG
70
0.000000
62
6.000000
6
CONTINUOUS
0
ENDTAB
0
ENDSEC
0
SECTION
2
ENTITIES
0
POLYLINE
8
OUTLINE
66
1.000000
70
1.000000
10
0.000000
20
0.000000
30
0.000000
0
VERTEX
8
OUTLINE
10
980.000000
20
10.000000
30
0.000000
0
VERTEX
8
OUTLINE
10
980.000000
20
306.200000
30
0.000000
0
VERTEX
8
OUTLINE
10
10.000000
20
306.200000
30
0.000000
0
VERTEX
8
OUTLINE
10
10.000000
20
10.000000
30
0.000000
0
SEQEND
8
OUTLINE
0
POLYLINE
8
POCKET_D13
66
1.000000
70
1.000000
10
0.000000
20
0.000000
30
0.000000
0
VERTEX
8
POCKET_D13
10
694.733333
20
266.600000
30
0.000000
42
1.000000
0
VERTEX
8
POCKET_D13
10
694.733333
20
301.600000
30
0.000000
42
1.000000
0
SEQEND
8
POCKET_D13
0
POLYLINE
8
POCKET_D13
66
1.000000
70
1.000000
10
0.000000
20
0.000000
30
0.000000
0
VERTEX
8
POCKET_D13
10
85.800000
20
266.600000
30
0.000000
42
1.000000
0
VERTEX
8
POCKET_D13
10
85.800000
20
301.600000
30
0.000000
42
1.000000
0
SEQEND
8
POCKET_D13
0
POLYLINE
8
OUTLINE
66
1.000000
70
1.000000
10
0.000000
20
0.000000
30
0.000000
0
VERTEX
8
OUTLINE
10
980.000000
20
314.200000
30
0.000000
0
VERTEX
8
OUTLINE
10
980.000000
20
610.400000
30
0.000000
0
VERTEX
8
OUTLINE
10
10.000000
20
610.400000
30
0.000000
0
VERTEX
8
OUTLINE
10
10.000000
20
314.200000
30
0.000000
0
SEQEND
8
OUTLINE
0
POLYLINE
8
POCKET_D13
66
1.000000
70
1.000000
10
0.000000
20
0.000000
30
0.000000
0
VERTEX
8
POCKET_D13
10
694.733333
20
318.800000
30
0.000000
42
1.000000
0
VERTEX
8
POCKET_D13
10
694.733333
20
353.800000
30
0.000000
42
1.000000
0
SEQEND
8
POCKET_D13
0
POLYLINE
8
POCKET_D13
66
1.000000
70
1.000000
10
0.000000
20
0.000000
30
0.000000
0
VERTEX
8
POCKET_D13
10
85.800000
20
318.800000
30
0.000000
42
1.000000
0
VERTEX
8
POCKET_D13
10
85.800000
20
353.800000
30
0.000000
42
1.000000
0
SEQEND
8
POCKET_D13
0
POLYLINE
8
OUTLINE
66
1.000000
70
1.000000
10
0.000000
20
0.000000
30
0.000000
0
VERTEX
8
OUTLINE
10
10.000000
20
618.400000
30
0.000000
0
VERTEX
8
OUTLINE
10
610.000000
20
618.400000
30
0.000000
0
VERTEX
8
OUTLINE
10
610.000000
20
1198.400000
30
0.000000
0
VERTEX
8
OUTLINE
10
10.000000
20
1198.400000
30
0.000000
0
SEQEND
8
OUTLINE
0
POLYLINE
8
POCKET_D4
66
1.000000
70
1.000000
10
0.000000
20
0.000000
30
0.000000
0
VERTEX
8
POCKET_D4
10
592.125000
20
628.400000
30
0.000000
0
VERTEX
8
POCKET_D4
10
610.075000
20
628.400000
30
0.000000
0
VERTEX
8
POCKET_D4
10
610.075000
20
1198.400000
30
0.000000
0
VERTEX
8
POCKET_D4
10
592.125000
20
1198.400000
30
0.000000
0
SEQEND
8
POCKET_D4
0
POLYLINE
8
POCKET_D4
66
1.000000
70
1.000000
10
0.000000
20
0.000000
30
0.000000
0
VERTEX
8
POCKET_D4
10
9.925000
20
628.400000
30
0.000000
0
VERTEX
8
POCKET_D4
10
27.875000
20
628.400000
30
0.000000
0
VERTEX
8
POCKET_D4
10
27.875000
20
1198.400000
30
0.000000
0
VERTEX
8
POCKET_D4
10
9.925000
20
1198.400000
30
0.000000
0
SEQEND
8
POCKET_D4
0
POLYLINE
8
POCKET_D6
66
1.000000
70
1.000000
10
0.000000
20
0.000000
30
0.000000
0
VERTEX
8
POCKET_D6
10
21.800000
20
1186.425000
30
0.000000
0
VERTEX
8
POCKET_D6
10
598.200000
20
1186.425000
30
0.000000
0
VERTEX
8
POCKET_D6
10
598.200000
20
1198.475000
30
0.000000
0
VERTEX
8
POCKET_D6
10
21.800000
20
1198.475000
30
0.000000
0
SEQEND
8
POCKET_D6
0
CIRCLE
8
DRILL_8_D12
10
717.233333
20
274.600000
30
0.000000
40
4.000000
0
CIRCLE
8
DRILL_8_D12
10
672.233333
20
274.600000
30
0.000000
40
4.000000
0
CIRCLE
8
DRILL_8_D12
10
108.300000
20
274.600000
30
0.000000
40
4.000000
0
CIRCLE
8
DRILL_8_D12
10
63.300000
20
274.600000
30
0.000000
40
4.000000
0
CIRCLE
8
DRILL_8_D12
10
717.233333
20
345.800000
30
0.000000
40
4.000000
0
CIRCLE
8
DRILL_8_D12
10
672.233333
20
345.800000
30
0.000000
40
4.000000
0
CIRCLE
8
DRILL_8_D12
10
108.300000
20
345.800000
30
0.000000
40
4.000000
0
CIRCLE
8
DRILL_8_D12
10
63.300000
20
345.800000
30
0.000000
40
4.000000
0
CIRCLE
8
DRILL_4.5_THRU
10
601.100000
20
668.400000
30
0.000000
40
2.250000
0
CIRCLE
8
DRILL_4.5_THRU
10
601.100000
20
790.900000
30
0.000000
40
2.250000
0
CIRCLE
8
DRILL_4.5_THRU
10
601.100000
20
913.400000
30
0.000000
40
2.250000
0
CIRCLE
8
DRILL_4.5_THRU
10
601.100000
20
1035.900000
30
0.000000
40
2.250000
0
CIRCLE
8
DRILL_4.5_THRU
10
601.100000
20
1158.400000
30
0.000000
40
2.250000
0
CIRCLE
8
DRILL_4.5_THRU
10
18.900000
20
668.400000
30
0.000000
40
2.250000
0
CIRCLE
8
DRILL_4.5_THRU
10
18.900000
20
790.900000
30
0.000000
40
2.250000
0
CIRCLE
8
DRILL_4.5_THRU
10
18.900000
20
913.400000
30
0.000000
40
2.250000
0
CIRCLE
8
DRILL_4.5_THRU
10
18.900000
20
1035.900000
30
0.000000
40
2.250000
0
CIRCLE
8
DRILL_4.5_THRU
10
18.900000
20
1158.400000
30
0.000000
40
2.250000
0
CIRCLE
8
TILE_REG
10
980.000000
20
6.000000
30
0.000000
40
3.000000
0
CIRCLE
8
TILE_REG
10
980.000000
20
1214.000000
30
0.000000
40
3.000000
0
TEXT
8
LABEL
10
22.000000
20
630.400000
30
0.000000
40
8.000000
1
C1-B-TOP
0
ENDSEC
0
EOF
