0
SECTION
2
HEADER
9
$ACADVER
1
AC1009
9
$INSUNITS
70
4.000000
9
$MEASUREMENT
70
1.000000
0
ENDSEC
0
SECTION
2
TABLES
0
TABLE
2
LAYER
70
5.000000
0
LAYER
2
DRILL_4.5_THRU
70
0.000000
62
5.000000
6
CONTINUOUS
0
LAYER
2
DRILL_5_D12
70
0.000000
62
5.000000
6
CONTINUOUS
0
LAYER
2
OUTLINE
70
0.000000
62
7.000000
6
CONTINUOUS
0
LAYER
2
POCKET_D6
70
0.000000
62
3.000000
6
CONTINUOUS
0
LAYER
2
TILE_REG
70
0.000000
62
6.000000
6
CONTINUOUS
0
ENDTAB
0
ENDSEC
0
SECTION
2
ENTITIES
0
POLYLINE
8
OUTLINE
66
1.000000
70
1.000000
10
0.000000
20
0.000000
30
0.000000
0
VERTEX
8
OUTLINE
10
980.000000
20
10.000000
30
0.000000
0
VERTEX
8
OUTLINE
10
980.000000
20
590.000000
30
0.000000
0
VERTEX
8
OUTLINE
10
10.000000
20
590.000000
30
0.000000
0
VERTEX
8
OUTLINE
10
10.000000
20
23.150000
30
0.000000
0
VERTEX
8
OUTLINE
10
14.000000
20
23.150000
30
0.000000
0
VERTEX
8
OUTLINE
10
14.000000
20
10.000000
30
0.000000
0
SEQEND
8
OUTLINE
0
POLYLINE
8
POCKET_D6
66
1.000000
70
1.000000
10
0.000000
20
0.000000
30
0.000000
0
VERTEX
8
POCKET_D6
10
674.808333
20
20.000000
30
0.000000
0
VERTEX
8
POCKET_D6
10
674.808333
20
578.100000
30
0.000000
0
VERTEX
8
POCKET_D6
10
656.858333
20
578.100000
30
0.000000
0
VERTEX
8
POCKET_D6
10
656.858333
20
20.000000
30
0.000000
0
SEQEND
8
POCKET_D6
0
POLYLINE
8
POCKET_D6
66
1.000000
70
1.000000
10
0.000000
20
0.000000
30
0.000000
0
VERTEX
8
POCKET_D6
10
344.441667
20
20.000000
30
0.000000
0
VERTEX
8
POCKET_D6
10
344.441667
20
578.100000
30
0.000000
0
VERTEX
8
POCKET_D6
10
326.491667
20
578.100000
30
0.000000
0
VERTEX
8
POCKET_D6
10
326.491667
20
20.000000
30
0.000000
0
SEQEND
8
POCKET_D6
0
POLYLINE
8
POCKET_D6
66
1.000000
70
1.000000
10
0.000000
20
0.000000
30
0.000000
0
VERTEX
8
POCKET_D6
10
980.000000
20
578.025000
30
0.000000
0
VERTEX
8
POCKET_D6
10
980.000000
20
590.075000
30
0.000000
0
VERTEX
8
POCKET_D6
10
14.000000
20
590.075000
30
0.000000
0
VERTEX
8
POCKET_D6
10
14.000000
20
578.025000
30
0.000000
0
SEQEND
8
POCKET_D6
0
POLYLINE
8
OUTLINE
66
1.000000
70
1.000000
10
0.000000
20
0.000000
30
0.000000
0
VERTEX
8
OUTLINE
10
980.000000
20
598.000000
30
0.000000
0
VERTEX
8
OUTLINE
10
980.000000
20
1178.000000
30
0.000000
0
VERTEX
8
OUTLINE
10
14.000000
20
1178.000000
30
0.000000
0
VERTEX
8
OUTLINE
10
14.000000
20
1164.850000
30
0.000000
0
VERTEX
8
OUTLINE
10
10.000000
20
1164.850000
30
0.000000
0
VERTEX
8
OUTLINE
10
10.000000
20
598.000000
30
0.000000
0
SEQEND
8
OUTLINE
0
POLYLINE
8
POCKET_D6
66
1.000000
70
1.000000
10
0.000000
20
0.000000
30
0.000000
0
VERTEX
8
POCKET_D6
10
674.808333
20
609.900000
30
0.000000
0
VERTEX
8
POCKET_D6
10
674.808333
20
1168.000000
30
0.000000
0
VERTEX
8
POCKET_D6
10
656.858333
20
1168.000000
30
0.000000
0
VERTEX
8
POCKET_D6
10
656.858333
20
609.900000
30
0.000000
0
SEQEND
8
POCKET_D6
0
POLYLINE
8
POCKET_D6
66
1.000000
70
1.000000
10
0.000000
20
0.000000
30
0.000000
0
VERTEX
8
POCKET_D6
10
344.441667
20
609.900000
30
0.000000
0
VERTEX
8
POCKET_D6
10
344.441667
20
1168.000000
30
0.000000
0
VERTEX
8
POCKET_D6
10
326.491667
20
1168.000000
30
0.000000
0
VERTEX
8
POCKET_D6
10
326.491667
20
609.900000
30
0.000000
0
SEQEND
8
POCKET_D6
0
POLYLINE
8
POCKET_D6
66
1.000000
70
1.000000
10
0.000000
20
0.000000
30
0.000000
0
VERTEX
8
POCKET_D6
10
980.000000
20
597.925000
30
0.000000
0
VERTEX
8
POCKET_D6
10
980.000000
20
609.975000
30
0.000000
0
VERTEX
8
POCKET_D6
10
14.000000
20
609.975000
30
0.000000
0
VERTEX
8
POCKET_D6
10
14.000000
20
597.925000
30
0.000000
0
SEQEND
8
POCKET_D6
0
CIRCLE
8
DRILL_4.5_THRU
10
665.833333
20
60.000000
30
0.000000
40
2.250000
0
CIRCLE
8
DRILL_4.5_THRU
10
665.833333
20
179.525000
30
0.000000
40
2.250000
0
CIRCLE
8
DRILL_4.5_THRU
10
665.833333
20
299.050000
30
0.000000
40
2.250000
0
CIRCLE
8
DRILL_4.5_THRU
10
665.833333
20
418.575000
30
0.000000
40
2.250000
0
CIRCLE
8
DRILL_4.5_THRU
10
665.833333
20
538.100000
30
0.000000
40
2.250000
0
CIRCLE
8
DRILL_4.5_THRU
10
335.466667
20
60.000000
30
0.000000
40
2.250000
0
CIRCLE
8
DRILL_4.5_THRU
10
335.466667
20
179.525000
30
0.000000
40
2.250000
0
CIRCLE
8
DRILL_4.5_THRU
10
335.466667
20
299.050000
30
0.000000
40
2.250000
0
CIRCLE
8
DRILL_4.5_THRU
10
335.466667
20
418.575000
30
0.000000
40
2.250000
0
CIRCLE
8
DRILL_4.5_THRU
10
335.466667
20
538.100000
30
0.000000
40
2.250000
0
CIRCLE
8
DRILL_5_D12
10
716.633333
20
47.000000
30
0.000000
40
2.500000
0
CIRCLE
8
DRILL_5_D12
10
684.633333
20
47.000000
30
0.000000
40
2.500000
0
CIRCLE
8
DRILL_5_D12
10
107.700000
20
47.000000
30
0.000000
40
2.500000
0
CIRCLE
8
DRILL_5_D12
10
75.700000
20
47.000000
30
0.000000
40
2.500000
0
CIRCLE
8
DRILL_4.5_THRU
10
665.833333
20
649.900000
30
0.000000
40
2.250000
0
CIRCLE
8
DRILL_4.5_THRU
10
665.833333
20
769.425000
30
0.000000
40
2.250000
0
CIRCLE
8
DRILL_4.5_THRU
10
665.833333
20
888.950000
30
0.000000
40
2.250000
0
CIRCLE
8
DRILL_4.5_THRU
10
665.833333
20
1008.475000
30
0.000000
40
2.250000
0
CIRCLE
8
DRILL_4.5_THRU
10
665.833333
20
1128.000000
30
0.000000
40
2.250000
0
CIRCLE
8
DRILL_4.5_THRU
10
335.466667
20
649.900000
30
0.000000
40
2.250000
0
CIRCLE
8
DRILL_4.5_THRU
10
335.466667
20
769.425000
30
0.000000
40
2.250000
0
CIRCLE
8
DRILL_4.5_THRU
10
335.466667
20
888.950000
30
0.000000
40
2.250000
0
CIRCLE
8
DRILL_4.5_THRU
10
335.466667
20
1008.475000
30
0.000000
40
2.250000
0
CIRCLE
8
DRILL_4.5_THRU
10
335.466667
20
1128.000000
30
0.000000
40
2.250000
0
CIRCLE
8
DRILL_5_D12
10
716.633333
20
1141.000000
30
0.000000
40
2.500000
0
CIRCLE
8
DRILL_5_D12
10
684.633333
20
1141.000000
30
0.000000
40
2.500000
0
CIRCLE
8
DRILL_5_D12
10
107.700000
20
1141.000000
30
0.000000
40
2.500000
0
CIRCLE
8
DRILL_5_D12
10
75.700000
20
1141.000000
30
0.000000
40
2.500000
0
CIRCLE
8
TILE_REG
10
980.000000
20
6.000000
30
0.000000
40
3.000000
0
CIRCLE
8
TILE_REG
10
980.000000
20
1214.000000
30
0.000000
40
3.000000
0
ENDSEC
0
EOF
