0
SECTION
2
HEADER
9
$ACADVER
1
AC1009
9
$INSUNITS
70
4.000000
9
$MEASUREMENT
70
1.000000
0
ENDSEC
0
SECTION
2
TABLES
0
TABLE
2
LAYER
70
6.000000
0
LAYER
2
DRILL_8_D12
70
0.000000
62
5.000000
6
CONTINUOUS
0
LAYER
2
LABEL
70
0.000000
62
8.000000
6
CONTINUOUS
0
LAYER
2
OUTLINE
70
0.000000
62
7.000000
6
CONTINUOUS
0
LAYER
2
POCKET_D13
70
0.000000
62
3.000000
6
CONTINUOUS
0
LAYER
2
POCKET_D6
70
0.000000
62
3.000000
6
CONTINUOUS
0
LAYER
2
TILE_REG
70
0.000000
62
6.000000
6
CONTINUOUS
0
ENDTAB
0
ENDSEC
0
SECTION
2
ENTITIES
0
POLYLINE
8
OUTLINE
66
1.000000
70
1.000000
10
0.000000
20
0.000000
30
0.000000
0
VERTEX
8
OUTLINE
10
0.000000
20
10.000000
30
0.000000
0
VERTEX
8
OUTLINE
10
980.000000
20
10.000000
30
0.000000
0
VERTEX
8
OUTLINE
10
980.000000
20
306.200000
30
0.000000
0
VERTEX
8
OUTLINE
10
0.000000
20
306.200000
30
0.000000
0
SEQEND
8
OUTLINE
0
POLYLINE
8
POCKET_D13
66
1.000000
70
1.000000
10
0.000000
20
0.000000
30
0.000000
0
VERTEX
8
POCKET_D13
10
932.600000
20
266.600000
30
0.000000
42
1.000000
0
VERTEX
8
POCKET_D13
10
932.600000
20
301.600000
30
0.000000
42
1.000000
0
SEQEND
8
POCKET_D13
0
POLYLINE
8
POCKET_D13
66
1.000000
70
1.000000
10
0.000000
20
0.000000
30
0.000000
0
VERTEX
8
POCKET_D13
10
323.666667
20
266.600000
30
0.000000
42
1.000000
0
VERTEX
8
POCKET_D13
10
323.666667
20
301.600000
30
0.000000
42
1.000000
0
SEQEND
8
POCKET_D13
0
POLYLINE
8
OUTLINE
66
1.000000
70
1.000000
10
0.000000
20
0.000000
30
0.000000
0
VERTEX
8
OUTLINE
10
0.000000
20
314.200000
30
0.000000
0
VERTEX
8
OUTLINE
10
980.000000
20
314.200000
30
0.000000
0
VERTEX
8
OUTLINE
10
980.000000
20
610.400000
30
0.000000
0
VERTEX
8
OUTLINE
10
0.000000
20
610.400000
30
0.000000
0
SEQEND
8
OUTLINE
0
POLYLINE
8
POCKET_D13
66
1.000000
70
1.000000
10
0.000000
20
0.000000
30
0.000000
0
VERTEX
8
POCKET_D13
10
932.600000
20
318.800000
30
0.000000
42
1.000000
0
VERTEX
8
POCKET_D13
10
932.600000
20
353.800000
30
0.000000
42
1.000000
0
SEQEND
8
POCKET_D13
0
POLYLINE
8
POCKET_D13
66
1.000000
70
1.000000
10
0.000000
20
0.000000
30
0.000000
0
VERTEX
8
POCKET_D13
10
323.666667
20
318.800000
30
0.000000
42
1.000000
0
VERTEX
8
POCKET_D13
10
323.666667
20
353.800000
30
0.000000
42
1.000000
0
SEQEND
8
POCKET_D13
0
POLYLINE
8
OUTLINE
66
1.000000
70
1.000000
10
0.000000
20
0.000000
30
0.000000
0
VERTEX
8
OUTLINE
10
0.000000
20
631.550000
30
0.000000
0
VERTEX
8
OUTLINE
10
6.000000
20
631.550000
30
0.000000
0
VERTEX
8
OUTLINE
10
6.000000
20
618.400000
30
0.000000
0
VERTEX
8
OUTLINE
10
570.400000
20
618.400000
30
0.000000
0
VERTEX
8
OUTLINE
10
570.400000
20
631.550000
30
0.000000
0
VERTEX
8
OUTLINE
10
576.400000
20
631.550000
30
0.000000
0
VERTEX
8
OUTLINE
10
576.400000
20
1198.400000
30
0.000000
0
VERTEX
8
OUTLINE
10
0.000000
20
1198.400000
30
0.000000
0
SEQEND
8
OUTLINE
0
POLYLINE
8
POCKET_D6
66
1.000000
70
1.000000
10
0.000000
20
0.000000
30
0.000000
0
VERTEX
8
POCKET_D6
10
0.000000
20
1186.425000
30
0.000000
0
VERTEX
8
POCKET_D6
10
576.400000
20
1186.425000
30
0.000000
0
VERTEX
8
POCKET_D6
10
576.400000
20
1198.475000
30
0.000000
0
VERTEX
8
POCKET_D6
10
0.000000
20
1198.475000
30
0.000000
0
SEQEND
8
POCKET_D6
0
CIRCLE
8
DRILL_8_D12
10
955.100000
20
274.600000
30
0.000000
40
4.000000
0
CIRCLE
8
DRILL_8_D12
10
910.100000
20
274.600000
30
0.000000
40
4.000000
0
CIRCLE
8
DRILL_8_D12
10
346.166667
20
274.600000
30
0.000000
40
4.000000
0
CIRCLE
8
DRILL_8_D12
10
301.166667
20
274.600000
30
0.000000
40
4.000000
0
CIRCLE
8
DRILL_8_D12
10
955.100000
20
345.800000
30
0.000000
40
4.000000
0
CIRCLE
8
DRILL_8_D12
10
910.100000
20
345.800000
30
0.000000
40
4.000000
0
CIRCLE
8
DRILL_8_D12
10
346.166667
20
345.800000
30
0.000000
40
4.000000
0
CIRCLE
8
DRILL_8_D12
10
301.166667
20
345.800000
30
0.000000
40
4.000000
0
CIRCLE
8
TILE_REG
10
0.000000
20
6.000000
30
0.000000
40
3.000000
0
CIRCLE
8
TILE_REG
10
0.000000
20
1214.000000
30
0.000000
40
3.000000
0
CIRCLE
8
TILE_REG
10
980.000000
20
6.000000
30
0.000000
40
3.000000
0
CIRCLE
8
TILE_REG
10
980.000000
20
1214.000000
30
0.000000
40
3.000000
0
TEXT
8
LABEL
10
12.000000
20
630.400000
30
0.000000
40
8.000000
1
C1-B-BOTTOM
0
ENDSEC
0
EOF
