0
SECTION
2
HEADER
9
$ACADVER
1
AC1009
9
$INSUNITS
70
4.000000
9
$MEASUREMENT
70
1.000000
0
ENDSEC
0
SECTION
2
TABLES
0
TABLE
2
LAYER
70
3.000000
0
LAYER
2
LABEL
70
0.000000
62
8.000000
6
CONTINUOUS
0
LAYER
2
OUTLINE
70
0.000000
62
7.000000
6
CONTINUOUS
0
LAYER
2
SHEET
70
0.000000
62
8.000000
6
CONTINUOUS
0
ENDTAB
0
ENDSEC
0
SECTION
2
ENTITIES
0
POLYLINE
8
SHEET
66
1.000000
70
1.000000
10
0.000000
20
0.000000
30
0.000000
0
VERTEX
8
SHEET
10
0.000000
20
0.000000
30
0.000000
0
VERTEX
8
SHEET
10
2440.000000
20
0.000000
30
0.000000
0
VERTEX
8
SHEET
10
2440.000000
20
1220.000000
30
0.000000
0
VERTEX
8
SHEET
10
0.000000
20
1220.000000
30
0.000000
0
SEQEND
8
SHEET
0
POLYLINE
8
OUTLINE
66
1.000000
70
1.000000
10
0.000000
20
0.000000
30
0.000000
0
VERTEX
8
OUTLINE
10
10.000000
20
23.150000
30
0.000000
0
VERTEX
8
OUTLINE
10
16.000000
20
23.150000
30
0.000000
0
VERTEX
8
OUTLINE
10
16.000000
20
10.000000
30
0.000000
0
VERTEX
8
OUTLINE
10
580.400000
20
10.000000
30
0.000000
0
VERTEX
8
OUTLINE
10
580.400000
20
23.150000
30
0.000000
0
VERTEX
8
OUTLINE
10
586.400000
20
23.150000
30
0.000000
0
VERTEX
8
OUTLINE
10
586.400000
20
578.100000
30
0.000000
0
VERTEX
8
OUTLINE
10
10.000000
20
578.100000
30
0.000000
0
SEQEND
8
OUTLINE
0
POLYLINE
8
OUTLINE
66
1.000000
70
1.000000
10
0.000000
20
0.000000
30
0.000000
0
VERTEX
8
OUTLINE
10
2010.000000
20
586.100000
30
0.000000
0
VERTEX
8
OUTLINE
10
2010.000000
20
638.781016
30
0.000000
0
VERTEX
8
OUTLINE
10
10.000000
20
638.781016
30
0.000000
0
VERTEX
8
OUTLINE
10
10.000000
20
593.719048
30
0.000000
0
SEQEND
8
OUTLINE
0
POLYLINE
8
OUTLINE
66
1.000000
70
1.000000
10
0.000000
20
0.000000
30
0.000000
0
VERTEX
8
OUTLINE
10
2010.000000
20
646.781016
30
0.000000
0
VERTEX
8
OUTLINE
10
2010.000000
20
689.338095
30
0.000000
0
VERTEX
8
OUTLINE
10
10.000000
20
681.719048
30
0.000000
0
VERTEX
8
OUTLINE
10
10.000000
20
646.781016
30
0.000000
0
SEQEND
8
OUTLINE
0
POLYLINE
8
OUTLINE
66
1.000000
70
1.000000
10
0.000000
20
0.000000
30
0.000000
0
VERTEX
8
OUTLINE
10
10.000000
20
697.338095
30
0.000000
0
VERTEX
8
OUTLINE
10
586.400000
20
697.338095
30
0.000000
0
VERTEX
8
OUTLINE
10
586.400000
20
797.338095
30
0.000000
0
VERTEX
8
OUTLINE
10
10.000000
20
797.338095
30
0.000000
0
SEQEND
8
OUTLINE
0
TEXT
8
LABEL
10
22.000000
20
22.000000
30
0.000000
40
8.000000
1
C1-B-SHELF-1-5
0
TEXT
8
LABEL
10
1998.000000
20
605.719048
30
0.000000
40
8.000000
1
C1-B-SCRIBE-R
0
TEXT
8
LABEL
10
1998.000000
20
658.781016
30
0.000000
40
8.000000
1
C1-B-SCRIBE-L
0
TEXT
8
LABEL
10
22.000000
20
709.338095
30
0.000000
40
8.000000
1
C1-B-TOERAIL
0
ENDSEC
0
EOF
