0
SECTION
2
HEADER
9
$ACADVER
1
AC1009
9
$INSUNITS
70
4.000000
9
$MEASUREMENT
70
1.000000
0
ENDSEC
0
SECTION
2
TABLES
0
TABLE
2
LAYER
70
6.000000
0
LAYER
2
DRILL_4.5_THRU
70
0.000000
62
5.000000
6
CONTINUOUS
0
LAYER
2
DRILL_5_D12
70
0.000000
62
5.000000
6
CONTINUOUS
0
LAYER
2
LABEL
70
0.000000
62
8.000000
6
CONTINUOUS
0
LAYER
2
OUTLINE
70
0.000000
62
7.000000
6
CONTINUOUS
0
LAYER
2
POCKET_D6
70
0.000000
62
3.000000
6
CONTINUOUS
0
LAYER
2
SHEET
70
0.000000
62
8.000000
6
CONTINUOUS
0
ENDTAB
0
ENDSEC
0
SECTION
2
ENTITIES
0
POLYLINE
8
SHEET
66
1.000000
70
1.000000
10
0.000000
20
0.000000
30
0.000000
0
VERTEX
8
SHEET
10
0.000000
20
0.000000
30
0.000000
0
VERTEX
8
SHEET
10
2440.000000
20
0.000000
30
0.000000
0
VERTEX
8
SHEET
10
2440.000000
20
1220.000000
30
0.000000
0
VERTEX
8
SHEET
10
0.000000
20
1220.000000
30
0.000000
0
SEQEND
8
SHEET
0
POLYLINE
8
OUTLINE
66
1.000000
70
1.000000
10
0.000000
20
0.000000
30
0.000000
0
VERTEX
8
OUTLINE
10
1996.200000
20
10.000000
30
0.000000
0
VERTEX
8
OUTLINE
10
1996.200000
20
60.000000
30
0.000000
0
VERTEX
8
OUTLINE
10
2096.200000
20
60.000000
30
0.000000
0
VERTEX
8
OUTLINE
10
2096.200000
20
590.000000
30
0.000000
0
VERTEX
8
OUTLINE
10
10.000000
20
590.000000
30
0.000000
0
VERTEX
8
OUTLINE
10
10.000000
20
23.150000
30
0.000000
0
VERTEX
8
OUTLINE
10
14.000000
20
23.150000
30
0.000000
0
VERTEX
8
OUTLINE
10
14.000000
20
10.000000
30
0.000000
0
SEQEND
8
OUTLINE
0
POLYLINE
8
POCKET_D6
66
1.000000
70
1.000000
10
0.000000
20
0.000000
30
0.000000
0
VERTEX
8
POCKET_D6
10
1996.275000
20
20.000000
30
0.000000
0
VERTEX
8
POCKET_D6
10
1996.275000
20
590.000000
30
0.000000
0
VERTEX
8
POCKET_D6
10
1978.325000
20
590.000000
30
0.000000
0
VERTEX
8
POCKET_D6
10
1978.325000
20
20.000000
30
0.000000
0
SEQEND
8
POCKET_D6
0
POLYLINE
8
POCKET_D6
66
1.000000
70
1.000000
10
0.000000
20
0.000000
30
0.000000
0
VERTEX
8
POCKET_D6
10
2096.200000
20
59.925000
30
0.000000
0
VERTEX
8
POCKET_D6
10
2096.200000
20
77.875000
30
0.000000
0
VERTEX
8
POCKET_D6
10
1996.200000
20
77.875000
30
0.000000
0
VERTEX
8
POCKET_D6
10
1996.200000
20
59.925000
30
0.000000
0
SEQEND
8
POCKET_D6
0
POLYLINE
8
POCKET_D6
66
1.000000
70
1.000000
10
0.000000
20
0.000000
30
0.000000
0
VERTEX
8
POCKET_D6
10
1665.908333
20
20.000000
30
0.000000
0
VERTEX
8
POCKET_D6
10
1665.908333
20
578.100000
30
0.000000
0
VERTEX
8
POCKET_D6
10
1647.958333
20
578.100000
30
0.000000
0
VERTEX
8
POCKET_D6
10
1647.958333
20
20.000000
30
0.000000
0
SEQEND
8
POCKET_D6
0
POLYLINE
8
POCKET_D6
66
1.000000
70
1.000000
10
0.000000
20
0.000000
30
0.000000
0
VERTEX
8
POCKET_D6
10
1335.541667
20
20.000000
30
0.000000
0
VERTEX
8
POCKET_D6
10
1335.541667
20
578.100000
30
0.000000
0
VERTEX
8
POCKET_D6
10
1317.591667
20
578.100000
30
0.000000
0
VERTEX
8
POCKET_D6
10
1317.591667
20
20.000000
30
0.000000
0
SEQEND
8
POCKET_D6
0
POLYLINE
8
POCKET_D6
66
1.000000
70
1.000000
10
0.000000
20
0.000000
30
0.000000
0
VERTEX
8
POCKET_D6
10
1005.175000
20
20.000000
30
0.000000
0
VERTEX
8
POCKET_D6
10
1005.175000
20
578.100000
30
0.000000
0
VERTEX
8
POCKET_D6
10
987.225000
20
578.100000
30
0.000000
0
VERTEX
8
POCKET_D6
10
987.225000
20
20.000000
30
0.000000
0
SEQEND
8
POCKET_D6
0
POLYLINE
8
POCKET_D6
66
1.000000
70
1.000000
10
0.000000
20
0.000000
30
0.000000
0
VERTEX
8
POCKET_D6
10
674.808333
20
20.000000
30
0.000000
0
VERTEX
8
POCKET_D6
10
674.808333
20
578.100000
30
0.000000
0
VERTEX
8
POCKET_D6
10
656.858333
20
578.100000
30
0.000000
0
VERTEX
8
POCKET_D6
10
656.858333
20
20.000000
30
0.000000
0
SEQEND
8
POCKET_D6
0
POLYLINE
8
POCKET_D6
66
1.000000
70
1.000000
10
0.000000
20
0.000000
30
0.000000
0
VERTEX
8
POCKET_D6
10
344.441667
20
20.000000
30
0.000000
0
VERTEX
8
POCKET_D6
10
344.441667
20
578.100000
30
0.000000
0
VERTEX
8
POCKET_D6
10
326.491667
20
578.100000
30
0.000000
0
VERTEX
8
POCKET_D6
10
326.491667
20
20.000000
30
0.000000
0
SEQEND
8
POCKET_D6
0
POLYLINE
8
POCKET_D6
66
1.000000
70
1.000000
10
0.000000
20
0.000000
30
0.000000
0
VERTEX
8
POCKET_D6
10
1978.400000
20
578.025000
30
0.000000
0
VERTEX
8
POCKET_D6
10
1978.400000
20
590.075000
30
0.000000
0
VERTEX
8
POCKET_D6
10
14.000000
20
590.075000
30
0.000000
0
VERTEX
8
POCKET_D6
10
14.000000
20
578.025000
30
0.000000
0
SEQEND
8
POCKET_D6
0
POLYLINE
8
OUTLINE
66
1.000000
70
1.000000
10
0.000000
20
0.000000
30
0.000000
0
VERTEX
8
OUTLINE
10
2096.200000
20
598.000000
30
0.000000
0
VERTEX
8
OUTLINE
10
2096.200000
20
1128.000000
30
0.000000
0
VERTEX
8
OUTLINE
10
1996.200000
20
1128.000000
30
0.000000
0
VERTEX
8
OUTLINE
10
1996.200000
20
1178.000000
30
0.000000
0
VERTEX
8
OUTLINE
10
14.000000
20
1178.000000
30
0.000000
0
VERTEX
8
OUTLINE
10
14.000000
20
1164.850000
30
0.000000
0
VERTEX
8
OUTLINE
10
10.000000
20
1164.850000
30
0.000000
0
VERTEX
8
OUTLINE
10
10.000000
20
598.000000
30
0.000000
0
SEQEND
8
OUTLINE
0
POLYLINE
8
POCKET_D6
66
1.000000
70
1.000000
10
0.000000
20
0.000000
30
0.000000
0
VERTEX
8
POCKET_D6
10
1996.275000
20
598.000000
30
0.000000
0
VERTEX
8
POCKET_D6
10
1996.275000
20
1168.000000
30
0.000000
0
VERTEX
8
POCKET_D6
10
1978.325000
20
1168.000000
30
0.000000
0
VERTEX
8
POCKET_D6
10
1978.325000
20
598.000000
30
0.000000
0
SEQEND
8
POCKET_D6
0
POLYLINE
8
POCKET_D6
66
1.000000
70
1.000000
10
0.000000
20
0.000000
30
0.000000
0
VERTEX
8
POCKET_D6
10
2096.200000
20
1110.125000
30
0.000000
0
VERTEX
8
POCKET_D6
10
2096.200000
20
1128.075000
30
0.000000
0
VERTEX
8
POCKET_D6
10
1996.200000
20
1128.075000
30
0.000000
0
VERTEX
8
POCKET_D6
10
1996.200000
20
1110.125000
30
0.000000
0
SEQEND
8
POCKET_D6
0
POLYLINE
8
POCKET_D6
66
1.000000
70
1.000000
10
0.000000
20
0.000000
30
0.000000
0
VERTEX
8
POCKET_D6
10
1665.908333
20
609.900000
30
0.000000
0
VERTEX
8
POCKET_D6
10
1665.908333
20
1168.000000
30
0.000000
0
VERTEX
8
POCKET_D6
10
1647.958333
20
1168.000000
30
0.000000
0
VERTEX
8
POCKET_D6
10
1647.958333
20
609.900000
30
0.000000
0
SEQEND
8
POCKET_D6
0
POLYLINE
8
POCKET_D6
66
1.000000
70
1.000000
10
0.000000
20
0.000000
30
0.000000
0
VERTEX
8
POCKET_D6
10
1335.541667
20
609.900000
30
0.000000
0
VERTEX
8
POCKET_D6
10
1335.541667
20
1168.000000
30
0.000000
0
VERTEX
8
POCKET_D6
10
1317.591667
20
1168.000000
30
0.000000
0
VERTEX
8
POCKET_D6
10
1317.591667
20
609.900000
30
0.000000
0
SEQEND
8
POCKET_D6
0
POLYLINE
8
POCKET_D6
66
1.000000
70
1.000000
10
0.000000
20
0.000000
30
0.000000
0
VERTEX
8
POCKET_D6
10
1005.175000
20
609.900000
30
0.000000
0
VERTEX
8
POCKET_D6
10
1005.175000
20
1168.000000
30
0.000000
0
VERTEX
8
POCKET_D6
10
987.225000
20
1168.000000
30
0.000000
0
VERTEX
8
POCKET_D6
10
987.225000
20
609.900000
30
0.000000
0
SEQEND
8
POCKET_D6
0
POLYLINE
8
POCKET_D6
66
1.000000
70
1.000000
10
0.000000
20
0.000000
30
0.000000
0
VERTEX
8
POCKET_D6
10
674.808333
20
609.900000
30
0.000000
0
VERTEX
8
POCKET_D6
10
674.808333
20
1168.000000
30
0.000000
0
VERTEX
8
POCKET_D6
10
656.858333
20
1168.000000
30
0.000000
0
VERTEX
8
POCKET_D6
10
656.858333
20
609.900000
30
0.000000
0
SEQEND
8
POCKET_D6
0
POLYLINE
8
POCKET_D6
66
1.000000
70
1.000000
10
0.000000
20
0.000000
30
0.000000
0
VERTEX
8
POCKET_D6
10
344.441667
20
609.900000
30
0.000000
0
VERTEX
8
POCKET_D6
10
344.441667
20
1168.000000
30
0.000000
0
VERTEX
8
POCKET_D6
10
326.491667
20
1168.000000
30
0.000000
0
VERTEX
8
POCKET_D6
10
326.491667
20
609.900000
30
0.000000
0
SEQEND
8
POCKET_D6
0
POLYLINE
8
POCKET_D6
66
1.000000
70
1.000000
10
0.000000
20
0.000000
30
0.000000
0
VERTEX
8
POCKET_D6
10
1978.400000
20
597.925000
30
0.000000
0
VERTEX
8
POCKET_D6
10
1978.400000
20
609.975000
30
0.000000
0
VERTEX
8
POCKET_D6
10
14.000000
20
609.975000
30
0.000000
0
VERTEX
8
POCKET_D6
10
14.000000
20
597.925000
30
0.000000
0
SEQEND
8
POCKET_D6
0
CIRCLE
8
DRILL_4.5_THRU
10
1987.300000
20
60.000000
30
0.000000
40
2.250000
0
CIRCLE
8
DRILL_4.5_THRU
10
1987.300000
20
182.500000
30
0.000000
40
2.250000
0
CIRCLE
8
DRILL_4.5_THRU
10
1987.300000
20
305.000000
30
0.000000
40
2.250000
0
CIRCLE
8
DRILL_4.5_THRU
10
1987.300000
20
427.500000
30
0.000000
40
2.250000
0
CIRCLE
8
DRILL_4.5_THRU
10
1987.300000
20
550.000000
30
0.000000
40
2.250000
0
CIRCLE
8
DRILL_4.5_THRU
10
2071.200000
20
68.900000
30
0.000000
40
2.250000
0
CIRCLE
8
DRILL_4.5_THRU
10
2021.200000
20
68.900000
30
0.000000
40
2.250000
0
CIRCLE
8
DRILL_4.5_THRU
10
1656.933333
20
60.000000
30
0.000000
40
2.250000
0
CIRCLE
8
DRILL_4.5_THRU
10
1656.933333
20
179.525000
30
0.000000
40
2.250000
0
CIRCLE
8
DRILL_4.5_THRU
10
1656.933333
20
299.050000
30
0.000000
40
2.250000
0
CIRCLE
8
DRILL_4.5_THRU
10
1656.933333
20
418.575000
30
0.000000
40
2.250000
0
CIRCLE
8
DRILL_4.5_THRU
10
1656.933333
20
538.100000
30
0.000000
40
2.250000
0
CIRCLE
8
DRILL_4.5_THRU
10
1326.566667
20
60.000000
30
0.000000
40
2.250000
0
CIRCLE
8
DRILL_4.5_THRU
10
1326.566667
20
179.525000
30
0.000000
40
2.250000
0
CIRCLE
8
DRILL_4.5_THRU
10
1326.566667
20
299.050000
30
0.000000
40
2.250000
0
CIRCLE
8
DRILL_4.5_THRU
10
1326.566667
20
418.575000
30
0.000000
40
2.250000
0
CIRCLE
8
DRILL_4.5_THRU
10
1326.566667
20
538.100000
30
0.000000
40
2.250000
0
CIRCLE
8
DRILL_4.5_THRU
10
996.200000
20
60.000000
30
0.000000
40
2.250000
0
CIRCLE
8
DRILL_4.5_THRU
10
996.200000
20
179.525000
30
0.000000
40
2.250000
0
CIRCLE
8
DRILL_4.5_THRU
10
996.200000
20
299.050000
30
0.000000
40
2.250000
0
CIRCLE
8
DRILL_4.5_THRU
10
996.200000
20
418.575000
30
0.000000
40
2.250000
0
CIRCLE
8
DRILL_4.5_THRU
10
996.200000
20
538.100000
30
0.000000
40
2.250000
0
CIRCLE
8
DRILL_4.5_THRU
10
665.833333
20
60.000000
30
0.000000
40
2.250000
0
CIRCLE
8
DRILL_4.5_THRU
10
665.833333
20
179.525000
30
0.000000
40
2.250000
0
CIRCLE
8
DRILL_4.5_THRU
10
665.833333
20
299.050000
30
0.000000
40
2.250000
0
CIRCLE
8
DRILL_4.5_THRU
10
665.833333
20
418.575000
30
0.000000
40
2.250000
0
CIRCLE
8
DRILL_4.5_THRU
10
665.833333
20
538.100000
30
0.000000
40
2.250000
0
CIRCLE
8
DRILL_4.5_THRU
10
335.466667
20
60.000000
30
0.000000
40
2.250000
0
CIRCLE
8
DRILL_4.5_THRU
10
335.466667
20
179.525000
30
0.000000
40
2.250000
0
CIRCLE
8
DRILL_4.5_THRU
10
335.466667
20
299.050000
30
0.000000
40
2.250000
0
CIRCLE
8
DRILL_4.5_THRU
10
335.466667
20
418.575000
30
0.000000
40
2.250000
0
CIRCLE
8
DRILL_4.5_THRU
10
335.466667
20
538.100000
30
0.000000
40
2.250000
0
CIRCLE
8
DRILL_5_D12
10
1934.500000
20
47.000000
30
0.000000
40
2.500000
0
CIRCLE
8
DRILL_5_D12
10
1902.500000
20
47.000000
30
0.000000
40
2.500000
0
CIRCLE
8
DRILL_5_D12
10
1325.566667
20
47.000000
30
0.000000
40
2.500000
0
CIRCLE
8
DRILL_5_D12
10
1293.566667
20
47.000000
30
0.000000
40
2.500000
0
CIRCLE
8
DRILL_5_D12
10
716.633333
20
47.000000
30
0.000000
40
2.500000
0
CIRCLE
8
DRILL_5_D12
10
684.633333
20
47.000000
30
0.000000
40
2.500000
0
CIRCLE
8
DRILL_5_D12
10
107.700000
20
47.000000
30
0.000000
40
2.500000
0
CIRCLE
8
DRILL_5_D12
10
75.700000
20
47.000000
30
0.000000
40
2.500000
0
CIRCLE
8
DRILL_4.5_THRU
10
1987.300000
20
638.000000
30
0.000000
40
2.250000
0
CIRCLE
8
DRILL_4.5_THRU
10
1987.300000
20
760.500000
30
0.000000
40
2.250000
0
CIRCLE
8
DRILL_4.5_THRU
10
1987.300000
20
883.000000
30
0.000000
40
2.250000
0
CIRCLE
8
DRILL_4.5_THRU
10
1987.300000
20
1005.500000
30
0.000000
40
2.250000
0
CIRCLE
8
DRILL_4.5_THRU
10
1987.300000
20
1128.000000
30
0.000000
40
2.250000
0
CIRCLE
8
DRILL_4.5_THRU
10
2071.200000
20
1119.100000
30
0.000000
40
2.250000
0
CIRCLE
8
DRILL_4.5_THRU
10
2021.200000
20
1119.100000
30
0.000000
40
2.250000
0
CIRCLE
8
DRILL_4.5_THRU
10
1656.933333
20
649.900000
30
0.000000
40
2.250000
0
CIRCLE
8
DRILL_4.5_THRU
10
1656.933333
20
769.425000
30
0.000000
40
2.250000
0
CIRCLE
8
DRILL_4.5_THRU
10
1656.933333
20
888.950000
30
0.000000
40
2.250000
0
CIRCLE
8
DRILL_4.5_THRU
10
1656.933333
20
1008.475000
30
0.000000
40
2.250000
0
CIRCLE
8
DRILL_4.5_THRU
10
1656.933333
20
1128.000000
30
0.000000
40
2.250000
0
CIRCLE
8
DRILL_4.5_THRU
10
1326.566667
20
649.900000
30
0.000000
40
2.250000
0
CIRCLE
8
DRILL_4.5_THRU
10
1326.566667
20
769.425000
30
0.000000
40
2.250000
0
CIRCLE
8
DRILL_4.5_THRU
10
1326.566667
20
888.950000
30
0.000000
40
2.250000
0
CIRCLE
8
DRILL_4.5_THRU
10
1326.566667
20
1008.475000
30
0.000000
40
2.250000
0
CIRCLE
8
DRILL_4.5_THRU
10
1326.566667
20
1128.000000
30
0.000000
40
2.250000
0
CIRCLE
8
DRILL_4.5_THRU
10
996.200000
20
649.900000
30
0.000000
40
2.250000
0
CIRCLE
8
DRILL_4.5_THRU
10
996.200000
20
769.425000
30
0.000000
40
2.250000
0
CIRCLE
8
DRILL_4.5_THRU
10
996.200000
20
888.950000
30
0.000000
40
2.250000
0
CIRCLE
8
DRILL_4.5_THRU
10
996.200000
20
1008.475000
30
0.000000
40
2.250000
0
CIRCLE
8
DRILL_4.5_THRU
10
996.200000
20
1128.000000
30
0.000000
40
2.250000
0
CIRCLE
8
DRILL_4.5_THRU
10
665.833333
20
649.900000
30
0.000000
40
2.250000
0
CIRCLE
8
DRILL_4.5_THRU
10
665.833333
20
769.425000
30
0.000000
40
2.250000
0
CIRCLE
8
DRILL_4.5_THRU
10
665.833333
20
888.950000
30
0.000000
40
2.250000
0
CIRCLE
8
DRILL_4.5_THRU
10
665.833333
20
1008.475000
30
0.000000
40
2.250000
0
CIRCLE
8
DRILL_4.5_THRU
10
665.833333
20
1128.000000
30
0.000000
40
2.250000
0
CIRCLE
8
DRILL_4.5_THRU
10
335.466667
20
649.900000
30
0.000000
40
2.250000
0
CIRCLE
8
DRILL_4.5_THRU
10
335.466667
20
769.425000
30
0.000000
40
2.250000
0
CIRCLE
8
DRILL_4.5_THRU
10
335.466667
20
888.950000
30
0.000000
40
2.250000
0
CIRCLE
8
DRILL_4.5_THRU
10
335.466667
20
1008.475000
30
0.000000
40
2.250000
0
CIRCLE
8
DRILL_4.5_THRU
10
335.466667
20
1128.000000
30
0.000000
40
2.250000
0
CIRCLE
8
DRILL_5_D12
10
1934.500000
20
1141.000000
30
0.000000
40
2.500000
0
CIRCLE
8
DRILL_5_D12
10
1902.500000
20
1141.000000
30
0.000000
40
2.500000
0
CIRCLE
8
DRILL_5_D12
10
1325.566667
20
1141.000000
30
0.000000
40
2.500000
0
CIRCLE
8
DRILL_5_D12
10
1293.566667
20
1141.000000
30
0.000000
40
2.500000
0
CIRCLE
8
DRILL_5_D12
10
716.633333
20
1141.000000
30
0.000000
40
2.500000
0
CIRCLE
8
DRILL_5_D12
10
684.633333
20
1141.000000
30
0.000000
40
2.500000
0
CIRCLE
8
DRILL_5_D12
10
107.700000
20
1141.000000
30
0.000000
40
2.500000
0
CIRCLE
8
DRILL_5_D12
10
75.700000
20
1141.000000
30
0.000000
40
2.500000
0
TEXT
8
LABEL
10
2084.200000
20
22.000000
30
0.000000
40
8.000000
1
C1-B-SIDE-L
0
TEXT
8
LABEL
10
2084.200000
20
610.000000
30
0.000000
40
8.000000
1
C1-B-SIDE-R
0
ENDSEC
0
EOF
