0
SECTION
2
HEADER
9
$ACADVER
1
AC1009
9
$INSUNITS
70
4.000000
9
$MEASUREMENT
70
1.000000
0
ENDSEC
0
SECTION
2
TABLES
0
TABLE
2
LAYER
70
5.000000
0
LAYER
2
DRILL_4.5_THRU
70
0.000000
62
5.000000
6
CONTINUOUS
0
LAYER
2
LABEL
70
0.000000
62
8.000000
6
CONTINUOUS
0
LAYER
2
OUTLINE
70
0.000000
62
7.000000
6
CONTINUOUS
0
LAYER
2
POCKET_D6
70
0.000000
62
3.000000
6
CONTINUOUS
0
LAYER
2
TILE_REG
70
0.000000
62
6.000000
6
CONTINUOUS
0
ENDTAB
0
ENDSEC
0
SECTION
2
ENTITIES
0
POLYLINE
8
OUTLINE
66
1.000000
70
1.000000
10
0.000000
20
0.000000
30
0.000000
0
VERTEX
8
OUTLINE
10
0.000000
20
10.000000
30
0.000000
0
VERTEX
8
OUTLINE
10
36.200000
20
10.000000
30
0.000000
0
VERTEX
8
OUTLINE
10
36.200000
20
60.000000
30
0.000000
0
VERTEX
8
OUTLINE
10
136.200000
20
60.000000
30
0.000000
0
VERTEX
8
OUTLINE
10
136.200000
20
590.000000
30
0.000000
0
VERTEX
8
OUTLINE
10
0.000000
20
590.000000
30
0.000000
0
SEQEND
8
OUTLINE
0
POLYLINE
8
POCKET_D6
66
1.000000
70
1.000000
10
0.000000
20
0.000000
30
0.000000
0
VERTEX
8
POCKET_D6
10
36.275000
20
20.000000
30
0.000000
0
VERTEX
8
POCKET_D6
10
36.275000
20
590.000000
30
0.000000
0
VERTEX
8
POCKET_D6
10
18.325000
20
590.000000
30
0.000000
0
VERTEX
8
POCKET_D6
10
18.325000
20
20.000000
30
0.000000
0
SEQEND
8
POCKET_D6
0
POLYLINE
8
POCKET_D6
66
1.000000
70
1.000000
10
0.000000
20
0.000000
30
0.000000
0
VERTEX
8
POCKET_D6
10
136.200000
20
59.925000
30
0.000000
0
VERTEX
8
POCKET_D6
10
136.200000
20
77.875000
30
0.000000
0
VERTEX
8
POCKET_D6
10
36.200000
20
77.875000
30
0.000000
0
VERTEX
8
POCKET_D6
10
36.200000
20
59.925000
30
0.000000
0
SEQEND
8
POCKET_D6
0
POLYLINE
8
POCKET_D6
66
1.000000
70
1.000000
10
0.000000
20
0.000000
30
0.000000
0
VERTEX
8
POCKET_D6
10
0.000000
20
578.025000
30
0.000000
0
VERTEX
8
POCKET_D6
10
18.400000
20
578.025000
30
0.000000
0
VERTEX
8
POCKET_D6
10
18.400000
20
590.075000
30
0.000000
0
VERTEX
8
POCKET_D6
10
0.000000
20
590.075000
30
0.000000
0
SEQEND
8
POCKET_D6
0
POLYLINE
8
OUTLINE
66
1.000000
70
1.000000
10
0.000000
20
0.000000
30
0.000000
0
VERTEX
8
OUTLINE
10
0.000000
20
598.000000
30
0.000000
0
VERTEX
8
OUTLINE
10
136.200000
20
598.000000
30
0.000000
0
VERTEX
8
OUTLINE
10
136.200000
20
1128.000000
30
0.000000
0
VERTEX
8
OUTLINE
10
36.200000
20
1128.000000
30
0.000000
0
VERTEX
8
OUTLINE
10
36.200000
20
1178.000000
30
0.000000
0
VERTEX
8
OUTLINE
10
0.000000
20
1178.000000
30
0.000000
0
SEQEND
8
OUTLINE
0
POLYLINE
8
POCKET_D6
66
1.000000
70
1.000000
10
0.000000
20
0.000000
30
0.000000
0
VERTEX
8
POCKET_D6
10
36.275000
20
598.000000
30
0.000000
0
VERTEX
8
POCKET_D6
10
36.275000
20
1168.000000
30
0.000000
0
VERTEX
8
POCKET_D6
10
18.325000
20
1168.000000
30
0.000000
0
VERTEX
8
POCKET_D6
10
18.325000
20
598.000000
30
0.000000
0
SEQEND
8
POCKET_D6
0
POLYLINE
8
POCKET_D6
66
1.000000
70
1.000000
10
0.000000
20
0.000000
30
0.000000
0
VERTEX
8
POCKET_D6
10
136.200000
20
1110.125000
30
0.000000
0
VERTEX
8
POCKET_D6
10
136.200000
20
1128.075000
30
0.000000
0
VERTEX
8
POCKET_D6
10
36.200000
20
1128.075000
30
0.000000
0
VERTEX
8
POCKET_D6
10
36.200000
20
1110.125000
30
0.000000
0
SEQEND
8
POCKET_D6
0
POLYLINE
8
POCKET_D6
66
1.000000
70
1.000000
10
0.000000
20
0.000000
30
0.000000
0
VERTEX
8
POCKET_D6
10
0.000000
20
597.925000
30
0.000000
0
VERTEX
8
POCKET_D6
10
18.400000
20
597.925000
30
0.000000
0
VERTEX
8
POCKET_D6
10
18.400000
20
609.975000
30
0.000000
0
VERTEX
8
POCKET_D6
10
0.000000
20
609.975000
30
0.000000
0
SEQEND
8
POCKET_D6
0
CIRCLE
8
DRILL_4.5_THRU
10
27.300000
20
60.000000
30
0.000000
40
2.250000
0
CIRCLE
8
DRILL_4.5_THRU
10
27.300000
20
182.500000
30
0.000000
40
2.250000
0
CIRCLE
8
DRILL_4.5_THRU
10
27.300000
20
305.000000
30
0.000000
40
2.250000
0
CIRCLE
8
DRILL_4.5_THRU
10
27.300000
20
427.500000
30
0.000000
40
2.250000
0
CIRCLE
8
DRILL_4.5_THRU
10
27.300000
20
550.000000
30
0.000000
40
2.250000
0
CIRCLE
8
DRILL_4.5_THRU
10
111.200000
20
68.900000
30
0.000000
40
2.250000
0
CIRCLE
8
DRILL_4.5_THRU
10
61.200000
20
68.900000
30
0.000000
40
2.250000
0
CIRCLE
8
DRILL_4.5_THRU
10
27.300000
20
638.000000
30
0.000000
40
2.250000
0
CIRCLE
8
DRILL_4.5_THRU
10
27.300000
20
760.500000
30
0.000000
40
2.250000
0
CIRCLE
8
DRILL_4.5_THRU
10
27.300000
20
883.000000
30
0.000000
40
2.250000
0
CIRCLE
8
DRILL_4.5_THRU
10
27.300000
20
1005.500000
30
0.000000
40
2.250000
0
CIRCLE
8
DRILL_4.5_THRU
10
27.300000
20
1128.000000
30
0.000000
40
2.250000
0
CIRCLE
8
DRILL_4.5_THRU
10
111.200000
20
1119.100000
30
0.000000
40
2.250000
0
CIRCLE
8
DRILL_4.5_THRU
10
61.200000
20
1119.100000
30
0.000000
40
2.250000
0
CIRCLE
8
TILE_REG
10
0.000000
20
6.000000
30
0.000000
40
3.000000
0
CIRCLE
8
TILE_REG
10
0.000000
20
1214.000000
30
0.000000
40
3.000000
0
TEXT
8
LABEL
10
124.200000
20
22.000000
30
0.000000
40
8.000000
1
C1-B-SIDE-L
0
TEXT
8
LABEL
10
124.200000
20
610.000000
30
0.000000
40
8.000000
1
C1-B-SIDE-R
0
ENDSEC
0
EOF
