0
SECTION
2
HEADER
9
$ACADVER
1
AC1009
9
$INSUNITS
70
4.000000
9
$MEASUREMENT
70
1.000000
0
ENDSEC
0
SECTION
2
TABLES
0
TABLE
2
LAYER
70
7.000000
0
LAYER
2
DRILL_4.5_THRU
70
0.000000
62
5.000000
6
CONTINUOUS
0
LAYER
2
DRILL_5_D12
70
0.000000
62
5.000000
6
CONTINUOUS
0
LAYER
2
LABEL
70
0.000000
62
8.000000
6
CONTINUOUS
0
LAYER
2
OUTLINE
70
0.000000
62
7.000000
6
CONTINUOUS
0
LAYER
2
POCKET_D6
70
0.000000
62
3.000000
6
CONTINUOUS
0
LAYER
2
POCKET_D6_FLIP
70
0.000000
62
3.000000
6
CONTINUOUS
0
LAYER
2
TILE_REG
70
0.000000
62
6.000000
6
CONTINUOUS
0
ENDTAB
0
ENDSEC
0
SECTION
2
ENTITIES
0
POLYLINE
8
OUTLINE
66
1.000000
70
1.000000
10
0.000000
20
0.000000
30
0.000000
0
VERTEX
8
OUTLINE
10
0.000000
20
23.150000
30
0.000000
0
VERTEX
8
OUTLINE
10
6.000000
20
23.150000
30
0.000000
0
VERTEX
8
OUTLINE
10
6.000000
20
10.000000
30
0.000000
0
VERTEX
8
OUTLINE
10
870.400000
20
10.000000
30
0.000000
0
VERTEX
8
OUTLINE
10
870.400000
20
23.150000
30
0.000000
0
VERTEX
8
OUTLINE
10
876.400000
20
23.150000
30
0.000000
0
VERTEX
8
OUTLINE
10
876.400000
20
610.000000
30
0.000000
0
VERTEX
8
OUTLINE
10
0.000000
20
610.000000
30
0.000000
0
SEQEND
8
OUTLINE
0
POLYLINE
8
POCKET_D6
66
1.000000
70
1.000000
10
0.000000
20
0.000000
30
0.000000
0
VERTEX
8
POCKET_D6
10
429.225000
20
20.000000
30
0.000000
0
VERTEX
8
POCKET_D6
10
447.175000
20
20.000000
30
0.000000
0
VERTEX
8
POCKET_D6
10
447.175000
20
586.100000
30
0.000000
0
VERTEX
8
POCKET_D6
10
429.225000
20
586.100000
30
0.000000
0
SEQEND
8
POCKET_D6
0
POLYLINE
8
POCKET_D6
66
1.000000
70
1.000000
10
0.000000
20
0.000000
30
0.000000
0
VERTEX
8
POCKET_D6
10
0.000000
20
586.025000
30
0.000000
0
VERTEX
8
POCKET_D6
10
876.400000
20
586.025000
30
0.000000
0
VERTEX
8
POCKET_D6
10
876.400000
20
598.075000
30
0.000000
0
VERTEX
8
POCKET_D6
10
0.000000
20
598.075000
30
0.000000
0
SEQEND
8
POCKET_D6
0
POLYLINE
8
OUTLINE
66
1.000000
70
1.000000
10
0.000000
20
0.000000
30
0.000000
0
VERTEX
8
OUTLINE
10
0.000000
20
618.000000
30
0.000000
0
VERTEX
8
OUTLINE
10
130.000000
20
618.000000
30
0.000000
0
VERTEX
8
OUTLINE
10
130.000000
20
1018.000000
30
0.000000
0
VERTEX
8
OUTLINE
10
0.000000
20
1018.000000
30
0.000000
0
SEQEND
8
OUTLINE
0
POLYLINE
8
POCKET_D6
66
1.000000
70
1.000000
10
0.000000
20
0.000000
30
0.000000
0
VERTEX
8
POCKET_D6
10
130.075000
20
618.000000
30
0.000000
0
VERTEX
8
POCKET_D6
10
130.075000
20
1008.000000
30
0.000000
0
VERTEX
8
POCKET_D6
10
112.125000
20
1008.000000
30
0.000000
0
VERTEX
8
POCKET_D6
10
112.125000
20
618.000000
30
0.000000
0
SEQEND
8
POCKET_D6
0
POLYLINE
8
POCKET_D6
66
1.000000
70
1.000000
10
0.000000
20
0.000000
30
0.000000
0
VERTEX
8
POCKET_D6
10
0.000000
20
629.925000
30
0.000000
0
VERTEX
8
POCKET_D6
10
112.200000
20
629.925000
30
0.000000
0
VERTEX
8
POCKET_D6
10
112.200000
20
641.975000
30
0.000000
0
VERTEX
8
POCKET_D6
10
0.000000
20
641.975000
30
0.000000
0
SEQEND
8
POCKET_D6
0
POLYLINE
8
OUTLINE
66
1.000000
70
1.000000
10
0.000000
20
0.000000
30
0.000000
0
VERTEX
8
OUTLINE
10
980.000000
20
618.000000
30
0.000000
0
VERTEX
8
OUTLINE
10
980.000000
20
994.100000
30
0.000000
0
VERTEX
8
OUTLINE
10
138.000000
20
994.100000
30
0.000000
0
VERTEX
8
OUTLINE
10
138.000000
20
631.150000
30
0.000000
0
VERTEX
8
OUTLINE
10
144.000000
20
631.150000
30
0.000000
0
VERTEX
8
OUTLINE
10
144.000000
20
618.000000
30
0.000000
0
SEQEND
8
OUTLINE
0
POLYLINE
8
POCKET_D6_FLIP
66
1.000000
70
1.000000
10
0.000000
20
0.000000
30
0.000000
0
VERTEX
8
POCKET_D6_FLIP
10
119.485000
20
628.000000
30
0.000000
0
VERTEX
8
POCKET_D6_FLIP
10
119.485000
20
994.100000
30
0.000000
0
VERTEX
8
POCKET_D6_FLIP
10
137.435000
20
994.100000
30
0.000000
0
VERTEX
8
POCKET_D6_FLIP
10
137.435000
20
628.000000
30
0.000000
0
SEQEND
8
POCKET_D6_FLIP
0
CIRCLE
8
DRILL_4.5_THRU
10
438.200000
20
60.000000
30
0.000000
40
2.250000
0
CIRCLE
8
DRILL_4.5_THRU
10
438.200000
20
181.525000
30
0.000000
40
2.250000
0
CIRCLE
8
DRILL_4.5_THRU
10
438.200000
20
303.050000
30
0.000000
40
2.250000
0
CIRCLE
8
DRILL_4.5_THRU
10
438.200000
20
424.575000
30
0.000000
40
2.250000
0
CIRCLE
8
DRILL_4.5_THRU
10
438.200000
20
546.100000
30
0.000000
40
2.250000
0
CIRCLE
8
DRILL_4.5_THRU
10
121.100000
20
658.000000
30
0.000000
40
2.250000
0
CIRCLE
8
DRILL_4.5_THRU
10
121.100000
20
761.333333
30
0.000000
40
2.250000
0
CIRCLE
8
DRILL_4.5_THRU
10
121.100000
20
864.666667
30
0.000000
40
2.250000
0
CIRCLE
8
DRILL_4.5_THRU
10
121.100000
20
968.000000
30
0.000000
40
2.250000
0
CIRCLE
8
DRILL_4.5_THRU
10
784.420000
20
668.000000
30
0.000000
40
2.250000
0
CIRCLE
8
DRILL_4.5_THRU
10
784.420000
20
811.050000
30
0.000000
40
2.250000
0
CIRCLE
8
DRILL_4.5_THRU
10
784.420000
20
954.100000
30
0.000000
40
2.250000
0
CIRCLE
8
DRILL_4.5_THRU
10
567.980000
20
668.000000
30
0.000000
40
2.250000
0
CIRCLE
8
DRILL_4.5_THRU
10
567.980000
20
811.050000
30
0.000000
40
2.250000
0
CIRCLE
8
DRILL_4.5_THRU
10
567.980000
20
954.100000
30
0.000000
40
2.250000
0
CIRCLE
8
DRILL_4.5_THRU
10
351.540000
20
668.000000
30
0.000000
40
2.250000
0
CIRCLE
8
DRILL_4.5_THRU
10
351.540000
20
811.050000
30
0.000000
40
2.250000
0
CIRCLE
8
DRILL_4.5_THRU
10
351.540000
20
954.100000
30
0.000000
40
2.250000
0
CIRCLE
8
DRILL_5_D12
10
952.400000
20
655.000000
30
0.000000
40
2.500000
0
CIRCLE
8
DRILL_5_D12
10
952.400000
20
957.100000
30
0.000000
40
2.500000
0
CIRCLE
8
DRILL_5_D12
10
920.400000
20
655.000000
30
0.000000
40
2.500000
0
CIRCLE
8
DRILL_5_D12
10
920.400000
20
957.100000
30
0.000000
40
2.500000
0
CIRCLE
8
DRILL_5_D12
10
888.400000
20
655.000000
30
0.000000
40
2.500000
0
CIRCLE
8
DRILL_5_D12
10
888.400000
20
957.100000
30
0.000000
40
2.500000
0
CIRCLE
8
DRILL_5_D12
10
856.400000
20
655.000000
30
0.000000
40
2.500000
0
CIRCLE
8
DRILL_5_D12
10
856.400000
20
957.100000
30
0.000000
40
2.500000
0
CIRCLE
8
DRILL_5_D12
10
824.400000
20
655.000000
30
0.000000
40
2.500000
0
CIRCLE
8
DRILL_5_D12
10
824.400000
20
957.100000
30
0.000000
40
2.500000
0
CIRCLE
8
DRILL_5_D12
10
792.400000
20
655.000000
30
0.000000
40
2.500000
0
CIRCLE
8
DRILL_5_D12
10
792.400000
20
957.100000
30
0.000000
40
2.500000
0
CIRCLE
8
DRILL_5_D12
10
760.400000
20
655.000000
30
0.000000
40
2.500000
0
CIRCLE
8
DRILL_5_D12
10
760.400000
20
957.100000
30
0.000000
40
2.500000
0
CIRCLE
8
DRILL_5_D12
10
728.400000
20
655.000000
30
0.000000
40
2.500000
0
CIRCLE
8
DRILL_5_D12
10
728.400000
20
957.100000
30
0.000000
40
2.500000
0
CIRCLE
8
DRILL_5_D12
10
696.400000
20
655.000000
30
0.000000
40
2.500000
0
CIRCLE
8
DRILL_5_D12
10
696.400000
20
957.100000
30
0.000000
40
2.500000
0
CIRCLE
8
DRILL_5_D12
10
664.400000
20
655.000000
30
0.000000
40
2.500000
0
CIRCLE
8
DRILL_5_D12
10
664.400000
20
957.100000
30
0.000000
40
2.500000
0
CIRCLE
8
DRILL_5_D12
10
632.400000
20
655.000000
30
0.000000
40
2.500000
0
CIRCLE
8
DRILL_5_D12
10
632.400000
20
957.100000
30
0.000000
40
2.500000
0
CIRCLE
8
DRILL_5_D12
10
600.400000
20
655.000000
30
0.000000
40
2.500000
0
CIRCLE
8
DRILL_5_D12
10
600.400000
20
957.100000
30
0.000000
40
2.500000
0
CIRCLE
8
DRILL_5_D12
10
568.400000
20
655.000000
30
0.000000
40
2.500000
0
CIRCLE
8
DRILL_5_D12
10
568.400000
20
957.100000
30
0.000000
40
2.500000
0
CIRCLE
8
DRILL_5_D12
10
536.400000
20
655.000000
30
0.000000
40
2.500000
0
CIRCLE
8
DRILL_5_D12
10
536.400000
20
957.100000
30
0.000000
40
2.500000
0
CIRCLE
8
DRILL_5_D12
10
504.400000
20
655.000000
30
0.000000
40
2.500000
0
CIRCLE
8
DRILL_5_D12
10
504.400000
20
957.100000
30
0.000000
40
2.500000
0
CIRCLE
8
DRILL_5_D12
10
472.400000
20
655.000000
30
0.000000
40
2.500000
0
CIRCLE
8
DRILL_5_D12
10
472.400000
20
957.100000
30
0.000000
40
2.500000
0
CIRCLE
8
DRILL_5_D12
10
440.400000
20
655.000000
30
0.000000
40
2.500000
0
CIRCLE
8
DRILL_5_D12
10
440.400000
20
957.100000
30
0.000000
40
2.500000
0
CIRCLE
8
DRILL_5_D12
10
408.400000
20
655.000000
30
0.000000
40
2.500000
0
CIRCLE
8
DRILL_5_D12
10
408.400000
20
957.100000
30
0.000000
40
2.500000
0
CIRCLE
8
DRILL_5_D12
10
376.400000
20
655.000000
30
0.000000
40
2.500000
0
CIRCLE
8
DRILL_5_D12
10
376.400000
20
957.100000
30
0.000000
40
2.500000
0
CIRCLE
8
DRILL_5_D12
10
344.400000
20
655.000000
30
0.000000
40
2.500000
0
CIRCLE
8
DRILL_5_D12
10
344.400000
20
957.100000
30
0.000000
40
2.500000
0
CIRCLE
8
DRILL_5_D12
10
312.400000
20
655.000000
30
0.000000
40
2.500000
0
CIRCLE
8
DRILL_5_D12
10
312.400000
20
957.100000
30
0.000000
40
2.500000
0
CIRCLE
8
DRILL_5_D12
10
280.400000
20
655.000000
30
0.000000
40
2.500000
0
CIRCLE
8
DRILL_5_D12
10
280.400000
20
957.100000
30
0.000000
40
2.500000
0
CIRCLE
8
DRILL_5_D12
10
248.400000
20
655.000000
30
0.000000
40
2.500000
0
CIRCLE
8
DRILL_5_D12
10
248.400000
20
957.100000
30
0.000000
40
2.500000
0
CIRCLE
8
TILE_REG
10
0.000000
20
6.000000
30
0.000000
40
3.000000
0
CIRCLE
8
TILE_REG
10
0.000000
20
1214.000000
30
0.000000
40
3.000000
0
CIRCLE
8
TILE_REG
10
980.000000
20
6.000000
30
0.000000
40
3.000000
0
CIRCLE
8
TILE_REG
10
980.000000
20
1214.000000
30
0.000000
40
3.000000
0
TEXT
8
LABEL
10
12.000000
20
22.000000
30
0.000000
40
8.000000
1
C1-B-BOTTOM
0
TEXT
8
LABEL
10
118.000000
20
630.000000
30
0.000000
40
8.000000
1
C1-T-SIDE-R
0
ENDSEC
0
EOF
