0
SECTION
2
HEADER
9
$ACADVER
1
AC1009
9
$INSUNITS
70
4.000000
9
$MEASUREMENT
70
1.000000
0
ENDSEC
0
SECTION
2
TABLES
0
TABLE
2
LAYER
70
7.000000
0
LAYER
2
DRILL_4.5_THRU
70
0.000000
62
5.000000
6
CONTINUOUS
0
LAYER
2
DRILL_8_D12
70
0.000000
62
5.000000
6
CONTINUOUS
0
LAYER
2
LABEL
70
0.000000
62
8.000000
6
CONTINUOUS
0
LAYER
2
OUTLINE
70
0.000000
62
7.000000
6
CONTINUOUS
0
LAYER
2
POCKET_D13
70
0.000000
62
3.000000
6
CONTINUOUS
0
LAYER
2
POCKET_D6
70
0.000000
62
3.000000
6
CONTINUOUS
0
LAYER
2
SHEET
70
0.000000
62
8.000000
6
CONTINUOUS
0
ENDTAB
0
ENDSEC
0
SECTION
2
ENTITIES
0
POLYLINE
8
SHEET
66
1.000000
70
1.000000
10
0.000000
20
0.000000
30
0.000000
0
VERTEX
8
SHEET
10
0.000000
20
0.000000
30
0.000000
0
VERTEX
8
SHEET
10
2440.000000
20
0.000000
30
0.000000
0
VERTEX
8
SHEET
10
2440.000000
20
1220.000000
30
0.000000
0
VERTEX
8
SHEET
10
0.000000
20
1220.000000
30
0.000000
0
SEQEND
8
SHEET
0
POLYLINE
8
OUTLINE
66
1.000000
70
1.000000
10
0.000000
20
0.000000
30
0.000000
0
VERTEX
8
OUTLINE
10
10.000000
20
23.150000
30
0.000000
0
VERTEX
8
OUTLINE
10
16.000000
20
23.150000
30
0.000000
0
VERTEX
8
OUTLINE
10
16.000000
20
10.000000
30
0.000000
0
VERTEX
8
OUTLINE
10
880.400000
20
10.000000
30
0.000000
0
VERTEX
8
OUTLINE
10
880.400000
20
23.150000
30
0.000000
0
VERTEX
8
OUTLINE
10
886.400000
20
23.150000
30
0.000000
0
VERTEX
8
OUTLINE
10
886.400000
20
410.000000
30
0.000000
0
VERTEX
8
OUTLINE
10
10.000000
20
410.000000
30
0.000000
0
SEQEND
8
OUTLINE
0
POLYLINE
8
POCKET_D6
66
1.000000
70
1.000000
10
0.000000
20
0.000000
30
0.000000
0
VERTEX
8
POCKET_D6
10
439.225000
20
20.000000
30
0.000000
0
VERTEX
8
POCKET_D6
10
457.175000
20
20.000000
30
0.000000
0
VERTEX
8
POCKET_D6
10
457.175000
20
386.100000
30
0.000000
0
VERTEX
8
POCKET_D6
10
439.225000
20
386.100000
30
0.000000
0
SEQEND
8
POCKET_D6
0
POLYLINE
8
POCKET_D6
66
1.000000
70
1.000000
10
0.000000
20
0.000000
30
0.000000
0
VERTEX
8
POCKET_D6
10
10.000000
20
386.025000
30
0.000000
0
VERTEX
8
POCKET_D6
10
886.400000
20
386.025000
30
0.000000
0
VERTEX
8
POCKET_D6
10
886.400000
20
398.075000
30
0.000000
0
VERTEX
8
POCKET_D6
10
10.000000
20
398.075000
30
0.000000
0
SEQEND
8
POCKET_D6
0
POLYLINE
8
OUTLINE
66
1.000000
70
1.000000
10
0.000000
20
0.000000
30
0.000000
0
VERTEX
8
OUTLINE
10
10.000000
20
431.150000
30
0.000000
0
VERTEX
8
OUTLINE
10
16.000000
20
431.150000
30
0.000000
0
VERTEX
8
OUTLINE
10
16.000000
20
418.000000
30
0.000000
0
VERTEX
8
OUTLINE
10
880.400000
20
418.000000
30
0.000000
0
VERTEX
8
OUTLINE
10
880.400000
20
431.150000
30
0.000000
0
VERTEX
8
OUTLINE
10
886.400000
20
431.150000
30
0.000000
0
VERTEX
8
OUTLINE
10
886.400000
20
818.000000
30
0.000000
0
VERTEX
8
OUTLINE
10
10.000000
20
818.000000
30
0.000000
0
SEQEND
8
OUTLINE
0
POLYLINE
8
POCKET_D6
66
1.000000
70
1.000000
10
0.000000
20
0.000000
30
0.000000
0
VERTEX
8
POCKET_D6
10
439.225000
20
428.000000
30
0.000000
0
VERTEX
8
POCKET_D6
10
457.175000
20
428.000000
30
0.000000
0
VERTEX
8
POCKET_D6
10
457.175000
20
794.100000
30
0.000000
0
VERTEX
8
POCKET_D6
10
439.225000
20
794.100000
30
0.000000
0
SEQEND
8
POCKET_D6
0
POLYLINE
8
POCKET_D6
66
1.000000
70
1.000000
10
0.000000
20
0.000000
30
0.000000
0
VERTEX
8
POCKET_D6
10
10.000000
20
794.025000
30
0.000000
0
VERTEX
8
POCKET_D6
10
886.400000
20
794.025000
30
0.000000
0
VERTEX
8
POCKET_D6
10
886.400000
20
806.075000
30
0.000000
0
VERTEX
8
POCKET_D6
10
10.000000
20
806.075000
30
0.000000
0
SEQEND
8
POCKET_D6
0
POLYLINE
8
OUTLINE
66
1.000000
70
1.000000
10
0.000000
20
0.000000
30
0.000000
0
VERTEX
8
OUTLINE
10
1759.200000
20
10.000000
30
0.000000
0
VERTEX
8
OUTLINE
10
1759.200000
20
457.000000
30
0.000000
0
VERTEX
8
OUTLINE
10
980.000000
20
457.000000
30
0.000000
0
VERTEX
8
OUTLINE
10
980.000000
20
10.000000
30
0.000000
0
SEQEND
8
OUTLINE
0
POLYLINE
8
POCKET_D13
66
1.000000
70
1.000000
10
0.000000
20
0.000000
30
0.000000
0
VERTEX
8
POCKET_D13
10
1683.000000
20
417.000000
30
0.000000
42
1.000000
0
VERTEX
8
POCKET_D13
10
1683.000000
20
452.000000
30
0.000000
42
1.000000
0
SEQEND
8
POCKET_D13
0
POLYLINE
8
POCKET_D13
66
1.000000
70
1.000000
10
0.000000
20
0.000000
30
0.000000
0
VERTEX
8
POCKET_D13
10
1056.200000
20
417.000000
30
0.000000
42
1.000000
0
VERTEX
8
POCKET_D13
10
1056.200000
20
452.000000
30
0.000000
42
1.000000
0
SEQEND
8
POCKET_D13
0
POLYLINE
8
OUTLINE
66
1.000000
70
1.000000
10
0.000000
20
0.000000
30
0.000000
0
VERTEX
8
OUTLINE
10
1759.200000
20
465.000000
30
0.000000
0
VERTEX
8
OUTLINE
10
1759.200000
20
912.000000
30
0.000000
0
VERTEX
8
OUTLINE
10
980.000000
20
912.000000
30
0.000000
0
VERTEX
8
OUTLINE
10
980.000000
20
465.000000
30
0.000000
0
SEQEND
8
OUTLINE
0
POLYLINE
8
POCKET_D13
66
1.000000
70
1.000000
10
0.000000
20
0.000000
30
0.000000
0
VERTEX
8
POCKET_D13
10
1683.000000
20
470.000000
30
0.000000
42
1.000000
0
VERTEX
8
POCKET_D13
10
1683.000000
20
505.000000
30
0.000000
42
1.000000
0
SEQEND
8
POCKET_D13
0
POLYLINE
8
POCKET_D13
66
1.000000
70
1.000000
10
0.000000
20
0.000000
30
0.000000
0
VERTEX
8
POCKET_D13
10
1056.200000
20
470.000000
30
0.000000
42
1.000000
0
VERTEX
8
POCKET_D13
10
1056.200000
20
505.000000
30
0.000000
42
1.000000
0
SEQEND
8
POCKET_D13
0
POLYLINE
8
OUTLINE
66
1.000000
70
1.000000
10
0.000000
20
0.000000
30
0.000000
0
VERTEX
8
OUTLINE
10
1960.000000
20
23.150000
30
0.000000
0
VERTEX
8
OUTLINE
10
1966.000000
20
23.150000
30
0.000000
0
VERTEX
8
OUTLINE
10
1966.000000
20
10.000000
30
0.000000
0
VERTEX
8
OUTLINE
10
2389.300000
20
10.000000
30
0.000000
0
VERTEX
8
OUTLINE
10
2389.300000
20
23.150000
30
0.000000
0
VERTEX
8
OUTLINE
10
2395.300000
20
23.150000
30
0.000000
0
VERTEX
8
OUTLINE
10
2395.300000
20
386.100000
30
0.000000
0
VERTEX
8
OUTLINE
10
1960.000000
20
386.100000
30
0.000000
0
SEQEND
8
OUTLINE
0
POLYLINE
8
OUTLINE
66
1.000000
70
1.000000
10
0.000000
20
0.000000
30
0.000000
0
VERTEX
8
OUTLINE
10
1960.000000
20
407.250000
30
0.000000
0
VERTEX
8
OUTLINE
10
1966.000000
20
407.250000
30
0.000000
0
VERTEX
8
OUTLINE
10
1966.000000
20
394.100000
30
0.000000
0
VERTEX
8
OUTLINE
10
2389.300000
20
394.100000
30
0.000000
0
VERTEX
8
OUTLINE
10
2389.300000
20
407.250000
30
0.000000
0
VERTEX
8
OUTLINE
10
2395.300000
20
407.250000
30
0.000000
0
VERTEX
8
OUTLINE
10
2395.300000
20
770.200000
30
0.000000
0
VERTEX
8
OUTLINE
10
1960.000000
20
770.200000
30
0.000000
0
SEQEND
8
OUTLINE
0
POLYLINE
8
OUTLINE
66
1.000000
70
1.000000
10
0.000000
20
0.000000
30
0.000000
0
VERTEX
8
OUTLINE
10
10.000000
20
826.000000
30
0.000000
0
VERTEX
8
OUTLINE
10
431.300000
20
826.000000
30
0.000000
0
VERTEX
8
OUTLINE
10
431.300000
20
1200.100000
30
0.000000
0
VERTEX
8
OUTLINE
10
10.000000
20
1200.100000
30
0.000000
0
SEQEND
8
OUTLINE
0
CIRCLE
8
DRILL_4.5_THRU
10
448.200000
20
60.000000
30
0.000000
40
2.250000
0
CIRCLE
8
DRILL_4.5_THRU
10
448.200000
20
203.050000
30
0.000000
40
2.250000
0
CIRCLE
8
DRILL_4.5_THRU
10
448.200000
20
346.100000
30
0.000000
40
2.250000
0
CIRCLE
8
DRILL_4.5_THRU
10
448.200000
20
468.000000
30
0.000000
40
2.250000
0
CIRCLE
8
DRILL_4.5_THRU
10
448.200000
20
611.050000
30
0.000000
40
2.250000
0
CIRCLE
8
DRILL_4.5_THRU
10
448.200000
20
754.100000
30
0.000000
40
2.250000
0
CIRCLE
8
DRILL_8_D12
10
1705.500000
20
425.000000
30
0.000000
40
4.000000
0
CIRCLE
8
DRILL_8_D12
10
1660.500000
20
425.000000
30
0.000000
40
4.000000
0
CIRCLE
8
DRILL_8_D12
10
1078.700000
20
425.000000
30
0.000000
40
4.000000
0
CIRCLE
8
DRILL_8_D12
10
1033.700000
20
425.000000
30
0.000000
40
4.000000
0
CIRCLE
8
DRILL_8_D12
10
1705.500000
20
497.000000
30
0.000000
40
4.000000
0
CIRCLE
8
DRILL_8_D12
10
1660.500000
20
497.000000
30
0.000000
40
4.000000
0
CIRCLE
8
DRILL_8_D12
10
1078.700000
20
497.000000
30
0.000000
40
4.000000
0
CIRCLE
8
DRILL_8_D12
10
1033.700000
20
497.000000
30
0.000000
40
4.000000
0
TEXT
8
LABEL
10
22.000000
20
22.000000
30
0.000000
40
8.000000
1
C1-T-BOTTOM
0
TEXT
8
LABEL
10
22.000000
20
430.000000
30
0.000000
40
8.000000
1
C1-T-TOP
0
TEXT
8
LABEL
10
1747.200000
20
22.000000
30
0.000000
40
8.000000
1
C1-B-DOOR-1
0
TEXT
8
LABEL
10
1747.200000
20
477.000000
30
0.000000
40
8.000000
1
C1-B-DOOR-2
0
TEXT
8
LABEL
10
1972.000000
20
22.000000
30
0.000000
40
8.000000
1
C1-T-SHELF-1-3
0
TEXT
8
LABEL
10
1972.000000
20
406.100000
30
0.000000
40
8.000000
1
C1-T-SHELF-1-4
0
TEXT
8
LABEL
10
22.000000
20
838.000000
30
0.000000
40
8.000000
1
C1-T-SHELF-ADJ-2
0
ENDSEC
0
EOF
