0
SECTION
2
HEADER
9
$ACADVER
1
AC1009
9
$INSUNITS
70
4.000000
9
$MEASUREMENT
70
1.000000
0
ENDSEC
0
SECTION
2
TABLES
0
TABLE
2
LAYER
70
7.000000
0
LAYER
2
DRILL_4.5_THRU
70
0.000000
62
5.000000
6
CONTINUOUS
0
LAYER
2
DRILL_5_D12
70
0.000000
62
5.000000
6
CONTINUOUS
0
LAYER
2
LABEL
70
0.000000
62
8.000000
6
CONTINUOUS
0
LAYER
2
OUTLINE
70
0.000000
62
7.000000
6
CONTINUOUS
0
LAYER
2
POCKET_D4
70
0.000000
62
3.000000
6
CONTINUOUS
0
LAYER
2
POCKET_D6
70
0.000000
62
3.000000
6
CONTINUOUS
0
LAYER
2
SHEET
70
0.000000
62
8.000000
6
CONTINUOUS
0
ENDTAB
0
ENDSEC
0
SECTION
2
ENTITIES
0
POLYLINE
8
SHEET
66
1.000000
70
1.000000
10
0.000000
20
0.000000
30
0.000000
0
VERTEX
8
SHEET
10
0.000000
20
0.000000
30
0.000000
0
VERTEX
8
SHEET
10
2440.000000
20
0.000000
30
0.000000
0
VERTEX
8
SHEET
10
2440.000000
20
1220.000000
30
0.000000
0
VERTEX
8
SHEET
10
0.000000
20
1220.000000
30
0.000000
0
SEQEND
8
SHEET
0
POLYLINE
8
OUTLINE
66
1.000000
70
1.000000
10
0.000000
20
0.000000
30
0.000000
0
VERTEX
8
OUTLINE
10
10.000000
20
10.000000
30
0.000000
0
VERTEX
8
OUTLINE
10
910.000000
20
10.000000
30
0.000000
0
VERTEX
8
OUTLINE
10
910.000000
20
610.000000
30
0.000000
0
VERTEX
8
OUTLINE
10
10.000000
20
610.000000
30
0.000000
0
SEQEND
8
OUTLINE
0
POLYLINE
8
POCKET_D4
66
1.000000
70
1.000000
10
0.000000
20
0.000000
30
0.000000
0
VERTEX
8
POCKET_D4
10
892.125000
20
20.000000
30
0.000000
0
VERTEX
8
POCKET_D4
10
910.075000
20
20.000000
30
0.000000
0
VERTEX
8
POCKET_D4
10
910.075000
20
610.000000
30
0.000000
0
VERTEX
8
POCKET_D4
10
892.125000
20
610.000000
30
0.000000
0
SEQEND
8
POCKET_D4
0
POLYLINE
8
POCKET_D4
66
1.000000
70
1.000000
10
0.000000
20
0.000000
30
0.000000
0
VERTEX
8
POCKET_D4
10
9.925000
20
20.000000
30
0.000000
0
VERTEX
8
POCKET_D4
10
27.875000
20
20.000000
30
0.000000
0
VERTEX
8
POCKET_D4
10
27.875000
20
610.000000
30
0.000000
0
VERTEX
8
POCKET_D4
10
9.925000
20
610.000000
30
0.000000
0
SEQEND
8
POCKET_D4
0
POLYLINE
8
POCKET_D6
66
1.000000
70
1.000000
10
0.000000
20
0.000000
30
0.000000
0
VERTEX
8
POCKET_D6
10
451.025000
20
20.000000
30
0.000000
0
VERTEX
8
POCKET_D6
10
468.975000
20
20.000000
30
0.000000
0
VERTEX
8
POCKET_D6
10
468.975000
20
586.100000
30
0.000000
0
VERTEX
8
POCKET_D6
10
451.025000
20
586.100000
30
0.000000
0
SEQEND
8
POCKET_D6
0
POLYLINE
8
POCKET_D6
66
1.000000
70
1.000000
10
0.000000
20
0.000000
30
0.000000
0
VERTEX
8
POCKET_D6
10
21.800000
20
586.025000
30
0.000000
0
VERTEX
8
POCKET_D6
10
898.200000
20
586.025000
30
0.000000
0
VERTEX
8
POCKET_D6
10
898.200000
20
598.075000
30
0.000000
0
VERTEX
8
POCKET_D6
10
21.800000
20
598.075000
30
0.000000
0
SEQEND
8
POCKET_D6
0
POLYLINE
8
OUTLINE
66
1.000000
70
1.000000
10
0.000000
20
0.000000
30
0.000000
0
VERTEX
8
OUTLINE
10
1766.200000
20
10.000000
30
0.000000
0
VERTEX
8
OUTLINE
10
1766.200000
20
60.000000
30
0.000000
0
VERTEX
8
OUTLINE
10
1866.200000
20
60.000000
30
0.000000
0
VERTEX
8
OUTLINE
10
1866.200000
20
610.000000
30
0.000000
0
VERTEX
8
OUTLINE
10
980.000000
20
610.000000
30
0.000000
0
VERTEX
8
OUTLINE
10
980.000000
20
23.150000
30
0.000000
0
VERTEX
8
OUTLINE
10
984.000000
20
23.150000
30
0.000000
0
VERTEX
8
OUTLINE
10
984.000000
20
10.000000
30
0.000000
0
SEQEND
8
OUTLINE
0
POLYLINE
8
POCKET_D6
66
1.000000
70
1.000000
10
0.000000
20
0.000000
30
0.000000
0
VERTEX
8
POCKET_D6
10
1766.275000
20
20.000000
30
0.000000
0
VERTEX
8
POCKET_D6
10
1766.275000
20
610.000000
30
0.000000
0
VERTEX
8
POCKET_D6
10
1748.325000
20
610.000000
30
0.000000
0
VERTEX
8
POCKET_D6
10
1748.325000
20
20.000000
30
0.000000
0
SEQEND
8
POCKET_D6
0
POLYLINE
8
POCKET_D6
66
1.000000
70
1.000000
10
0.000000
20
0.000000
30
0.000000
0
VERTEX
8
POCKET_D6
10
1866.200000
20
59.925000
30
0.000000
0
VERTEX
8
POCKET_D6
10
1866.200000
20
77.875000
30
0.000000
0
VERTEX
8
POCKET_D6
10
1766.200000
20
77.875000
30
0.000000
0
VERTEX
8
POCKET_D6
10
1766.200000
20
59.925000
30
0.000000
0
SEQEND
8
POCKET_D6
0
POLYLINE
8
POCKET_D6
66
1.000000
70
1.000000
10
0.000000
20
0.000000
30
0.000000
0
VERTEX
8
POCKET_D6
10
1748.400000
20
586.025000
30
0.000000
0
VERTEX
8
POCKET_D6
10
1748.400000
20
598.075000
30
0.000000
0
VERTEX
8
POCKET_D6
10
984.000000
20
598.075000
30
0.000000
0
VERTEX
8
POCKET_D6
10
984.000000
20
586.025000
30
0.000000
0
SEQEND
8
POCKET_D6
0
POLYLINE
8
OUTLINE
66
1.000000
70
1.000000
10
0.000000
20
0.000000
30
0.000000
0
VERTEX
8
OUTLINE
10
780.400000
20
618.000000
30
0.000000
0
VERTEX
8
OUTLINE
10
780.400000
20
631.150000
30
0.000000
0
VERTEX
8
OUTLINE
10
786.400000
20
631.150000
30
0.000000
0
VERTEX
8
OUTLINE
10
786.400000
20
1194.100000
30
0.000000
0
VERTEX
8
OUTLINE
10
10.000000
20
1194.100000
30
0.000000
0
VERTEX
8
OUTLINE
10
10.000000
20
631.150000
30
0.000000
0
VERTEX
8
OUTLINE
10
16.000000
20
631.150000
30
0.000000
0
VERTEX
8
OUTLINE
10
16.000000
20
618.000000
30
0.000000
0
SEQEND
8
OUTLINE
0
POLYLINE
8
POCKET_D6
66
1.000000
70
1.000000
10
0.000000
20
0.000000
30
0.000000
0
VERTEX
8
POCKET_D6
10
407.175000
20
628.000000
30
0.000000
0
VERTEX
8
POCKET_D6
10
407.175000
20
1194.100000
30
0.000000
0
VERTEX
8
POCKET_D6
10
389.225000
20
1194.100000
30
0.000000
0
VERTEX
8
POCKET_D6
10
389.225000
20
628.000000
30
0.000000
0
SEQEND
8
POCKET_D6
0
POLYLINE
8
OUTLINE
66
1.000000
70
1.000000
10
0.000000
20
0.000000
30
0.000000
0
VERTEX
8
OUTLINE
10
1894.400000
20
618.000000
30
0.000000
0
VERTEX
8
OUTLINE
10
1894.400000
20
1018.000000
30
0.000000
0
VERTEX
8
OUTLINE
10
794.400000
20
1018.000000
30
0.000000
0
VERTEX
8
OUTLINE
10
794.400000
20
618.000000
30
0.000000
0
SEQEND
8
OUTLINE
0
POLYLINE
8
POCKET_D6
66
1.000000
70
1.000000
10
0.000000
20
0.000000
30
0.000000
0
VERTEX
8
POCKET_D6
10
812.275000
20
628.000000
30
0.000000
0
VERTEX
8
POCKET_D6
10
812.275000
20
1018.000000
30
0.000000
0
VERTEX
8
POCKET_D6
10
794.325000
20
1018.000000
30
0.000000
0
VERTEX
8
POCKET_D6
10
794.325000
20
628.000000
30
0.000000
0
SEQEND
8
POCKET_D6
0
POLYLINE
8
POCKET_D6
66
1.000000
70
1.000000
10
0.000000
20
0.000000
30
0.000000
0
VERTEX
8
POCKET_D6
10
1894.475000
20
628.000000
30
0.000000
0
VERTEX
8
POCKET_D6
10
1894.475000
20
1018.000000
30
0.000000
0
VERTEX
8
POCKET_D6
10
1876.525000
20
1018.000000
30
0.000000
0
VERTEX
8
POCKET_D6
10
1876.525000
20
628.000000
30
0.000000
0
SEQEND
8
POCKET_D6
0
POLYLINE
8
POCKET_D6
66
1.000000
70
1.000000
10
0.000000
20
0.000000
30
0.000000
0
VERTEX
8
POCKET_D6
10
1678.035000
20
628.000000
30
0.000000
0
VERTEX
8
POCKET_D6
10
1678.035000
20
994.100000
30
0.000000
0
VERTEX
8
POCKET_D6
10
1660.085000
20
994.100000
30
0.000000
0
VERTEX
8
POCKET_D6
10
1660.085000
20
628.000000
30
0.000000
0
SEQEND
8
POCKET_D6
0
POLYLINE
8
POCKET_D6
66
1.000000
70
1.000000
10
0.000000
20
0.000000
30
0.000000
0
VERTEX
8
POCKET_D6
10
1461.595000
20
628.000000
30
0.000000
0
VERTEX
8
POCKET_D6
10
1461.595000
20
994.100000
30
0.000000
0
VERTEX
8
POCKET_D6
10
1443.645000
20
994.100000
30
0.000000
0
VERTEX
8
POCKET_D6
10
1443.645000
20
628.000000
30
0.000000
0
SEQEND
8
POCKET_D6
0
POLYLINE
8
POCKET_D6
66
1.000000
70
1.000000
10
0.000000
20
0.000000
30
0.000000
0
VERTEX
8
POCKET_D6
10
1245.155000
20
628.000000
30
0.000000
0
VERTEX
8
POCKET_D6
10
1245.155000
20
994.100000
30
0.000000
0
VERTEX
8
POCKET_D6
10
1227.205000
20
994.100000
30
0.000000
0
VERTEX
8
POCKET_D6
10
1227.205000
20
628.000000
30
0.000000
0
SEQEND
8
POCKET_D6
0
POLYLINE
8
POCKET_D6
66
1.000000
70
1.000000
10
0.000000
20
0.000000
30
0.000000
0
VERTEX
8
POCKET_D6
10
1028.715000
20
628.000000
30
0.000000
0
VERTEX
8
POCKET_D6
10
1028.715000
20
994.100000
30
0.000000
0
VERTEX
8
POCKET_D6
10
1010.765000
20
994.100000
30
0.000000
0
VERTEX
8
POCKET_D6
10
1010.765000
20
628.000000
30
0.000000
0
SEQEND
8
POCKET_D6
0
POLYLINE
8
POCKET_D6
66
1.000000
70
1.000000
10
0.000000
20
0.000000
30
0.000000
0
VERTEX
8
POCKET_D6
10
1876.600000
20
994.025000
30
0.000000
0
VERTEX
8
POCKET_D6
10
1876.600000
20
1006.075000
30
0.000000
0
VERTEX
8
POCKET_D6
10
812.200000
20
1006.075000
30
0.000000
0
VERTEX
8
POCKET_D6
10
812.200000
20
994.025000
30
0.000000
0
SEQEND
8
POCKET_D6
0
POLYLINE
8
OUTLINE
66
1.000000
70
1.000000
10
0.000000
20
0.000000
30
0.000000
0
VERTEX
8
OUTLINE
10
1960.000000
20
23.150000
30
0.000000
0
VERTEX
8
OUTLINE
10
1966.000000
20
23.150000
30
0.000000
0
VERTEX
8
OUTLINE
10
1966.000000
20
10.000000
30
0.000000
0
VERTEX
8
OUTLINE
10
2389.300000
20
10.000000
30
0.000000
0
VERTEX
8
OUTLINE
10
2389.300000
20
23.150000
30
0.000000
0
VERTEX
8
OUTLINE
10
2395.300000
20
23.150000
30
0.000000
0
VERTEX
8
OUTLINE
10
2395.300000
20
586.100000
30
0.000000
0
VERTEX
8
OUTLINE
10
1960.000000
20
586.100000
30
0.000000
0
SEQEND
8
OUTLINE
0
POLYLINE
8
OUTLINE
66
1.000000
70
1.000000
10
0.000000
20
0.000000
30
0.000000
0
VERTEX
8
OUTLINE
10
1960.000000
20
607.250000
30
0.000000
0
VERTEX
8
OUTLINE
10
1966.000000
20
607.250000
30
0.000000
0
VERTEX
8
OUTLINE
10
1966.000000
20
594.100000
30
0.000000
0
VERTEX
8
OUTLINE
10
2389.300000
20
594.100000
30
0.000000
0
VERTEX
8
OUTLINE
10
2389.300000
20
607.250000
30
0.000000
0
VERTEX
8
OUTLINE
10
2395.300000
20
607.250000
30
0.000000
0
VERTEX
8
OUTLINE
10
2395.300000
20
970.200000
30
0.000000
0
VERTEX
8
OUTLINE
10
1960.000000
20
970.200000
30
0.000000
0
SEQEND
8
OUTLINE
0
POLYLINE
8
OUTLINE
66
1.000000
70
1.000000
10
0.000000
20
0.000000
30
0.000000
0
VERTEX
8
OUTLINE
10
980.000000
20
1026.000000
30
0.000000
0
VERTEX
8
OUTLINE
10
1856.400000
20
1026.000000
30
0.000000
0
VERTEX
8
OUTLINE
10
1856.400000
20
1126.000000
30
0.000000
0
VERTEX
8
OUTLINE
10
980.000000
20
1126.000000
30
0.000000
0
SEQEND
8
OUTLINE
0
CIRCLE
8
DRILL_4.5_THRU
10
901.100000
20
60.000000
30
0.000000
40
2.250000
0
CIRCLE
8
DRILL_4.5_THRU
10
901.100000
20
187.500000
30
0.000000
40
2.250000
0
CIRCLE
8
DRILL_4.5_THRU
10
901.100000
20
315.000000
30
0.000000
40
2.250000
0
CIRCLE
8
DRILL_4.5_THRU
10
901.100000
20
442.500000
30
0.000000
40
2.250000
0
CIRCLE
8
DRILL_4.5_THRU
10
901.100000
20
570.000000
30
0.000000
40
2.250000
0
CIRCLE
8
DRILL_4.5_THRU
10
18.900000
20
60.000000
30
0.000000
40
2.250000
0
CIRCLE
8
DRILL_4.5_THRU
10
18.900000
20
187.500000
30
0.000000
40
2.250000
0
CIRCLE
8
DRILL_4.5_THRU
10
18.900000
20
315.000000
30
0.000000
40
2.250000
0
CIRCLE
8
DRILL_4.5_THRU
10
18.900000
20
442.500000
30
0.000000
40
2.250000
0
CIRCLE
8
DRILL_4.5_THRU
10
18.900000
20
570.000000
30
0.000000
40
2.250000
0
CIRCLE
8
DRILL_4.5_THRU
10
460.000000
20
60.000000
30
0.000000
40
2.250000
0
CIRCLE
8
DRILL_4.5_THRU
10
460.000000
20
181.525000
30
0.000000
40
2.250000
0
CIRCLE
8
DRILL_4.5_THRU
10
460.000000
20
303.050000
30
0.000000
40
2.250000
0
CIRCLE
8
DRILL_4.5_THRU
10
460.000000
20
424.575000
30
0.000000
40
2.250000
0
CIRCLE
8
DRILL_4.5_THRU
10
460.000000
20
546.100000
30
0.000000
40
2.250000
0
CIRCLE
8
DRILL_4.5_THRU
10
1757.300000
20
60.000000
30
0.000000
40
2.250000
0
CIRCLE
8
DRILL_4.5_THRU
10
1757.300000
20
187.500000
30
0.000000
40
2.250000
0
CIRCLE
8
DRILL_4.5_THRU
10
1757.300000
20
315.000000
30
0.000000
40
2.250000
0
CIRCLE
8
DRILL_4.5_THRU
10
1757.300000
20
442.500000
30
0.000000
40
2.250000
0
CIRCLE
8
DRILL_4.5_THRU
10
1757.300000
20
570.000000
30
0.000000
40
2.250000
0
CIRCLE
8
DRILL_4.5_THRU
10
1841.200000
20
68.900000
30
0.000000
40
2.250000
0
CIRCLE
8
DRILL_4.5_THRU
10
1791.200000
20
68.900000
30
0.000000
40
2.250000
0
CIRCLE
8
DRILL_5_D12
10
1704.500000
20
47.000000
30
0.000000
40
2.500000
0
CIRCLE
8
DRILL_5_D12
10
1672.500000
20
47.000000
30
0.000000
40
2.500000
0
CIRCLE
8
DRILL_5_D12
10
1077.700000
20
47.000000
30
0.000000
40
2.500000
0
CIRCLE
8
DRILL_5_D12
10
1045.700000
20
47.000000
30
0.000000
40
2.500000
0
CIRCLE
8
DRILL_4.5_THRU
10
398.200000
20
668.000000
30
0.000000
40
2.250000
0
CIRCLE
8
DRILL_4.5_THRU
10
398.200000
20
789.525000
30
0.000000
40
2.250000
0
CIRCLE
8
DRILL_4.5_THRU
10
398.200000
20
911.050000
30
0.000000
40
2.250000
0
CIRCLE
8
DRILL_4.5_THRU
10
398.200000
20
1032.575000
30
0.000000
40
2.250000
0
CIRCLE
8
DRILL_4.5_THRU
10
398.200000
20
1154.100000
30
0.000000
40
2.250000
0
CIRCLE
8
DRILL_4.5_THRU
10
803.300000
20
668.000000
30
0.000000
40
2.250000
0
CIRCLE
8
DRILL_4.5_THRU
10
803.300000
20
771.333333
30
0.000000
40
2.250000
0
CIRCLE
8
DRILL_4.5_THRU
10
803.300000
20
874.666667
30
0.000000
40
2.250000
0
CIRCLE
8
DRILL_4.5_THRU
10
803.300000
20
978.000000
30
0.000000
40
2.250000
0
CIRCLE
8
DRILL_4.5_THRU
10
1885.500000
20
668.000000
30
0.000000
40
2.250000
0
CIRCLE
8
DRILL_4.5_THRU
10
1885.500000
20
771.333333
30
0.000000
40
2.250000
0
CIRCLE
8
DRILL_4.5_THRU
10
1885.500000
20
874.666667
30
0.000000
40
2.250000
0
CIRCLE
8
DRILL_4.5_THRU
10
1885.500000
20
978.000000
30
0.000000
40
2.250000
0
CIRCLE
8
DRILL_4.5_THRU
10
1669.060000
20
668.000000
30
0.000000
40
2.250000
0
CIRCLE
8
DRILL_4.5_THRU
10
1669.060000
20
811.050000
30
0.000000
40
2.250000
0
CIRCLE
8
DRILL_4.5_THRU
10
1669.060000
20
954.100000
30
0.000000
40
2.250000
0
CIRCLE
8
DRILL_4.5_THRU
10
1452.620000
20
668.000000
30
0.000000
40
2.250000
0
CIRCLE
8
DRILL_4.5_THRU
10
1452.620000
20
811.050000
30
0.000000
40
2.250000
0
CIRCLE
8
DRILL_4.5_THRU
10
1452.620000
20
954.100000
30
0.000000
40
2.250000
0
CIRCLE
8
DRILL_4.5_THRU
10
1236.180000
20
668.000000
30
0.000000
40
2.250000
0
CIRCLE
8
DRILL_4.5_THRU
10
1236.180000
20
811.050000
30
0.000000
40
2.250000
0
CIRCLE
8
DRILL_4.5_THRU
10
1236.180000
20
954.100000
30
0.000000
40
2.250000
0
CIRCLE
8
DRILL_4.5_THRU
10
1019.740000
20
668.000000
30
0.000000
40
2.250000
0
CIRCLE
8
DRILL_4.5_THRU
10
1019.740000
20
811.050000
30
0.000000
40
2.250000
0
CIRCLE
8
DRILL_4.5_THRU
10
1019.740000
20
954.100000
30
0.000000
40
2.250000
0
TEXT
8
LABEL
10
22.000000
20
22.000000
30
0.000000
40
8.000000
1
C1-B-TOP
0
TEXT
8
LABEL
10
1854.200000
20
22.000000
30
0.000000
40
8.000000
1
C1-B-SIDE-L
0
TEXT
8
LABEL
10
774.400000
20
630.000000
30
0.000000
40
8.000000
1
C1-B-DIV-1
0
TEXT
8
LABEL
10
1882.400000
20
630.000000
30
0.000000
40
8.000000
1
C1-T-SIDE-L
0
TEXT
8
LABEL
10
1972.000000
20
22.000000
30
0.000000
40
8.000000
1
C1-B-SHELF-2-1
0
TEXT
8
LABEL
10
1972.000000
20
606.100000
30
0.000000
40
8.000000
1
C1-T-SHELF-1-1
0
TEXT
8
LABEL
10
992.000000
20
1038.000000
30
0.000000
40
8.000000
1
C1-B-TOERAIL
0
ENDSEC
0
EOF
