0
SECTION
2
HEADER
9
$ACADVER
1
AC1009
9
$INSUNITS
70
4.000000
9
$MEASUREMENT
70
1.000000
0
ENDSEC
0
SECTION
2
TABLES
0
TABLE
2
LAYER
70
6.000000
0
LAYER
2
DRILL_4.5_THRU
70
0.000000
62
5.000000
6
CONTINUOUS
0
LAYER
2
DRILL_5_D12
70
0.000000
62
5.000000
6
CONTINUOUS
0
LAYER
2
LABEL
70
0.000000
62
8.000000
6
CONTINUOUS
0
LAYER
2
OUTLINE
70
0.000000
62
7.000000
6
CONTINUOUS
0
LAYER
2
POCKET_D6
70
0.000000
62
3.000000
6
CONTINUOUS
0
LAYER
2
TILE_REG
70
0.000000
62
6.000000
6
CONTINUOUS
0
ENDTAB
0
ENDSEC
0
SECTION
2
ENTITIES
0
POLYLINE
8
OUTLINE
66
1.000000
70
1.000000
10
0.000000
20
0.000000
30
0.000000
0
VERTEX
8
OUTLINE
10
786.200000
20
10.000000
30
0.000000
0
VERTEX
8
OUTLINE
10
786.200000
20
60.000000
30
0.000000
0
VERTEX
8
OUTLINE
10
886.200000
20
60.000000
30
0.000000
0
VERTEX
8
OUTLINE
10
886.200000
20
610.000000
30
0.000000
0
VERTEX
8
OUTLINE
10
0.000000
20
610.000000
30
0.000000
0
VERTEX
8
OUTLINE
10
0.000000
20
23.150000
30
0.000000
0
VERTEX
8
OUTLINE
10
4.000000
20
23.150000
30
0.000000
0
VERTEX
8
OUTLINE
10
4.000000
20
10.000000
30
0.000000
0
SEQEND
8
OUTLINE
0
POLYLINE
8
POCKET_D6
66
1.000000
70
1.000000
10
0.000000
20
0.000000
30
0.000000
0
VERTEX
8
POCKET_D6
10
786.275000
20
20.000000
30
0.000000
0
VERTEX
8
POCKET_D6
10
786.275000
20
610.000000
30
0.000000
0
VERTEX
8
POCKET_D6
10
768.325000
20
610.000000
30
0.000000
0
VERTEX
8
POCKET_D6
10
768.325000
20
20.000000
30
0.000000
0
SEQEND
8
POCKET_D6
0
POLYLINE
8
POCKET_D6
66
1.000000
70
1.000000
10
0.000000
20
0.000000
30
0.000000
0
VERTEX
8
POCKET_D6
10
886.200000
20
59.925000
30
0.000000
0
VERTEX
8
POCKET_D6
10
886.200000
20
77.875000
30
0.000000
0
VERTEX
8
POCKET_D6
10
786.200000
20
77.875000
30
0.000000
0
VERTEX
8
POCKET_D6
10
786.200000
20
59.925000
30
0.000000
0
SEQEND
8
POCKET_D6
0
POLYLINE
8
POCKET_D6
66
1.000000
70
1.000000
10
0.000000
20
0.000000
30
0.000000
0
VERTEX
8
POCKET_D6
10
768.400000
20
586.025000
30
0.000000
0
VERTEX
8
POCKET_D6
10
768.400000
20
598.075000
30
0.000000
0
VERTEX
8
POCKET_D6
10
4.000000
20
598.075000
30
0.000000
0
VERTEX
8
POCKET_D6
10
4.000000
20
586.025000
30
0.000000
0
SEQEND
8
POCKET_D6
0
POLYLINE
8
OUTLINE
66
1.000000
70
1.000000
10
0.000000
20
0.000000
30
0.000000
0
VERTEX
8
OUTLINE
10
0.000000
20
618.000000
30
0.000000
0
VERTEX
8
OUTLINE
10
914.400000
20
618.000000
30
0.000000
0
VERTEX
8
OUTLINE
10
914.400000
20
1018.000000
30
0.000000
0
VERTEX
8
OUTLINE
10
0.000000
20
1018.000000
30
0.000000
0
SEQEND
8
OUTLINE
0
POLYLINE
8
POCKET_D6
66
1.000000
70
1.000000
10
0.000000
20
0.000000
30
0.000000
0
VERTEX
8
POCKET_D6
10
914.475000
20
628.000000
30
0.000000
0
VERTEX
8
POCKET_D6
10
914.475000
20
1018.000000
30
0.000000
0
VERTEX
8
POCKET_D6
10
896.525000
20
1018.000000
30
0.000000
0
VERTEX
8
POCKET_D6
10
896.525000
20
628.000000
30
0.000000
0
SEQEND
8
POCKET_D6
0
POLYLINE
8
POCKET_D6
66
1.000000
70
1.000000
10
0.000000
20
0.000000
30
0.000000
0
VERTEX
8
POCKET_D6
10
698.035000
20
628.000000
30
0.000000
0
VERTEX
8
POCKET_D6
10
698.035000
20
994.100000
30
0.000000
0
VERTEX
8
POCKET_D6
10
680.085000
20
994.100000
30
0.000000
0
VERTEX
8
POCKET_D6
10
680.085000
20
628.000000
30
0.000000
0
SEQEND
8
POCKET_D6
0
POLYLINE
8
POCKET_D6
66
1.000000
70
1.000000
10
0.000000
20
0.000000
30
0.000000
0
VERTEX
8
POCKET_D6
10
481.595000
20
628.000000
30
0.000000
0
VERTEX
8
POCKET_D6
10
481.595000
20
994.100000
30
0.000000
0
VERTEX
8
POCKET_D6
10
463.645000
20
994.100000
30
0.000000
0
VERTEX
8
POCKET_D6
10
463.645000
20
628.000000
30
0.000000
0
SEQEND
8
POCKET_D6
0
POLYLINE
8
POCKET_D6
66
1.000000
70
1.000000
10
0.000000
20
0.000000
30
0.000000
0
VERTEX
8
POCKET_D6
10
265.155000
20
628.000000
30
0.000000
0
VERTEX
8
POCKET_D6
10
265.155000
20
994.100000
30
0.000000
0
VERTEX
8
POCKET_D6
10
247.205000
20
994.100000
30
0.000000
0
VERTEX
8
POCKET_D6
10
247.205000
20
628.000000
30
0.000000
0
SEQEND
8
POCKET_D6
0
POLYLINE
8
POCKET_D6
66
1.000000
70
1.000000
10
0.000000
20
0.000000
30
0.000000
0
VERTEX
8
POCKET_D6
10
48.715000
20
628.000000
30
0.000000
0
VERTEX
8
POCKET_D6
10
48.715000
20
994.100000
30
0.000000
0
VERTEX
8
POCKET_D6
10
30.765000
20
994.100000
30
0.000000
0
VERTEX
8
POCKET_D6
10
30.765000
20
628.000000
30
0.000000
0
SEQEND
8
POCKET_D6
0
POLYLINE
8
POCKET_D6
66
1.000000
70
1.000000
10
0.000000
20
0.000000
30
0.000000
0
VERTEX
8
POCKET_D6
10
0.000000
20
994.025000
30
0.000000
0
VERTEX
8
POCKET_D6
10
896.600000
20
994.025000
30
0.000000
0
VERTEX
8
POCKET_D6
10
896.600000
20
1006.075000
30
0.000000
0
VERTEX
8
POCKET_D6
10
0.000000
20
1006.075000
30
0.000000
0
SEQEND
8
POCKET_D6
0
POLYLINE
8
OUTLINE
66
1.000000
70
1.000000
10
0.000000
20
0.000000
30
0.000000
0
VERTEX
8
OUTLINE
10
0.000000
20
1026.000000
30
0.000000
0
VERTEX
8
OUTLINE
10
876.400000
20
1026.000000
30
0.000000
0
VERTEX
8
OUTLINE
10
876.400000
20
1126.000000
30
0.000000
0
VERTEX
8
OUTLINE
10
0.000000
20
1126.000000
30
0.000000
0
SEQEND
8
OUTLINE
0
CIRCLE
8
DRILL_4.5_THRU
10
777.300000
20
60.000000
30
0.000000
40
2.250000
0
CIRCLE
8
DRILL_4.5_THRU
10
777.300000
20
187.500000
30
0.000000
40
2.250000
0
CIRCLE
8
DRILL_4.5_THRU
10
777.300000
20
315.000000
30
0.000000
40
2.250000
0
CIRCLE
8
DRILL_4.5_THRU
10
777.300000
20
442.500000
30
0.000000
40
2.250000
0
CIRCLE
8
DRILL_4.5_THRU
10
777.300000
20
570.000000
30
0.000000
40
2.250000
0
CIRCLE
8
DRILL_4.5_THRU
10
861.200000
20
68.900000
30
0.000000
40
2.250000
0
CIRCLE
8
DRILL_4.5_THRU
10
811.200000
20
68.900000
30
0.000000
40
2.250000
0
CIRCLE
8
DRILL_5_D12
10
724.500000
20
47.000000
30
0.000000
40
2.500000
0
CIRCLE
8
DRILL_5_D12
10
692.500000
20
47.000000
30
0.000000
40
2.500000
0
CIRCLE
8
DRILL_5_D12
10
97.700000
20
47.000000
30
0.000000
40
2.500000
0
CIRCLE
8
DRILL_5_D12
10
65.700000
20
47.000000
30
0.000000
40
2.500000
0
CIRCLE
8
DRILL_4.5_THRU
10
905.500000
20
668.000000
30
0.000000
40
2.250000
0
CIRCLE
8
DRILL_4.5_THRU
10
905.500000
20
771.333333
30
0.000000
40
2.250000
0
CIRCLE
8
DRILL_4.5_THRU
10
905.500000
20
874.666667
30
0.000000
40
2.250000
0
CIRCLE
8
DRILL_4.5_THRU
10
905.500000
20
978.000000
30
0.000000
40
2.250000
0
CIRCLE
8
DRILL_4.5_THRU
10
689.060000
20
668.000000
30
0.000000
40
2.250000
0
CIRCLE
8
DRILL_4.5_THRU
10
689.060000
20
811.050000
30
0.000000
40
2.250000
0
CIRCLE
8
DRILL_4.5_THRU
10
689.060000
20
954.100000
30
0.000000
40
2.250000
0
CIRCLE
8
DRILL_4.5_THRU
10
472.620000
20
668.000000
30
0.000000
40
2.250000
0
CIRCLE
8
DRILL_4.5_THRU
10
472.620000
20
811.050000
30
0.000000
40
2.250000
0
CIRCLE
8
DRILL_4.5_THRU
10
472.620000
20
954.100000
30
0.000000
40
2.250000
0
CIRCLE
8
DRILL_4.5_THRU
10
256.180000
20
668.000000
30
0.000000
40
2.250000
0
CIRCLE
8
DRILL_4.5_THRU
10
256.180000
20
811.050000
30
0.000000
40
2.250000
0
CIRCLE
8
DRILL_4.5_THRU
10
256.180000
20
954.100000
30
0.000000
40
2.250000
0
CIRCLE
8
DRILL_4.5_THRU
10
39.740000
20
668.000000
30
0.000000
40
2.250000
0
CIRCLE
8
DRILL_4.5_THRU
10
39.740000
20
811.050000
30
0.000000
40
2.250000
0
CIRCLE
8
DRILL_4.5_THRU
10
39.740000
20
954.100000
30
0.000000
40
2.250000
0
CIRCLE
8
TILE_REG
10
0.000000
20
6.000000
30
0.000000
40
3.000000
0
CIRCLE
8
TILE_REG
10
0.000000
20
1214.000000
30
0.000000
40
3.000000
0
CIRCLE
8
TILE_REG
10
980.000000
20
6.000000
30
0.000000
40
3.000000
0
CIRCLE
8
TILE_REG
10
980.000000
20
1214.000000
30
0.000000
40
3.000000
0
TEXT
8
LABEL
10
874.200000
20
22.000000
30
0.000000
40
8.000000
1
C1-B-SIDE-L
0
TEXT
8
LABEL
10
902.400000
20
630.000000
30
0.000000
40
8.000000
1
C1-T-SIDE-L
0
TEXT
8
LABEL
10
12.000000
20
1038.000000
30
0.000000
40
8.000000
1
C1-B-TOERAIL
0
ENDSEC
0
EOF
