0
SECTION
2
HEADER
9
$ACADVER
1
AC1009
9
$INSUNITS
70
4.000000
9
$MEASUREMENT
70
1.000000
0
ENDSEC
0
SECTION
2
TABLES
0
TABLE
2
LAYER
70
7.000000
0
LAYER
2
DRILL_4.5_THRU
70
0.000000
62
5.000000
6
CONTINUOUS
0
LAYER
2
DRILL_5_D12
70
0.000000
62
5.000000
6
CONTINUOUS
0
LAYER
2
LABEL
70
0.000000
62
8.000000
6
CONTINUOUS
0
LAYER
2
OUTLINE
70
0.000000
62
7.000000
6
CONTINUOUS
0
LAYER
2
POCKET_D6
70
0.000000
62
3.000000
6
CONTINUOUS
0
LAYER
2
POCKET_D6_FLIP
70
0.000000
62
3.000000
6
CONTINUOUS
0
LAYER
2
TILE_REG
70
0.000000
62
6.000000
6
CONTINUOUS
0
ENDTAB
0
ENDSEC
0
SECTION
2
ENTITIES
0
POLYLINE
8
OUTLINE
66
1.000000
70
1.000000
10
0.000000
20
0.000000
30
0.000000
0
VERTEX
8
OUTLINE
10
896.200000
20
10.000000
30
0.000000
0
VERTEX
8
OUTLINE
10
896.200000
20
560.000000
30
0.000000
0
VERTEX
8
OUTLINE
10
796.200000
20
560.000000
30
0.000000
0
VERTEX
8
OUTLINE
10
796.200000
20
610.000000
30
0.000000
0
VERTEX
8
OUTLINE
10
14.000000
20
610.000000
30
0.000000
0
VERTEX
8
OUTLINE
10
14.000000
20
596.850000
30
0.000000
0
VERTEX
8
OUTLINE
10
10.000000
20
596.850000
30
0.000000
0
VERTEX
8
OUTLINE
10
10.000000
20
10.000000
30
0.000000
0
SEQEND
8
OUTLINE
0
POLYLINE
8
POCKET_D6
66
1.000000
70
1.000000
10
0.000000
20
0.000000
30
0.000000
0
VERTEX
8
POCKET_D6
10
796.275000
20
10.000000
30
0.000000
0
VERTEX
8
POCKET_D6
10
796.275000
20
600.000000
30
0.000000
0
VERTEX
8
POCKET_D6
10
778.325000
20
600.000000
30
0.000000
0
VERTEX
8
POCKET_D6
10
778.325000
20
10.000000
30
0.000000
0
SEQEND
8
POCKET_D6
0
POLYLINE
8
POCKET_D6
66
1.000000
70
1.000000
10
0.000000
20
0.000000
30
0.000000
0
VERTEX
8
POCKET_D6
10
896.200000
20
542.125000
30
0.000000
0
VERTEX
8
POCKET_D6
10
896.200000
20
560.075000
30
0.000000
0
VERTEX
8
POCKET_D6
10
796.200000
20
560.075000
30
0.000000
0
VERTEX
8
POCKET_D6
10
796.200000
20
542.125000
30
0.000000
0
SEQEND
8
POCKET_D6
0
POLYLINE
8
POCKET_D6
66
1.000000
70
1.000000
10
0.000000
20
0.000000
30
0.000000
0
VERTEX
8
POCKET_D6
10
405.175000
20
33.900000
30
0.000000
0
VERTEX
8
POCKET_D6
10
405.175000
20
600.000000
30
0.000000
0
VERTEX
8
POCKET_D6
10
387.225000
20
600.000000
30
0.000000
0
VERTEX
8
POCKET_D6
10
387.225000
20
33.900000
30
0.000000
0
SEQEND
8
POCKET_D6
0
POLYLINE
8
POCKET_D6
66
1.000000
70
1.000000
10
0.000000
20
0.000000
30
0.000000
0
VERTEX
8
POCKET_D6
10
778.400000
20
21.925000
30
0.000000
0
VERTEX
8
POCKET_D6
10
778.400000
20
33.975000
30
0.000000
0
VERTEX
8
POCKET_D6
10
14.000000
20
33.975000
30
0.000000
0
VERTEX
8
POCKET_D6
10
14.000000
20
21.925000
30
0.000000
0
SEQEND
8
POCKET_D6
0
POLYLINE
8
OUTLINE
66
1.000000
70
1.000000
10
0.000000
20
0.000000
30
0.000000
0
VERTEX
8
OUTLINE
10
980.000000
20
618.000000
30
0.000000
0
VERTEX
8
OUTLINE
10
980.000000
20
1018.000000
30
0.000000
0
VERTEX
8
OUTLINE
10
10.000000
20
1018.000000
30
0.000000
0
VERTEX
8
OUTLINE
10
10.000000
20
618.000000
30
0.000000
0
SEQEND
8
OUTLINE
0
POLYLINE
8
POCKET_D6
66
1.000000
70
1.000000
10
0.000000
20
0.000000
30
0.000000
0
VERTEX
8
POCKET_D6
10
27.875000
20
618.000000
30
0.000000
0
VERTEX
8
POCKET_D6
10
27.875000
20
1008.000000
30
0.000000
0
VERTEX
8
POCKET_D6
10
9.925000
20
1008.000000
30
0.000000
0
VERTEX
8
POCKET_D6
10
9.925000
20
618.000000
30
0.000000
0
SEQEND
8
POCKET_D6
0
POLYLINE
8
POCKET_D6
66
1.000000
70
1.000000
10
0.000000
20
0.000000
30
0.000000
0
VERTEX
8
POCKET_D6
10
980.000000
20
629.925000
30
0.000000
0
VERTEX
8
POCKET_D6
10
980.000000
20
641.975000
30
0.000000
0
VERTEX
8
POCKET_D6
10
27.800000
20
641.975000
30
0.000000
0
VERTEX
8
POCKET_D6
10
27.800000
20
629.925000
30
0.000000
0
SEQEND
8
POCKET_D6
0
POLYLINE
8
POCKET_D6_FLIP
66
1.000000
70
1.000000
10
0.000000
20
0.000000
30
0.000000
0
VERTEX
8
POCKET_D6_FLIP
10
450.165000
20
628.000000
30
0.000000
0
VERTEX
8
POCKET_D6_FLIP
10
450.165000
20
994.100000
30
0.000000
0
VERTEX
8
POCKET_D6_FLIP
10
468.115000
20
994.100000
30
0.000000
0
VERTEX
8
POCKET_D6_FLIP
10
468.115000
20
628.000000
30
0.000000
0
SEQEND
8
POCKET_D6_FLIP
0
POLYLINE
8
POCKET_D6_FLIP
66
1.000000
70
1.000000
10
0.000000
20
0.000000
30
0.000000
0
VERTEX
8
POCKET_D6_FLIP
10
666.605000
20
628.000000
30
0.000000
0
VERTEX
8
POCKET_D6_FLIP
10
666.605000
20
994.100000
30
0.000000
0
VERTEX
8
POCKET_D6_FLIP
10
684.555000
20
994.100000
30
0.000000
0
VERTEX
8
POCKET_D6_FLIP
10
684.555000
20
628.000000
30
0.000000
0
SEQEND
8
POCKET_D6_FLIP
0
POLYLINE
8
POCKET_D6_FLIP
66
1.000000
70
1.000000
10
0.000000
20
0.000000
30
0.000000
0
VERTEX
8
POCKET_D6_FLIP
10
883.045000
20
628.000000
30
0.000000
0
VERTEX
8
POCKET_D6_FLIP
10
883.045000
20
994.100000
30
0.000000
0
VERTEX
8
POCKET_D6_FLIP
10
900.995000
20
994.100000
30
0.000000
0
VERTEX
8
POCKET_D6_FLIP
10
900.995000
20
628.000000
30
0.000000
0
SEQEND
8
POCKET_D6_FLIP
0
CIRCLE
8
DRILL_4.5_THRU
10
787.300000
20
50.000000
30
0.000000
40
2.250000
0
CIRCLE
8
DRILL_4.5_THRU
10
787.300000
20
177.500000
30
0.000000
40
2.250000
0
CIRCLE
8
DRILL_4.5_THRU
10
787.300000
20
305.000000
30
0.000000
40
2.250000
0
CIRCLE
8
DRILL_4.5_THRU
10
787.300000
20
432.500000
30
0.000000
40
2.250000
0
CIRCLE
8
DRILL_4.5_THRU
10
787.300000
20
560.000000
30
0.000000
40
2.250000
0
CIRCLE
8
DRILL_4.5_THRU
10
871.200000
20
551.100000
30
0.000000
40
2.250000
0
CIRCLE
8
DRILL_4.5_THRU
10
821.200000
20
551.100000
30
0.000000
40
2.250000
0
CIRCLE
8
DRILL_4.5_THRU
10
396.200000
20
73.900000
30
0.000000
40
2.250000
0
CIRCLE
8
DRILL_4.5_THRU
10
396.200000
20
195.425000
30
0.000000
40
2.250000
0
CIRCLE
8
DRILL_4.5_THRU
10
396.200000
20
316.950000
30
0.000000
40
2.250000
0
CIRCLE
8
DRILL_4.5_THRU
10
396.200000
20
438.475000
30
0.000000
40
2.250000
0
CIRCLE
8
DRILL_4.5_THRU
10
396.200000
20
560.000000
30
0.000000
40
2.250000
0
CIRCLE
8
DRILL_5_D12
10
734.500000
20
573.000000
30
0.000000
40
2.500000
0
CIRCLE
8
DRILL_5_D12
10
702.500000
20
573.000000
30
0.000000
40
2.500000
0
CIRCLE
8
DRILL_5_D12
10
107.700000
20
573.000000
30
0.000000
40
2.500000
0
CIRCLE
8
DRILL_5_D12
10
75.700000
20
573.000000
30
0.000000
40
2.500000
0
CIRCLE
8
DRILL_4.5_THRU
10
18.900000
20
658.000000
30
0.000000
40
2.250000
0
CIRCLE
8
DRILL_4.5_THRU
10
18.900000
20
761.333333
30
0.000000
40
2.250000
0
CIRCLE
8
DRILL_4.5_THRU
10
18.900000
20
864.666667
30
0.000000
40
2.250000
0
CIRCLE
8
DRILL_4.5_THRU
10
18.900000
20
968.000000
30
0.000000
40
2.250000
0
CIRCLE
8
DRILL_5_D12
10
964.200000
20
981.000000
30
0.000000
40
2.500000
0
CIRCLE
8
DRILL_5_D12
10
964.200000
20
678.900000
30
0.000000
40
2.500000
0
CIRCLE
8
DRILL_5_D12
10
932.200000
20
981.000000
30
0.000000
40
2.500000
0
CIRCLE
8
DRILL_5_D12
10
932.200000
20
678.900000
30
0.000000
40
2.500000
0
CIRCLE
8
DRILL_5_D12
10
900.200000
20
981.000000
30
0.000000
40
2.500000
0
CIRCLE
8
DRILL_5_D12
10
900.200000
20
678.900000
30
0.000000
40
2.500000
0
CIRCLE
8
DRILL_5_D12
10
868.200000
20
981.000000
30
0.000000
40
2.500000
0
CIRCLE
8
DRILL_5_D12
10
868.200000
20
678.900000
30
0.000000
40
2.500000
0
CIRCLE
8
DRILL_5_D12
10
836.200000
20
981.000000
30
0.000000
40
2.500000
0
CIRCLE
8
DRILL_5_D12
10
836.200000
20
678.900000
30
0.000000
40
2.500000
0
CIRCLE
8
DRILL_5_D12
10
804.200000
20
981.000000
30
0.000000
40
2.500000
0
CIRCLE
8
DRILL_5_D12
10
804.200000
20
678.900000
30
0.000000
40
2.500000
0
CIRCLE
8
DRILL_5_D12
10
772.200000
20
981.000000
30
0.000000
40
2.500000
0
CIRCLE
8
DRILL_5_D12
10
772.200000
20
678.900000
30
0.000000
40
2.500000
0
CIRCLE
8
DRILL_5_D12
10
740.200000
20
981.000000
30
0.000000
40
2.500000
0
CIRCLE
8
DRILL_5_D12
10
740.200000
20
678.900000
30
0.000000
40
2.500000
0
CIRCLE
8
DRILL_5_D12
10
708.200000
20
981.000000
30
0.000000
40
2.500000
0
CIRCLE
8
DRILL_5_D12
10
708.200000
20
678.900000
30
0.000000
40
2.500000
0
CIRCLE
8
DRILL_5_D12
10
676.200000
20
981.000000
30
0.000000
40
2.500000
0
CIRCLE
8
DRILL_5_D12
10
676.200000
20
678.900000
30
0.000000
40
2.500000
0
CIRCLE
8
DRILL_5_D12
10
644.200000
20
981.000000
30
0.000000
40
2.500000
0
CIRCLE
8
DRILL_5_D12
10
644.200000
20
678.900000
30
0.000000
40
2.500000
0
CIRCLE
8
DRILL_5_D12
10
612.200000
20
981.000000
30
0.000000
40
2.500000
0
CIRCLE
8
DRILL_5_D12
10
612.200000
20
678.900000
30
0.000000
40
2.500000
0
CIRCLE
8
DRILL_5_D12
10
580.200000
20
981.000000
30
0.000000
40
2.500000
0
CIRCLE
8
DRILL_5_D12
10
580.200000
20
678.900000
30
0.000000
40
2.500000
0
CIRCLE
8
DRILL_5_D12
10
548.200000
20
981.000000
30
0.000000
40
2.500000
0
CIRCLE
8
DRILL_5_D12
10
548.200000
20
678.900000
30
0.000000
40
2.500000
0
CIRCLE
8
DRILL_5_D12
10
516.200000
20
981.000000
30
0.000000
40
2.500000
0
CIRCLE
8
DRILL_5_D12
10
516.200000
20
678.900000
30
0.000000
40
2.500000
0
CIRCLE
8
DRILL_5_D12
10
484.200000
20
981.000000
30
0.000000
40
2.500000
0
CIRCLE
8
DRILL_5_D12
10
484.200000
20
678.900000
30
0.000000
40
2.500000
0
CIRCLE
8
DRILL_5_D12
10
452.200000
20
981.000000
30
0.000000
40
2.500000
0
CIRCLE
8
DRILL_5_D12
10
452.200000
20
678.900000
30
0.000000
40
2.500000
0
CIRCLE
8
DRILL_5_D12
10
420.200000
20
981.000000
30
0.000000
40
2.500000
0
CIRCLE
8
DRILL_5_D12
10
420.200000
20
678.900000
30
0.000000
40
2.500000
0
CIRCLE
8
DRILL_5_D12
10
388.200000
20
981.000000
30
0.000000
40
2.500000
0
CIRCLE
8
DRILL_5_D12
10
388.200000
20
678.900000
30
0.000000
40
2.500000
0
CIRCLE
8
DRILL_5_D12
10
356.200000
20
981.000000
30
0.000000
40
2.500000
0
CIRCLE
8
DRILL_5_D12
10
356.200000
20
678.900000
30
0.000000
40
2.500000
0
CIRCLE
8
DRILL_5_D12
10
324.200000
20
981.000000
30
0.000000
40
2.500000
0
CIRCLE
8
DRILL_5_D12
10
324.200000
20
678.900000
30
0.000000
40
2.500000
0
CIRCLE
8
DRILL_5_D12
10
292.200000
20
981.000000
30
0.000000
40
2.500000
0
CIRCLE
8
DRILL_5_D12
10
292.200000
20
678.900000
30
0.000000
40
2.500000
0
CIRCLE
8
DRILL_5_D12
10
260.200000
20
981.000000
30
0.000000
40
2.500000
0
CIRCLE
8
DRILL_5_D12
10
260.200000
20
678.900000
30
0.000000
40
2.500000
0
CIRCLE
8
DRILL_5_D12
10
228.200000
20
981.000000
30
0.000000
40
2.500000
0
CIRCLE
8
DRILL_5_D12
10
228.200000
20
678.900000
30
0.000000
40
2.500000
0
CIRCLE
8
DRILL_5_D12
10
196.200000
20
981.000000
30
0.000000
40
2.500000
0
CIRCLE
8
DRILL_5_D12
10
196.200000
20
678.900000
30
0.000000
40
2.500000
0
CIRCLE
8
DRILL_5_D12
10
164.200000
20
981.000000
30
0.000000
40
2.500000
0
CIRCLE
8
DRILL_5_D12
10
164.200000
20
678.900000
30
0.000000
40
2.500000
0
CIRCLE
8
DRILL_5_D12
10
132.200000
20
981.000000
30
0.000000
40
2.500000
0
CIRCLE
8
DRILL_5_D12
10
132.200000
20
678.900000
30
0.000000
40
2.500000
0
CIRCLE
8
TILE_REG
10
980.000000
20
6.000000
30
0.000000
40
3.000000
0
CIRCLE
8
TILE_REG
10
980.000000
20
1214.000000
30
0.000000
40
3.000000
0
TEXT
8
LABEL
10
884.200000
20
22.000000
30
0.000000
40
8.000000
1
C1-B-SIDE-R
0
ENDSEC
0
EOF
