0
SECTION
2
HEADER
9
$ACADVER
1
AC1009
9
$INSUNITS
70
4.000000
9
$MEASUREMENT
70
1.000000
0
ENDSEC
0
SECTION
2
TABLES
0
TABLE
2
LAYER
70
5.000000
0
LAYER
2
DRILL_4.5_THRU
70
0.000000
62
5.000000
6
CONTINUOUS
0
LAYER
2
DRILL_5_D12
70
0.000000
62
5.000000
6
CONTINUOUS
0
LAYER
2
LABEL
70
0.000000
62
8.000000
6
CONTINUOUS
0
LAYER
2
OUTLINE
70
0.000000
62
7.000000
6
CONTINUOUS
0
LAYER
2
TILE_REG
70
0.000000
62
6.000000
6
CONTINUOUS
0
ENDTAB
0
ENDSEC
0
SECTION
2
ENTITIES
0
POLYLINE
8
OUTLINE
66
1.000000
70
1.000000
10
0.000000
20
0.000000
30
0.000000
0
VERTEX
8
OUTLINE
10
0.000000
20
618.000000
30
0.000000
0
VERTEX
8
OUTLINE
10
228.400000
20
618.000000
30
0.000000
0
VERTEX
8
OUTLINE
10
228.400000
20
631.150000
30
0.000000
0
VERTEX
8
OUTLINE
10
234.400000
20
631.150000
30
0.000000
0
VERTEX
8
OUTLINE
10
234.400000
20
994.100000
30
0.000000
0
VERTEX
8
OUTLINE
10
0.000000
20
994.100000
30
0.000000
0
SEQEND
8
OUTLINE
0
POLYLINE
8
OUTLINE
66
1.000000
70
1.000000
10
0.000000
20
0.000000
30
0.000000
0
VERTEX
8
OUTLINE
10
0.000000
20
23.150000
30
0.000000
0
VERTEX
8
OUTLINE
10
6.000000
20
23.150000
30
0.000000
0
VERTEX
8
OUTLINE
10
6.000000
20
10.000000
30
0.000000
0
VERTEX
8
OUTLINE
10
429.300000
20
10.000000
30
0.000000
0
VERTEX
8
OUTLINE
10
429.300000
20
23.150000
30
0.000000
0
VERTEX
8
OUTLINE
10
435.300000
20
23.150000
30
0.000000
0
VERTEX
8
OUTLINE
10
435.300000
20
386.100000
30
0.000000
0
VERTEX
8
OUTLINE
10
0.000000
20
386.100000
30
0.000000
0
SEQEND
8
OUTLINE
0
CIRCLE
8
DRILL_4.5_THRU
10
20.860000
20
668.000000
30
0.000000
40
2.250000
0
CIRCLE
8
DRILL_4.5_THRU
10
20.860000
20
811.050000
30
0.000000
40
2.250000
0
CIRCLE
8
DRILL_4.5_THRU
10
20.860000
20
954.100000
30
0.000000
40
2.250000
0
CIRCLE
8
DRILL_5_D12
10
100.400000
20
655.000000
30
0.000000
40
2.500000
0
CIRCLE
8
DRILL_5_D12
10
100.400000
20
957.100000
30
0.000000
40
2.500000
0
CIRCLE
8
DRILL_5_D12
10
68.400000
20
655.000000
30
0.000000
40
2.500000
0
CIRCLE
8
DRILL_5_D12
10
68.400000
20
957.100000
30
0.000000
40
2.500000
0
CIRCLE
8
DRILL_5_D12
10
36.400000
20
655.000000
30
0.000000
40
2.500000
0
CIRCLE
8
DRILL_5_D12
10
36.400000
20
957.100000
30
0.000000
40
2.500000
0
CIRCLE
8
DRILL_5_D12
10
4.400000
20
655.000000
30
0.000000
40
2.500000
0
CIRCLE
8
DRILL_5_D12
10
4.400000
20
957.100000
30
0.000000
40
2.500000
0
CIRCLE
8
TILE_REG
10
0.000000
20
6.000000
30
0.000000
40
3.000000
0
CIRCLE
8
TILE_REG
10
0.000000
20
1214.000000
30
0.000000
40
3.000000
0
TEXT
8
LABEL
10
222.400000
20
630.000000
30
0.000000
40
8.000000
1
C1-T-DIV-1
0
TEXT
8
LABEL
10
12.000000
20
22.000000
30
0.000000
40
8.000000
1
C1-T-SHELF-1-2
0
ENDSEC
0
EOF
