0
SECTION
2
HEADER
9
$ACADVER
1
AC1009
9
$INSUNITS
70
4.000000
9
$MEASUREMENT
70
1.000000
0
ENDSEC
0
SECTION
2
TABLES
0
TABLE
2
LAYER
70
5.000000
0
LAYER
2
DRILL_8_D12
70
0.000000
62
5.000000
6
CONTINUOUS
0
LAYER
2
LABEL
70
0.000000
62
8.000000
6
CONTINUOUS
0
LAYER
2
OUTLINE
70
0.000000
62
7.000000
6
CONTINUOUS
0
LAYER
2
POCKET_D13
70
0.000000
62
3.000000
6
CONTINUOUS
0
LAYER
2
TILE_REG
70
0.000000
62
6.000000
6
CONTINUOUS
0
ENDTAB
0
ENDSEC
0
SECTION
2
ENTITIES
0
POLYLINE
8
OUTLINE
66
1.000000
70
1.000000
10
0.000000
20
0.000000
30
0.000000
0
VERTEX
8
OUTLINE
10
779.200000
20
10.000000
30
0.000000
0
VERTEX
8
OUTLINE
10
779.200000
20
457.000000
30
0.000000
0
VERTEX
8
OUTLINE
10
0.000000
20
457.000000
30
0.000000
0
VERTEX
8
OUTLINE
10
0.000000
20
10.000000
30
0.000000
0
SEQEND
8
OUTLINE
0
POLYLINE
8
POCKET_D13
66
1.000000
70
1.000000
10
0.000000
20
0.000000
30
0.000000
0
VERTEX
8
POCKET_D13
10
703.000000
20
417.000000
30
0.000000
42
1.000000
0
VERTEX
8
POCKET_D13
10
703.000000
20
452.000000
30
0.000000
42
1.000000
0
SEQEND
8
POCKET_D13
0
POLYLINE
8
POCKET_D13
66
1.000000
70
1.000000
10
0.000000
20
0.000000
30
0.000000
0
VERTEX
8
POCKET_D13
10
76.200000
20
417.000000
30
0.000000
42
1.000000
0
VERTEX
8
POCKET_D13
10
76.200000
20
452.000000
30
0.000000
42
1.000000
0
SEQEND
8
POCKET_D13
0
POLYLINE
8
OUTLINE
66
1.000000
70
1.000000
10
0.000000
20
0.000000
30
0.000000
0
VERTEX
8
OUTLINE
10
779.200000
20
465.000000
30
0.000000
0
VERTEX
8
OUTLINE
10
779.200000
20
912.000000
30
0.000000
0
VERTEX
8
OUTLINE
10
0.000000
20
912.000000
30
0.000000
0
VERTEX
8
OUTLINE
10
0.000000
20
465.000000
30
0.000000
0
SEQEND
8
OUTLINE
0
POLYLINE
8
POCKET_D13
66
1.000000
70
1.000000
10
0.000000
20
0.000000
30
0.000000
0
VERTEX
8
POCKET_D13
10
703.000000
20
470.000000
30
0.000000
42
1.000000
0
VERTEX
8
POCKET_D13
10
703.000000
20
505.000000
30
0.000000
42
1.000000
0
SEQEND
8
POCKET_D13
0
POLYLINE
8
POCKET_D13
66
1.000000
70
1.000000
10
0.000000
20
0.000000
30
0.000000
0
VERTEX
8
POCKET_D13
10
76.200000
20
470.000000
30
0.000000
42
1.000000
0
VERTEX
8
POCKET_D13
10
76.200000
20
505.000000
30
0.000000
42
1.000000
0
SEQEND
8
POCKET_D13
0
CIRCLE
8
DRILL_8_D12
10
725.500000
20
425.000000
30
0.000000
40
4.000000
0
CIRCLE
8
DRILL_8_D12
10
680.500000
20
425.000000
30
0.000000
40
4.000000
0
CIRCLE
8
DRILL_8_D12
10
98.700000
20
425.000000
30
0.000000
40
4.000000
0
CIRCLE
8
DRILL_8_D12
10
53.700000
20
425.000000
30
0.000000
40
4.000000
0
CIRCLE
8
DRILL_8_D12
10
725.500000
20
497.000000
30
0.000000
40
4.000000
0
CIRCLE
8
DRILL_8_D12
10
680.500000
20
497.000000
30
0.000000
40
4.000000
0
CIRCLE
8
DRILL_8_D12
10
98.700000
20
497.000000
30
0.000000
40
4.000000
0
CIRCLE
8
DRILL_8_D12
10
53.700000
20
497.000000
30
0.000000
40
4.000000
0
CIRCLE
8
TILE_REG
10
0.000000
20
6.000000
30
0.000000
40
3.000000
0
CIRCLE
8
TILE_REG
10
0.000000
20
1214.000000
30
0.000000
40
3.000000
0
CIRCLE
8
TILE_REG
10
980.000000
20
6.000000
30
0.000000
40
3.000000
0
CIRCLE
8
TILE_REG
10
980.000000
20
1214.000000
30
0.000000
40
3.000000
0
TEXT
8
LABEL
10
767.200000
20
22.000000
30
0.000000
40
8.000000
1
C1-B-DOOR-1
0
TEXT
8
LABEL
10
767.200000
20
477.000000
30
0.000000
40
8.000000
1
C1-B-DOOR-2
0
ENDSEC
0
EOF
