0
SECTION
2
HEADER
9
$ACADVER
1
AC1009
9
$INSUNITS
70
4.000000
9
$MEASUREMENT
70
1.000000
0
ENDSEC
0
SECTION
2
TABLES
0
TABLE
2
LAYER
70
8.000000
0
LAYER
2
DRILL_4.5_THRU
70
0.000000
62
5.000000
6
CONTINUOUS
0
LAYER
2
DRILL_5_D12
70
0.000000
62
5.000000
6
CONTINUOUS
0
LAYER
2
DRILL_5_D12_FLIP
70
0.000000
62
5.000000
6
CONTINUOUS
0
LAYER
2
LABEL
70
0.000000
62
8.000000
6
CONTINUOUS
0
LAYER
2
OUTLINE
70
0.000000
62
7.000000
6
CONTINUOUS
0
LAYER
2
POCKET_D6
70
0.000000
62
3.000000
6
CONTINUOUS
0
LAYER
2
POCKET_D6_FLIP
70
0.000000
62
3.000000
6
CONTINUOUS
0
LAYER
2
SHEET
70
0.000000
62
8.000000
6
CONTINUOUS
0
ENDTAB
0
ENDSEC
0
SECTION
2
ENTITIES
0
POLYLINE
8
SHEET
66
1.000000
70
1.000000
10
0.000000
20
0.000000
30
0.000000
0
VERTEX
8
SHEET
10
0.000000
20
0.000000
30
0.000000
0
VERTEX
8
SHEET
10
2440.000000
20
0.000000
30
0.000000
0
VERTEX
8
SHEET
10
2440.000000
20
1220.000000
30
0.000000
0
VERTEX
8
SHEET
10
0.000000
20
1220.000000
30
0.000000
0
SEQEND
8
SHEET
0
POLYLINE
8
OUTLINE
66
1.000000
70
1.000000
10
0.000000
20
0.000000
30
0.000000
0
VERTEX
8
OUTLINE
10
10.000000
20
23.150000
30
0.000000
0
VERTEX
8
OUTLINE
10
16.000000
20
23.150000
30
0.000000
0
VERTEX
8
OUTLINE
10
16.000000
20
10.000000
30
0.000000
0
VERTEX
8
OUTLINE
10
880.400000
20
10.000000
30
0.000000
0
VERTEX
8
OUTLINE
10
880.400000
20
23.150000
30
0.000000
0
VERTEX
8
OUTLINE
10
886.400000
20
23.150000
30
0.000000
0
VERTEX
8
OUTLINE
10
886.400000
20
335.000000
30
0.000000
0
VERTEX
8
OUTLINE
10
10.000000
20
335.000000
30
0.000000
0
SEQEND
8
OUTLINE
0
POLYLINE
8
POCKET_D6
66
1.000000
70
1.000000
10
0.000000
20
0.000000
30
0.000000
0
VERTEX
8
POCKET_D6
10
439.225000
20
20.000000
30
0.000000
0
VERTEX
8
POCKET_D6
10
457.175000
20
20.000000
30
0.000000
0
VERTEX
8
POCKET_D6
10
457.175000
20
311.100000
30
0.000000
0
VERTEX
8
POCKET_D6
10
439.225000
20
311.100000
30
0.000000
0
SEQEND
8
POCKET_D6
0
POLYLINE
8
POCKET_D6
66
1.000000
70
1.000000
10
0.000000
20
0.000000
30
0.000000
0
VERTEX
8
POCKET_D6
10
10.000000
20
311.025000
30
0.000000
0
VERTEX
8
POCKET_D6
10
886.400000
20
311.025000
30
0.000000
0
VERTEX
8
POCKET_D6
10
886.400000
20
323.075000
30
0.000000
0
VERTEX
8
POCKET_D6
10
10.000000
20
323.075000
30
0.000000
0
SEQEND
8
POCKET_D6
0
POLYLINE
8
OUTLINE
66
1.000000
70
1.000000
10
0.000000
20
0.000000
30
0.000000
0
VERTEX
8
OUTLINE
10
10.000000
20
356.150000
30
0.000000
0
VERTEX
8
OUTLINE
10
16.000000
20
356.150000
30
0.000000
0
VERTEX
8
OUTLINE
10
16.000000
20
343.000000
30
0.000000
0
VERTEX
8
OUTLINE
10
880.400000
20
343.000000
30
0.000000
0
VERTEX
8
OUTLINE
10
880.400000
20
356.150000
30
0.000000
0
VERTEX
8
OUTLINE
10
886.400000
20
356.150000
30
0.000000
0
VERTEX
8
OUTLINE
10
886.400000
20
668.000000
30
0.000000
0
VERTEX
8
OUTLINE
10
10.000000
20
668.000000
30
0.000000
0
SEQEND
8
OUTLINE
0
POLYLINE
8
POCKET_D6
66
1.000000
70
1.000000
10
0.000000
20
0.000000
30
0.000000
0
VERTEX
8
POCKET_D6
10
439.225000
20
353.000000
30
0.000000
0
VERTEX
8
POCKET_D6
10
457.175000
20
353.000000
30
0.000000
0
VERTEX
8
POCKET_D6
10
457.175000
20
644.100000
30
0.000000
0
VERTEX
8
POCKET_D6
10
439.225000
20
644.100000
30
0.000000
0
SEQEND
8
POCKET_D6
0
POLYLINE
8
POCKET_D6
66
1.000000
70
1.000000
10
0.000000
20
0.000000
30
0.000000
0
VERTEX
8
POCKET_D6
10
10.000000
20
644.025000
30
0.000000
0
VERTEX
8
POCKET_D6
10
886.400000
20
644.025000
30
0.000000
0
VERTEX
8
POCKET_D6
10
886.400000
20
656.075000
30
0.000000
0
VERTEX
8
POCKET_D6
10
10.000000
20
656.075000
30
0.000000
0
SEQEND
8
POCKET_D6
0
POLYLINE
8
OUTLINE
66
1.000000
70
1.000000
10
0.000000
20
0.000000
30
0.000000
0
VERTEX
8
OUTLINE
10
710.000000
20
676.000000
30
0.000000
0
VERTEX
8
OUTLINE
10
710.000000
20
1001.000000
30
0.000000
0
VERTEX
8
OUTLINE
10
10.000000
20
1001.000000
30
0.000000
0
VERTEX
8
OUTLINE
10
10.000000
20
676.000000
30
0.000000
0
SEQEND
8
OUTLINE
0
POLYLINE
8
POCKET_D6
66
1.000000
70
1.000000
10
0.000000
20
0.000000
30
0.000000
0
VERTEX
8
POCKET_D6
10
27.875000
20
686.000000
30
0.000000
0
VERTEX
8
POCKET_D6
10
27.875000
20
1001.000000
30
0.000000
0
VERTEX
8
POCKET_D6
10
9.925000
20
1001.000000
30
0.000000
0
VERTEX
8
POCKET_D6
10
9.925000
20
686.000000
30
0.000000
0
SEQEND
8
POCKET_D6
0
POLYLINE
8
POCKET_D6
66
1.000000
70
1.000000
10
0.000000
20
0.000000
30
0.000000
0
VERTEX
8
POCKET_D6
10
710.075000
20
686.000000
30
0.000000
0
VERTEX
8
POCKET_D6
10
710.075000
20
1001.000000
30
0.000000
0
VERTEX
8
POCKET_D6
10
692.125000
20
1001.000000
30
0.000000
0
VERTEX
8
POCKET_D6
10
692.125000
20
686.000000
30
0.000000
0
SEQEND
8
POCKET_D6
0
POLYLINE
8
POCKET_D6
66
1.000000
70
1.000000
10
0.000000
20
0.000000
30
0.000000
0
VERTEX
8
POCKET_D6
10
127.800000
20
959.225000
30
0.000000
0
VERTEX
8
POCKET_D6
10
127.800000
20
977.175000
30
0.000000
0
VERTEX
8
POCKET_D6
10
27.800000
20
977.175000
30
0.000000
0
VERTEX
8
POCKET_D6
10
27.800000
20
959.225000
30
0.000000
0
SEQEND
8
POCKET_D6
0
POLYLINE
8
POCKET_D6
66
1.000000
70
1.000000
10
0.000000
20
0.000000
30
0.000000
0
VERTEX
8
POCKET_D6
10
692.200000
20
977.025000
30
0.000000
0
VERTEX
8
POCKET_D6
10
692.200000
20
989.075000
30
0.000000
0
VERTEX
8
POCKET_D6
10
127.800000
20
989.075000
30
0.000000
0
VERTEX
8
POCKET_D6
10
127.800000
20
977.025000
30
0.000000
0
SEQEND
8
POCKET_D6
0
POLYLINE
8
OUTLINE
66
1.000000
70
1.000000
10
0.000000
20
0.000000
30
0.000000
0
VERTEX
8
OUTLINE
10
1680.000000
20
676.000000
30
0.000000
0
VERTEX
8
OUTLINE
10
1680.000000
20
1001.000000
30
0.000000
0
VERTEX
8
OUTLINE
10
980.000000
20
1001.000000
30
0.000000
0
VERTEX
8
OUTLINE
10
980.000000
20
676.000000
30
0.000000
0
SEQEND
8
OUTLINE
0
POLYLINE
8
POCKET_D6
66
1.000000
70
1.000000
10
0.000000
20
0.000000
30
0.000000
0
VERTEX
8
POCKET_D6
10
997.875000
20
676.000000
30
0.000000
0
VERTEX
8
POCKET_D6
10
997.875000
20
991.000000
30
0.000000
0
VERTEX
8
POCKET_D6
10
979.925000
20
991.000000
30
0.000000
0
VERTEX
8
POCKET_D6
10
979.925000
20
676.000000
30
0.000000
0
SEQEND
8
POCKET_D6
0
POLYLINE
8
POCKET_D6
66
1.000000
70
1.000000
10
0.000000
20
0.000000
30
0.000000
0
VERTEX
8
POCKET_D6
10
1680.075000
20
676.000000
30
0.000000
0
VERTEX
8
POCKET_D6
10
1680.075000
20
991.000000
30
0.000000
0
VERTEX
8
POCKET_D6
10
1662.125000
20
991.000000
30
0.000000
0
VERTEX
8
POCKET_D6
10
1662.125000
20
676.000000
30
0.000000
0
SEQEND
8
POCKET_D6
0
POLYLINE
8
POCKET_D6
66
1.000000
70
1.000000
10
0.000000
20
0.000000
30
0.000000
0
VERTEX
8
POCKET_D6
10
1097.800000
20
699.825000
30
0.000000
0
VERTEX
8
POCKET_D6
10
1097.800000
20
717.775000
30
0.000000
0
VERTEX
8
POCKET_D6
10
997.800000
20
717.775000
30
0.000000
0
VERTEX
8
POCKET_D6
10
997.800000
20
699.825000
30
0.000000
0
SEQEND
8
POCKET_D6
0
POLYLINE
8
POCKET_D6
66
1.000000
70
1.000000
10
0.000000
20
0.000000
30
0.000000
0
VERTEX
8
POCKET_D6
10
1662.200000
20
687.925000
30
0.000000
0
VERTEX
8
POCKET_D6
10
1662.200000
20
699.975000
30
0.000000
0
VERTEX
8
POCKET_D6
10
1097.800000
20
699.975000
30
0.000000
0
VERTEX
8
POCKET_D6
10
1097.800000
20
687.925000
30
0.000000
0
SEQEND
8
POCKET_D6
0
POLYLINE
8
OUTLINE
66
1.000000
70
1.000000
10
0.000000
20
0.000000
30
0.000000
0
VERTEX
8
OUTLINE
10
1650.400000
20
10.000000
30
0.000000
0
VERTEX
8
OUTLINE
10
1650.400000
20
23.150000
30
0.000000
0
VERTEX
8
OUTLINE
10
1656.400000
20
23.150000
30
0.000000
0
VERTEX
8
OUTLINE
10
1656.400000
20
311.100000
30
0.000000
0
VERTEX
8
OUTLINE
10
980.000000
20
311.100000
30
0.000000
0
VERTEX
8
OUTLINE
10
980.000000
20
23.150000
30
0.000000
0
VERTEX
8
OUTLINE
10
986.000000
20
23.150000
30
0.000000
0
VERTEX
8
OUTLINE
10
986.000000
20
10.000000
30
0.000000
0
SEQEND
8
OUTLINE
0
POLYLINE
8
POCKET_D6_FLIP
66
1.000000
70
1.000000
10
0.000000
20
0.000000
30
0.000000
0
VERTEX
8
POCKET_D6_FLIP
10
1354.000000
20
293.225000
30
0.000000
0
VERTEX
8
POCKET_D6_FLIP
10
1354.000000
20
311.175000
30
0.000000
0
VERTEX
8
POCKET_D6_FLIP
10
1454.000000
20
311.175000
30
0.000000
0
VERTEX
8
POCKET_D6_FLIP
10
1454.000000
20
293.225000
30
0.000000
0
SEQEND
8
POCKET_D6_FLIP
0
POLYLINE
8
POCKET_D6
66
1.000000
70
1.000000
10
0.000000
20
0.000000
30
0.000000
0
VERTEX
8
POCKET_D6
10
1086.000000
20
293.225000
30
0.000000
0
VERTEX
8
POCKET_D6
10
1086.000000
20
311.175000
30
0.000000
0
VERTEX
8
POCKET_D6
10
986.000000
20
311.175000
30
0.000000
0
VERTEX
8
POCKET_D6
10
986.000000
20
293.225000
30
0.000000
0
SEQEND
8
POCKET_D6
0
POLYLINE
8
OUTLINE
66
1.000000
70
1.000000
10
0.000000
20
0.000000
30
0.000000
0
VERTEX
8
OUTLINE
10
980.000000
20
319.100000
30
0.000000
0
VERTEX
8
OUTLINE
10
1401.300000
20
319.100000
30
0.000000
0
VERTEX
8
OUTLINE
10
1401.300000
20
618.200000
30
0.000000
0
VERTEX
8
OUTLINE
10
980.000000
20
618.200000
30
0.000000
0
SEQEND
8
OUTLINE
0
CIRCLE
8
DRILL_4.5_THRU
10
448.200000
20
60.000000
30
0.000000
40
2.250000
0
CIRCLE
8
DRILL_4.5_THRU
10
448.200000
20
165.550000
30
0.000000
40
2.250000
0
CIRCLE
8
DRILL_4.5_THRU
10
448.200000
20
271.100000
30
0.000000
40
2.250000
0
CIRCLE
8
DRILL_4.5_THRU
10
448.200000
20
393.000000
30
0.000000
40
2.250000
0
CIRCLE
8
DRILL_4.5_THRU
10
448.200000
20
498.550000
30
0.000000
40
2.250000
0
CIRCLE
8
DRILL_4.5_THRU
10
448.200000
20
604.100000
30
0.000000
40
2.250000
0
CIRCLE
8
DRILL_4.5_THRU
10
18.900000
20
726.000000
30
0.000000
40
2.250000
0
CIRCLE
8
DRILL_4.5_THRU
10
18.900000
20
843.500000
30
0.000000
40
2.250000
0
CIRCLE
8
DRILL_4.5_THRU
10
18.900000
20
961.000000
30
0.000000
40
2.250000
0
CIRCLE
8
DRILL_4.5_THRU
10
701.100000
20
726.000000
30
0.000000
40
2.250000
0
CIRCLE
8
DRILL_4.5_THRU
10
701.100000
20
843.500000
30
0.000000
40
2.250000
0
CIRCLE
8
DRILL_4.5_THRU
10
701.100000
20
961.000000
30
0.000000
40
2.250000
0
CIRCLE
8
DRILL_4.5_THRU
10
102.800000
20
968.200000
30
0.000000
40
2.250000
0
CIRCLE
8
DRILL_4.5_THRU
10
52.800000
20
968.200000
30
0.000000
40
2.250000
0
CIRCLE
8
DRILL_5_D12
10
564.200000
20
713.000000
30
0.000000
40
2.500000
0
CIRCLE
8
DRILL_5_D12
10
564.200000
20
940.100000
30
0.000000
40
2.500000
0
CIRCLE
8
DRILL_5_D12
10
532.200000
20
713.000000
30
0.000000
40
2.500000
0
CIRCLE
8
DRILL_5_D12
10
532.200000
20
940.100000
30
0.000000
40
2.500000
0
CIRCLE
8
DRILL_5_D12
10
500.200000
20
713.000000
30
0.000000
40
2.500000
0
CIRCLE
8
DRILL_5_D12
10
500.200000
20
940.100000
30
0.000000
40
2.500000
0
CIRCLE
8
DRILL_5_D12
10
468.200000
20
713.000000
30
0.000000
40
2.500000
0
CIRCLE
8
DRILL_5_D12
10
468.200000
20
940.100000
30
0.000000
40
2.500000
0
CIRCLE
8
DRILL_5_D12
10
436.200000
20
713.000000
30
0.000000
40
2.500000
0
CIRCLE
8
DRILL_5_D12
10
436.200000
20
940.100000
30
0.000000
40
2.500000
0
CIRCLE
8
DRILL_5_D12
10
404.200000
20
713.000000
30
0.000000
40
2.500000
0
CIRCLE
8
DRILL_5_D12
10
404.200000
20
940.100000
30
0.000000
40
2.500000
0
CIRCLE
8
DRILL_5_D12
10
372.200000
20
713.000000
30
0.000000
40
2.500000
0
CIRCLE
8
DRILL_5_D12
10
372.200000
20
940.100000
30
0.000000
40
2.500000
0
CIRCLE
8
DRILL_5_D12
10
340.200000
20
713.000000
30
0.000000
40
2.500000
0
CIRCLE
8
DRILL_5_D12
10
340.200000
20
940.100000
30
0.000000
40
2.500000
0
CIRCLE
8
DRILL_5_D12
10
308.200000
20
713.000000
30
0.000000
40
2.500000
0
CIRCLE
8
DRILL_5_D12
10
308.200000
20
940.100000
30
0.000000
40
2.500000
0
CIRCLE
8
DRILL_5_D12
10
276.200000
20
713.000000
30
0.000000
40
2.500000
0
CIRCLE
8
DRILL_5_D12
10
276.200000
20
940.100000
30
0.000000
40
2.500000
0
CIRCLE
8
DRILL_5_D12
10
244.200000
20
713.000000
30
0.000000
40
2.500000
0
CIRCLE
8
DRILL_5_D12
10
244.200000
20
940.100000
30
0.000000
40
2.500000
0
CIRCLE
8
DRILL_5_D12
10
648.300000
20
713.000000
30
0.000000
40
2.500000
0
CIRCLE
8
DRILL_5_D12
10
616.300000
20
713.000000
30
0.000000
40
2.500000
0
CIRCLE
8
DRILL_5_D12
10
121.500000
20
713.000000
30
0.000000
40
2.500000
0
CIRCLE
8
DRILL_5_D12
10
89.500000
20
713.000000
30
0.000000
40
2.500000
0
CIRCLE
8
DRILL_4.5_THRU
10
988.900000
20
716.000000
30
0.000000
40
2.250000
0
CIRCLE
8
DRILL_4.5_THRU
10
988.900000
20
833.500000
30
0.000000
40
2.250000
0
CIRCLE
8
DRILL_4.5_THRU
10
988.900000
20
951.000000
30
0.000000
40
2.250000
0
CIRCLE
8
DRILL_4.5_THRU
10
1671.100000
20
716.000000
30
0.000000
40
2.250000
0
CIRCLE
8
DRILL_4.5_THRU
10
1671.100000
20
833.500000
30
0.000000
40
2.250000
0
CIRCLE
8
DRILL_4.5_THRU
10
1671.100000
20
951.000000
30
0.000000
40
2.250000
0
CIRCLE
8
DRILL_4.5_THRU
10
1072.800000
20
708.800000
30
0.000000
40
2.250000
0
CIRCLE
8
DRILL_4.5_THRU
10
1022.800000
20
708.800000
30
0.000000
40
2.250000
0
CIRCLE
8
DRILL_5_D12
10
1534.200000
20
964.000000
30
0.000000
40
2.500000
0
CIRCLE
8
DRILL_5_D12
10
1534.200000
20
736.900000
30
0.000000
40
2.500000
0
CIRCLE
8
DRILL_5_D12
10
1502.200000
20
964.000000
30
0.000000
40
2.500000
0
CIRCLE
8
DRILL_5_D12
10
1502.200000
20
736.900000
30
0.000000
40
2.500000
0
CIRCLE
8
DRILL_5_D12
10
1470.200000
20
964.000000
30
0.000000
40
2.500000
0
CIRCLE
8
DRILL_5_D12
10
1470.200000
20
736.900000
30
0.000000
40
2.500000
0
CIRCLE
8
DRILL_5_D12
10
1438.200000
20
964.000000
30
0.000000
40
2.500000
0
CIRCLE
8
DRILL_5_D12
10
1438.200000
20
736.900000
30
0.000000
40
2.500000
0
CIRCLE
8
DRILL_5_D12
10
1406.200000
20
964.000000
30
0.000000
40
2.500000
0
CIRCLE
8
DRILL_5_D12
10
1406.200000
20
736.900000
30
0.000000
40
2.500000
0
CIRCLE
8
DRILL_5_D12
10
1374.200000
20
964.000000
30
0.000000
40
2.500000
0
CIRCLE
8
DRILL_5_D12
10
1374.200000
20
736.900000
30
0.000000
40
2.500000
0
CIRCLE
8
DRILL_5_D12
10
1342.200000
20
964.000000
30
0.000000
40
2.500000
0
CIRCLE
8
DRILL_5_D12
10
1342.200000
20
736.900000
30
0.000000
40
2.500000
0
CIRCLE
8
DRILL_5_D12
10
1310.200000
20
964.000000
30
0.000000
40
2.500000
0
CIRCLE
8
DRILL_5_D12
10
1310.200000
20
736.900000
30
0.000000
40
2.500000
0
CIRCLE
8
DRILL_5_D12
10
1278.200000
20
964.000000
30
0.000000
40
2.500000
0
CIRCLE
8
DRILL_5_D12
10
1278.200000
20
736.900000
30
0.000000
40
2.500000
0
CIRCLE
8
DRILL_5_D12
10
1246.200000
20
964.000000
30
0.000000
40
2.500000
0
CIRCLE
8
DRILL_5_D12
10
1246.200000
20
736.900000
30
0.000000
40
2.500000
0
CIRCLE
8
DRILL_5_D12
10
1214.200000
20
964.000000
30
0.000000
40
2.500000
0
CIRCLE
8
DRILL_5_D12
10
1214.200000
20
736.900000
30
0.000000
40
2.500000
0
CIRCLE
8
DRILL_5_D12
10
1618.300000
20
964.000000
30
0.000000
40
2.500000
0
CIRCLE
8
DRILL_5_D12
10
1586.300000
20
964.000000
30
0.000000
40
2.500000
0
CIRCLE
8
DRILL_5_D12
10
1091.500000
20
964.000000
30
0.000000
40
2.500000
0
CIRCLE
8
DRILL_5_D12
10
1059.500000
20
964.000000
30
0.000000
40
2.500000
0
CIRCLE
8
DRILL_4.5_THRU
10
1061.000000
20
302.200000
30
0.000000
40
2.250000
0
CIRCLE
8
DRILL_4.5_THRU
10
1011.000000
20
302.200000
30
0.000000
40
2.250000
0
CIRCLE
8
DRILL_4.5_THRU
10
1061.000000
20
302.200000
30
0.000000
40
2.250000
0
CIRCLE
8
DRILL_4.5_THRU
10
1011.000000
20
302.200000
30
0.000000
40
2.250000
0
CIRCLE
8
DRILL_5_D12_FLIP
10
917.600000
20
47.000000
30
0.000000
40
2.500000
0
CIRCLE
8
DRILL_5_D12_FLIP
10
917.600000
20
274.100000
30
0.000000
40
2.500000
0
CIRCLE
8
DRILL_5_D12_FLIP
10
949.600000
20
47.000000
30
0.000000
40
2.500000
0
CIRCLE
8
DRILL_5_D12_FLIP
10
949.600000
20
274.100000
30
0.000000
40
2.500000
0
CIRCLE
8
DRILL_5_D12_FLIP
10
981.600000
20
47.000000
30
0.000000
40
2.500000
0
CIRCLE
8
DRILL_5_D12_FLIP
10
981.600000
20
274.100000
30
0.000000
40
2.500000
0
CIRCLE
8
DRILL_5_D12_FLIP
10
1013.600000
20
47.000000
30
0.000000
40
2.500000
0
CIRCLE
8
DRILL_5_D12_FLIP
10
1013.600000
20
274.100000
30
0.000000
40
2.500000
0
CIRCLE
8
DRILL_5_D12_FLIP
10
1045.600000
20
47.000000
30
0.000000
40
2.500000
0
CIRCLE
8
DRILL_5_D12_FLIP
10
1045.600000
20
274.100000
30
0.000000
40
2.500000
0
CIRCLE
8
DRILL_5_D12_FLIP
10
1077.600000
20
47.000000
30
0.000000
40
2.500000
0
CIRCLE
8
DRILL_5_D12_FLIP
10
1077.600000
20
274.100000
30
0.000000
40
2.500000
0
CIRCLE
8
DRILL_5_D12_FLIP
10
1109.600000
20
47.000000
30
0.000000
40
2.500000
0
CIRCLE
8
DRILL_5_D12_FLIP
10
1109.600000
20
274.100000
30
0.000000
40
2.500000
0
CIRCLE
8
DRILL_5_D12_FLIP
10
1141.600000
20
47.000000
30
0.000000
40
2.500000
0
CIRCLE
8
DRILL_5_D12_FLIP
10
1141.600000
20
274.100000
30
0.000000
40
2.500000
0
CIRCLE
8
DRILL_5_D12_FLIP
10
1173.600000
20
47.000000
30
0.000000
40
2.500000
0
CIRCLE
8
DRILL_5_D12_FLIP
10
1173.600000
20
274.100000
30
0.000000
40
2.500000
0
CIRCLE
8
DRILL_5_D12_FLIP
10
1205.600000
20
47.000000
30
0.000000
40
2.500000
0
CIRCLE
8
DRILL_5_D12_FLIP
10
1205.600000
20
274.100000
30
0.000000
40
2.500000
0
CIRCLE
8
DRILL_5_D12_FLIP
10
1237.600000
20
47.000000
30
0.000000
40
2.500000
0
CIRCLE
8
DRILL_5_D12_FLIP
10
1237.600000
20
274.100000
30
0.000000
40
2.500000
0
CIRCLE
8
DRILL_5_D12
10
1522.400000
20
47.000000
30
0.000000
40
2.500000
0
CIRCLE
8
DRILL_5_D12
10
1522.400000
20
274.100000
30
0.000000
40
2.500000
0
CIRCLE
8
DRILL_5_D12
10
1490.400000
20
47.000000
30
0.000000
40
2.500000
0
CIRCLE
8
DRILL_5_D12
10
1490.400000
20
274.100000
30
0.000000
40
2.500000
0
CIRCLE
8
DRILL_5_D12
10
1458.400000
20
47.000000
30
0.000000
40
2.500000
0
CIRCLE
8
DRILL_5_D12
10
1458.400000
20
274.100000
30
0.000000
40
2.500000
0
CIRCLE
8
DRILL_5_D12
10
1426.400000
20
47.000000
30
0.000000
40
2.500000
0
CIRCLE
8
DRILL_5_D12
10
1426.400000
20
274.100000
30
0.000000
40
2.500000
0
CIRCLE
8
DRILL_5_D12
10
1394.400000
20
47.000000
30
0.000000
40
2.500000
0
CIRCLE
8
DRILL_5_D12
10
1394.400000
20
274.100000
30
0.000000
40
2.500000
0
CIRCLE
8
DRILL_5_D12
10
1362.400000
20
47.000000
30
0.000000
40
2.500000
0
CIRCLE
8
DRILL_5_D12
10
1362.400000
20
274.100000
30
0.000000
40
2.500000
0
CIRCLE
8
DRILL_5_D12
10
1330.400000
20
47.000000
30
0.000000
40
2.500000
0
CIRCLE
8
DRILL_5_D12
10
1330.400000
20
274.100000
30
0.000000
40
2.500000
0
CIRCLE
8
DRILL_5_D12
10
1298.400000
20
47.000000
30
0.000000
40
2.500000
0
CIRCLE
8
DRILL_5_D12
10
1298.400000
20
274.100000
30
0.000000
40
2.500000
0
CIRCLE
8
DRILL_5_D12
10
1266.400000
20
47.000000
30
0.000000
40
2.500000
0
CIRCLE
8
DRILL_5_D12
10
1266.400000
20
274.100000
30
0.000000
40
2.500000
0
CIRCLE
8
DRILL_5_D12
10
1234.400000
20
47.000000
30
0.000000
40
2.500000
0
CIRCLE
8
DRILL_5_D12
10
1234.400000
20
274.100000
30
0.000000
40
2.500000
0
CIRCLE
8
DRILL_5_D12
10
1202.400000
20
47.000000
30
0.000000
40
2.500000
0
CIRCLE
8
DRILL_5_D12
10
1202.400000
20
274.100000
30
0.000000
40
2.500000
0
TEXT
8
LABEL
10
22.000000
20
22.000000
30
0.000000
40
8.000000
1
C2-B-BOTTOM
0
TEXT
8
LABEL
10
22.000000
20
355.000000
30
0.000000
40
8.000000
1
C2-B-TOP
0
TEXT
8
LABEL
10
698.000000
20
688.000000
30
0.000000
40
8.000000
1
C2-B-SIDE-L
0
TEXT
8
LABEL
10
1668.000000
20
688.000000
30
0.000000
40
8.000000
1
C2-B-SIDE-R
0
TEXT
8
LABEL
10
1644.400000
20
22.000000
30
0.000000
40
8.000000
1
C2-B-DIV-1
0
TEXT
8
LABEL
10
992.000000
20
331.100000
30
0.000000
40
8.000000
1
C2-B-SHELF-ADJ-2
0
ENDSEC
0
EOF
