0
SECTION
2
HEADER
9
$ACADVER
1
AC1009
9
$INSUNITS
70
4.000000
9
$MEASUREMENT
70
1.000000
0
ENDSEC
0
SECTION
2
TABLES
0
TABLE
2
LAYER
70
5.000000
0
LAYER
2
DRILL_4.5_THRU
70
0.000000
62
5.000000
6
CONTINUOUS
0
LAYER
2
LABEL
70
0.000000
62
8.000000
6
CONTINUOUS
0
LAYER
2
OUTLINE
70
0.000000
62
7.000000
6
CONTINUOUS
0
LAYER
2
POCKET_D6
70
0.000000
62
3.000000
6
CONTINUOUS
0
LAYER
2
TILE_REG
70
0.000000
62
6.000000
6
CONTINUOUS
0
ENDTAB
0
ENDSEC
0
SECTION
2
ENTITIES
0
POLYLINE
8
OUTLINE
66
1.000000
70
1.000000
10
0.000000
20
0.000000
30
0.000000
0
VERTEX
8
OUTLINE
10
10.000000
20
10.000000
30
0.000000
0
VERTEX
8
OUTLINE
10
364.000000
20
10.000000
30
0.000000
0
VERTEX
8
OUTLINE
10
364.000000
20
515.000000
30
0.000000
0
VERTEX
8
OUTLINE
10
329.000000
20
515.000000
30
0.000000
0
VERTEX
8
OUTLINE
10
329.000000
20
529.000000
30
0.000000
0
VERTEX
8
OUTLINE
10
45.000000
20
529.000000
30
0.000000
0
VERTEX
8
OUTLINE
10
45.000000
20
515.000000
30
0.000000
0
VERTEX
8
OUTLINE
10
10.000000
20
515.000000
30
0.000000
0
SEQEND
8
OUTLINE
0
POLYLINE
8
OUTLINE
66
1.000000
70
1.000000
10
0.000000
20
0.000000
30
0.000000
0
VERTEX
8
OUTLINE
10
10.000000
20
537.000000
30
0.000000
0
VERTEX
8
OUTLINE
10
364.000000
20
537.000000
30
0.000000
0
VERTEX
8
OUTLINE
10
364.000000
20
1042.000000
30
0.000000
0
VERTEX
8
OUTLINE
10
329.000000
20
1042.000000
30
0.000000
0
VERTEX
8
OUTLINE
10
329.000000
20
1056.000000
30
0.000000
0
VERTEX
8
OUTLINE
10
45.000000
20
1056.000000
30
0.000000
0
VERTEX
8
OUTLINE
10
45.000000
20
1042.000000
30
0.000000
0
VERTEX
8
OUTLINE
10
10.000000
20
1042.000000
30
0.000000
0
SEQEND
8
OUTLINE
0
POLYLINE
8
OUTLINE
66
1.000000
70
1.000000
10
0.000000
20
0.000000
30
0.000000
0
VERTEX
8
OUTLINE
10
718.600000
20
10.000000
30
0.000000
0
VERTEX
8
OUTLINE
10
718.600000
20
527.000000
30
0.000000
0
VERTEX
8
OUTLINE
10
372.000000
20
527.000000
30
0.000000
0
VERTEX
8
OUTLINE
10
372.000000
20
10.000000
30
0.000000
0
SEQEND
8
OUTLINE
0
POLYLINE
8
POCKET_D6
66
1.000000
70
1.000000
10
0.000000
20
0.000000
30
0.000000
0
VERTEX
8
POCKET_D6
10
718.675000
20
16.000000
30
0.000000
0
VERTEX
8
POCKET_D6
10
718.675000
20
535.000000
30
0.000000
0
VERTEX
8
POCKET_D6
10
704.525000
20
535.000000
30
0.000000
0
VERTEX
8
POCKET_D6
10
704.525000
20
16.000000
30
0.000000
0
SEQEND
8
POCKET_D6
0
POLYLINE
8
OUTLINE
66
1.000000
70
1.000000
10
0.000000
20
0.000000
30
0.000000
0
VERTEX
8
OUTLINE
10
718.600000
20
535.000000
30
0.000000
0
VERTEX
8
OUTLINE
10
718.600000
20
1052.000000
30
0.000000
0
VERTEX
8
OUTLINE
10
372.000000
20
1052.000000
30
0.000000
0
VERTEX
8
OUTLINE
10
372.000000
20
535.000000
30
0.000000
0
SEQEND
8
OUTLINE
0
POLYLINE
8
POCKET_D6
66
1.000000
70
1.000000
10
0.000000
20
0.000000
30
0.000000
0
VERTEX
8
POCKET_D6
10
718.675000
20
527.000000
30
0.000000
0
VERTEX
8
POCKET_D6
10
718.675000
20
1046.000000
30
0.000000
0
VERTEX
8
POCKET_D6
10
704.525000
20
1046.000000
30
0.000000
0
VERTEX
8
POCKET_D6
10
704.525000
20
527.000000
30
0.000000
0
SEQEND
8
POCKET_D6
0
CIRCLE
8
DRILL_4.5_THRU
10
711.600000
20
56.000000
30
0.000000
40
2.250000
0
CIRCLE
8
DRILL_4.5_THRU
10
711.600000
20
202.333333
30
0.000000
40
2.250000
0
CIRCLE
8
DRILL_4.5_THRU
10
711.600000
20
348.666667
30
0.000000
40
2.250000
0
CIRCLE
8
DRILL_4.5_THRU
10
711.600000
20
495.000000
30
0.000000
40
2.250000
0
CIRCLE
8
DRILL_4.5_THRU
10
711.600000
20
27.000000
30
0.000000
40
2.250000
0
CIRCLE
8
DRILL_4.5_THRU
10
711.600000
20
510.000000
30
0.000000
40
2.250000
0
CIRCLE
8
DRILL_4.5_THRU
10
711.600000
20
567.000000
30
0.000000
40
2.250000
0
CIRCLE
8
DRILL_4.5_THRU
10
711.600000
20
713.333333
30
0.000000
40
2.250000
0
CIRCLE
8
DRILL_4.5_THRU
10
711.600000
20
859.666667
30
0.000000
40
2.250000
0
CIRCLE
8
DRILL_4.5_THRU
10
711.600000
20
1006.000000
30
0.000000
40
2.250000
0
CIRCLE
8
DRILL_4.5_THRU
10
711.600000
20
1035.000000
30
0.000000
40
2.250000
0
CIRCLE
8
DRILL_4.5_THRU
10
711.600000
20
552.000000
30
0.000000
40
2.250000
0
CIRCLE
8
TILE_REG
10
980.000000
20
6.000000
30
0.000000
40
3.000000
0
CIRCLE
8
TILE_REG
10
980.000000
20
1214.000000
30
0.000000
40
3.000000
0
TEXT
8
LABEL
10
22.000000
20
22.000000
30
0.000000
40
8.000000
1
C1-B-DRAWER-1-1-BOTTOM
0
TEXT
8
LABEL
10
22.000000
20
549.000000
30
0.000000
40
8.000000
1
C1-B-DRAWER-1-2-BOTTOM
0
TEXT
8
LABEL
10
706.600000
20
22.000000
30
0.000000
40
8.000000
1
C1-B-DRAWER-1-1-SIDE-L
0
TEXT
8
LABEL
10
706.600000
20
547.000000
30
0.000000
40
8.000000
1
C1-B-DRAWER-1-1-SIDE-R
0
ENDSEC
0
EOF
