0
SECTION
2
HEADER
9
$ACADVER
1
AC1009
9
$INSUNITS
70
4.000000
9
$MEASUREMENT
70
1.000000
0
ENDSEC
0
SECTION
2
TABLES
0
TABLE
2
LAYER
70
8.000000
0
LAYER
2
DRILL_4.5_THRU
70
0.000000
62
5.000000
6
CONTINUOUS
0
LAYER
2
DRILL_5_D12
70
0.000000
62
5.000000
6
CONTINUOUS
0
LAYER
2
DRILL_5_D12_FLIP
70
0.000000
62
5.000000
6
CONTINUOUS
0
LAYER
2
LABEL
70
0.000000
62
8.000000
6
CONTINUOUS
0
LAYER
2
OUTLINE
70
0.000000
62
7.000000
6
CONTINUOUS
0
LAYER
2
POCKET_D6
70
0.000000
62
3.000000
6
CONTINUOUS
0
LAYER
2
POCKET_D6_FLIP
70
0.000000
62
3.000000
6
CONTINUOUS
0
LAYER
2
TILE_REG
70
0.000000
62
6.000000
6
CONTINUOUS
0
ENDTAB
0
ENDSEC
0
SECTION
2
ENTITIES
0
POLYLINE
8
OUTLINE
66
1.000000
70
1.000000
10
0.000000
20
0.000000
30
0.000000
0
VERTEX
8
OUTLINE
10
700.000000
20
676.000000
30
0.000000
0
VERTEX
8
OUTLINE
10
700.000000
20
1001.000000
30
0.000000
0
VERTEX
8
OUTLINE
10
0.000000
20
1001.000000
30
0.000000
0
VERTEX
8
OUTLINE
10
0.000000
20
676.000000
30
0.000000
0
SEQEND
8
OUTLINE
0
POLYLINE
8
POCKET_D6
66
1.000000
70
1.000000
10
0.000000
20
0.000000
30
0.000000
0
VERTEX
8
POCKET_D6
10
0.000000
20
676.000000
30
0.000000
0
VERTEX
8
POCKET_D6
10
17.875000
20
676.000000
30
0.000000
0
VERTEX
8
POCKET_D6
10
17.875000
20
991.000000
30
0.000000
0
VERTEX
8
POCKET_D6
10
0.000000
20
991.000000
30
0.000000
0
SEQEND
8
POCKET_D6
0
POLYLINE
8
POCKET_D6
66
1.000000
70
1.000000
10
0.000000
20
0.000000
30
0.000000
0
VERTEX
8
POCKET_D6
10
700.075000
20
676.000000
30
0.000000
0
VERTEX
8
POCKET_D6
10
700.075000
20
991.000000
30
0.000000
0
VERTEX
8
POCKET_D6
10
682.125000
20
991.000000
30
0.000000
0
VERTEX
8
POCKET_D6
10
682.125000
20
676.000000
30
0.000000
0
SEQEND
8
POCKET_D6
0
POLYLINE
8
POCKET_D6
66
1.000000
70
1.000000
10
0.000000
20
0.000000
30
0.000000
0
VERTEX
8
POCKET_D6
10
117.800000
20
699.825000
30
0.000000
0
VERTEX
8
POCKET_D6
10
117.800000
20
717.775000
30
0.000000
0
VERTEX
8
POCKET_D6
10
17.800000
20
717.775000
30
0.000000
0
VERTEX
8
POCKET_D6
10
17.800000
20
699.825000
30
0.000000
0
SEQEND
8
POCKET_D6
0
POLYLINE
8
POCKET_D6
66
1.000000
70
1.000000
10
0.000000
20
0.000000
30
0.000000
0
VERTEX
8
POCKET_D6
10
682.200000
20
687.925000
30
0.000000
0
VERTEX
8
POCKET_D6
10
682.200000
20
699.975000
30
0.000000
0
VERTEX
8
POCKET_D6
10
117.800000
20
699.975000
30
0.000000
0
VERTEX
8
POCKET_D6
10
117.800000
20
687.925000
30
0.000000
0
SEQEND
8
POCKET_D6
0
POLYLINE
8
OUTLINE
66
1.000000
70
1.000000
10
0.000000
20
0.000000
30
0.000000
0
VERTEX
8
OUTLINE
10
670.400000
20
10.000000
30
0.000000
0
VERTEX
8
OUTLINE
10
670.400000
20
23.150000
30
0.000000
0
VERTEX
8
OUTLINE
10
676.400000
20
23.150000
30
0.000000
0
VERTEX
8
OUTLINE
10
676.400000
20
311.100000
30
0.000000
0
VERTEX
8
OUTLINE
10
0.000000
20
311.100000
30
0.000000
0
VERTEX
8
OUTLINE
10
0.000000
20
23.150000
30
0.000000
0
VERTEX
8
OUTLINE
10
6.000000
20
23.150000
30
0.000000
0
VERTEX
8
OUTLINE
10
6.000000
20
10.000000
30
0.000000
0
SEQEND
8
OUTLINE
0
POLYLINE
8
POCKET_D6_FLIP
66
1.000000
70
1.000000
10
0.000000
20
0.000000
30
0.000000
0
VERTEX
8
POCKET_D6_FLIP
10
374.000000
20
293.225000
30
0.000000
0
VERTEX
8
POCKET_D6_FLIP
10
374.000000
20
311.175000
30
0.000000
0
VERTEX
8
POCKET_D6_FLIP
10
474.000000
20
311.175000
30
0.000000
0
VERTEX
8
POCKET_D6_FLIP
10
474.000000
20
293.225000
30
0.000000
0
SEQEND
8
POCKET_D6_FLIP
0
POLYLINE
8
POCKET_D6
66
1.000000
70
1.000000
10
0.000000
20
0.000000
30
0.000000
0
VERTEX
8
POCKET_D6
10
106.000000
20
293.225000
30
0.000000
0
VERTEX
8
POCKET_D6
10
106.000000
20
311.175000
30
0.000000
0
VERTEX
8
POCKET_D6
10
6.000000
20
311.175000
30
0.000000
0
VERTEX
8
POCKET_D6
10
6.000000
20
293.225000
30
0.000000
0
SEQEND
8
POCKET_D6
0
POLYLINE
8
OUTLINE
66
1.000000
70
1.000000
10
0.000000
20
0.000000
30
0.000000
0
VERTEX
8
OUTLINE
10
0.000000
20
319.100000
30
0.000000
0
VERTEX
8
OUTLINE
10
421.300000
20
319.100000
30
0.000000
0
VERTEX
8
OUTLINE
10
421.300000
20
618.200000
30
0.000000
0
VERTEX
8
OUTLINE
10
0.000000
20
618.200000
30
0.000000
0
SEQEND
8
OUTLINE
0
CIRCLE
8
DRILL_4.5_THRU
10
8.900000
20
716.000000
30
0.000000
40
2.250000
0
CIRCLE
8
DRILL_4.5_THRU
10
8.900000
20
833.500000
30
0.000000
40
2.250000
0
CIRCLE
8
DRILL_4.5_THRU
10
8.900000
20
951.000000
30
0.000000
40
2.250000
0
CIRCLE
8
DRILL_4.5_THRU
10
691.100000
20
716.000000
30
0.000000
40
2.250000
0
CIRCLE
8
DRILL_4.5_THRU
10
691.100000
20
833.500000
30
0.000000
40
2.250000
0
CIRCLE
8
DRILL_4.5_THRU
10
691.100000
20
951.000000
30
0.000000
40
2.250000
0
CIRCLE
8
DRILL_4.5_THRU
10
92.800000
20
708.800000
30
0.000000
40
2.250000
0
CIRCLE
8
DRILL_4.5_THRU
10
42.800000
20
708.800000
30
0.000000
40
2.250000
0
CIRCLE
8
DRILL_5_D12
10
554.200000
20
964.000000
30
0.000000
40
2.500000
0
CIRCLE
8
DRILL_5_D12
10
554.200000
20
736.900000
30
0.000000
40
2.500000
0
CIRCLE
8
DRILL_5_D12
10
522.200000
20
964.000000
30
0.000000
40
2.500000
0
CIRCLE
8
DRILL_5_D12
10
522.200000
20
736.900000
30
0.000000
40
2.500000
0
CIRCLE
8
DRILL_5_D12
10
490.200000
20
964.000000
30
0.000000
40
2.500000
0
CIRCLE
8
DRILL_5_D12
10
490.200000
20
736.900000
30
0.000000
40
2.500000
0
CIRCLE
8
DRILL_5_D12
10
458.200000
20
964.000000
30
0.000000
40
2.500000
0
CIRCLE
8
DRILL_5_D12
10
458.200000
20
736.900000
30
0.000000
40
2.500000
0
CIRCLE
8
DRILL_5_D12
10
426.200000
20
964.000000
30
0.000000
40
2.500000
0
CIRCLE
8
DRILL_5_D12
10
426.200000
20
736.900000
30
0.000000
40
2.500000
0
CIRCLE
8
DRILL_5_D12
10
394.200000
20
964.000000
30
0.000000
40
2.500000
0
CIRCLE
8
DRILL_5_D12
10
394.200000
20
736.900000
30
0.000000
40
2.500000
0
CIRCLE
8
DRILL_5_D12
10
362.200000
20
964.000000
30
0.000000
40
2.500000
0
CIRCLE
8
DRILL_5_D12
10
362.200000
20
736.900000
30
0.000000
40
2.500000
0
CIRCLE
8
DRILL_5_D12
10
330.200000
20
964.000000
30
0.000000
40
2.500000
0
CIRCLE
8
DRILL_5_D12
10
330.200000
20
736.900000
30
0.000000
40
2.500000
0
CIRCLE
8
DRILL_5_D12
10
298.200000
20
964.000000
30
0.000000
40
2.500000
0
CIRCLE
8
DRILL_5_D12
10
298.200000
20
736.900000
30
0.000000
40
2.500000
0
CIRCLE
8
DRILL_5_D12
10
266.200000
20
964.000000
30
0.000000
40
2.500000
0
CIRCLE
8
DRILL_5_D12
10
266.200000
20
736.900000
30
0.000000
40
2.500000
0
CIRCLE
8
DRILL_5_D12
10
234.200000
20
964.000000
30
0.000000
40
2.500000
0
CIRCLE
8
DRILL_5_D12
10
234.200000
20
736.900000
30
0.000000
40
2.500000
0
CIRCLE
8
DRILL_5_D12
10
638.300000
20
964.000000
30
0.000000
40
2.500000
0
CIRCLE
8
DRILL_5_D12
10
606.300000
20
964.000000
30
0.000000
40
2.500000
0
CIRCLE
8
DRILL_5_D12
10
111.500000
20
964.000000
30
0.000000
40
2.500000
0
CIRCLE
8
DRILL_5_D12
10
79.500000
20
964.000000
30
0.000000
40
2.500000
0
CIRCLE
8
DRILL_4.5_THRU
10
81.000000
20
302.200000
30
0.000000
40
2.250000
0
CIRCLE
8
DRILL_4.5_THRU
10
31.000000
20
302.200000
30
0.000000
40
2.250000
0
CIRCLE
8
DRILL_4.5_THRU
10
81.000000
20
302.200000
30
0.000000
40
2.250000
0
CIRCLE
8
DRILL_4.5_THRU
10
31.000000
20
302.200000
30
0.000000
40
2.250000
0
CIRCLE
8
DRILL_5_D12_FLIP
10
33.600000
20
47.000000
30
0.000000
40
2.500000
0
CIRCLE
8
DRILL_5_D12_FLIP
10
33.600000
20
274.100000
30
0.000000
40
2.500000
0
CIRCLE
8
DRILL_5_D12_FLIP
10
65.600000
20
47.000000
30
0.000000
40
2.500000
0
CIRCLE
8
DRILL_5_D12_FLIP
10
65.600000
20
274.100000
30
0.000000
40
2.500000
0
CIRCLE
8
DRILL_5_D12_FLIP
10
97.600000
20
47.000000
30
0.000000
40
2.500000
0
CIRCLE
8
DRILL_5_D12_FLIP
10
97.600000
20
274.100000
30
0.000000
40
2.500000
0
CIRCLE
8
DRILL_5_D12_FLIP
10
129.600000
20
47.000000
30
0.000000
40
2.500000
0
CIRCLE
8
DRILL_5_D12_FLIP
10
129.600000
20
274.100000
30
0.000000
40
2.500000
0
CIRCLE
8
DRILL_5_D12_FLIP
10
161.600000
20
47.000000
30
0.000000
40
2.500000
0
CIRCLE
8
DRILL_5_D12_FLIP
10
161.600000
20
274.100000
30
0.000000
40
2.500000
0
CIRCLE
8
DRILL_5_D12_FLIP
10
193.600000
20
47.000000
30
0.000000
40
2.500000
0
CIRCLE
8
DRILL_5_D12_FLIP
10
193.600000
20
274.100000
30
0.000000
40
2.500000
0
CIRCLE
8
DRILL_5_D12_FLIP
10
225.600000
20
47.000000
30
0.000000
40
2.500000
0
CIRCLE
8
DRILL_5_D12_FLIP
10
225.600000
20
274.100000
30
0.000000
40
2.500000
0
CIRCLE
8
DRILL_5_D12_FLIP
10
257.600000
20
47.000000
30
0.000000
40
2.500000
0
CIRCLE
8
DRILL_5_D12_FLIP
10
257.600000
20
274.100000
30
0.000000
40
2.500000
0
CIRCLE
8
DRILL_5_D12
10
542.400000
20
47.000000
30
0.000000
40
2.500000
0
CIRCLE
8
DRILL_5_D12
10
542.400000
20
274.100000
30
0.000000
40
2.500000
0
CIRCLE
8
DRILL_5_D12
10
510.400000
20
47.000000
30
0.000000
40
2.500000
0
CIRCLE
8
DRILL_5_D12
10
510.400000
20
274.100000
30
0.000000
40
2.500000
0
CIRCLE
8
DRILL_5_D12
10
478.400000
20
47.000000
30
0.000000
40
2.500000
0
CIRCLE
8
DRILL_5_D12
10
478.400000
20
274.100000
30
0.000000
40
2.500000
0
CIRCLE
8
DRILL_5_D12
10
446.400000
20
47.000000
30
0.000000
40
2.500000
0
CIRCLE
8
DRILL_5_D12
10
446.400000
20
274.100000
30
0.000000
40
2.500000
0
CIRCLE
8
DRILL_5_D12
10
414.400000
20
47.000000
30
0.000000
40
2.500000
0
CIRCLE
8
DRILL_5_D12
10
414.400000
20
274.100000
30
0.000000
40
2.500000
0
CIRCLE
8
DRILL_5_D12
10
382.400000
20
47.000000
30
0.000000
40
2.500000
0
CIRCLE
8
DRILL_5_D12
10
382.400000
20
274.100000
30
0.000000
40
2.500000
0
CIRCLE
8
DRILL_5_D12
10
350.400000
20
47.000000
30
0.000000
40
2.500000
0
CIRCLE
8
DRILL_5_D12
10
350.400000
20
274.100000
30
0.000000
40
2.500000
0
CIRCLE
8
DRILL_5_D12
10
318.400000
20
47.000000
30
0.000000
40
2.500000
0
CIRCLE
8
DRILL_5_D12
10
318.400000
20
274.100000
30
0.000000
40
2.500000
0
CIRCLE
8
DRILL_5_D12
10
286.400000
20
47.000000
30
0.000000
40
2.500000
0
CIRCLE
8
DRILL_5_D12
10
286.400000
20
274.100000
30
0.000000
40
2.500000
0
CIRCLE
8
DRILL_5_D12
10
254.400000
20
47.000000
30
0.000000
40
2.500000
0
CIRCLE
8
DRILL_5_D12
10
254.400000
20
274.100000
30
0.000000
40
2.500000
0
CIRCLE
8
DRILL_5_D12
10
222.400000
20
47.000000
30
0.000000
40
2.500000
0
CIRCLE
8
DRILL_5_D12
10
222.400000
20
274.100000
30
0.000000
40
2.500000
0
CIRCLE
8
TILE_REG
10
0.000000
20
6.000000
30
0.000000
40
3.000000
0
CIRCLE
8
TILE_REG
10
0.000000
20
1214.000000
30
0.000000
40
3.000000
0
TEXT
8
LABEL
10
688.000000
20
688.000000
30
0.000000
40
8.000000
1
C2-B-SIDE-R
0
TEXT
8
LABEL
10
664.400000
20
22.000000
30
0.000000
40
8.000000
1
C2-B-DIV-1
0
TEXT
8
LABEL
10
12.000000
20
331.100000
30
0.000000
40
8.000000
1
C2-B-SHELF-ADJ-2
0
ENDSEC
0
EOF
