0
SECTION
2
HEADER
9
$ACADVER
1
AC1009
9
$INSUNITS
70
4.000000
9
$MEASUREMENT
70
1.000000
0
ENDSEC
0
SECTION
2
TABLES
0
TABLE
2
LAYER
70
9.000000
0
LAYER
2
DRILL_4.5_THRU
70
0.000000
62
5.000000
6
CONTINUOUS
0
LAYER
2
DRILL_5_D12
70
0.000000
62
5.000000
6
CONTINUOUS
0
LAYER
2
DRILL_6_THRU
70
0.000000
62
5.000000
6
CONTINUOUS
0
LAYER
2
DRILL_8_D12
70
0.000000
62
5.000000
6
CONTINUOUS
0
LAYER
2
LABEL
70
0.000000
62
8.000000
6
CONTINUOUS
0
LAYER
2
OUTLINE
70
0.000000
62
7.000000
6
CONTINUOUS
0
LAYER
2
POCKET_D13
70
0.000000
62
3.000000
6
CONTINUOUS
0
LAYER
2
POCKET_D6
70
0.000000
62
3.000000
6
CONTINUOUS
0
LAYER
2
SHEET
70
0.000000
62
8.000000
6
CONTINUOUS
0
ENDTAB
0
ENDSEC
0
SECTION
2
ENTITIES
0
POLYLINE
8
SHEET
66
1.000000
70
1.000000
10
0.000000
20
0.000000
30
0.000000
0
VERTEX
8
SHEET
10
0.000000
20
0.000000
30
0.000000
0
VERTEX
8
SHEET
10
2440.000000
20
0.000000
30
0.000000
0
VERTEX
8
SHEET
10
2440.000000
20
1220.000000
30
0.000000
0
VERTEX
8
SHEET
10
0.000000
20
1220.000000
30
0.000000
0
SEQEND
8
SHEET
0
POLYLINE
8
OUTLINE
66
1.000000
70
1.000000
10
0.000000
20
0.000000
30
0.000000
0
VERTEX
8
OUTLINE
10
896.200000
20
10.000000
30
0.000000
0
VERTEX
8
OUTLINE
10
896.200000
20
560.000000
30
0.000000
0
VERTEX
8
OUTLINE
10
796.200000
20
560.000000
30
0.000000
0
VERTEX
8
OUTLINE
10
796.200000
20
610.000000
30
0.000000
0
VERTEX
8
OUTLINE
10
14.000000
20
610.000000
30
0.000000
0
VERTEX
8
OUTLINE
10
14.000000
20
596.850000
30
0.000000
0
VERTEX
8
OUTLINE
10
10.000000
20
596.850000
30
0.000000
0
VERTEX
8
OUTLINE
10
10.000000
20
10.000000
30
0.000000
0
SEQEND
8
OUTLINE
0
POLYLINE
8
POCKET_D6
66
1.000000
70
1.000000
10
0.000000
20
0.000000
30
0.000000
0
VERTEX
8
POCKET_D6
10
796.275000
20
10.000000
30
0.000000
0
VERTEX
8
POCKET_D6
10
796.275000
20
600.000000
30
0.000000
0
VERTEX
8
POCKET_D6
10
778.325000
20
600.000000
30
0.000000
0
VERTEX
8
POCKET_D6
10
778.325000
20
10.000000
30
0.000000
0
SEQEND
8
POCKET_D6
0
POLYLINE
8
POCKET_D6
66
1.000000
70
1.000000
10
0.000000
20
0.000000
30
0.000000
0
VERTEX
8
POCKET_D6
10
896.200000
20
542.125000
30
0.000000
0
VERTEX
8
POCKET_D6
10
896.200000
20
560.075000
30
0.000000
0
VERTEX
8
POCKET_D6
10
796.200000
20
560.075000
30
0.000000
0
VERTEX
8
POCKET_D6
10
796.200000
20
542.125000
30
0.000000
0
SEQEND
8
POCKET_D6
0
POLYLINE
8
POCKET_D6
66
1.000000
70
1.000000
10
0.000000
20
0.000000
30
0.000000
0
VERTEX
8
POCKET_D6
10
778.400000
20
21.925000
30
0.000000
0
VERTEX
8
POCKET_D6
10
778.400000
20
33.975000
30
0.000000
0
VERTEX
8
POCKET_D6
10
14.000000
20
33.975000
30
0.000000
0
VERTEX
8
POCKET_D6
10
14.000000
20
21.925000
30
0.000000
0
SEQEND
8
POCKET_D6
0
POLYLINE
8
OUTLINE
66
1.000000
70
1.000000
10
0.000000
20
0.000000
30
0.000000
0
VERTEX
8
OUTLINE
10
980.000000
20
23.150000
30
0.000000
0
VERTEX
8
OUTLINE
10
986.000000
20
23.150000
30
0.000000
0
VERTEX
8
OUTLINE
10
986.000000
20
10.000000
30
0.000000
0
VERTEX
8
OUTLINE
10
1850.400000
20
10.000000
30
0.000000
0
VERTEX
8
OUTLINE
10
1850.400000
20
23.150000
30
0.000000
0
VERTEX
8
OUTLINE
10
1856.400000
20
23.150000
30
0.000000
0
VERTEX
8
OUTLINE
10
1856.400000
20
610.000000
30
0.000000
0
VERTEX
8
OUTLINE
10
980.000000
20
610.000000
30
0.000000
0
SEQEND
8
OUTLINE
0
POLYLINE
8
POCKET_D6
66
1.000000
70
1.000000
10
0.000000
20
0.000000
30
0.000000
0
VERTEX
8
POCKET_D6
10
1409.225000
20
20.000000
30
0.000000
0
VERTEX
8
POCKET_D6
10
1427.175000
20
20.000000
30
0.000000
0
VERTEX
8
POCKET_D6
10
1427.175000
20
586.100000
30
0.000000
0
VERTEX
8
POCKET_D6
10
1409.225000
20
586.100000
30
0.000000
0
SEQEND
8
POCKET_D6
0
POLYLINE
8
POCKET_D6
66
1.000000
70
1.000000
10
0.000000
20
0.000000
30
0.000000
0
VERTEX
8
POCKET_D6
10
980.000000
20
586.025000
30
0.000000
0
VERTEX
8
POCKET_D6
10
1856.400000
20
586.025000
30
0.000000
0
VERTEX
8
POCKET_D6
10
1856.400000
20
598.075000
30
0.000000
0
VERTEX
8
POCKET_D6
10
980.000000
20
598.075000
30
0.000000
0
SEQEND
8
POCKET_D6
0
POLYLINE
8
OUTLINE
66
1.000000
70
1.000000
10
0.000000
20
0.000000
30
0.000000
0
VERTEX
8
OUTLINE
10
689.200000
20
618.000000
30
0.000000
0
VERTEX
8
OUTLINE
10
689.200000
20
1065.000000
30
0.000000
0
VERTEX
8
OUTLINE
10
10.000000
20
1065.000000
30
0.000000
0
VERTEX
8
OUTLINE
10
10.000000
20
618.000000
30
0.000000
0
SEQEND
8
OUTLINE
0
POLYLINE
8
POCKET_D13
66
1.000000
70
1.000000
10
0.000000
20
0.000000
30
0.000000
0
VERTEX
8
POCKET_D13
10
613.000000
20
623.000000
30
0.000000
42
1.000000
0
VERTEX
8
POCKET_D13
10
613.000000
20
658.000000
30
0.000000
42
1.000000
0
SEQEND
8
POCKET_D13
0
POLYLINE
8
POCKET_D13
66
1.000000
70
1.000000
10
0.000000
20
0.000000
30
0.000000
0
VERTEX
8
POCKET_D13
10
86.200000
20
623.000000
30
0.000000
42
1.000000
0
VERTEX
8
POCKET_D13
10
86.200000
20
658.000000
30
0.000000
42
1.000000
0
SEQEND
8
POCKET_D13
0
POLYLINE
8
OUTLINE
66
1.000000
70
1.000000
10
0.000000
20
0.000000
30
0.000000
0
VERTEX
8
OUTLINE
10
1691.200000
20
618.000000
30
0.000000
0
VERTEX
8
OUTLINE
10
1691.200000
20
1019.000000
30
0.000000
0
VERTEX
8
OUTLINE
10
980.000000
20
1019.000000
30
0.000000
0
VERTEX
8
OUTLINE
10
980.000000
20
618.000000
30
0.000000
0
SEQEND
8
OUTLINE
0
POLYLINE
8
POCKET_D13
66
1.000000
70
1.000000
10
0.000000
20
0.000000
30
0.000000
0
VERTEX
8
POCKET_D13
10
1615.000000
20
623.000000
30
0.000000
42
1.000000
0
VERTEX
8
POCKET_D13
10
1615.000000
20
658.000000
30
0.000000
42
1.000000
0
SEQEND
8
POCKET_D13
0
POLYLINE
8
POCKET_D13
66
1.000000
70
1.000000
10
0.000000
20
0.000000
30
0.000000
0
VERTEX
8
POCKET_D13
10
1056.200000
20
623.000000
30
0.000000
42
1.000000
0
VERTEX
8
POCKET_D13
10
1056.200000
20
658.000000
30
0.000000
42
1.000000
0
SEQEND
8
POCKET_D13
0
POLYLINE
8
OUTLINE
66
1.000000
70
1.000000
10
0.000000
20
0.000000
30
0.000000
0
VERTEX
8
OUTLINE
10
2312.600000
20
618.000000
30
0.000000
0
VERTEX
8
OUTLINE
10
2312.600000
20
1019.000000
30
0.000000
0
VERTEX
8
OUTLINE
10
1960.000000
20
1019.000000
30
0.000000
0
VERTEX
8
OUTLINE
10
1960.000000
20
618.000000
30
0.000000
0
SEQEND
8
OUTLINE
0
POLYLINE
8
OUTLINE
66
1.000000
70
1.000000
10
0.000000
20
0.000000
30
0.000000
0
VERTEX
8
OUTLINE
10
1960.000000
20
10.000000
30
0.000000
0
VERTEX
8
OUTLINE
10
2381.300000
20
10.000000
30
0.000000
0
VERTEX
8
OUTLINE
10
2381.300000
20
309.100000
30
0.000000
0
VERTEX
8
OUTLINE
10
1960.000000
20
309.100000
30
0.000000
0
SEQEND
8
OUTLINE
0
POLYLINE
8
OUTLINE
66
1.000000
70
1.000000
10
0.000000
20
0.000000
30
0.000000
0
VERTEX
8
OUTLINE
10
10.000000
20
1073.000000
30
0.000000
0
VERTEX
8
OUTLINE
10
445.300000
20
1073.000000
30
0.000000
0
VERTEX
8
OUTLINE
10
445.300000
20
1173.000000
30
0.000000
0
VERTEX
8
OUTLINE
10
10.000000
20
1173.000000
30
0.000000
0
SEQEND
8
OUTLINE
0
CIRCLE
8
DRILL_4.5_THRU
10
787.300000
20
50.000000
30
0.000000
40
2.250000
0
CIRCLE
8
DRILL_4.5_THRU
10
787.300000
20
177.500000
30
0.000000
40
2.250000
0
CIRCLE
8
DRILL_4.5_THRU
10
787.300000
20
305.000000
30
0.000000
40
2.250000
0
CIRCLE
8
DRILL_4.5_THRU
10
787.300000
20
432.500000
30
0.000000
40
2.250000
0
CIRCLE
8
DRILL_4.5_THRU
10
787.300000
20
560.000000
30
0.000000
40
2.250000
0
CIRCLE
8
DRILL_4.5_THRU
10
871.200000
20
551.100000
30
0.000000
40
2.250000
0
CIRCLE
8
DRILL_4.5_THRU
10
821.200000
20
551.100000
30
0.000000
40
2.250000
0
CIRCLE
8
DRILL_5_D12
10
650.400000
20
573.000000
30
0.000000
40
2.500000
0
CIRCLE
8
DRILL_5_D12
10
650.400000
20
70.900000
30
0.000000
40
2.500000
0
CIRCLE
8
DRILL_5_D12
10
618.400000
20
573.000000
30
0.000000
40
2.500000
0
CIRCLE
8
DRILL_5_D12
10
618.400000
20
70.900000
30
0.000000
40
2.500000
0
CIRCLE
8
DRILL_5_D12
10
586.400000
20
573.000000
30
0.000000
40
2.500000
0
CIRCLE
8
DRILL_5_D12
10
586.400000
20
70.900000
30
0.000000
40
2.500000
0
CIRCLE
8
DRILL_5_D12
10
554.400000
20
573.000000
30
0.000000
40
2.500000
0
CIRCLE
8
DRILL_5_D12
10
554.400000
20
70.900000
30
0.000000
40
2.500000
0
CIRCLE
8
DRILL_5_D12
10
522.400000
20
573.000000
30
0.000000
40
2.500000
0
CIRCLE
8
DRILL_5_D12
10
522.400000
20
70.900000
30
0.000000
40
2.500000
0
CIRCLE
8
DRILL_5_D12
10
490.400000
20
573.000000
30
0.000000
40
2.500000
0
CIRCLE
8
DRILL_5_D12
10
490.400000
20
70.900000
30
0.000000
40
2.500000
0
CIRCLE
8
DRILL_5_D12
10
458.400000
20
573.000000
30
0.000000
40
2.500000
0
CIRCLE
8
DRILL_5_D12
10
458.400000
20
70.900000
30
0.000000
40
2.500000
0
CIRCLE
8
DRILL_5_D12
10
426.400000
20
573.000000
30
0.000000
40
2.500000
0
CIRCLE
8
DRILL_5_D12
10
426.400000
20
70.900000
30
0.000000
40
2.500000
0
CIRCLE
8
DRILL_5_D12
10
394.400000
20
573.000000
30
0.000000
40
2.500000
0
CIRCLE
8
DRILL_5_D12
10
394.400000
20
70.900000
30
0.000000
40
2.500000
0
CIRCLE
8
DRILL_5_D12
10
362.400000
20
573.000000
30
0.000000
40
2.500000
0
CIRCLE
8
DRILL_5_D12
10
362.400000
20
70.900000
30
0.000000
40
2.500000
0
CIRCLE
8
DRILL_5_D12
10
330.400000
20
573.000000
30
0.000000
40
2.500000
0
CIRCLE
8
DRILL_5_D12
10
330.400000
20
70.900000
30
0.000000
40
2.500000
0
CIRCLE
8
DRILL_5_D12
10
298.400000
20
573.000000
30
0.000000
40
2.500000
0
CIRCLE
8
DRILL_5_D12
10
298.400000
20
70.900000
30
0.000000
40
2.500000
0
CIRCLE
8
DRILL_5_D12
10
266.400000
20
573.000000
30
0.000000
40
2.500000
0
CIRCLE
8
DRILL_5_D12
10
266.400000
20
70.900000
30
0.000000
40
2.500000
0
CIRCLE
8
DRILL_5_D12
10
234.400000
20
573.000000
30
0.000000
40
2.500000
0
CIRCLE
8
DRILL_5_D12
10
234.400000
20
70.900000
30
0.000000
40
2.500000
0
CIRCLE
8
DRILL_5_D12
10
202.400000
20
573.000000
30
0.000000
40
2.500000
0
CIRCLE
8
DRILL_5_D12
10
202.400000
20
70.900000
30
0.000000
40
2.500000
0
CIRCLE
8
DRILL_5_D12
10
170.400000
20
573.000000
30
0.000000
40
2.500000
0
CIRCLE
8
DRILL_5_D12
10
170.400000
20
70.900000
30
0.000000
40
2.500000
0
CIRCLE
8
DRILL_5_D12
10
138.400000
20
573.000000
30
0.000000
40
2.500000
0
CIRCLE
8
DRILL_5_D12
10
138.400000
20
70.900000
30
0.000000
40
2.500000
0
CIRCLE
8
DRILL_4.5_THRU
10
1418.200000
20
60.000000
30
0.000000
40
2.250000
0
CIRCLE
8
DRILL_4.5_THRU
10
1418.200000
20
181.525000
30
0.000000
40
2.250000
0
CIRCLE
8
DRILL_4.5_THRU
10
1418.200000
20
303.050000
30
0.000000
40
2.250000
0
CIRCLE
8
DRILL_4.5_THRU
10
1418.200000
20
424.575000
30
0.000000
40
2.250000
0
CIRCLE
8
DRILL_4.5_THRU
10
1418.200000
20
546.100000
30
0.000000
40
2.250000
0
CIRCLE
8
DRILL_8_D12
10
635.500000
20
650.000000
30
0.000000
40
4.000000
0
CIRCLE
8
DRILL_8_D12
10
590.500000
20
650.000000
30
0.000000
40
4.000000
0
CIRCLE
8
DRILL_8_D12
10
108.700000
20
650.000000
30
0.000000
40
4.000000
0
CIRCLE
8
DRILL_8_D12
10
63.700000
20
650.000000
30
0.000000
40
4.000000
0
CIRCLE
8
DRILL_8_D12
10
1637.500000
20
650.000000
30
0.000000
40
4.000000
0
CIRCLE
8
DRILL_8_D12
10
1592.500000
20
650.000000
30
0.000000
40
4.000000
0
CIRCLE
8
DRILL_8_D12
10
1078.700000
20
650.000000
30
0.000000
40
4.000000
0
CIRCLE
8
DRILL_8_D12
10
1033.700000
20
650.000000
30
0.000000
40
4.000000
0
CIRCLE
8
DRILL_6_THRU
10
76.000000
20
1123.000000
30
0.000000
40
3.000000
0
CIRCLE
8
DRILL_6_THRU
10
379.300000
20
1123.000000
30
0.000000
40
3.000000
0
TEXT
8
LABEL
10
884.200000
20
22.000000
30
0.000000
40
8.000000
1
C1-B-SIDE-R
0
TEXT
8
LABEL
10
992.000000
20
22.000000
30
0.000000
40
8.000000
1
C1-B-BOTTOM
0
TEXT
8
LABEL
10
677.200000
20
630.000000
30
0.000000
40
8.000000
1
C2-B-DOOR-2
0
TEXT
8
LABEL
10
1679.200000
20
630.000000
30
0.000000
40
8.000000
1
C1-B-DOOR-2
0
TEXT
8
LABEL
10
2300.600000
20
630.000000
30
0.000000
40
8.000000
1
C1-B-DRAWER-1-2-FACE
0
TEXT
8
LABEL
10
1972.000000
20
22.000000
30
0.000000
40
8.000000
1
C2-B-SHELF-ADJ-1
0
TEXT
8
LABEL
10
22.000000
20
1085.000000
30
0.000000
40
8.000000
1
C2-B-HANGRAIL-1
0
ENDSEC
0
EOF
