0
SECTION
2
HEADER
9
$ACADVER
1
AC1009
9
$INSUNITS
70
4.000000
9
$MEASUREMENT
70
1.000000
0
ENDSEC
0
SECTION
2
TABLES
0
TABLE
2
LAYER
70
5.000000
0
LAYER
2
DRILL_4.5_THRU
70
0.000000
62
5.000000
6
CONTINUOUS
0
LAYER
2
LABEL
70
0.000000
62
8.000000
6
CONTINUOUS
0
LAYER
2
OUTLINE
70
0.000000
62
7.000000
6
CONTINUOUS
0
LAYER
2
POCKET_D6
70
0.000000
62
3.000000
6
CONTINUOUS
0
LAYER
2
TILE_REG
70
0.000000
62
6.000000
6
CONTINUOUS
0
ENDTAB
0
ENDSEC
0
SECTION
2
ENTITIES
0
POLYLINE
8
OUTLINE
66
1.000000
70
1.000000
10
0.000000
20
0.000000
30
0.000000
0
VERTEX
8
OUTLINE
10
346.600000
20
10.000000
30
0.000000
0
VERTEX
8
OUTLINE
10
346.600000
20
527.000000
30
0.000000
0
VERTEX
8
OUTLINE
10
0.000000
20
527.000000
30
0.000000
0
VERTEX
8
OUTLINE
10
0.000000
20
10.000000
30
0.000000
0
SEQEND
8
OUTLINE
0
POLYLINE
8
POCKET_D6
66
1.000000
70
1.000000
10
0.000000
20
0.000000
30
0.000000
0
VERTEX
8
POCKET_D6
10
346.675000
20
16.000000
30
0.000000
0
VERTEX
8
POCKET_D6
10
346.675000
20
535.000000
30
0.000000
0
VERTEX
8
POCKET_D6
10
332.525000
20
535.000000
30
0.000000
0
VERTEX
8
POCKET_D6
10
332.525000
20
16.000000
30
0.000000
0
SEQEND
8
POCKET_D6
0
POLYLINE
8
OUTLINE
66
1.000000
70
1.000000
10
0.000000
20
0.000000
30
0.000000
0
VERTEX
8
OUTLINE
10
346.600000
20
535.000000
30
0.000000
0
VERTEX
8
OUTLINE
10
346.600000
20
1052.000000
30
0.000000
0
VERTEX
8
OUTLINE
10
0.000000
20
1052.000000
30
0.000000
0
VERTEX
8
OUTLINE
10
0.000000
20
535.000000
30
0.000000
0
SEQEND
8
OUTLINE
0
POLYLINE
8
POCKET_D6
66
1.000000
70
1.000000
10
0.000000
20
0.000000
30
0.000000
0
VERTEX
8
POCKET_D6
10
346.675000
20
527.000000
30
0.000000
0
VERTEX
8
POCKET_D6
10
346.675000
20
1046.000000
30
0.000000
0
VERTEX
8
POCKET_D6
10
332.525000
20
1046.000000
30
0.000000
0
VERTEX
8
POCKET_D6
10
332.525000
20
527.000000
30
0.000000
0
SEQEND
8
POCKET_D6
0
POLYLINE
8
OUTLINE
66
1.000000
70
1.000000
10
0.000000
20
0.000000
30
0.000000
0
VERTEX
8
OUTLINE
10
701.200000
20
10.000000
30
0.000000
0
VERTEX
8
OUTLINE
10
701.200000
20
380.000000
30
0.000000
0
VERTEX
8
OUTLINE
10
354.600000
20
380.000000
30
0.000000
0
VERTEX
8
OUTLINE
10
354.600000
20
10.000000
30
0.000000
0
SEQEND
8
OUTLINE
0
POLYLINE
8
POCKET_D6
66
1.000000
70
1.000000
10
0.000000
20
0.000000
30
0.000000
0
VERTEX
8
POCKET_D6
10
701.200000
20
365.925000
30
0.000000
0
VERTEX
8
POCKET_D6
10
701.200000
20
380.075000
30
0.000000
0
VERTEX
8
POCKET_D6
10
354.600000
20
380.075000
30
0.000000
0
VERTEX
8
POCKET_D6
10
354.600000
20
365.925000
30
0.000000
0
SEQEND
8
POCKET_D6
0
POLYLINE
8
POCKET_D6
66
1.000000
70
1.000000
10
0.000000
20
0.000000
30
0.000000
0
VERTEX
8
POCKET_D6
10
701.200000
20
9.925000
30
0.000000
0
VERTEX
8
POCKET_D6
10
701.200000
20
24.075000
30
0.000000
0
VERTEX
8
POCKET_D6
10
354.600000
20
24.075000
30
0.000000
0
VERTEX
8
POCKET_D6
10
354.600000
20
9.925000
30
0.000000
0
SEQEND
8
POCKET_D6
0
POLYLINE
8
OUTLINE
66
1.000000
70
1.000000
10
0.000000
20
0.000000
30
0.000000
0
VERTEX
8
OUTLINE
10
701.200000
20
388.000000
30
0.000000
0
VERTEX
8
OUTLINE
10
701.200000
20
758.000000
30
0.000000
0
VERTEX
8
OUTLINE
10
354.600000
20
758.000000
30
0.000000
0
VERTEX
8
OUTLINE
10
354.600000
20
388.000000
30
0.000000
0
SEQEND
8
OUTLINE
0
POLYLINE
8
POCKET_D6
66
1.000000
70
1.000000
10
0.000000
20
0.000000
30
0.000000
0
VERTEX
8
POCKET_D6
10
701.200000
20
743.925000
30
0.000000
0
VERTEX
8
POCKET_D6
10
701.200000
20
758.075000
30
0.000000
0
VERTEX
8
POCKET_D6
10
354.600000
20
758.075000
30
0.000000
0
VERTEX
8
POCKET_D6
10
354.600000
20
743.925000
30
0.000000
0
SEQEND
8
POCKET_D6
0
POLYLINE
8
POCKET_D6
66
1.000000
70
1.000000
10
0.000000
20
0.000000
30
0.000000
0
VERTEX
8
POCKET_D6
10
701.200000
20
387.925000
30
0.000000
0
VERTEX
8
POCKET_D6
10
701.200000
20
402.075000
30
0.000000
0
VERTEX
8
POCKET_D6
10
354.600000
20
402.075000
30
0.000000
0
VERTEX
8
POCKET_D6
10
354.600000
20
387.925000
30
0.000000
0
SEQEND
8
POCKET_D6
0
POLYLINE
8
OUTLINE
66
1.000000
70
1.000000
10
0.000000
20
0.000000
30
0.000000
0
VERTEX
8
OUTLINE
10
687.200000
20
766.000000
30
0.000000
0
VERTEX
8
OUTLINE
10
687.200000
20
1136.000000
30
0.000000
0
VERTEX
8
OUTLINE
10
354.600000
20
1136.000000
30
0.000000
0
VERTEX
8
OUTLINE
10
354.600000
20
766.000000
30
0.000000
0
SEQEND
8
OUTLINE
0
POLYLINE
8
POCKET_D6
66
1.000000
70
1.000000
10
0.000000
20
0.000000
30
0.000000
0
VERTEX
8
POCKET_D6
10
687.200000
20
765.925000
30
0.000000
0
VERTEX
8
POCKET_D6
10
687.200000
20
780.075000
30
0.000000
0
VERTEX
8
POCKET_D6
10
354.600000
20
780.075000
30
0.000000
0
VERTEX
8
POCKET_D6
10
354.600000
20
765.925000
30
0.000000
0
SEQEND
8
POCKET_D6
0
POLYLINE
8
POCKET_D6
66
1.000000
70
1.000000
10
0.000000
20
0.000000
30
0.000000
0
VERTEX
8
POCKET_D6
10
687.200000
20
1121.925000
30
0.000000
0
VERTEX
8
POCKET_D6
10
687.200000
20
1136.075000
30
0.000000
0
VERTEX
8
POCKET_D6
10
354.600000
20
1136.075000
30
0.000000
0
VERTEX
8
POCKET_D6
10
354.600000
20
1121.925000
30
0.000000
0
SEQEND
8
POCKET_D6
0
CIRCLE
8
DRILL_4.5_THRU
10
339.600000
20
56.000000
30
0.000000
40
2.250000
0
CIRCLE
8
DRILL_4.5_THRU
10
339.600000
20
202.333333
30
0.000000
40
2.250000
0
CIRCLE
8
DRILL_4.5_THRU
10
339.600000
20
348.666667
30
0.000000
40
2.250000
0
CIRCLE
8
DRILL_4.5_THRU
10
339.600000
20
495.000000
30
0.000000
40
2.250000
0
CIRCLE
8
DRILL_4.5_THRU
10
339.600000
20
27.000000
30
0.000000
40
2.250000
0
CIRCLE
8
DRILL_4.5_THRU
10
339.600000
20
510.000000
30
0.000000
40
2.250000
0
CIRCLE
8
DRILL_4.5_THRU
10
339.600000
20
567.000000
30
0.000000
40
2.250000
0
CIRCLE
8
DRILL_4.5_THRU
10
339.600000
20
713.333333
30
0.000000
40
2.250000
0
CIRCLE
8
DRILL_4.5_THRU
10
339.600000
20
859.666667
30
0.000000
40
2.250000
0
CIRCLE
8
DRILL_4.5_THRU
10
339.600000
20
1006.000000
30
0.000000
40
2.250000
0
CIRCLE
8
DRILL_4.5_THRU
10
339.600000
20
1035.000000
30
0.000000
40
2.250000
0
CIRCLE
8
DRILL_4.5_THRU
10
339.600000
20
552.000000
30
0.000000
40
2.250000
0
CIRCLE
8
DRILL_4.5_THRU
10
661.200000
20
373.000000
30
0.000000
40
2.250000
0
CIRCLE
8
DRILL_4.5_THRU
10
527.900000
20
373.000000
30
0.000000
40
2.250000
0
CIRCLE
8
DRILL_4.5_THRU
10
394.600000
20
373.000000
30
0.000000
40
2.250000
0
CIRCLE
8
DRILL_4.5_THRU
10
661.200000
20
17.000000
30
0.000000
40
2.250000
0
CIRCLE
8
DRILL_4.5_THRU
10
527.900000
20
17.000000
30
0.000000
40
2.250000
0
CIRCLE
8
DRILL_4.5_THRU
10
394.600000
20
17.000000
30
0.000000
40
2.250000
0
CIRCLE
8
DRILL_4.5_THRU
10
661.200000
20
751.000000
30
0.000000
40
2.250000
0
CIRCLE
8
DRILL_4.5_THRU
10
527.900000
20
751.000000
30
0.000000
40
2.250000
0
CIRCLE
8
DRILL_4.5_THRU
10
394.600000
20
751.000000
30
0.000000
40
2.250000
0
CIRCLE
8
DRILL_4.5_THRU
10
661.200000
20
395.000000
30
0.000000
40
2.250000
0
CIRCLE
8
DRILL_4.5_THRU
10
527.900000
20
395.000000
30
0.000000
40
2.250000
0
CIRCLE
8
DRILL_4.5_THRU
10
394.600000
20
395.000000
30
0.000000
40
2.250000
0
CIRCLE
8
DRILL_4.5_THRU
10
647.200000
20
773.000000
30
0.000000
40
2.250000
0
CIRCLE
8
DRILL_4.5_THRU
10
520.900000
20
773.000000
30
0.000000
40
2.250000
0
CIRCLE
8
DRILL_4.5_THRU
10
394.600000
20
773.000000
30
0.000000
40
2.250000
0
CIRCLE
8
DRILL_4.5_THRU
10
647.200000
20
1129.000000
30
0.000000
40
2.250000
0
CIRCLE
8
DRILL_4.5_THRU
10
520.900000
20
1129.000000
30
0.000000
40
2.250000
0
CIRCLE
8
DRILL_4.5_THRU
10
394.600000
20
1129.000000
30
0.000000
40
2.250000
0
CIRCLE
8
TILE_REG
10
0.000000
20
6.000000
30
0.000000
40
3.000000
0
CIRCLE
8
TILE_REG
10
0.000000
20
1214.000000
30
0.000000
40
3.000000
0
CIRCLE
8
TILE_REG
10
980.000000
20
6.000000
30
0.000000
40
3.000000
0
CIRCLE
8
TILE_REG
10
980.000000
20
1214.000000
30
0.000000
40
3.000000
0
TEXT
8
LABEL
10
334.600000
20
22.000000
30
0.000000
40
8.000000
1
C1-B-DRAWER-1-2-SIDE-L
0
TEXT
8
LABEL
10
334.600000
20
547.000000
30
0.000000
40
8.000000
1
C1-B-DRAWER-1-2-SIDE-R
0
TEXT
8
LABEL
10
689.200000
20
22.000000
30
0.000000
40
8.000000
1
C1-B-DRAWER-1-1-FRONT
0
TEXT
8
LABEL
10
689.200000
20
400.000000
30
0.000000
40
8.000000
1
C1-B-DRAWER-1-2-FRONT
0
TEXT
8
LABEL
10
675.200000
20
778.000000
30
0.000000
40
8.000000
1
C1-B-DRAWER-1-1-BACK
0
ENDSEC
0
EOF
