0
SECTION
2
HEADER
9
$ACADVER
1
AC1009
9
$INSUNITS
70
4.000000
9
$MEASUREMENT
70
1.000000
0
ENDSEC
0
SECTION
2
TABLES
0
TABLE
2
LAYER
70
10.000000
0
LAYER
2
DRILL_4.5_THRU
70
0.000000
62
5.000000
6
CONTINUOUS
0
LAYER
2
DRILL_5_D12
70
0.000000
62
5.000000
6
CONTINUOUS
0
LAYER
2
DRILL_6_THRU
70
0.000000
62
5.000000
6
CONTINUOUS
0
LAYER
2
DRILL_8_D12
70
0.000000
62
5.000000
6
CONTINUOUS
0
LAYER
2
LABEL
70
0.000000
62
8.000000
6
CONTINUOUS
0
LAYER
2
OUTLINE
70
0.000000
62
7.000000
6
CONTINUOUS
0
LAYER
2
POCKET_D13
70
0.000000
62
3.000000
6
CONTINUOUS
0
LAYER
2
POCKET_D4
70
0.000000
62
3.000000
6
CONTINUOUS
0
LAYER
2
POCKET_D6
70
0.000000
62
3.000000
6
CONTINUOUS
0
LAYER
2
SHEET
70
0.000000
62
8.000000
6
CONTINUOUS
0
ENDTAB
0
ENDSEC
0
SECTION
2
ENTITIES
0
POLYLINE
8
SHEET
66
1.000000
70
1.000000
10
0.000000
20
0.000000
30
0.000000
0
VERTEX
8
SHEET
10
0.000000
20
0.000000
30
0.000000
0
VERTEX
8
SHEET
10
2440.000000
20
0.000000
30
0.000000
0
VERTEX
8
SHEET
10
2440.000000
20
1220.000000
30
0.000000
0
VERTEX
8
SHEET
10
0.000000
20
1220.000000
30
0.000000
0
SEQEND
8
SHEET
0
POLYLINE
8
OUTLINE
66
1.000000
70
1.000000
10
0.000000
20
0.000000
30
0.000000
0
VERTEX
8
OUTLINE
10
10.000000
20
10.000000
30
0.000000
0
VERTEX
8
OUTLINE
10
910.000000
20
10.000000
30
0.000000
0
VERTEX
8
OUTLINE
10
910.000000
20
610.000000
30
0.000000
0
VERTEX
8
OUTLINE
10
10.000000
20
610.000000
30
0.000000
0
SEQEND
8
OUTLINE
0
POLYLINE
8
POCKET_D4
66
1.000000
70
1.000000
10
0.000000
20
0.000000
30
0.000000
0
VERTEX
8
POCKET_D4
10
892.125000
20
20.000000
30
0.000000
0
VERTEX
8
POCKET_D4
10
910.075000
20
20.000000
30
0.000000
0
VERTEX
8
POCKET_D4
10
910.075000
20
610.000000
30
0.000000
0
VERTEX
8
POCKET_D4
10
892.125000
20
610.000000
30
0.000000
0
SEQEND
8
POCKET_D4
0
POLYLINE
8
POCKET_D4
66
1.000000
70
1.000000
10
0.000000
20
0.000000
30
0.000000
0
VERTEX
8
POCKET_D4
10
9.925000
20
20.000000
30
0.000000
0
VERTEX
8
POCKET_D4
10
27.875000
20
20.000000
30
0.000000
0
VERTEX
8
POCKET_D4
10
27.875000
20
610.000000
30
0.000000
0
VERTEX
8
POCKET_D4
10
9.925000
20
610.000000
30
0.000000
0
SEQEND
8
POCKET_D4
0
POLYLINE
8
POCKET_D6
66
1.000000
70
1.000000
10
0.000000
20
0.000000
30
0.000000
0
VERTEX
8
POCKET_D6
10
451.025000
20
20.000000
30
0.000000
0
VERTEX
8
POCKET_D6
10
468.975000
20
20.000000
30
0.000000
0
VERTEX
8
POCKET_D6
10
468.975000
20
586.100000
30
0.000000
0
VERTEX
8
POCKET_D6
10
451.025000
20
586.100000
30
0.000000
0
SEQEND
8
POCKET_D6
0
POLYLINE
8
POCKET_D6
66
1.000000
70
1.000000
10
0.000000
20
0.000000
30
0.000000
0
VERTEX
8
POCKET_D6
10
21.800000
20
586.025000
30
0.000000
0
VERTEX
8
POCKET_D6
10
898.200000
20
586.025000
30
0.000000
0
VERTEX
8
POCKET_D6
10
898.200000
20
598.075000
30
0.000000
0
VERTEX
8
POCKET_D6
10
21.800000
20
598.075000
30
0.000000
0
SEQEND
8
POCKET_D6
0
POLYLINE
8
OUTLINE
66
1.000000
70
1.000000
10
0.000000
20
0.000000
30
0.000000
0
VERTEX
8
OUTLINE
10
1766.200000
20
10.000000
30
0.000000
0
VERTEX
8
OUTLINE
10
1766.200000
20
60.000000
30
0.000000
0
VERTEX
8
OUTLINE
10
1866.200000
20
60.000000
30
0.000000
0
VERTEX
8
OUTLINE
10
1866.200000
20
610.000000
30
0.000000
0
VERTEX
8
OUTLINE
10
980.000000
20
610.000000
30
0.000000
0
VERTEX
8
OUTLINE
10
980.000000
20
23.150000
30
0.000000
0
VERTEX
8
OUTLINE
10
984.000000
20
23.150000
30
0.000000
0
VERTEX
8
OUTLINE
10
984.000000
20
10.000000
30
0.000000
0
SEQEND
8
OUTLINE
0
POLYLINE
8
POCKET_D6
66
1.000000
70
1.000000
10
0.000000
20
0.000000
30
0.000000
0
VERTEX
8
POCKET_D6
10
1766.275000
20
20.000000
30
0.000000
0
VERTEX
8
POCKET_D6
10
1766.275000
20
610.000000
30
0.000000
0
VERTEX
8
POCKET_D6
10
1748.325000
20
610.000000
30
0.000000
0
VERTEX
8
POCKET_D6
10
1748.325000
20
20.000000
30
0.000000
0
SEQEND
8
POCKET_D6
0
POLYLINE
8
POCKET_D6
66
1.000000
70
1.000000
10
0.000000
20
0.000000
30
0.000000
0
VERTEX
8
POCKET_D6
10
1866.200000
20
59.925000
30
0.000000
0
VERTEX
8
POCKET_D6
10
1866.200000
20
77.875000
30
0.000000
0
VERTEX
8
POCKET_D6
10
1766.200000
20
77.875000
30
0.000000
0
VERTEX
8
POCKET_D6
10
1766.200000
20
59.925000
30
0.000000
0
SEQEND
8
POCKET_D6
0
POLYLINE
8
POCKET_D6
66
1.000000
70
1.000000
10
0.000000
20
0.000000
30
0.000000
0
VERTEX
8
POCKET_D6
10
1748.400000
20
586.025000
30
0.000000
0
VERTEX
8
POCKET_D6
10
1748.400000
20
598.075000
30
0.000000
0
VERTEX
8
POCKET_D6
10
984.000000
20
598.075000
30
0.000000
0
VERTEX
8
POCKET_D6
10
984.000000
20
586.025000
30
0.000000
0
SEQEND
8
POCKET_D6
0
POLYLINE
8
OUTLINE
66
1.000000
70
1.000000
10
0.000000
20
0.000000
30
0.000000
0
VERTEX
8
OUTLINE
10
780.400000
20
618.000000
30
0.000000
0
VERTEX
8
OUTLINE
10
780.400000
20
631.150000
30
0.000000
0
VERTEX
8
OUTLINE
10
786.400000
20
631.150000
30
0.000000
0
VERTEX
8
OUTLINE
10
786.400000
20
1194.100000
30
0.000000
0
VERTEX
8
OUTLINE
10
10.000000
20
1194.100000
30
0.000000
0
VERTEX
8
OUTLINE
10
10.000000
20
631.150000
30
0.000000
0
VERTEX
8
OUTLINE
10
16.000000
20
631.150000
30
0.000000
0
VERTEX
8
OUTLINE
10
16.000000
20
618.000000
30
0.000000
0
SEQEND
8
OUTLINE
0
POLYLINE
8
OUTLINE
66
1.000000
70
1.000000
10
0.000000
20
0.000000
30
0.000000
0
VERTEX
8
OUTLINE
10
1659.200000
20
618.000000
30
0.000000
0
VERTEX
8
OUTLINE
10
1659.200000
20
1065.000000
30
0.000000
0
VERTEX
8
OUTLINE
10
980.000000
20
1065.000000
30
0.000000
0
VERTEX
8
OUTLINE
10
980.000000
20
618.000000
30
0.000000
0
SEQEND
8
OUTLINE
0
POLYLINE
8
POCKET_D13
66
1.000000
70
1.000000
10
0.000000
20
0.000000
30
0.000000
0
VERTEX
8
POCKET_D13
10
1583.000000
20
1025.000000
30
0.000000
42
1.000000
0
VERTEX
8
POCKET_D13
10
1583.000000
20
1060.000000
30
0.000000
42
1.000000
0
SEQEND
8
POCKET_D13
0
POLYLINE
8
POCKET_D13
66
1.000000
70
1.000000
10
0.000000
20
0.000000
30
0.000000
0
VERTEX
8
POCKET_D13
10
1056.200000
20
1025.000000
30
0.000000
42
1.000000
0
VERTEX
8
POCKET_D13
10
1056.200000
20
1060.000000
30
0.000000
42
1.000000
0
SEQEND
8
POCKET_D13
0
POLYLINE
8
OUTLINE
66
1.000000
70
1.000000
10
0.000000
20
0.000000
30
0.000000
0
VERTEX
8
OUTLINE
10
1960.000000
20
618.000000
30
0.000000
0
VERTEX
8
OUTLINE
10
2381.300000
20
618.000000
30
0.000000
0
VERTEX
8
OUTLINE
10
2381.300000
20
1192.100000
30
0.000000
0
VERTEX
8
OUTLINE
10
1960.000000
20
1192.100000
30
0.000000
0
SEQEND
8
OUTLINE
0
POLYLINE
8
OUTLINE
66
1.000000
70
1.000000
10
0.000000
20
0.000000
30
0.000000
0
VERTEX
8
OUTLINE
10
2312.600000
20
10.000000
30
0.000000
0
VERTEX
8
OUTLINE
10
2312.600000
20
411.000000
30
0.000000
0
VERTEX
8
OUTLINE
10
1960.000000
20
411.000000
30
0.000000
0
VERTEX
8
OUTLINE
10
1960.000000
20
10.000000
30
0.000000
0
SEQEND
8
OUTLINE
0
POLYLINE
8
OUTLINE
66
1.000000
70
1.000000
10
0.000000
20
0.000000
30
0.000000
0
VERTEX
8
OUTLINE
10
980.000000
20
1073.000000
30
0.000000
0
VERTEX
8
OUTLINE
10
1856.400000
20
1073.000000
30
0.000000
0
VERTEX
8
OUTLINE
10
1856.400000
20
1173.000000
30
0.000000
0
VERTEX
8
OUTLINE
10
980.000000
20
1173.000000
30
0.000000
0
SEQEND
8
OUTLINE
0
POLYLINE
8
OUTLINE
66
1.000000
70
1.000000
10
0.000000
20
0.000000
30
0.000000
0
VERTEX
8
OUTLINE
10
1960.000000
20
419.000000
30
0.000000
0
VERTEX
8
OUTLINE
10
2395.300000
20
419.000000
30
0.000000
0
VERTEX
8
OUTLINE
10
2395.300000
20
519.000000
30
0.000000
0
VERTEX
8
OUTLINE
10
1960.000000
20
519.000000
30
0.000000
0
SEQEND
8
OUTLINE
0
CIRCLE
8
DRILL_4.5_THRU
10
901.100000
20
60.000000
30
0.000000
40
2.250000
0
CIRCLE
8
DRILL_4.5_THRU
10
901.100000
20
187.500000
30
0.000000
40
2.250000
0
CIRCLE
8
DRILL_4.5_THRU
10
901.100000
20
315.000000
30
0.000000
40
2.250000
0
CIRCLE
8
DRILL_4.5_THRU
10
901.100000
20
442.500000
30
0.000000
40
2.250000
0
CIRCLE
8
DRILL_4.5_THRU
10
901.100000
20
570.000000
30
0.000000
40
2.250000
0
CIRCLE
8
DRILL_4.5_THRU
10
18.900000
20
60.000000
30
0.000000
40
2.250000
0
CIRCLE
8
DRILL_4.5_THRU
10
18.900000
20
187.500000
30
0.000000
40
2.250000
0
CIRCLE
8
DRILL_4.5_THRU
10
18.900000
20
315.000000
30
0.000000
40
2.250000
0
CIRCLE
8
DRILL_4.5_THRU
10
18.900000
20
442.500000
30
0.000000
40
2.250000
0
CIRCLE
8
DRILL_4.5_THRU
10
18.900000
20
570.000000
30
0.000000
40
2.250000
0
CIRCLE
8
DRILL_4.5_THRU
10
460.000000
20
60.000000
30
0.000000
40
2.250000
0
CIRCLE
8
DRILL_4.5_THRU
10
460.000000
20
181.525000
30
0.000000
40
2.250000
0
CIRCLE
8
DRILL_4.5_THRU
10
460.000000
20
303.050000
30
0.000000
40
2.250000
0
CIRCLE
8
DRILL_4.5_THRU
10
460.000000
20
424.575000
30
0.000000
40
2.250000
0
CIRCLE
8
DRILL_4.5_THRU
10
460.000000
20
546.100000
30
0.000000
40
2.250000
0
CIRCLE
8
DRILL_4.5_THRU
10
1757.300000
20
60.000000
30
0.000000
40
2.250000
0
CIRCLE
8
DRILL_4.5_THRU
10
1757.300000
20
187.500000
30
0.000000
40
2.250000
0
CIRCLE
8
DRILL_4.5_THRU
10
1757.300000
20
315.000000
30
0.000000
40
2.250000
0
CIRCLE
8
DRILL_4.5_THRU
10
1757.300000
20
442.500000
30
0.000000
40
2.250000
0
CIRCLE
8
DRILL_4.5_THRU
10
1757.300000
20
570.000000
30
0.000000
40
2.250000
0
CIRCLE
8
DRILL_4.5_THRU
10
1841.200000
20
68.900000
30
0.000000
40
2.250000
0
CIRCLE
8
DRILL_4.5_THRU
10
1791.200000
20
68.900000
30
0.000000
40
2.250000
0
CIRCLE
8
DRILL_4.5_THRU
10
1365.100000
20
16.000000
30
0.000000
40
2.250000
0
CIRCLE
8
DRILL_4.5_THRU
10
1365.100000
20
499.000000
30
0.000000
40
2.250000
0
CIRCLE
8
DRILL_4.5_THRU
10
1720.700000
20
16.000000
30
0.000000
40
2.250000
0
CIRCLE
8
DRILL_4.5_THRU
10
1720.700000
20
499.000000
30
0.000000
40
2.250000
0
CIRCLE
8
DRILL_5_D12
10
652.400000
20
655.000000
30
0.000000
40
2.500000
0
CIRCLE
8
DRILL_5_D12
10
652.400000
20
1157.100000
30
0.000000
40
2.500000
0
CIRCLE
8
DRILL_5_D12
10
620.400000
20
655.000000
30
0.000000
40
2.500000
0
CIRCLE
8
DRILL_5_D12
10
620.400000
20
1157.100000
30
0.000000
40
2.500000
0
CIRCLE
8
DRILL_5_D12
10
588.400000
20
655.000000
30
0.000000
40
2.500000
0
CIRCLE
8
DRILL_5_D12
10
588.400000
20
1157.100000
30
0.000000
40
2.500000
0
CIRCLE
8
DRILL_5_D12
10
556.400000
20
655.000000
30
0.000000
40
2.500000
0
CIRCLE
8
DRILL_5_D12
10
556.400000
20
1157.100000
30
0.000000
40
2.500000
0
CIRCLE
8
DRILL_5_D12
10
524.400000
20
655.000000
30
0.000000
40
2.500000
0
CIRCLE
8
DRILL_5_D12
10
524.400000
20
1157.100000
30
0.000000
40
2.500000
0
CIRCLE
8
DRILL_5_D12
10
492.400000
20
655.000000
30
0.000000
40
2.500000
0
CIRCLE
8
DRILL_5_D12
10
492.400000
20
1157.100000
30
0.000000
40
2.500000
0
CIRCLE
8
DRILL_5_D12
10
460.400000
20
655.000000
30
0.000000
40
2.500000
0
CIRCLE
8
DRILL_5_D12
10
460.400000
20
1157.100000
30
0.000000
40
2.500000
0
CIRCLE
8
DRILL_5_D12
10
428.400000
20
655.000000
30
0.000000
40
2.500000
0
CIRCLE
8
DRILL_5_D12
10
428.400000
20
1157.100000
30
0.000000
40
2.500000
0
CIRCLE
8
DRILL_5_D12
10
396.400000
20
655.000000
30
0.000000
40
2.500000
0
CIRCLE
8
DRILL_5_D12
10
396.400000
20
1157.100000
30
0.000000
40
2.500000
0
CIRCLE
8
DRILL_5_D12
10
364.400000
20
655.000000
30
0.000000
40
2.500000
0
CIRCLE
8
DRILL_5_D12
10
364.400000
20
1157.100000
30
0.000000
40
2.500000
0
CIRCLE
8
DRILL_5_D12
10
332.400000
20
655.000000
30
0.000000
40
2.500000
0
CIRCLE
8
DRILL_5_D12
10
332.400000
20
1157.100000
30
0.000000
40
2.500000
0
CIRCLE
8
DRILL_5_D12
10
300.400000
20
655.000000
30
0.000000
40
2.500000
0
CIRCLE
8
DRILL_5_D12
10
300.400000
20
1157.100000
30
0.000000
40
2.500000
0
CIRCLE
8
DRILL_5_D12
10
268.400000
20
655.000000
30
0.000000
40
2.500000
0
CIRCLE
8
DRILL_5_D12
10
268.400000
20
1157.100000
30
0.000000
40
2.500000
0
CIRCLE
8
DRILL_5_D12
10
236.400000
20
655.000000
30
0.000000
40
2.500000
0
CIRCLE
8
DRILL_5_D12
10
236.400000
20
1157.100000
30
0.000000
40
2.500000
0
CIRCLE
8
DRILL_5_D12
10
204.400000
20
655.000000
30
0.000000
40
2.500000
0
CIRCLE
8
DRILL_5_D12
10
204.400000
20
1157.100000
30
0.000000
40
2.500000
0
CIRCLE
8
DRILL_5_D12
10
172.400000
20
655.000000
30
0.000000
40
2.500000
0
CIRCLE
8
DRILL_5_D12
10
172.400000
20
1157.100000
30
0.000000
40
2.500000
0
CIRCLE
8
DRILL_5_D12
10
140.400000
20
655.000000
30
0.000000
40
2.500000
0
CIRCLE
8
DRILL_5_D12
10
140.400000
20
1157.100000
30
0.000000
40
2.500000
0
CIRCLE
8
DRILL_4.5_THRU
10
397.100000
20
624.000000
30
0.000000
40
2.250000
0
CIRCLE
8
DRILL_4.5_THRU
10
397.100000
20
1107.000000
30
0.000000
40
2.250000
0
CIRCLE
8
DRILL_4.5_THRU
10
752.700000
20
624.000000
30
0.000000
40
2.250000
0
CIRCLE
8
DRILL_4.5_THRU
10
752.700000
20
1107.000000
30
0.000000
40
2.250000
0
CIRCLE
8
DRILL_8_D12
10
1605.500000
20
1033.000000
30
0.000000
40
4.000000
0
CIRCLE
8
DRILL_8_D12
10
1560.500000
20
1033.000000
30
0.000000
40
4.000000
0
CIRCLE
8
DRILL_8_D12
10
1078.700000
20
1033.000000
30
0.000000
40
4.000000
0
CIRCLE
8
DRILL_8_D12
10
1033.700000
20
1033.000000
30
0.000000
40
4.000000
0
CIRCLE
8
DRILL_6_THRU
10
2026.000000
20
469.000000
30
0.000000
40
3.000000
0
CIRCLE
8
DRILL_6_THRU
10
2329.300000
20
469.000000
30
0.000000
40
3.000000
0
TEXT
8
LABEL
10
22.000000
20
22.000000
30
0.000000
40
8.000000
1
C1-B-TOP
0
TEXT
8
LABEL
10
1854.200000
20
22.000000
30
0.000000
40
8.000000
1
C1-B-SIDE-L
0
TEXT
8
LABEL
10
774.400000
20
630.000000
30
0.000000
40
8.000000
1
C1-B-DIV-1
0
TEXT
8
LABEL
10
1647.200000
20
630.000000
30
0.000000
40
8.000000
1
C2-B-DOOR-1
0
TEXT
8
LABEL
10
1972.000000
20
630.000000
30
0.000000
40
8.000000
1
C1-B-SHELF-ADJ-2
0
TEXT
8
LABEL
10
2300.600000
20
22.000000
30
0.000000
40
8.000000
1
C1-B-DRAWER-1-1-FACE
0
TEXT
8
LABEL
10
992.000000
20
1085.000000
30
0.000000
40
8.000000
1
C1-B-TOERAIL
0
TEXT
8
LABEL
10
1972.000000
20
431.000000
30
0.000000
40
8.000000
1
C2-B-HANGRAIL-2
0
ENDSEC
0
EOF
