0
SECTION
2
HEADER
9
$ACADVER
1
AC1009
9
$INSUNITS
70
4.000000
9
$MEASUREMENT
70
1.000000
0
ENDSEC
0
SECTION
2
TABLES
0
TABLE
2
LAYER
70
7.000000
0
LAYER
2
DRILL_4.5_THRU
70
0.000000
62
5.000000
6
CONTINUOUS
0
LAYER
2
DRILL_5_D12
70
0.000000
62
5.000000
6
CONTINUOUS
0
LAYER
2
DRILL_5_D12_FLIP
70
0.000000
62
5.000000
6
CONTINUOUS
0
LAYER
2
LABEL
70
0.000000
62
8.000000
6
CONTINUOUS
0
LAYER
2
OUTLINE
70
0.000000
62
7.000000
6
CONTINUOUS
0
LAYER
2
POCKET_D6
70
0.000000
62
3.000000
6
CONTINUOUS
0
LAYER
2
TILE_REG
70
0.000000
62
6.000000
6
CONTINUOUS
0
ENDTAB
0
ENDSEC
0
SECTION
2
ENTITIES
0
POLYLINE
8
OUTLINE
66
1.000000
70
1.000000
10
0.000000
20
0.000000
30
0.000000
0
VERTEX
8
OUTLINE
10
10.000000
20
23.150000
30
0.000000
0
VERTEX
8
OUTLINE
10
16.000000
20
23.150000
30
0.000000
0
VERTEX
8
OUTLINE
10
16.000000
20
10.000000
30
0.000000
0
VERTEX
8
OUTLINE
10
880.400000
20
10.000000
30
0.000000
0
VERTEX
8
OUTLINE
10
880.400000
20
23.150000
30
0.000000
0
VERTEX
8
OUTLINE
10
886.400000
20
23.150000
30
0.000000
0
VERTEX
8
OUTLINE
10
886.400000
20
335.000000
30
0.000000
0
VERTEX
8
OUTLINE
10
10.000000
20
335.000000
30
0.000000
0
SEQEND
8
OUTLINE
0
POLYLINE
8
POCKET_D6
66
1.000000
70
1.000000
10
0.000000
20
0.000000
30
0.000000
0
VERTEX
8
POCKET_D6
10
439.225000
20
20.000000
30
0.000000
0
VERTEX
8
POCKET_D6
10
457.175000
20
20.000000
30
0.000000
0
VERTEX
8
POCKET_D6
10
457.175000
20
311.100000
30
0.000000
0
VERTEX
8
POCKET_D6
10
439.225000
20
311.100000
30
0.000000
0
SEQEND
8
POCKET_D6
0
POLYLINE
8
POCKET_D6
66
1.000000
70
1.000000
10
0.000000
20
0.000000
30
0.000000
0
VERTEX
8
POCKET_D6
10
10.000000
20
311.025000
30
0.000000
0
VERTEX
8
POCKET_D6
10
886.400000
20
311.025000
30
0.000000
0
VERTEX
8
POCKET_D6
10
886.400000
20
323.075000
30
0.000000
0
VERTEX
8
POCKET_D6
10
10.000000
20
323.075000
30
0.000000
0
SEQEND
8
POCKET_D6
0
POLYLINE
8
OUTLINE
66
1.000000
70
1.000000
10
0.000000
20
0.000000
30
0.000000
0
VERTEX
8
OUTLINE
10
10.000000
20
356.150000
30
0.000000
0
VERTEX
8
OUTLINE
10
16.000000
20
356.150000
30
0.000000
0
VERTEX
8
OUTLINE
10
16.000000
20
343.000000
30
0.000000
0
VERTEX
8
OUTLINE
10
880.400000
20
343.000000
30
0.000000
0
VERTEX
8
OUTLINE
10
880.400000
20
356.150000
30
0.000000
0
VERTEX
8
OUTLINE
10
886.400000
20
356.150000
30
0.000000
0
VERTEX
8
OUTLINE
10
886.400000
20
668.000000
30
0.000000
0
VERTEX
8
OUTLINE
10
10.000000
20
668.000000
30
0.000000
0
SEQEND
8
OUTLINE
0
POLYLINE
8
POCKET_D6
66
1.000000
70
1.000000
10
0.000000
20
0.000000
30
0.000000
0
VERTEX
8
POCKET_D6
10
439.225000
20
353.000000
30
0.000000
0
VERTEX
8
POCKET_D6
10
457.175000
20
353.000000
30
0.000000
0
VERTEX
8
POCKET_D6
10
457.175000
20
644.100000
30
0.000000
0
VERTEX
8
POCKET_D6
10
439.225000
20
644.100000
30
0.000000
0
SEQEND
8
POCKET_D6
0
POLYLINE
8
POCKET_D6
66
1.000000
70
1.000000
10
0.000000
20
0.000000
30
0.000000
0
VERTEX
8
POCKET_D6
10
10.000000
20
644.025000
30
0.000000
0
VERTEX
8
POCKET_D6
10
886.400000
20
644.025000
30
0.000000
0
VERTEX
8
POCKET_D6
10
886.400000
20
656.075000
30
0.000000
0
VERTEX
8
POCKET_D6
10
10.000000
20
656.075000
30
0.000000
0
SEQEND
8
POCKET_D6
0
POLYLINE
8
OUTLINE
66
1.000000
70
1.000000
10
0.000000
20
0.000000
30
0.000000
0
VERTEX
8
OUTLINE
10
710.000000
20
676.000000
30
0.000000
0
VERTEX
8
OUTLINE
10
710.000000
20
1001.000000
30
0.000000
0
VERTEX
8
OUTLINE
10
10.000000
20
1001.000000
30
0.000000
0
VERTEX
8
OUTLINE
10
10.000000
20
676.000000
30
0.000000
0
SEQEND
8
OUTLINE
0
POLYLINE
8
POCKET_D6
66
1.000000
70
1.000000
10
0.000000
20
0.000000
30
0.000000
0
VERTEX
8
POCKET_D6
10
27.875000
20
686.000000
30
0.000000
0
VERTEX
8
POCKET_D6
10
27.875000
20
1001.000000
30
0.000000
0
VERTEX
8
POCKET_D6
10
9.925000
20
1001.000000
30
0.000000
0
VERTEX
8
POCKET_D6
10
9.925000
20
686.000000
30
0.000000
0
SEQEND
8
POCKET_D6
0
POLYLINE
8
POCKET_D6
66
1.000000
70
1.000000
10
0.000000
20
0.000000
30
0.000000
0
VERTEX
8
POCKET_D6
10
710.075000
20
686.000000
30
0.000000
0
VERTEX
8
POCKET_D6
10
710.075000
20
1001.000000
30
0.000000
0
VERTEX
8
POCKET_D6
10
692.125000
20
1001.000000
30
0.000000
0
VERTEX
8
POCKET_D6
10
692.125000
20
686.000000
30
0.000000
0
SEQEND
8
POCKET_D6
0
POLYLINE
8
POCKET_D6
66
1.000000
70
1.000000
10
0.000000
20
0.000000
30
0.000000
0
VERTEX
8
POCKET_D6
10
127.800000
20
959.225000
30
0.000000
0
VERTEX
8
POCKET_D6
10
127.800000
20
977.175000
30
0.000000
0
VERTEX
8
POCKET_D6
10
27.800000
20
977.175000
30
0.000000
0
VERTEX
8
POCKET_D6
10
27.800000
20
959.225000
30
0.000000
0
SEQEND
8
POCKET_D6
0
POLYLINE
8
POCKET_D6
66
1.000000
70
1.000000
10
0.000000
20
0.000000
30
0.000000
0
VERTEX
8
POCKET_D6
10
692.200000
20
977.025000
30
0.000000
0
VERTEX
8
POCKET_D6
10
692.200000
20
989.075000
30
0.000000
0
VERTEX
8
POCKET_D6
10
127.800000
20
989.075000
30
0.000000
0
VERTEX
8
POCKET_D6
10
127.800000
20
977.025000
30
0.000000
0
SEQEND
8
POCKET_D6
0
POLYLINE
8
POCKET_D6
66
1.000000
70
1.000000
10
0.000000
20
0.000000
30
0.000000
0
VERTEX
8
POCKET_D6
10
980.000000
20
676.000000
30
0.000000
0
VERTEX
8
POCKET_D6
10
980.000000
20
991.000000
30
0.000000
0
VERTEX
8
POCKET_D6
10
979.925000
20
991.000000
30
0.000000
0
VERTEX
8
POCKET_D6
10
979.925000
20
676.000000
30
0.000000
0
SEQEND
8
POCKET_D6
0
CIRCLE
8
DRILL_4.5_THRU
10
448.200000
20
60.000000
30
0.000000
40
2.250000
0
CIRCLE
8
DRILL_4.5_THRU
10
448.200000
20
165.550000
30
0.000000
40
2.250000
0
CIRCLE
8
DRILL_4.5_THRU
10
448.200000
20
271.100000
30
0.000000
40
2.250000
0
CIRCLE
8
DRILL_4.5_THRU
10
448.200000
20
393.000000
30
0.000000
40
2.250000
0
CIRCLE
8
DRILL_4.5_THRU
10
448.200000
20
498.550000
30
0.000000
40
2.250000
0
CIRCLE
8
DRILL_4.5_THRU
10
448.200000
20
604.100000
30
0.000000
40
2.250000
0
CIRCLE
8
DRILL_4.5_THRU
10
18.900000
20
726.000000
30
0.000000
40
2.250000
0
CIRCLE
8
DRILL_4.5_THRU
10
18.900000
20
843.500000
30
0.000000
40
2.250000
0
CIRCLE
8
DRILL_4.5_THRU
10
18.900000
20
961.000000
30
0.000000
40
2.250000
0
CIRCLE
8
DRILL_4.5_THRU
10
701.100000
20
726.000000
30
0.000000
40
2.250000
0
CIRCLE
8
DRILL_4.5_THRU
10
701.100000
20
843.500000
30
0.000000
40
2.250000
0
CIRCLE
8
DRILL_4.5_THRU
10
701.100000
20
961.000000
30
0.000000
40
2.250000
0
CIRCLE
8
DRILL_4.5_THRU
10
102.800000
20
968.200000
30
0.000000
40
2.250000
0
CIRCLE
8
DRILL_4.5_THRU
10
52.800000
20
968.200000
30
0.000000
40
2.250000
0
CIRCLE
8
DRILL_5_D12
10
564.200000
20
713.000000
30
0.000000
40
2.500000
0
CIRCLE
8
DRILL_5_D12
10
564.200000
20
940.100000
30
0.000000
40
2.500000
0
CIRCLE
8
DRILL_5_D12
10
532.200000
20
713.000000
30
0.000000
40
2.500000
0
CIRCLE
8
DRILL_5_D12
10
532.200000
20
940.100000
30
0.000000
40
2.500000
0
CIRCLE
8
DRILL_5_D12
10
500.200000
20
713.000000
30
0.000000
40
2.500000
0
CIRCLE
8
DRILL_5_D12
10
500.200000
20
940.100000
30
0.000000
40
2.500000
0
CIRCLE
8
DRILL_5_D12
10
468.200000
20
713.000000
30
0.000000
40
2.500000
0
CIRCLE
8
DRILL_5_D12
10
468.200000
20
940.100000
30
0.000000
40
2.500000
0
CIRCLE
8
DRILL_5_D12
10
436.200000
20
713.000000
30
0.000000
40
2.500000
0
CIRCLE
8
DRILL_5_D12
10
436.200000
20
940.100000
30
0.000000
40
2.500000
0
CIRCLE
8
DRILL_5_D12
10
404.200000
20
713.000000
30
0.000000
40
2.500000
0
CIRCLE
8
DRILL_5_D12
10
404.200000
20
940.100000
30
0.000000
40
2.500000
0
CIRCLE
8
DRILL_5_D12
10
372.200000
20
713.000000
30
0.000000
40
2.500000
0
CIRCLE
8
DRILL_5_D12
10
372.200000
20
940.100000
30
0.000000
40
2.500000
0
CIRCLE
8
DRILL_5_D12
10
340.200000
20
713.000000
30
0.000000
40
2.500000
0
CIRCLE
8
DRILL_5_D12
10
340.200000
20
940.100000
30
0.000000
40
2.500000
0
CIRCLE
8
DRILL_5_D12
10
308.200000
20
713.000000
30
0.000000
40
2.500000
0
CIRCLE
8
DRILL_5_D12
10
308.200000
20
940.100000
30
0.000000
40
2.500000
0
CIRCLE
8
DRILL_5_D12
10
276.200000
20
713.000000
30
0.000000
40
2.500000
0
CIRCLE
8
DRILL_5_D12
10
276.200000
20
940.100000
30
0.000000
40
2.500000
0
CIRCLE
8
DRILL_5_D12
10
244.200000
20
713.000000
30
0.000000
40
2.500000
0
CIRCLE
8
DRILL_5_D12
10
244.200000
20
940.100000
30
0.000000
40
2.500000
0
CIRCLE
8
DRILL_5_D12
10
648.300000
20
713.000000
30
0.000000
40
2.500000
0
CIRCLE
8
DRILL_5_D12
10
616.300000
20
713.000000
30
0.000000
40
2.500000
0
CIRCLE
8
DRILL_5_D12
10
121.500000
20
713.000000
30
0.000000
40
2.500000
0
CIRCLE
8
DRILL_5_D12
10
89.500000
20
713.000000
30
0.000000
40
2.500000
0
CIRCLE
8
DRILL_5_D12_FLIP
10
917.600000
20
47.000000
30
0.000000
40
2.500000
0
CIRCLE
8
DRILL_5_D12_FLIP
10
917.600000
20
274.100000
30
0.000000
40
2.500000
0
CIRCLE
8
DRILL_5_D12_FLIP
10
949.600000
20
47.000000
30
0.000000
40
2.500000
0
CIRCLE
8
DRILL_5_D12_FLIP
10
949.600000
20
274.100000
30
0.000000
40
2.500000
0
CIRCLE
8
TILE_REG
10
980.000000
20
6.000000
30
0.000000
40
3.000000
0
CIRCLE
8
TILE_REG
10
980.000000
20
1214.000000
30
0.000000
40
3.000000
0
TEXT
8
LABEL
10
22.000000
20
22.000000
30
0.000000
40
8.000000
1
C2-B-BOTTOM
0
TEXT
8
LABEL
10
22.000000
20
355.000000
30
0.000000
40
8.000000
1
C2-B-TOP
0
TEXT
8
LABEL
10
698.000000
20
688.000000
30
0.000000
40
8.000000
1
C2-B-SIDE-L
0
ENDSEC
0
EOF
