0
SECTION
2
HEADER
9
$ACADVER
1
AC1009
9
$INSUNITS
70
4.000000
9
$MEASUREMENT
70
1.000000
0
ENDSEC
0
SECTION
2
TABLES
0
TABLE
2
LAYER
70
4.000000
0
LAYER
2
LABEL
70
0.000000
62
8.000000
6
CONTINUOUS
0
LAYER
2
OUTLINE
70
0.000000
62
7.000000
6
CONTINUOUS
0
LAYER
2
POCKET_D9.5_FLIP
70
0.000000
62
3.000000
6
CONTINUOUS
0
LAYER
2
SHEET
70
0.000000
62
8.000000
6
CONTINUOUS
0
ENDTAB
0
ENDSEC
0
SECTION
2
ENTITIES
0
POLYLINE
8
SHEET
66
1.000000
70
1.000000
10
0.000000
20
0.000000
30
0.000000
0
VERTEX
8
SHEET
10
0.000000
20
0.000000
30
0.000000
0
VERTEX
8
SHEET
10
2440.000000
20
0.000000
30
0.000000
0
VERTEX
8
SHEET
10
2440.000000
20
140.000000
30
0.000000
0
VERTEX
8
SHEET
10
0.000000
20
140.000000
30
0.000000
0
SEQEND
8
SHEET
0
POLYLINE
8
OUTLINE
66
1.000000
70
1.000000
10
0.000000
20
0.000000
30
0.000000
0
VERTEX
8
OUTLINE
10
0.000000
20
0.000000
30
0.000000
0
VERTEX
8
OUTLINE
10
900.000000
20
0.000000
30
0.000000
0
VERTEX
8
OUTLINE
10
900.000000
20
44.000000
30
0.000000
0
VERTEX
8
OUTLINE
10
0.000000
20
44.000000
30
0.000000
0
SEQEND
8
OUTLINE
0
POLYLINE
8
POCKET_D9.5_FLIP
66
1.000000
70
1.000000
10
0.000000
20
0.000000
30
0.000000
0
VERTEX
8
POCKET_D9.5_FLIP
10
1584.000000
20
0.000000
30
0.000000
0
VERTEX
8
POCKET_D9.5_FLIP
10
1540.000000
20
0.000000
30
0.000000
0
VERTEX
8
POCKET_D9.5_FLIP
10
1540.000000
20
44.000000
30
0.000000
0
VERTEX
8
POCKET_D9.5_FLIP
10
1584.000000
20
44.000000
30
0.000000
0
SEQEND
8
POCKET_D9.5_FLIP
0
POLYLINE
8
POCKET_D9.5_FLIP
66
1.000000
70
1.000000
10
0.000000
20
0.000000
30
0.000000
0
VERTEX
8
POCKET_D9.5_FLIP
10
2440.000000
20
0.000000
30
0.000000
0
VERTEX
8
POCKET_D9.5_FLIP
10
2396.000000
20
0.000000
30
0.000000
0
VERTEX
8
POCKET_D9.5_FLIP
10
2396.000000
20
44.000000
30
0.000000
0
VERTEX
8
POCKET_D9.5_FLIP
10
2440.000000
20
44.000000
30
0.000000
0
SEQEND
8
POCKET_D9.5_FLIP
0
POLYLINE
8
POCKET_D9.5_FLIP
66
1.000000
70
1.000000
10
0.000000
20
0.000000
30
0.000000
0
VERTEX
8
POCKET_D9.5_FLIP
10
2012.000000
20
0.000000
30
0.000000
0
VERTEX
8
POCKET_D9.5_FLIP
10
1968.000000
20
0.000000
30
0.000000
0
VERTEX
8
POCKET_D9.5_FLIP
10
1968.000000
20
44.000000
30
0.000000
0
VERTEX
8
POCKET_D9.5_FLIP
10
2012.000000
20
44.000000
30
0.000000
0
SEQEND
8
POCKET_D9.5_FLIP
0
POLYLINE
8
OUTLINE
66
1.000000
70
1.000000
10
0.000000
20
0.000000
30
0.000000
0
VERTEX
8
OUTLINE
10
908.000000
20
0.000000
30
0.000000
0
VERTEX
8
OUTLINE
10
1808.000000
20
0.000000
30
0.000000
0
VERTEX
8
OUTLINE
10
1808.000000
20
44.000000
30
0.000000
0
VERTEX
8
OUTLINE
10
908.000000
20
44.000000
30
0.000000
0
SEQEND
8
OUTLINE
0
POLYLINE
8
POCKET_D9.5_FLIP
66
1.000000
70
1.000000
10
0.000000
20
0.000000
30
0.000000
0
VERTEX
8
POCKET_D9.5_FLIP
10
676.000000
20
0.000000
30
0.000000
0
VERTEX
8
POCKET_D9.5_FLIP
10
632.000000
20
0.000000
30
0.000000
0
VERTEX
8
POCKET_D9.5_FLIP
10
632.000000
20
44.000000
30
0.000000
0
VERTEX
8
POCKET_D9.5_FLIP
10
676.000000
20
44.000000
30
0.000000
0
SEQEND
8
POCKET_D9.5_FLIP
0
POLYLINE
8
POCKET_D9.5_FLIP
66
1.000000
70
1.000000
10
0.000000
20
0.000000
30
0.000000
0
VERTEX
8
POCKET_D9.5_FLIP
10
1532.000000
20
0.000000
30
0.000000
0
VERTEX
8
POCKET_D9.5_FLIP
10
1488.000000
20
0.000000
30
0.000000
0
VERTEX
8
POCKET_D9.5_FLIP
10
1488.000000
20
44.000000
30
0.000000
0
VERTEX
8
POCKET_D9.5_FLIP
10
1532.000000
20
44.000000
30
0.000000
0
SEQEND
8
POCKET_D9.5_FLIP
0
POLYLINE
8
POCKET_D9.5_FLIP
66
1.000000
70
1.000000
10
0.000000
20
0.000000
30
0.000000
0
VERTEX
8
POCKET_D9.5_FLIP
10
1104.000000
20
0.000000
30
0.000000
0
VERTEX
8
POCKET_D9.5_FLIP
10
1060.000000
20
0.000000
30
0.000000
0
VERTEX
8
POCKET_D9.5_FLIP
10
1060.000000
20
44.000000
30
0.000000
0
VERTEX
8
POCKET_D9.5_FLIP
10
1104.000000
20
44.000000
30
0.000000
0
SEQEND
8
POCKET_D9.5_FLIP
0
TEXT
8
LABEL
10
12.000000
20
12.000000
30
0.000000
40
8.000000
1
C1-B-RAIL-BOTTOM
0
TEXT
8
LABEL
10
920.000000
20
12.000000
30
0.000000
40
8.000000
1
C1-B-RAIL-TOP
0
ENDSEC
0
EOF
